%TF.GenerationSoftware,KiCad,Pcbnew,9.0.0*%
%TF.CreationDate,2026-01-05T19:47:58-08:00*%
%TF.ProjectId,ref_mic,7265665f-6d69-4632-9e6b-696361645f70,rev?*%
%TF.SameCoordinates,Original*%
%TF.FileFunction,Copper,L1,Top*%
%TF.FilePolarity,Positive*%
%FSLAX46Y46*%
G04 Gerber Fmt 4.6, Leading zero omitted, Abs format (unit mm)*
G04 Created by KiCad (PCBNEW 9.0.0) date 2026-01-05 19:47:58*
%MOMM*%
%LPD*%
G01*
G04 APERTURE LIST*
G04 Aperture macros list*
%AMRoundRect*
0 Rectangle with rounded corners*
0 $1 Rounding radius*
0 $2 $3 $4 $5 $6 $7 $8 $9 X,Y pos of 4 corners*
0 Add a 4 corners polygon primitive as box body*
4,1,4,$2,$3,$4,$5,$6,$7,$8,$9,$2,$3,0*
0 Add four circle primitives for the rounded corners*
1,1,$1+$1,$2,$3*
1,1,$1+$1,$4,$5*
1,1,$1+$1,$6,$7*
1,1,$1+$1,$8,$9*
0 Add four rect primitives between the rounded corners*
20,1,$1+$1,$2,$3,$4,$5,0*
20,1,$1+$1,$4,$5,$6,$7,0*
20,1,$1+$1,$6,$7,$8,$9,0*
20,1,$1+$1,$8,$9,$2,$3,0*%
G04 Aperture macros list end*
%TA.AperFunction,SMDPad,CuDef*%
%ADD10RoundRect,0.250000X1.500000X0.550000X-1.500000X0.550000X-1.500000X-0.550000X1.500000X-0.550000X0*%
%TD*%
%TA.AperFunction,SMDPad,CuDef*%
%ADD11R,1.193800X1.397000*%
%TD*%
%TA.AperFunction,SMDPad,CuDef*%
%ADD12RoundRect,0.225000X-1.775000X-0.525000X1.775000X-0.525000X1.775000X0.525000X-1.775000X0.525000X0*%
%TD*%
%TA.AperFunction,SMDPad,CuDef*%
%ADD13RoundRect,0.135000X0.185000X-0.135000X0.185000X0.135000X-0.185000X0.135000X-0.185000X-0.135000X0*%
%TD*%
%TA.AperFunction,SMDPad,CuDef*%
%ADD14RoundRect,0.250000X0.550000X-1.050000X0.550000X1.050000X-0.550000X1.050000X-0.550000X-1.050000X0*%
%TD*%
%TA.AperFunction,ComponentPad*%
%ADD15R,1.700000X1.700000*%
%TD*%
%TA.AperFunction,ComponentPad*%
%ADD16O,1.700000X1.700000*%
%TD*%
%TA.AperFunction,ViaPad*%
%ADD17C,3.400000*%
%TD*%
%TA.AperFunction,ViaPad*%
%ADD18C,0.450000*%
%TD*%
%TA.AperFunction,Conductor*%
%ADD19C,0.250000*%
%TD*%
%TA.AperFunction,Conductor*%
%ADD20C,0.200000*%
%TD*%
G04 APERTURE END LIST*
D10*
%TO.P,C9,1*%
%TO.N,Net-(C9-Pad1)*%
X136600000Y-101300000D03*
%TO.P,C9,2*%
%TO.N,/OUT+*%
X131200000Y-101300000D03*
%TD*%
%TO.P,C10,1*%
%TO.N,Net-(C10-Pad1)*%
X127200000Y-101300000D03*
%TO.P,C10,2*%
%TO.N,/OUT-*%
X121800000Y-101300000D03*
%TD*%
D11*
%TO.P,S1,1,A*%
%TO.N,/PREAMP_OUT*%
X140560000Y-103498101D03*
%TO.P,S1,2,B*%
%TO.N,/OUT+*%
X143100000Y-99098102D03*
%TO.P,S1,3,C*%
%TO.N,/MIX_OUT*%
X145640000Y-103498101D03*
%TD*%
D12*
%TO.P,J2,1*%
%TO.N,GND*%
X149800000Y-102900000D03*
%TO.P,J2,3*%
%TO.N,/XLR3(-)*%
X149800000Y-99700000D03*
%TD*%
D13*
%TO.P,R1,1*%
%TO.N,MICBIAS*%
X96900000Y-100510000D03*
%TO.P,R1,2*%
%TO.N,/MIC+*%
X96900000Y-99490000D03*
%TD*%
D14*
%TO.P,C1,1*%
%TO.N,Net-(C1-Pad1)*%
X112600000Y-103100000D03*
%TO.P,C1,2*%
%TO.N,/MIC+*%
X112600000Y-99500000D03*
%TD*%
%TO.P,C7,1*%
%TO.N,Net-(C7-Pad1)*%
X107800000Y-103100000D03*
%TO.P,C7,2*%
%TO.N,GND*%
X107800000Y-99500000D03*
%TD*%
%TO.P,C2,1*%
%TO.N,Net-(C1-Pad1)*%
X117400000Y-103100000D03*
%TO.P,C2,2*%
%TO.N,/PREAMP_IN*%
X117400000Y-99500000D03*
%TD*%
D15*
%TO.P,MK1,1,-*%
%TO.N,GND*%
X93800000Y-100000000D03*
D16*
%TO.P,MK1,2,+*%
%TO.N,/MIC+*%
X93800000Y-102540000D03*
%TD*%
D15*
%TO.P,J1,1,Pin_1*%
%TO.N,MICBIAS*%
X96400000Y-102500000D03*
%TD*%
D17*
%TO.N,*%
X101100000Y-101300000D03*
D18*
%TO.N,GND*%
X123700000Y-104400000D03*
X113825000Y-102200000D03*
X108900000Y-100725000D03*
X133900000Y-102400000D03*
X106575000Y-102451076D03*
X137850000Y-102550000D03*
X137200000Y-102700000D03*
X138500000Y-100100000D03*
X133100000Y-102800000D03*
X149800000Y-104000000D03*
%TO.N,Net-(C7-Pad1)*%
X105800000Y-104500000D03*
%TO.N,/XLR3(-)*%
X150945000Y-98548142D03*
%TO.N,/PREAMP_IN*%
X110800000Y-102600000D03*
X105000000Y-103000000D03*
%TO.N,/PREAMP_OUT*%
X139300000Y-103500000D03*
X119300000Y-103400000D03*
X115700000Y-101500000D03*
%TO.N,AMP_VDD*%
X144600000Y-98400000D03*
X124725000Y-98325000D03*
X147900000Y-98400000D03*
X113000000Y-97700000D03*
%TO.N,Net-(C9-Pad1)*%
X143400000Y-101000000D03*
%TO.N,/OUT+*%
X140600000Y-99600000D03*
%TO.N,/OUT-*%
X121200000Y-104400000D03*
%TO.N,Net-(C10-Pad1)*%
X149800000Y-97800000D03*
%TO.N,VGND*%
X104500000Y-104200000D03*
X131800000Y-98900000D03*
X129500000Y-98900000D03*
X120600000Y-99400000D03*
X114417341Y-102550000D03*
X133900000Y-100200000D03*
X142499834Y-100221591D03*
X113825000Y-100200000D03*
X105700000Y-101000000D03*
%TO.N,MICBIAS*%
X134400000Y-103000000D03*
%TO.N,/HP_OUT*%
X109866025Y-100133975D03*
X111536345Y-100993791D03*
%TO.N,/MIX_OUT*%
X144300000Y-103500000D03*
%TD*%
D19*
%TO.N,/PREAMP_IN*%
X115800000Y-99500000D02*
X113826000Y-101474000D01*
X117400000Y-99500000D02*
X115800000Y-99500000D01*
X111195768Y-101600000D02*
X110800000Y-101995768D01*
X113826000Y-101474000D02*
X111804486Y-101474000D01*
X111804486Y-101474000D02*
X111678486Y-101600000D01*
X111678486Y-101600000D02*
X111195768Y-101600000D01*
%TO.N,GND*%
X107800000Y-99625000D02*
X108900000Y-100725000D01*
X149800000Y-102900000D02*
X149800000Y-104000000D01*
X107800000Y-99500000D02*
X107800000Y-99625000D01*
%TO.N,Net-(C7-Pad1)*%
X105800000Y-104500000D02*
X106400000Y-104500000D01*
X106400000Y-104500000D02*
X107800000Y-103100000D01*
%TO.N,/XLR3(-)*%
X150945000Y-98755000D02*
X150000000Y-99700000D01*
X150945000Y-98548142D02*
X150945000Y-98755000D01*
X150000000Y-99700000D02*
X149800000Y-99700000D01*
%TO.N,/MIC+*%
X97810000Y-99490000D02*
X96100000Y-99490000D01*
X99500000Y-97800000D02*
X97810000Y-99490000D01*
X96100000Y-99490000D02*
X95500000Y-100090000D01*
X110900000Y-97800000D02*
X99500000Y-97800000D01*
X112600000Y-99500000D02*
X110900000Y-97800000D01*
X95500000Y-100090000D02*
X95500000Y-100840000D01*
X95500000Y-100840000D02*
X93800000Y-102540000D01*
%TO.N,Net-(C1-Pad1)*%
X112600000Y-103100000D02*
X117400000Y-103100000D01*
%TO.N,/PREAMP_IN*%
X107000000Y-101400000D02*
X106600000Y-101400000D01*
X106600000Y-101400000D02*
X105000000Y-103000000D01*
X110204232Y-101400000D02*
X107000000Y-101400000D01*
X110800000Y-102600000D02*
X110800000Y-101995768D01*
X110800000Y-101995768D02*
X110204232Y-101400000D01*
%TO.N,/PREAMP_OUT*%
X116160326Y-101500000D02*
X116260326Y-101400000D01*
X116260326Y-101400000D02*
X118121514Y-101400000D01*
X140558101Y-103500000D02*
X140560000Y-103498101D01*
X119300000Y-102578486D02*
X119300000Y-103400000D01*
X115700000Y-101500000D02*
X116160326Y-101500000D01*
X139300000Y-103500000D02*
X140558101Y-103500000D01*
X118121514Y-101400000D02*
X119300000Y-102578486D01*
%TO.N,AMP_VDD*%
X144600000Y-98400000D02*
X144700000Y-98400000D01*
X124725000Y-98325000D02*
X124100000Y-97700000D01*
X124100000Y-97700000D02*
X113000000Y-97700000D01*
X147900000Y-98400000D02*
X144600000Y-98400000D01*
%TO.N,Net-(C9-Pad1)*%
X140500000Y-100400000D02*
X139300000Y-100400000D01*
X138500000Y-101200000D02*
X136600000Y-101200000D01*
X143400000Y-101000000D02*
X141100000Y-101000000D01*
X141100000Y-101000000D02*
X140500000Y-100400000D01*
X139300000Y-100400000D02*
X138500000Y-101200000D01*
%TO.N,/OUT+*%
X133301898Y-99098102D02*
X140600000Y-99098102D01*
X140600000Y-99600000D02*
X140600000Y-99098102D01*
X131200000Y-101200000D02*
X133301898Y-99098102D01*
X140600000Y-99098102D02*
X143100000Y-99098102D01*
D20*
%TO.N,/OUT-*%
X121800000Y-101300000D02*
X121200000Y-101900000D01*
D19*
X122700000Y-101300000D02*
X121800001Y-101300000D01*
D20*
X121200000Y-101900000D02*
X121200000Y-104400000D01*
D19*
%TO.N,Net-(C10-Pad1)*%
X149800000Y-97800000D02*
X130300000Y-97800000D01*
X128900000Y-97800000D02*
X130300000Y-97800000D01*
X127200000Y-101300000D02*
X127200000Y-99500000D01*
X127200000Y-99500000D02*
X128900000Y-97800000D01*
%TO.N,MICBIAS*%
X96500000Y-102400000D02*
X96400000Y-102500000D01*
X96400000Y-101010000D02*
X96900000Y-100510000D01*
X96400000Y-102500000D02*
X96400000Y-101010000D01*
X132349000Y-105051000D02*
X99751000Y-105051000D01*
X134400000Y-103000000D02*
X132349000Y-105051000D01*
X97200000Y-102500000D02*
X96400000Y-102500000D01*
X99751000Y-105051000D02*
X97200000Y-102500000D01*
%TO.N,/HP_OUT*%
X110676529Y-100133975D02*
X111536345Y-100993791D01*
X109866025Y-100133975D02*
X110676529Y-100133975D01*
%TO.N,/MIX_OUT*%
X144300000Y-103500000D02*
X144600000Y-103500000D01*
X144600000Y-103500000D02*
X144601899Y-103498101D01*
X144601899Y-103498101D02*
X145640000Y-103498101D01*
%TD*%
M02*
