%TF.GenerationSoftware,KiCad,Pcbnew,(6.0.4)*%
%TF.CreationDate,2022-05-07T21:28:23-07:00*%
%TF.ProjectId,ref_mic,7265665f-6d69-4632-9e6b-696361645f70,rev?*%
%TF.SameCoordinates,Original*%
%TF.FileFunction,Copper,L1,Top*%
%TF.FilePolarity,Positive*%
%FSLAX46Y46*%
G04 Gerber Fmt 4.6, Leading zero omitted, Abs format (unit mm)*
G04 Created by KiCad (PCBNEW (6.0.4)) date 2022-05-07 21:28:23*
%MOMM*%
%LPD*%
G01*
G04 APERTURE LIST*
G04 Aperture macros list*
%AMRoundRect*
0 Rectangle with rounded corners*
0 $1 Rounding radius*
0 $2 $3 $4 $5 $6 $7 $8 $9 X,Y pos of 4 corners*
0 Add a 4 corners polygon primitive as box body*
4,1,4,$2,$3,$4,$5,$6,$7,$8,$9,$2,$3,0*
0 Add four circle primitives for the rounded corners*
1,1,$1+$1,$2,$3*
1,1,$1+$1,$4,$5*
1,1,$1+$1,$6,$7*
1,1,$1+$1,$8,$9*
0 Add four rect primitives between the rounded corners*
20,1,$1+$1,$2,$3,$4,$5,0*
20,1,$1+$1,$4,$5,$6,$7,0*
20,1,$1+$1,$6,$7,$8,$9,0*
20,1,$1+$1,$8,$9,$2,$3,0*%
G04 Aperture macros list end*
%TA.AperFunction,SMDPad,CuDef*%
%ADD10RoundRect,0.250000X-0.550000X1.500000X-0.550000X-1.500000X0.550000X-1.500000X0.550000X1.500000X0*%
%TD*%
%TA.AperFunction,SMDPad,CuDef*%
%ADD11RoundRect,0.250000X-0.550000X1.250000X-0.550000X-1.250000X0.550000X-1.250000X0.550000X1.250000X0*%
%TD*%
%TA.AperFunction,ComponentPad*%
%ADD12O,1.700000X1.700000*%
%TD*%
%TA.AperFunction,ComponentPad*%
%ADD13R,1.700000X1.700000*%
%TD*%
%TA.AperFunction,SMDPad,CuDef*%
%ADD14RoundRect,0.250000X0.550000X-1.250000X0.550000X1.250000X-0.550000X1.250000X-0.550000X-1.250000X0*%
%TD*%
%TA.AperFunction,ViaPad*%
%ADD15C,0.800000*%
%TD*%
%TA.AperFunction,Conductor*%
%ADD16C,0.250000*%
%TD*%
%TA.AperFunction,Conductor*%
%ADD17C,0.200000*%
%TD*%
G04 APERTURE END LIST*
D10*
%TO.P,C5,2*%
%TO.N,/Opamp_Out*%
X151765000Y-113190000D03*
%TO.P,C5,1*%
%TO.N,Net-(C5-Pad1)*%
X151765000Y-107790000D03*
%TD*%
D11*
%TO.P,C2,2*%
%TO.N,/Mic+*%
X138430000Y-112690000D03*
%TO.P,C2,1*%
%TO.N,/Opamp_In+*%
X138430000Y-108290000D03*
%TD*%
D10*
%TO.P,C7,2*%
%TO.N,GND*%
X167005000Y-113190000D03*
%TO.P,C7,1*%
%TO.N,Net-(C7-Pad1)*%
X167005000Y-107790000D03*
%TD*%
D12*
%TO.P,XLR,3*%
%TO.N,/XLR3(-)*%
X180340000Y-107950000D03*
%TO.P,XLR,2*%
%TO.N,/XLR2(+)*%
X180340000Y-110490000D03*
D13*
%TO.P,XLR,1*%
%TO.N,GND*%
X180340000Y-113030000D03*
%TD*%
D14*
%TO.P,C3,2*%
%TO.N,GND*%
X144780000Y-108290000D03*
%TO.P,C3,1*%
%TO.N,Net-(C3-Pad1)*%
X144780000Y-112690000D03*
%TD*%
D10*
%TO.P,C6,2*%
%TO.N,/Opamp_Out*%
X159385000Y-113190000D03*
%TO.P,C6,1*%
%TO.N,Net-(C5-Pad1)*%
X159385000Y-107790000D03*
%TD*%
D12*
%TO.P,MIC,2,+*%
%TO.N,/Mic+*%
X133350000Y-111760000D03*
D13*
%TO.P,MIC,1,-*%
%TO.N,GND*%
X133350000Y-109220000D03*
%TD*%
D10*
%TO.P,C8,2*%
%TO.N,GND*%
X174625000Y-113182400D03*
%TO.P,C8,1*%
%TO.N,Net-(C7-Pad1)*%
X174625000Y-107782400D03*
%TD*%
D15*
%TO.N,GND*%
X165100000Y-111214500D03*
%TO.N,Net-(C7-Pad1)*%
X177165000Y-111035500D03*
%TO.N,Net-(C5-Pad1)*%
X160930498Y-107315000D03*
%TO.N,/XLR2(+)*%
X160930498Y-108359376D03*
%TO.N,/Opamp_In+*%
X148983271Y-111214500D03*
%TO.N,/VGND*%
X168910000Y-111710498D03*
X168910000Y-113438677D03*
%TO.N,GND*%
X142240000Y-108634502D03*
X146685000Y-109765500D03*
%TO.N,Net-(C3-Pad1)*%
X148590000Y-113030000D03*
%TO.N,/XLR2(+)*%
X153035000Y-109855000D03*
%TO.N,GND*%
X156009123Y-110663782D03*
%TO.N,/Opamp_Out*%
X162560000Y-113825000D03*
X158053286Y-111035500D03*
%TD*%
D16*
%TO.N,/XLR2(+)*%
X153115000Y-109775000D02*
X153035000Y-109855000D01*
X158507507Y-109775000D02*
X153115000Y-109775000D01*
X175100000Y-110490000D02*
X159222507Y-110490000D01*
X176370000Y-111760000D02*
X175100000Y-110490000D01*
X180340000Y-110490000D02*
X179070000Y-111760000D01*
X179070000Y-111760000D02*
X176370000Y-111760000D01*
X159222507Y-110490000D02*
X158507507Y-109775000D01*
%TO.N,GND*%
X164930480Y-111115480D02*
X167005000Y-113190000D01*
X159157880Y-111115480D02*
X164930480Y-111115480D01*
X158353389Y-110310989D02*
X159157880Y-111115480D01*
X156009123Y-110663782D02*
X156361916Y-110310989D01*
X156361916Y-110310989D02*
X158353389Y-110310989D01*
%TO.N,/Opamp_Out*%
X161925000Y-113190000D02*
X159385000Y-113190000D01*
X162560000Y-113825000D02*
X161925000Y-113190000D01*
%TO.N,/XLR2(+)*%
X160930498Y-108359376D02*
X160930498Y-110490000D01*
%TO.N,/Opamp_Out*%
X159385000Y-112367214D02*
X159385000Y-113190000D01*
X158053286Y-111035500D02*
X159385000Y-112367214D01*
%TO.N,/Mic+*%
X135890000Y-111760000D02*
X133350000Y-111760000D01*
X136820000Y-112690000D02*
X135890000Y-111760000D01*
X138430000Y-112690000D02*
X136820000Y-112690000D01*
D17*
%TO.N,/Opamp_In+*%
X148258771Y-110490000D02*
X139847500Y-110490000D01*
X138430000Y-109072500D02*
X138430000Y-108290000D01*
X148983271Y-111214500D02*
X148258771Y-110490000D01*
X139847500Y-110490000D02*
X138430000Y-109072500D01*
D16*
%TO.N,GND*%
X144435498Y-108634502D02*
X144780000Y-108290000D01*
X142240000Y-108634502D02*
X144435498Y-108634502D01*
X145755000Y-108290000D02*
X144780000Y-108290000D01*
X146685000Y-109220000D02*
X145755000Y-108290000D01*
X146685000Y-109765500D02*
X146685000Y-109220000D01*
%TO.N,Net-(C3-Pad1)*%
X148590000Y-113030000D02*
X145415000Y-113030000D01*
%TO.N,/Opamp_Out*%
X159385000Y-113190000D02*
X151765000Y-113190000D01*
%TO.N,Net-(C5-Pad1)*%
X159385000Y-107790000D02*
X151765000Y-107790000D01*
X159385000Y-107315000D02*
X160930498Y-107315000D01*
X159385000Y-107790000D02*
X159385000Y-107315000D01*
%TO.N,GND*%
X167005000Y-112395000D02*
X165824500Y-111214500D01*
X165824500Y-111214500D02*
X165100000Y-111214500D01*
X174625000Y-114300000D02*
X166370000Y-114300000D01*
X174625000Y-113182400D02*
X174625000Y-114300000D01*
%TO.N,Net-(C7-Pad1)*%
X174625000Y-108699000D02*
X174625000Y-107950000D01*
X176961500Y-111035500D02*
X174625000Y-108699000D01*
X174625000Y-107950000D02*
X167005000Y-107950000D01*
X177165000Y-111035500D02*
X176961500Y-111035500D01*
%TO.N,/VGND*%
X168910000Y-113438677D02*
X168910000Y-111710498D01*
%TO.N,GND*%
X180340000Y-113030000D02*
X174777400Y-113030000D01*
%TD*%
M02*
