%TF.GenerationSoftware,KiCad,Pcbnew,9.0.0*%
%TF.CreationDate,2026-01-05T19:47:58-08:00*%
%TF.ProjectId,ref_mic,7265665f-6d69-4632-9e6b-696361645f70,rev?*%
%TF.SameCoordinates,Original*%
%TF.FileFunction,Paste,Bot*%
%TF.FilePolarity,Positive*%
%FSLAX46Y46*%
G04 Gerber Fmt 4.6, Leading zero omitted, Abs format (unit mm)*
G04 Created by KiCad (PCBNEW 9.0.0) date 2026-01-05 19:47:58*
%MOMM*%
%LPD*%
G01*
G04 APERTURE LIST*
G04 Aperture macros list*
%AMRoundRect*
0 Rectangle with rounded corners*
0 $1 Rounding radius*
0 $2 $3 $4 $5 $6 $7 $8 $9 X,Y pos of 4 corners*
0 Add a 4 corners polygon primitive as box body*
4,1,4,$2,$3,$4,$5,$6,$7,$8,$9,$2,$3,0*
0 Add four circle primitives for the rounded corners*
1,1,$1+$1,$2,$3*
1,1,$1+$1,$4,$5*
1,1,$1+$1,$6,$7*
1,1,$1+$1,$8,$9*
0 Add four rect primitives between the rounded corners*
20,1,$1+$1,$2,$3,$4,$5,0*
20,1,$1+$1,$4,$5,$6,$7,0*
20,1,$1+$1,$6,$7,$8,$9,0*
20,1,$1+$1,$8,$9,$2,$3,0*%
G04 Aperture macros list end*
%ADD10RoundRect,0.225000X-1.775000X-0.525000X1.775000X-0.525000X1.775000X0.525000X-1.775000X0.525000X0*%
%ADD11RoundRect,0.135000X-0.135000X-0.185000X0.135000X-0.185000X0.135000X0.185000X-0.135000X0.185000X0*%
%ADD12RoundRect,0.250000X-0.650000X0.325000X-0.650000X-0.325000X0.650000X-0.325000X0.650000X0.325000X0*%
%ADD13RoundRect,0.135000X-0.185000X0.135000X-0.185000X-0.135000X0.185000X-0.135000X0.185000X0.135000X0*%
%ADD14RoundRect,0.135000X0.135000X0.185000X-0.135000X0.185000X-0.135000X-0.185000X0.135000X-0.185000X0*%
%ADD15RoundRect,0.150000X-0.150000X0.825000X-0.150000X-0.825000X0.150000X-0.825000X0.150000X0.825000X0*%
%ADD16RoundRect,0.150000X0.200000X-0.150000X0.200000X0.150000X-0.200000X0.150000X-0.200000X-0.150000X0*%
%ADD17RoundRect,0.250000X0.650000X-0.325000X0.650000X0.325000X-0.650000X0.325000X-0.650000X-0.325000X0*%
%ADD18RoundRect,0.140000X0.170000X-0.140000X0.170000X0.140000X-0.170000X0.140000X-0.170000X-0.140000X0*%
%ADD19RoundRect,0.140000X-0.140000X-0.170000X0.140000X-0.170000X0.140000X0.170000X-0.140000X0.170000X0*%
%ADD20RoundRect,0.150000X-0.200000X0.150000X-0.200000X-0.150000X0.200000X-0.150000X0.200000X0.150000X0*%
%ADD21RoundRect,0.135000X0.185000X-0.135000X0.185000X0.135000X-0.185000X0.135000X-0.185000X-0.135000X0*%
%ADD22RoundRect,0.140000X-0.170000X0.140000X-0.170000X-0.140000X0.170000X-0.140000X0.170000X0.140000X0*%
G04 APERTURE END LIST*
D10*
%TO.C,J2*%
X149800000Y-101300000D03*
%TD*%
D11*
%TO.C,R13*%
X117590000Y-104400000D03*
X118610000Y-104400000D03*
%TD*%
D12*
%TO.C,C12*%
X131800000Y-99825000D03*
X131800000Y-102775000D03*
%TD*%
D13*
%TO.C,R17*%
X150200000Y-98440000D03*
X150200000Y-99460000D03*
%TD*%
D14*
%TO.C,R10*%
X118610000Y-103400000D03*
X117590000Y-103400000D03*
%TD*%
D15*
%TO.C,U1*%
X108690000Y-98825000D03*
X109960000Y-98825000D03*
X111230000Y-98825000D03*
X112500000Y-98825000D03*
X113770000Y-98825000D03*
X115040000Y-98825000D03*
X116310000Y-98825000D03*
X116310000Y-103775000D03*
X115040000Y-103775000D03*
X113770000Y-103775000D03*
X112500000Y-103775000D03*
X111230000Y-103775000D03*
X109960000Y-103775000D03*
X108690000Y-103775000D03*
%TD*%
D16*
%TO.C,D1*%
X141300000Y-98400000D03*
X141300000Y-99800000D03*
%TD*%
D14*
%TO.C,R6*%
X118610000Y-98400000D03*
X117590000Y-98400000D03*
%TD*%
D16*
%TO.C,D3*%
X137900000Y-99400000D03*
X137900000Y-100800000D03*
%TD*%
D12*
%TO.C,C13*%
X135900000Y-99825000D03*
X135900000Y-102775000D03*
%TD*%
D13*
%TO.C,R4*%
X106400000Y-99990000D03*
X106400000Y-101010000D03*
%TD*%
D17*
%TO.C,C11*%
X129450000Y-102775000D03*
X129450000Y-99825000D03*
%TD*%
D18*
%TO.C,C6*%
X119600000Y-99080000D03*
X119600000Y-98120000D03*
%TD*%
D13*
%TO.C,R11*%
X117600000Y-101390000D03*
X117600000Y-102410000D03*
%TD*%
D11*
%TO.C,R5*%
X106390000Y-98000000D03*
X107410000Y-98000000D03*
%TD*%
D13*
%TO.C,R7*%
X105000000Y-103590000D03*
X105000000Y-104610000D03*
%TD*%
D19*
%TO.C,C3*%
X105420000Y-99000000D03*
X106380000Y-99000000D03*
%TD*%
D11*
%TO.C,R15*%
X121890000Y-104400000D03*
X122910000Y-104400000D03*
%TD*%
D14*
%TO.C,R9*%
X107410000Y-103500000D03*
X106390000Y-103500000D03*
%TD*%
D13*
%TO.C,R23*%
X146700000Y-98390000D03*
X146700000Y-99410000D03*
%TD*%
D11*
%TO.C,R3*%
X119590000Y-100100000D03*
X120610000Y-100100000D03*
%TD*%
D20*
%TO.C,D2*%
X137900000Y-103300000D03*
X137900000Y-101900000D03*
%TD*%
D14*
%TO.C,R8*%
X107410000Y-104500000D03*
X106390000Y-104500000D03*
%TD*%
D13*
%TO.C,R22*%
X145500000Y-98390000D03*
X145500000Y-99410000D03*
%TD*%
D21*
%TO.C,R19*%
X143600000Y-99410000D03*
X143600000Y-98390000D03*
%TD*%
D11*
%TO.C,R14*%
X119590000Y-104400000D03*
X120610000Y-104400000D03*
%TD*%
D21*
%TO.C,R21*%
X148600000Y-99410000D03*
X148600000Y-98390000D03*
%TD*%
%TO.C,R2*%
X119600000Y-102410000D03*
X119600000Y-101390000D03*
%TD*%
D19*
%TO.C,C5*%
X117620000Y-99500000D03*
X118580000Y-99500000D03*
%TD*%
D11*
%TO.C,R16*%
X144490000Y-100500000D03*
X145510000Y-100500000D03*
%TD*%
D22*
%TO.C,C8*%
X107400000Y-101120000D03*
X107400000Y-102080000D03*
%TD*%
%TO.C,C4*%
X107400000Y-99020000D03*
X107400000Y-99980000D03*
%TD*%
D13*
%TO.C,R20*%
X133900000Y-100790000D03*
X133900000Y-101810000D03*
%TD*%
%TO.C,R12*%
X118600000Y-101390000D03*
X118600000Y-102410000D03*
%TD*%
%TO.C,R18*%
X142500000Y-98390000D03*
X142500000Y-99410000D03*
%TD*%
M02*
