%TF.GenerationSoftware,KiCad,Pcbnew,(6.0.4)*%
%TF.CreationDate,2022-05-07T21:28:23-07:00*%
%TF.ProjectId,ref_mic,7265665f-6d69-4632-9e6b-696361645f70,rev?*%
%TF.SameCoordinates,Original*%
%TF.FileFunction,Legend,Top*%
%TF.FilePolarity,Positive*%
%FSLAX46Y46*%
G04 Gerber Fmt 4.6, Leading zero omitted, Abs format (unit mm)*
G04 Created by KiCad (PCBNEW (6.0.4)) date 2022-05-07 21:28:23*
%MOMM*%
%LPD*%
G01*
G04 APERTURE LIST*
%ADD10C,0.150000*%
%ADD11C,0.120000*%
G04 APERTURE END LIST*
D10*
%TO.C,C5*%
X154662142Y-109386666D02*
X154709761Y-109434285D01*
X154757380Y-109577142D01*
X154757380Y-109672380D01*
X154709761Y-109815238D01*
X154614523Y-109910476D01*
X154519285Y-109958095D01*
X154328809Y-110005714D01*
X154185952Y-110005714D01*
X153995476Y-109958095D01*
X153900238Y-109910476D01*
X153805000Y-109815238D01*
X153757380Y-109672380D01*
X153757380Y-109577142D01*
X153805000Y-109434285D01*
X153852619Y-109386666D01*
X153757380Y-108481904D02*
X153757380Y-108958095D01*
X154233571Y-109005714D01*
X154185952Y-108958095D01*
X154138333Y-108862857D01*
X154138333Y-108624761D01*
X154185952Y-108529523D01*
X154233571Y-108481904D01*
X154328809Y-108434285D01*
X154566904Y-108434285D01*
X154662142Y-108481904D01*
X154709761Y-108529523D01*
X154757380Y-108624761D01*
X154757380Y-108862857D01*
X154709761Y-108958095D01*
X154662142Y-109005714D01*
%TO.C,C2*%
X143232142Y-110656666D02*
X143279761Y-110704285D01*
X143327380Y-110847142D01*
X143327380Y-110942380D01*
X143279761Y-111085238D01*
X143184523Y-111180476D01*
X143089285Y-111228095D01*
X142898809Y-111275714D01*
X142755952Y-111275714D01*
X142565476Y-111228095D01*
X142470238Y-111180476D01*
X142375000Y-111085238D01*
X142327380Y-110942380D01*
X142327380Y-110847142D01*
X142375000Y-110704285D01*
X142422619Y-110656666D01*
X142422619Y-110275714D02*
X142375000Y-110228095D01*
X142327380Y-110132857D01*
X142327380Y-109894761D01*
X142375000Y-109799523D01*
X142422619Y-109751904D01*
X142517857Y-109704285D01*
X142613095Y-109704285D01*
X142755952Y-109751904D01*
X143327380Y-110323333D01*
X143327380Y-109704285D01*
%TO.C,C7*%
X169267142Y-110021666D02*
X169314761Y-110069285D01*
X169362380Y-110212142D01*
X169362380Y-110307380D01*
X169314761Y-110450238D01*
X169219523Y-110545476D01*
X169124285Y-110593095D01*
X168933809Y-110640714D01*
X168790952Y-110640714D01*
X168600476Y-110593095D01*
X168505238Y-110545476D01*
X168410000Y-110450238D01*
X168362380Y-110307380D01*
X168362380Y-110212142D01*
X168410000Y-110069285D01*
X168457619Y-110021666D01*
X168362380Y-109688333D02*
X168362380Y-109021666D01*
X169362380Y-109450238D01*
%TO.C,XLR*%
X177577904Y-114260380D02*
X178244571Y-115260380D01*
X178244571Y-114260380D02*
X177577904Y-115260380D01*
X179101714Y-115260380D02*
X178625523Y-115260380D01*
X178625523Y-114260380D01*
X180006476Y-115260380D02*
X179673142Y-114784190D01*
X179435047Y-115260380D02*
X179435047Y-114260380D01*
X179816000Y-114260380D01*
X179911238Y-114308000D01*
X179958857Y-114355619D01*
X180006476Y-114450857D01*
X180006476Y-114593714D01*
X179958857Y-114688952D01*
X179911238Y-114736571D01*
X179816000Y-114784190D01*
X179435047Y-114784190D01*
%TO.C,C3*%
X136882142Y-110656666D02*
X136929761Y-110704285D01*
X136977380Y-110847142D01*
X136977380Y-110942380D01*
X136929761Y-111085238D01*
X136834523Y-111180476D01*
X136739285Y-111228095D01*
X136548809Y-111275714D01*
X136405952Y-111275714D01*
X136215476Y-111228095D01*
X136120238Y-111180476D01*
X136025000Y-111085238D01*
X135977380Y-110942380D01*
X135977380Y-110847142D01*
X136025000Y-110704285D01*
X136072619Y-110656666D01*
X135977380Y-110323333D02*
X135977380Y-109704285D01*
X136358333Y-110037619D01*
X136358333Y-109894761D01*
X136405952Y-109799523D01*
X136453571Y-109751904D01*
X136548809Y-109704285D01*
X136786904Y-109704285D01*
X136882142Y-109751904D01*
X136929761Y-109799523D01*
X136977380Y-109894761D01*
X136977380Y-110180476D01*
X136929761Y-110275714D01*
X136882142Y-110323333D01*
%TO.C,C6*%
X161647142Y-110656666D02*
X161694761Y-110704285D01*
X161742380Y-110847142D01*
X161742380Y-110942380D01*
X161694761Y-111085238D01*
X161599523Y-111180476D01*
X161504285Y-111228095D01*
X161313809Y-111275714D01*
X161170952Y-111275714D01*
X160980476Y-111228095D01*
X160885238Y-111180476D01*
X160790000Y-111085238D01*
X160742380Y-110942380D01*
X160742380Y-110847142D01*
X160790000Y-110704285D01*
X160837619Y-110656666D01*
X160742380Y-109799523D02*
X160742380Y-109990000D01*
X160790000Y-110085238D01*
X160837619Y-110132857D01*
X160980476Y-110228095D01*
X161170952Y-110275714D01*
X161551904Y-110275714D01*
X161647142Y-110228095D01*
X161694761Y-110180476D01*
X161742380Y-110085238D01*
X161742380Y-109894761D01*
X161694761Y-109799523D01*
X161647142Y-109751904D01*
X161551904Y-109704285D01*
X161313809Y-109704285D01*
X161218571Y-109751904D01*
X161170952Y-109799523D01*
X161123333Y-109894761D01*
X161123333Y-110085238D01*
X161170952Y-110180476D01*
X161218571Y-110228095D01*
X161313809Y-110275714D01*
%TO.C,MIC*%
X132278571Y-107342380D02*
X132278571Y-106342380D01*
X132611904Y-107056666D01*
X132945238Y-106342380D01*
X132945238Y-107342380D01*
X133421428Y-107342380D02*
X133421428Y-106342380D01*
X134469047Y-107247142D02*
X134421428Y-107294761D01*
X134278571Y-107342380D01*
X134183333Y-107342380D01*
X134040476Y-107294761D01*
X133945238Y-107199523D01*
X133897619Y-107104285D01*
X133850000Y-106913809D01*
X133850000Y-106770952D01*
X133897619Y-106580476D01*
X133945238Y-106485238D01*
X134040476Y-106390000D01*
X134183333Y-106342380D01*
X134278571Y-106342380D01*
X134421428Y-106390000D01*
X134469047Y-106437619D01*
%TO.C,C8*%
X173077142Y-110021666D02*
X173124761Y-110069285D01*
X173172380Y-110212142D01*
X173172380Y-110307380D01*
X173124761Y-110450238D01*
X173029523Y-110545476D01*
X172934285Y-110593095D01*
X172743809Y-110640714D01*
X172600952Y-110640714D01*
X172410476Y-110593095D01*
X172315238Y-110545476D01*
X172220000Y-110450238D01*
X172172380Y-110307380D01*
X172172380Y-110212142D01*
X172220000Y-110069285D01*
X172267619Y-110021666D01*
X172600952Y-109450238D02*
X172553333Y-109545476D01*
X172505714Y-109593095D01*
X172410476Y-109640714D01*
X172362857Y-109640714D01*
X172267619Y-109593095D01*
X172220000Y-109545476D01*
X172172380Y-109450238D01*
X172172380Y-109259761D01*
X172220000Y-109164523D01*
X172267619Y-109116904D01*
X172362857Y-109069285D01*
X172410476Y-109069285D01*
X172505714Y-109116904D01*
X172553333Y-109164523D01*
X172600952Y-109259761D01*
X172600952Y-109450238D01*
X172648571Y-109545476D01*
X172696190Y-109593095D01*
X172791428Y-109640714D01*
X172981904Y-109640714D01*
X173077142Y-109593095D01*
X173124761Y-109545476D01*
X173172380Y-109450238D01*
X173172380Y-109259761D01*
X173124761Y-109164523D01*
X173077142Y-109116904D01*
X172981904Y-109069285D01*
X172791428Y-109069285D01*
X172696190Y-109116904D01*
X172648571Y-109164523D01*
X172600952Y-109259761D01*
D11*
%TO.C,C5*%
X154006250Y-106446250D02*
X153218750Y-106446250D01*
X155175000Y-113900000D02*
X152825000Y-113900000D01*
X148355000Y-113900000D02*
X150705000Y-113900000D01*
X153612500Y-106052500D02*
X153612500Y-106840000D01*
X149419437Y-107080000D02*
X150705000Y-107080000D01*
X154110563Y-107080000D02*
X155175000Y-108144437D01*
X148355000Y-108144437D02*
X148355000Y-113900000D01*
X154110563Y-107080000D02*
X152825000Y-107080000D01*
X149419437Y-107080000D02*
X148355000Y-108144437D01*
X155175000Y-108144437D02*
X155175000Y-113900000D01*
%TO.C,C2*%
X141190000Y-113250000D02*
X139490000Y-113250000D01*
X140125563Y-107730000D02*
X141190000Y-108794437D01*
X140125563Y-107730000D02*
X139490000Y-107730000D01*
X135670000Y-108794437D02*
X135670000Y-113250000D01*
X135670000Y-113250000D02*
X137370000Y-113250000D01*
X140115000Y-106865000D02*
X140115000Y-107490000D01*
X136734437Y-107730000D02*
X135670000Y-108794437D01*
X136734437Y-107730000D02*
X137370000Y-107730000D01*
X140427500Y-107177500D02*
X139802500Y-107177500D01*
X141190000Y-108794437D02*
X141190000Y-113250000D01*
%TO.C,C7*%
X170415000Y-108144437D02*
X170415000Y-113900000D01*
X170415000Y-113900000D02*
X168065000Y-113900000D01*
X169246250Y-106446250D02*
X168458750Y-106446250D01*
X164659437Y-107080000D02*
X163595000Y-108144437D01*
X163595000Y-108144437D02*
X163595000Y-113900000D01*
X164659437Y-107080000D02*
X165945000Y-107080000D01*
X163595000Y-113900000D02*
X165945000Y-113900000D01*
X169350563Y-107080000D02*
X170415000Y-108144437D01*
X169350563Y-107080000D02*
X168065000Y-107080000D01*
X168852500Y-106052500D02*
X168852500Y-106840000D01*
%TO.C,XLR*%
X179010000Y-111760000D02*
X179010000Y-106620000D01*
X181670000Y-114360000D02*
X180340000Y-114360000D01*
X181670000Y-113030000D02*
X181670000Y-114360000D01*
X181670000Y-111760000D02*
X179010000Y-111760000D01*
X181670000Y-111760000D02*
X181670000Y-106620000D01*
X181670000Y-106620000D02*
X179010000Y-106620000D01*
%TO.C,C3*%
X143095000Y-114115000D02*
X143095000Y-113490000D01*
X146475563Y-113250000D02*
X147540000Y-112185563D01*
X142782500Y-113802500D02*
X143407500Y-113802500D01*
X147540000Y-112185563D02*
X147540000Y-107730000D01*
X146475563Y-113250000D02*
X145840000Y-113250000D01*
X142020000Y-112185563D02*
X142020000Y-107730000D01*
X143084437Y-113250000D02*
X143720000Y-113250000D01*
X142020000Y-107730000D02*
X143720000Y-107730000D01*
X147540000Y-107730000D02*
X145840000Y-107730000D01*
X143084437Y-113250000D02*
X142020000Y-112185563D01*
%TO.C,C6*%
X157039437Y-107080000D02*
X155975000Y-108144437D01*
X161232500Y-106052500D02*
X161232500Y-106840000D01*
X162795000Y-113900000D02*
X160445000Y-113900000D01*
X161626250Y-106446250D02*
X160838750Y-106446250D01*
X161730563Y-107080000D02*
X162795000Y-108144437D01*
X155975000Y-108144437D02*
X155975000Y-113900000D01*
X162795000Y-108144437D02*
X162795000Y-113900000D01*
X157039437Y-107080000D02*
X158325000Y-107080000D01*
X155975000Y-113900000D02*
X158325000Y-113900000D01*
X161730563Y-107080000D02*
X160445000Y-107080000D01*
%TO.C,MIC*%
X132020000Y-109220000D02*
X132020000Y-107890000D01*
X132020000Y-110490000D02*
X132020000Y-113090000D01*
X132020000Y-107890000D02*
X133350000Y-107890000D01*
X132020000Y-113090000D02*
X134680000Y-113090000D01*
X134680000Y-110490000D02*
X134680000Y-113090000D01*
X132020000Y-110490000D02*
X134680000Y-110490000D01*
%TO.C,C8*%
X178035000Y-108136837D02*
X178035000Y-113892400D01*
X178035000Y-113892400D02*
X175685000Y-113892400D01*
X176866250Y-106438650D02*
X176078750Y-106438650D01*
X176472500Y-106044900D02*
X176472500Y-106832400D01*
X171215000Y-113892400D02*
X173565000Y-113892400D01*
X176970563Y-107072400D02*
X175685000Y-107072400D01*
X176970563Y-107072400D02*
X178035000Y-108136837D01*
X172279437Y-107072400D02*
X173565000Y-107072400D01*
X172279437Y-107072400D02*
X171215000Y-108136837D01*
X171215000Y-108136837D02*
X171215000Y-113892400D01*
%TD*%
M02*
