%TF.GenerationSoftware,KiCad,Pcbnew,9.0.0*%
%TF.CreationDate,2026-02-16T12:31:50-08:00*%
%TF.ProjectId,ref_mic,7265665f-6d69-4632-9e6b-696361645f70,rev?*%
%TF.SameCoordinates,Original*%
%TF.FileFunction,Soldermask,Bot*%
%TF.FilePolarity,Negative*%
%FSLAX46Y46*%
G04 Gerber Fmt 4.6, Leading zero omitted, Abs format (unit mm)*
G04 Created by KiCad (PCBNEW 9.0.0) date 2026-02-16 12:31:50*
%MOMM*%
%LPD*%
G01*
G04 APERTURE LIST*
G04 APERTURE END LIST*
G36*
X106595796Y-104144082D02*
G01*
X106655815Y-104184185D01*
X106695918Y-104244204D01*
X106710000Y-104315000D01*
X106710000Y-104685000D01*
X106695918Y-104755796D01*
X106655815Y-104815815D01*
X106595796Y-104855918D01*
X106525000Y-104870000D01*
X106255000Y-104870000D01*
X106184204Y-104855918D01*
X106124185Y-104815815D01*
X106084082Y-104755796D01*
X106070000Y-104685000D01*
X106070000Y-104315000D01*
X106084082Y-104244204D01*
X106124185Y-104184185D01*
X106184204Y-104144082D01*
X106255000Y-104130000D01*
X106525000Y-104130000D01*
X106595796Y-104144082D01*
G37*
G36*
X107615796Y-104144082D02*
G01*
X107675815Y-104184185D01*
X107715918Y-104244204D01*
X107730000Y-104315000D01*
X107730000Y-104685000D01*
X107715918Y-104755796D01*
X107675815Y-104815815D01*
X107615796Y-104855918D01*
X107545000Y-104870000D01*
X107275000Y-104870000D01*
X107204204Y-104855918D01*
X107144185Y-104815815D01*
X107104082Y-104755796D01*
X107090000Y-104685000D01*
X107090000Y-104315000D01*
X107104082Y-104244204D01*
X107144185Y-104184185D01*
X107204204Y-104144082D01*
X107275000Y-104130000D01*
X107545000Y-104130000D01*
X107615796Y-104144082D01*
G37*
G36*
X108916537Y-102765224D02*
G01*
X108981421Y-102808579D01*
X109024776Y-102873463D01*
X109040000Y-102950000D01*
X109040000Y-104600000D01*
X109024776Y-104676537D01*
X108981421Y-104741421D01*
X108916537Y-104784776D01*
X108840000Y-104800000D01*
X108540000Y-104800000D01*
X108463463Y-104784776D01*
X108398579Y-104741421D01*
X108355224Y-104676537D01*
X108340000Y-104600000D01*
X108340000Y-102950000D01*
X108355224Y-102873463D01*
X108398579Y-102808579D01*
X108463463Y-102765224D01*
X108540000Y-102750000D01*
X108840000Y-102750000D01*
X108916537Y-102765224D01*
G37*
G36*
X110186537Y-102765224D02*
G01*
X110251421Y-102808579D01*
X110294776Y-102873463D01*
X110310000Y-102950000D01*
X110310000Y-104600000D01*
X110294776Y-104676537D01*
X110251421Y-104741421D01*
X110186537Y-104784776D01*
X110110000Y-104800000D01*
X109810000Y-104800000D01*
X109733463Y-104784776D01*
X109668579Y-104741421D01*
X109625224Y-104676537D01*
X109610000Y-104600000D01*
X109610000Y-102950000D01*
X109625224Y-102873463D01*
X109668579Y-102808579D01*
X109733463Y-102765224D01*
X109810000Y-102750000D01*
X110110000Y-102750000D01*
X110186537Y-102765224D01*
G37*
G36*
X111456537Y-102765224D02*
G01*
X111521421Y-102808579D01*
X111564776Y-102873463D01*
X111580000Y-102950000D01*
X111580000Y-104600000D01*
X111564776Y-104676537D01*
X111521421Y-104741421D01*
X111456537Y-104784776D01*
X111380000Y-104800000D01*
X111080000Y-104800000D01*
X111003463Y-104784776D01*
X110938579Y-104741421D01*
X110895224Y-104676537D01*
X110880000Y-104600000D01*
X110880000Y-102950000D01*
X110895224Y-102873463D01*
X110938579Y-102808579D01*
X111003463Y-102765224D01*
X111080000Y-102750000D01*
X111380000Y-102750000D01*
X111456537Y-102765224D01*
G37*
G36*
X112726537Y-102765224D02*
G01*
X112791421Y-102808579D01*
X112834776Y-102873463D01*
X112850000Y-102950000D01*
X112850000Y-104600000D01*
X112834776Y-104676537D01*
X112791421Y-104741421D01*
X112726537Y-104784776D01*
X112650000Y-104800000D01*
X112350000Y-104800000D01*
X112273463Y-104784776D01*
X112208579Y-104741421D01*
X112165224Y-104676537D01*
X112150000Y-104600000D01*
X112150000Y-102950000D01*
X112165224Y-102873463D01*
X112208579Y-102808579D01*
X112273463Y-102765224D01*
X112350000Y-102750000D01*
X112650000Y-102750000D01*
X112726537Y-102765224D01*
G37*
G36*
X113996537Y-102765224D02*
G01*
X114061421Y-102808579D01*
X114104776Y-102873463D01*
X114120000Y-102950000D01*
X114120000Y-104600000D01*
X114104776Y-104676537D01*
X114061421Y-104741421D01*
X113996537Y-104784776D01*
X113920000Y-104800000D01*
X113620000Y-104800000D01*
X113543463Y-104784776D01*
X113478579Y-104741421D01*
X113435224Y-104676537D01*
X113420000Y-104600000D01*
X113420000Y-102950000D01*
X113435224Y-102873463D01*
X113478579Y-102808579D01*
X113543463Y-102765224D01*
X113620000Y-102750000D01*
X113920000Y-102750000D01*
X113996537Y-102765224D01*
G37*
G36*
X115266537Y-102765224D02*
G01*
X115331421Y-102808579D01*
X115374776Y-102873463D01*
X115390000Y-102950000D01*
X115390000Y-104600000D01*
X115374776Y-104676537D01*
X115331421Y-104741421D01*
X115266537Y-104784776D01*
X115190000Y-104800000D01*
X114890000Y-104800000D01*
X114813463Y-104784776D01*
X114748579Y-104741421D01*
X114705224Y-104676537D01*
X114690000Y-104600000D01*
X114690000Y-102950000D01*
X114705224Y-102873463D01*
X114748579Y-102808579D01*
X114813463Y-102765224D01*
X114890000Y-102750000D01*
X115190000Y-102750000D01*
X115266537Y-102765224D01*
G37*
G36*
X116536537Y-102765224D02*
G01*
X116601421Y-102808579D01*
X116644776Y-102873463D01*
X116660000Y-102950000D01*
X116660000Y-104600000D01*
X116644776Y-104676537D01*
X116601421Y-104741421D01*
X116536537Y-104784776D01*
X116460000Y-104800000D01*
X116160000Y-104800000D01*
X116083463Y-104784776D01*
X116018579Y-104741421D01*
X115975224Y-104676537D01*
X115960000Y-104600000D01*
X115960000Y-102950000D01*
X115975224Y-102873463D01*
X116018579Y-102808579D01*
X116083463Y-102765224D01*
X116160000Y-102750000D01*
X116460000Y-102750000D01*
X116536537Y-102765224D01*
G37*
G36*
X117795796Y-104044082D02*
G01*
X117855815Y-104084185D01*
X117895918Y-104144204D01*
X117910000Y-104215000D01*
X117910000Y-104585000D01*
X117895918Y-104655796D01*
X117855815Y-104715815D01*
X117795796Y-104755918D01*
X117725000Y-104770000D01*
X117455000Y-104770000D01*
X117384204Y-104755918D01*
X117324185Y-104715815D01*
X117284082Y-104655796D01*
X117270000Y-104585000D01*
X117270000Y-104215000D01*
X117284082Y-104144204D01*
X117324185Y-104084185D01*
X117384204Y-104044082D01*
X117455000Y-104030000D01*
X117725000Y-104030000D01*
X117795796Y-104044082D01*
G37*
G36*
X118815796Y-104044082D02*
G01*
X118875815Y-104084185D01*
X118915918Y-104144204D01*
X118930000Y-104215000D01*
X118930000Y-104585000D01*
X118915918Y-104655796D01*
X118875815Y-104715815D01*
X118815796Y-104755918D01*
X118745000Y-104770000D01*
X118475000Y-104770000D01*
X118404204Y-104755918D01*
X118344185Y-104715815D01*
X118304082Y-104655796D01*
X118290000Y-104585000D01*
X118290000Y-104215000D01*
X118304082Y-104144204D01*
X118344185Y-104084185D01*
X118404204Y-104044082D01*
X118475000Y-104030000D01*
X118745000Y-104030000D01*
X118815796Y-104044082D01*
G37*
G36*
X119995796Y-104044082D02*
G01*
X120055815Y-104084185D01*
X120095918Y-104144204D01*
X120110000Y-104215000D01*
X120110000Y-104585000D01*
X120095918Y-104655796D01*
X120055815Y-104715815D01*
X119995796Y-104755918D01*
X119925000Y-104770000D01*
X119655000Y-104770000D01*
X119584204Y-104755918D01*
X119524185Y-104715815D01*
X119484082Y-104655796D01*
X119470000Y-104585000D01*
X119470000Y-104215000D01*
X119484082Y-104144204D01*
X119524185Y-104084185D01*
X119584204Y-104044082D01*
X119655000Y-104030000D01*
X119925000Y-104030000D01*
X119995796Y-104044082D01*
G37*
G36*
X121015796Y-104044082D02*
G01*
X121075815Y-104084185D01*
X121115918Y-104144204D01*
X121130000Y-104215000D01*
X121130000Y-104585000D01*
X121115918Y-104655796D01*
X121075815Y-104715815D01*
X121015796Y-104755918D01*
X120945000Y-104770000D01*
X120675000Y-104770000D01*
X120604204Y-104755918D01*
X120544185Y-104715815D01*
X120504082Y-104655796D01*
X120490000Y-104585000D01*
X120490000Y-104215000D01*
X120504082Y-104144204D01*
X120544185Y-104084185D01*
X120604204Y-104044082D01*
X120675000Y-104030000D01*
X120945000Y-104030000D01*
X121015796Y-104044082D01*
G37*
G36*
X106595796Y-103144082D02*
G01*
X106655815Y-103184185D01*
X106695918Y-103244204D01*
X106710000Y-103315000D01*
X106710000Y-103685000D01*
X106695918Y-103755796D01*
X106655815Y-103815815D01*
X106595796Y-103855918D01*
X106525000Y-103870000D01*
X106255000Y-103870000D01*
X106184204Y-103855918D01*
X106124185Y-103815815D01*
X106084082Y-103755796D01*
X106070000Y-103685000D01*
X106070000Y-103315000D01*
X106084082Y-103244204D01*
X106124185Y-103184185D01*
X106184204Y-103144082D01*
X106255000Y-103130000D01*
X106525000Y-103130000D01*
X106595796Y-103144082D01*
G37*
G36*
X107615796Y-103144082D02*
G01*
X107675815Y-103184185D01*
X107715918Y-103244204D01*
X107730000Y-103315000D01*
X107730000Y-103685000D01*
X107715918Y-103755796D01*
X107675815Y-103815815D01*
X107615796Y-103855918D01*
X107545000Y-103870000D01*
X107275000Y-103870000D01*
X107204204Y-103855918D01*
X107144185Y-103815815D01*
X107104082Y-103755796D01*
X107090000Y-103685000D01*
X107090000Y-103315000D01*
X107104082Y-103244204D01*
X107144185Y-103184185D01*
X107204204Y-103144082D01*
X107275000Y-103130000D01*
X107545000Y-103130000D01*
X107615796Y-103144082D01*
G37*
G36*
X117795796Y-103044082D02*
G01*
X117855815Y-103084185D01*
X117895918Y-103144204D01*
X117910000Y-103215000D01*
X117910000Y-103585000D01*
X117895918Y-103655796D01*
X117855815Y-103715815D01*
X117795796Y-103755918D01*
X117725000Y-103770000D01*
X117455000Y-103770000D01*
X117384204Y-103755918D01*
X117324185Y-103715815D01*
X117284082Y-103655796D01*
X117270000Y-103585000D01*
X117270000Y-103215000D01*
X117284082Y-103144204D01*
X117324185Y-103084185D01*
X117384204Y-103044082D01*
X117455000Y-103030000D01*
X117725000Y-103030000D01*
X117795796Y-103044082D01*
G37*
G36*
X118815796Y-103044082D02*
G01*
X118875815Y-103084185D01*
X118915918Y-103144204D01*
X118930000Y-103215000D01*
X118930000Y-103585000D01*
X118915918Y-103655796D01*
X118875815Y-103715815D01*
X118815796Y-103755918D01*
X118745000Y-103770000D01*
X118475000Y-103770000D01*
X118404204Y-103755918D01*
X118344185Y-103715815D01*
X118304082Y-103655796D01*
X118290000Y-103585000D01*
X118290000Y-103215000D01*
X118304082Y-103144204D01*
X118344185Y-103084185D01*
X118404204Y-103044082D01*
X118475000Y-103030000D01*
X118745000Y-103030000D01*
X118815796Y-103044082D01*
G37*
G36*
X138576537Y-102965224D02*
G01*
X138641421Y-103008579D01*
X138684776Y-103073463D01*
X138700000Y-103150000D01*
X138700000Y-103450000D01*
X138684776Y-103526537D01*
X138641421Y-103591421D01*
X138576537Y-103634776D01*
X138500000Y-103650000D01*
X138100000Y-103650000D01*
X138023463Y-103634776D01*
X137958579Y-103591421D01*
X137915224Y-103526537D01*
X137900000Y-103450000D01*
X137900000Y-103150000D01*
X137915224Y-103073463D01*
X137958579Y-103008579D01*
X138023463Y-102965224D01*
X138100000Y-102950000D01*
X138500000Y-102950000D01*
X138576537Y-102965224D01*
G37*
G36*
X119826537Y-102665224D02*
G01*
X119891421Y-102708579D01*
X119934776Y-102773463D01*
X119950000Y-102850000D01*
X119950000Y-103250000D01*
X119934776Y-103326537D01*
X119891421Y-103391421D01*
X119826537Y-103434776D01*
X119750000Y-103450000D01*
X119450000Y-103450000D01*
X119373463Y-103434776D01*
X119308579Y-103391421D01*
X119265224Y-103326537D01*
X119250000Y-103250000D01*
X119250000Y-102850000D01*
X119265224Y-102773463D01*
X119308579Y-102708579D01*
X119373463Y-102665224D01*
X119450000Y-102650000D01*
X119750000Y-102650000D01*
X119826537Y-102665224D01*
G37*
G36*
X121226537Y-102665224D02*
G01*
X121291421Y-102708579D01*
X121334776Y-102773463D01*
X121350000Y-102850000D01*
X121350000Y-103250000D01*
X121334776Y-103326537D01*
X121291421Y-103391421D01*
X121226537Y-103434776D01*
X121150000Y-103450000D01*
X120850000Y-103450000D01*
X120773463Y-103434776D01*
X120708579Y-103391421D01*
X120665224Y-103326537D01*
X120650000Y-103250000D01*
X120650000Y-102850000D01*
X120665224Y-102773463D01*
X120708579Y-102708579D01*
X120773463Y-102665224D01*
X120850000Y-102650000D01*
X121150000Y-102650000D01*
X121226537Y-102665224D01*
G37*
G36*
X94061256Y-101678754D02*
G01*
X94224257Y-101746271D01*
X94370954Y-101844291D01*
X94495709Y-101969046D01*
X94593729Y-102115743D01*
X94661246Y-102278744D01*
X94695666Y-102451785D01*
X94695666Y-102628215D01*
X94661246Y-102801256D01*
X94593729Y-102964257D01*
X94495709Y-103110954D01*
X94370954Y-103235709D01*
X94224257Y-103333729D01*
X94061256Y-103401246D01*
X93888215Y-103435666D01*
X93711785Y-103435666D01*
X93538744Y-103401246D01*
X93375743Y-103333729D01*
X93229046Y-103235709D01*
X93104291Y-103110954D01*
X93006271Y-102964257D01*
X92938754Y-102801256D01*
X92904334Y-102628215D01*
X92904334Y-102451785D01*
X92938754Y-102278744D01*
X93006271Y-102115743D01*
X93104291Y-101969046D01*
X93229046Y-101844291D01*
X93375743Y-101746271D01*
X93538744Y-101678754D01*
X93711785Y-101644334D01*
X93888215Y-101644334D01*
X94061256Y-101678754D01*
G37*
G36*
X124368685Y-102157969D02*
G01*
X124377358Y-102161798D01*
X124384925Y-102162901D01*
X124432223Y-102186023D01*
X124469541Y-102202501D01*
X124472996Y-102205956D01*
X124473920Y-102206408D01*
X124543591Y-102276079D01*
X124544042Y-102277002D01*
X124547499Y-102280459D01*
X124563978Y-102317782D01*
X124587098Y-102365073D01*
X124588200Y-102372639D01*
X124592031Y-102381315D01*
X124600000Y-102450000D01*
X124600000Y-103100000D01*
X124592031Y-103168685D01*
X124588199Y-103177361D01*
X124587098Y-103184925D01*
X124563985Y-103232202D01*
X124547499Y-103269541D01*
X124544041Y-103272998D01*
X124543591Y-103273920D01*
X124473920Y-103343591D01*
X124472998Y-103344041D01*
X124469541Y-103347499D01*
X124432207Y-103363983D01*
X124384926Y-103387098D01*
X124377361Y-103388200D01*
X124368685Y-103392031D01*
X124300000Y-103400000D01*
X122100000Y-103400000D01*
X122031315Y-103392031D01*
X122022638Y-103388200D01*
X122015074Y-103387098D01*
X121967787Y-103363981D01*
X121930459Y-103347499D01*
X121927002Y-103344042D01*
X121926079Y-103343591D01*
X121856408Y-103273920D01*
X121855956Y-103272996D01*
X121852501Y-103269541D01*
X121836025Y-103232228D01*
X121812901Y-103184926D01*
X121811798Y-103177357D01*
X121807969Y-103168685D01*
X121800000Y-103100000D01*
X121800000Y-102450000D01*
X121807969Y-102381315D01*
X121811798Y-102372642D01*
X121812901Y-102365074D01*
X121836028Y-102317766D01*
X121852501Y-102280459D01*
X121855955Y-102277004D01*
X121856408Y-102276079D01*
X121926079Y-102206408D01*
X121927004Y-102205955D01*
X121930459Y-102202501D01*
X121967761Y-102186030D01*
X122015073Y-102162901D01*
X122022642Y-102161798D01*
X122031315Y-102157969D01*
X122100000Y-102150000D01*
X124300000Y-102150000D01*
X124368685Y-102157969D01*
G37*
G36*
X127568685Y-102157969D02*
G01*
X127577358Y-102161798D01*
X127584925Y-102162901D01*
X127632223Y-102186023D01*
X127669541Y-102202501D01*
X127672996Y-102205956D01*
X127673920Y-102206408D01*
X127743591Y-102276079D01*
X127744042Y-102277002D01*
X127747499Y-102280459D01*
X127763978Y-102317782D01*
X127787098Y-102365073D01*
X127788200Y-102372639D01*
X127792031Y-102381315D01*
X127800000Y-102450000D01*
X127800000Y-103100000D01*
X127792031Y-103168685D01*
X127788199Y-103177361D01*
X127787098Y-103184925D01*
X127763985Y-103232202D01*
X127747499Y-103269541D01*
X127744041Y-103272998D01*
X127743591Y-103273920D01*
X127673920Y-103343591D01*
X127672998Y-103344041D01*
X127669541Y-103347499D01*
X127632207Y-103363983D01*
X127584926Y-103387098D01*
X127577361Y-103388200D01*
X127568685Y-103392031D01*
X127500000Y-103400000D01*
X125300000Y-103400000D01*
X125231315Y-103392031D01*
X125222638Y-103388200D01*
X125215074Y-103387098D01*
X125167787Y-103363981D01*
X125130459Y-103347499D01*
X125127002Y-103344042D01*
X125126079Y-103343591D01*
X125056408Y-103273920D01*
X125055956Y-103272996D01*
X125052501Y-103269541D01*
X125036025Y-103232228D01*
X125012901Y-103184926D01*
X125011798Y-103177357D01*
X125007969Y-103168685D01*
X125000000Y-103100000D01*
X125000000Y-102450000D01*
X125007969Y-102381315D01*
X125011798Y-102372642D01*
X125012901Y-102365074D01*
X125036028Y-102317766D01*
X125052501Y-102280459D01*
X125055955Y-102277004D01*
X125056408Y-102276079D01*
X125126079Y-102206408D01*
X125127004Y-102205955D01*
X125130459Y-102202501D01*
X125167761Y-102186030D01*
X125215073Y-102162901D01*
X125222642Y-102161798D01*
X125231315Y-102157969D01*
X125300000Y-102150000D01*
X127500000Y-102150000D01*
X127568685Y-102157969D01*
G37*
G36*
X130768685Y-102157969D02*
G01*
X130777358Y-102161798D01*
X130784925Y-102162901D01*
X130832223Y-102186023D01*
X130869541Y-102202501D01*
X130872996Y-102205956D01*
X130873920Y-102206408D01*
X130943591Y-102276079D01*
X130944042Y-102277002D01*
X130947499Y-102280459D01*
X130963978Y-102317782D01*
X130987098Y-102365073D01*
X130988200Y-102372639D01*
X130992031Y-102381315D01*
X131000000Y-102450000D01*
X131000000Y-103100000D01*
X130992031Y-103168685D01*
X130988199Y-103177361D01*
X130987098Y-103184925D01*
X130963985Y-103232202D01*
X130947499Y-103269541D01*
X130944041Y-103272998D01*
X130943591Y-103273920D01*
X130873920Y-103343591D01*
X130872998Y-103344041D01*
X130869541Y-103347499D01*
X130832207Y-103363983D01*
X130784926Y-103387098D01*
X130777361Y-103388200D01*
X130768685Y-103392031D01*
X130700000Y-103400000D01*
X128500000Y-103400000D01*
X128431315Y-103392031D01*
X128422638Y-103388200D01*
X128415074Y-103387098D01*
X128367787Y-103363981D01*
X128330459Y-103347499D01*
X128327002Y-103344042D01*
X128326079Y-103343591D01*
X128256408Y-103273920D01*
X128255956Y-103272996D01*
X128252501Y-103269541D01*
X128236025Y-103232228D01*
X128212901Y-103184926D01*
X128211798Y-103177357D01*
X128207969Y-103168685D01*
X128200000Y-103100000D01*
X128200000Y-102450000D01*
X128207969Y-102381315D01*
X128211798Y-102372642D01*
X128212901Y-102365074D01*
X128236028Y-102317766D01*
X128252501Y-102280459D01*
X128255955Y-102277004D01*
X128256408Y-102276079D01*
X128326079Y-102206408D01*
X128327004Y-102205955D01*
X128330459Y-102202501D01*
X128367761Y-102186030D01*
X128415073Y-102162901D01*
X128422642Y-102161798D01*
X128431315Y-102157969D01*
X128500000Y-102150000D01*
X130700000Y-102150000D01*
X130768685Y-102157969D01*
G37*
G36*
X133968685Y-102157969D02*
G01*
X133977358Y-102161798D01*
X133984925Y-102162901D01*
X134032223Y-102186023D01*
X134069541Y-102202501D01*
X134072996Y-102205956D01*
X134073920Y-102206408D01*
X134143591Y-102276079D01*
X134144042Y-102277002D01*
X134147499Y-102280459D01*
X134163978Y-102317782D01*
X134187098Y-102365073D01*
X134188200Y-102372639D01*
X134192031Y-102381315D01*
X134200000Y-102450000D01*
X134200000Y-103100000D01*
X134192031Y-103168685D01*
X134188199Y-103177361D01*
X134187098Y-103184925D01*
X134163985Y-103232202D01*
X134147499Y-103269541D01*
X134144041Y-103272998D01*
X134143591Y-103273920D01*
X134073920Y-103343591D01*
X134072998Y-103344041D01*
X134069541Y-103347499D01*
X134032207Y-103363983D01*
X133984926Y-103387098D01*
X133977361Y-103388200D01*
X133968685Y-103392031D01*
X133900000Y-103400000D01*
X131700000Y-103400000D01*
X131631315Y-103392031D01*
X131622638Y-103388200D01*
X131615074Y-103387098D01*
X131567787Y-103363981D01*
X131530459Y-103347499D01*
X131527002Y-103344042D01*
X131526079Y-103343591D01*
X131456408Y-103273920D01*
X131455956Y-103272996D01*
X131452501Y-103269541D01*
X131436025Y-103232228D01*
X131412901Y-103184926D01*
X131411798Y-103177357D01*
X131407969Y-103168685D01*
X131400000Y-103100000D01*
X131400000Y-102450000D01*
X131407969Y-102381315D01*
X131411798Y-102372642D01*
X131412901Y-102365074D01*
X131436028Y-102317766D01*
X131452501Y-102280459D01*
X131455955Y-102277004D01*
X131456408Y-102276079D01*
X131526079Y-102206408D01*
X131527004Y-102205955D01*
X131530459Y-102202501D01*
X131567761Y-102186030D01*
X131615073Y-102162901D01*
X131622642Y-102161798D01*
X131631315Y-102157969D01*
X131700000Y-102150000D01*
X133900000Y-102150000D01*
X133968685Y-102157969D01*
G37*
G36*
X137168685Y-102157969D02*
G01*
X137177358Y-102161798D01*
X137184925Y-102162901D01*
X137232223Y-102186023D01*
X137269541Y-102202501D01*
X137272996Y-102205956D01*
X137273920Y-102206408D01*
X137343591Y-102276079D01*
X137344042Y-102277002D01*
X137347499Y-102280459D01*
X137363978Y-102317782D01*
X137387098Y-102365073D01*
X137388200Y-102372639D01*
X137392031Y-102381315D01*
X137400000Y-102450000D01*
X137400000Y-103100000D01*
X137392031Y-103168685D01*
X137388199Y-103177361D01*
X137387098Y-103184925D01*
X137363985Y-103232202D01*
X137347499Y-103269541D01*
X137344041Y-103272998D01*
X137343591Y-103273920D01*
X137273920Y-103343591D01*
X137272998Y-103344041D01*
X137269541Y-103347499D01*
X137232207Y-103363983D01*
X137184926Y-103387098D01*
X137177361Y-103388200D01*
X137168685Y-103392031D01*
X137100000Y-103400000D01*
X134900000Y-103400000D01*
X134831315Y-103392031D01*
X134822638Y-103388200D01*
X134815074Y-103387098D01*
X134767787Y-103363981D01*
X134730459Y-103347499D01*
X134727002Y-103344042D01*
X134726079Y-103343591D01*
X134656408Y-103273920D01*
X134655956Y-103272996D01*
X134652501Y-103269541D01*
X134636025Y-103232228D01*
X134612901Y-103184926D01*
X134611798Y-103177357D01*
X134607969Y-103168685D01*
X134600000Y-103100000D01*
X134600000Y-102450000D01*
X134607969Y-102381315D01*
X134611798Y-102372642D01*
X134612901Y-102365074D01*
X134636028Y-102317766D01*
X134652501Y-102280459D01*
X134655955Y-102277004D01*
X134656408Y-102276079D01*
X134726079Y-102206408D01*
X134727004Y-102205955D01*
X134730459Y-102202501D01*
X134767761Y-102186030D01*
X134815073Y-102162901D01*
X134822642Y-102161798D01*
X134831315Y-102157969D01*
X134900000Y-102150000D01*
X137100000Y-102150000D01*
X137168685Y-102157969D01*
G37*
G36*
X97018685Y-101657969D02*
G01*
X97027358Y-101661798D01*
X97034925Y-101662901D01*
X97082223Y-101686023D01*
X97119541Y-101702501D01*
X97122996Y-101705956D01*
X97123920Y-101706408D01*
X97193591Y-101776079D01*
X97194042Y-101777002D01*
X97197499Y-101780459D01*
X97213978Y-101817782D01*
X97237098Y-101865073D01*
X97238200Y-101872639D01*
X97242031Y-101881315D01*
X97250000Y-101950000D01*
X97250000Y-103050000D01*
X97242031Y-103118685D01*
X97238199Y-103127361D01*
X97237098Y-103134925D01*
X97213985Y-103182202D01*
X97197499Y-103219541D01*
X97194041Y-103222998D01*
X97193591Y-103223920D01*
X97123920Y-103293591D01*
X97122998Y-103294041D01*
X97119541Y-103297499D01*
X97082207Y-103313983D01*
X97034926Y-103337098D01*
X97027361Y-103338200D01*
X97018685Y-103342031D01*
X96950000Y-103350000D01*
X95850000Y-103350000D01*
X95781315Y-103342031D01*
X95772638Y-103338200D01*
X95765074Y-103337098D01*
X95717787Y-103313981D01*
X95680459Y-103297499D01*
X95677002Y-103294042D01*
X95676079Y-103293591D01*
X95606408Y-103223920D01*
X95605956Y-103222996D01*
X95602501Y-103219541D01*
X95586025Y-103182228D01*
X95562901Y-103134926D01*
X95561798Y-103127357D01*
X95557969Y-103118685D01*
X95550000Y-103050000D01*
X95550000Y-101950000D01*
X95557969Y-101881315D01*
X95561798Y-101872642D01*
X95562901Y-101865074D01*
X95586028Y-101817766D01*
X95602501Y-101780459D01*
X95605955Y-101777004D01*
X95606408Y-101776079D01*
X95676079Y-101706408D01*
X95677004Y-101705955D01*
X95680459Y-101702501D01*
X95717761Y-101686030D01*
X95765073Y-101662901D01*
X95772642Y-101661798D01*
X95781315Y-101657969D01*
X95850000Y-101650000D01*
X96950000Y-101650000D01*
X97018685Y-101657969D01*
G37*
G36*
X117795796Y-102044082D02*
G01*
X117855815Y-102084185D01*
X117895918Y-102144204D01*
X117910000Y-102215000D01*
X117910000Y-102585000D01*
X117895918Y-102655796D01*
X117855815Y-102715815D01*
X117795796Y-102755918D01*
X117725000Y-102770000D01*
X117455000Y-102770000D01*
X117384204Y-102755918D01*
X117324185Y-102715815D01*
X117284082Y-102655796D01*
X117270000Y-102585000D01*
X117270000Y-102215000D01*
X117284082Y-102144204D01*
X117324185Y-102084185D01*
X117384204Y-102044082D01*
X117455000Y-102030000D01*
X117725000Y-102030000D01*
X117795796Y-102044082D01*
G37*
G36*
X118815796Y-102044082D02*
G01*
X118875815Y-102084185D01*
X118915918Y-102144204D01*
X118930000Y-102215000D01*
X118930000Y-102585000D01*
X118915918Y-102655796D01*
X118875815Y-102715815D01*
X118815796Y-102755918D01*
X118745000Y-102770000D01*
X118475000Y-102770000D01*
X118404204Y-102755918D01*
X118344185Y-102715815D01*
X118304082Y-102655796D01*
X118290000Y-102585000D01*
X118290000Y-102215000D01*
X118304082Y-102144204D01*
X118344185Y-102084185D01*
X118404204Y-102044082D01*
X118475000Y-102030000D01*
X118745000Y-102030000D01*
X118815796Y-102044082D01*
G37*
G36*
X106595796Y-101844082D02*
G01*
X106655815Y-101884185D01*
X106695918Y-101944204D01*
X106710000Y-102015000D01*
X106710000Y-102385000D01*
X106695918Y-102455796D01*
X106655815Y-102515815D01*
X106595796Y-102555918D01*
X106525000Y-102570000D01*
X106255000Y-102570000D01*
X106184204Y-102555918D01*
X106124185Y-102515815D01*
X106084082Y-102455796D01*
X106070000Y-102385000D01*
X106070000Y-102015000D01*
X106084082Y-101944204D01*
X106124185Y-101884185D01*
X106184204Y-101844082D01*
X106255000Y-101830000D01*
X106525000Y-101830000D01*
X106595796Y-101844082D01*
G37*
G36*
X107615796Y-101844082D02*
G01*
X107675815Y-101884185D01*
X107715918Y-101944204D01*
X107730000Y-102015000D01*
X107730000Y-102385000D01*
X107715918Y-102455796D01*
X107675815Y-102515815D01*
X107615796Y-102555918D01*
X107545000Y-102570000D01*
X107275000Y-102570000D01*
X107204204Y-102555918D01*
X107144185Y-102515815D01*
X107104082Y-102455796D01*
X107090000Y-102385000D01*
X107090000Y-102015000D01*
X107104082Y-101944204D01*
X107144185Y-101884185D01*
X107204204Y-101844082D01*
X107275000Y-101830000D01*
X107545000Y-101830000D01*
X107615796Y-101844082D01*
G37*
G36*
X142055796Y-101854082D02*
G01*
X142115815Y-101894185D01*
X142155918Y-101954204D01*
X142170000Y-102025000D01*
X142170000Y-102295000D01*
X142155918Y-102365796D01*
X142115815Y-102425815D01*
X142055796Y-102465918D01*
X141985000Y-102480000D01*
X141615000Y-102480000D01*
X141544204Y-102465918D01*
X141484185Y-102425815D01*
X141444082Y-102365796D01*
X141430000Y-102295000D01*
X141430000Y-102025000D01*
X141444082Y-101954204D01*
X141484185Y-101894185D01*
X141544204Y-101854082D01*
X141615000Y-101840000D01*
X141985000Y-101840000D01*
X142055796Y-101854082D01*
G37*
G36*
X143255796Y-101854082D02*
G01*
X143315815Y-101894185D01*
X143355918Y-101954204D01*
X143370000Y-102025000D01*
X143370000Y-102295000D01*
X143355918Y-102365796D01*
X143315815Y-102425815D01*
X143255796Y-102465918D01*
X143185000Y-102480000D01*
X142815000Y-102480000D01*
X142744204Y-102465918D01*
X142684185Y-102425815D01*
X142644082Y-102365796D01*
X142630000Y-102295000D01*
X142630000Y-102025000D01*
X142644082Y-101954204D01*
X142684185Y-101894185D01*
X142744204Y-101854082D01*
X142815000Y-101840000D01*
X143185000Y-101840000D01*
X143255796Y-101854082D01*
G37*
G36*
X144455796Y-101854082D02*
G01*
X144515815Y-101894185D01*
X144555918Y-101954204D01*
X144570000Y-102025000D01*
X144570000Y-102295000D01*
X144555918Y-102365796D01*
X144515815Y-102425815D01*
X144455796Y-102465918D01*
X144385000Y-102480000D01*
X144015000Y-102480000D01*
X143944204Y-102465918D01*
X143884185Y-102425815D01*
X143844082Y-102365796D01*
X143830000Y-102295000D01*
X143830000Y-102025000D01*
X143844082Y-101954204D01*
X143884185Y-101894185D01*
X143944204Y-101854082D01*
X144015000Y-101840000D01*
X144385000Y-101840000D01*
X144455796Y-101854082D01*
G37*
G36*
X145655796Y-101854082D02*
G01*
X145715815Y-101894185D01*
X145755918Y-101954204D01*
X145770000Y-102025000D01*
X145770000Y-102295000D01*
X145755918Y-102365796D01*
X145715815Y-102425815D01*
X145655796Y-102465918D01*
X145585000Y-102480000D01*
X145215000Y-102480000D01*
X145144204Y-102465918D01*
X145084185Y-102425815D01*
X145044082Y-102365796D01*
X145030000Y-102295000D01*
X145030000Y-102025000D01*
X145044082Y-101954204D01*
X145084185Y-101894185D01*
X145144204Y-101854082D01*
X145215000Y-101840000D01*
X145585000Y-101840000D01*
X145655796Y-101854082D01*
G37*
G36*
X138576537Y-101565224D02*
G01*
X138641421Y-101608579D01*
X138684776Y-101673463D01*
X138700000Y-101750000D01*
X138700000Y-102050000D01*
X138684776Y-102126537D01*
X138641421Y-102191421D01*
X138576537Y-102234776D01*
X138500000Y-102250000D01*
X138100000Y-102250000D01*
X138023463Y-102234776D01*
X137958579Y-102191421D01*
X137915224Y-102126537D01*
X137900000Y-102050000D01*
X137900000Y-101750000D01*
X137915224Y-101673463D01*
X137958579Y-101608579D01*
X138023463Y-101565224D01*
X138100000Y-101550000D01*
X138500000Y-101550000D01*
X138576537Y-101565224D01*
G37*
G36*
X151581409Y-100501275D02*
G01*
X151644958Y-100509641D01*
X151660943Y-100517095D01*
X151680238Y-100520933D01*
X151705792Y-100538008D01*
X151732290Y-100550364D01*
X151748412Y-100566486D01*
X151769454Y-100580546D01*
X151783513Y-100601587D01*
X151799635Y-100617709D01*
X151811990Y-100644204D01*
X151829067Y-100669762D01*
X151832905Y-100689058D01*
X151840358Y-100705041D01*
X151848722Y-100768577D01*
X151850000Y-100775000D01*
X151850000Y-101825000D01*
X151848722Y-101831424D01*
X151840358Y-101894958D01*
X151832905Y-101910939D01*
X151829067Y-101930238D01*
X151811988Y-101955797D01*
X151799635Y-101982290D01*
X151783516Y-101998408D01*
X151769454Y-102019454D01*
X151748408Y-102033516D01*
X151732290Y-102049635D01*
X151705797Y-102061988D01*
X151680238Y-102079067D01*
X151660939Y-102082905D01*
X151644958Y-102090358D01*
X151581424Y-102098722D01*
X151575000Y-102100000D01*
X148025000Y-102100000D01*
X148018577Y-102098722D01*
X147955041Y-102090358D01*
X147939058Y-102082905D01*
X147919762Y-102079067D01*
X147894204Y-102061990D01*
X147867709Y-102049635D01*
X147851587Y-102033513D01*
X147830546Y-102019454D01*
X147816486Y-101998412D01*
X147800364Y-101982290D01*
X147788008Y-101955792D01*
X147770933Y-101930238D01*
X147767095Y-101910943D01*
X147759641Y-101894958D01*
X147751275Y-101831409D01*
X147750000Y-101825000D01*
X147750000Y-100775000D01*
X147751274Y-100768592D01*
X147759641Y-100705041D01*
X147767095Y-100689054D01*
X147770933Y-100669762D01*
X147788006Y-100644209D01*
X147800364Y-100617709D01*
X147816488Y-100601584D01*
X147830546Y-100580546D01*
X147851584Y-100566488D01*
X147867709Y-100550364D01*
X147894209Y-100538006D01*
X147919762Y-100520933D01*
X147939054Y-100517095D01*
X147955041Y-100509641D01*
X148018592Y-100501274D01*
X148025000Y-100500000D01*
X151575000Y-100500000D01*
X151581409Y-100501275D01*
G37*
G36*
X139889239Y-100843142D02*
G01*
X140001035Y-100907687D01*
X140092315Y-100998967D01*
X140156860Y-101110763D01*
X140190271Y-101235455D01*
X140190271Y-101364545D01*
X140156860Y-101489237D01*
X140092315Y-101601033D01*
X140001035Y-101692313D01*
X139889239Y-101756858D01*
X139764547Y-101790269D01*
X139635457Y-101790269D01*
X139510765Y-101756858D01*
X139398969Y-101692313D01*
X139307689Y-101601033D01*
X139243144Y-101489237D01*
X139209733Y-101364545D01*
X139209733Y-101235455D01*
X139243144Y-101110763D01*
X139307689Y-100998967D01*
X139398969Y-100907687D01*
X139510765Y-100843142D01*
X139635457Y-100809731D01*
X139764547Y-100809731D01*
X139889239Y-100843142D01*
G37*
G36*
X146689235Y-100843142D02*
G01*
X146801031Y-100907687D01*
X146892311Y-100998967D01*
X146956856Y-101110763D01*
X146990267Y-101235455D01*
X146990267Y-101364545D01*
X146956856Y-101489237D01*
X146892311Y-101601033D01*
X146801031Y-101692313D01*
X146689235Y-101756858D01*
X146564543Y-101790269D01*
X146435453Y-101790269D01*
X146310761Y-101756858D01*
X146198965Y-101692313D01*
X146107685Y-101601033D01*
X146043140Y-101489237D01*
X146009729Y-101364545D01*
X146009729Y-101235455D01*
X146043140Y-101110763D01*
X146107685Y-100998967D01*
X146198965Y-100907687D01*
X146310761Y-100843142D01*
X146435453Y-100809731D01*
X146564543Y-100809731D01*
X146689235Y-100843142D01*
G37*
G36*
X117795796Y-100994082D02*
G01*
X117855815Y-101034185D01*
X117895918Y-101094204D01*
X117910000Y-101165000D01*
X117910000Y-101535000D01*
X117895918Y-101605796D01*
X117855815Y-101665815D01*
X117795796Y-101705918D01*
X117725000Y-101720000D01*
X117455000Y-101720000D01*
X117384204Y-101705918D01*
X117324185Y-101665815D01*
X117284082Y-101605796D01*
X117270000Y-101535000D01*
X117270000Y-101165000D01*
X117284082Y-101094204D01*
X117324185Y-101034185D01*
X117384204Y-100994082D01*
X117455000Y-100980000D01*
X117725000Y-100980000D01*
X117795796Y-100994082D01*
G37*
G36*
X118815796Y-100994082D02*
G01*
X118875815Y-101034185D01*
X118915918Y-101094204D01*
X118930000Y-101165000D01*
X118930000Y-101535000D01*
X118915918Y-101605796D01*
X118875815Y-101665815D01*
X118815796Y-101705918D01*
X118745000Y-101720000D01*
X118475000Y-101720000D01*
X118404204Y-101705918D01*
X118344185Y-101665815D01*
X118304082Y-101605796D01*
X118290000Y-101535000D01*
X118290000Y-101165000D01*
X118304082Y-101094204D01*
X118344185Y-101034185D01*
X118404204Y-100994082D01*
X118475000Y-100980000D01*
X118745000Y-100980000D01*
X118815796Y-100994082D01*
G37*
G36*
X106632710Y-100804463D02*
G01*
X106694350Y-100845650D01*
X106735537Y-100907290D01*
X106750000Y-100980000D01*
X106750000Y-101320000D01*
X106735537Y-101392710D01*
X106694350Y-101454350D01*
X106632710Y-101495537D01*
X106560000Y-101510000D01*
X106280000Y-101510000D01*
X106207290Y-101495537D01*
X106145650Y-101454350D01*
X106104463Y-101392710D01*
X106090000Y-101320000D01*
X106090000Y-100980000D01*
X106104463Y-100907290D01*
X106145650Y-100845650D01*
X106207290Y-100804463D01*
X106280000Y-100790000D01*
X106560000Y-100790000D01*
X106632710Y-100804463D01*
G37*
G36*
X107592710Y-100804463D02*
G01*
X107654350Y-100845650D01*
X107695537Y-100907290D01*
X107710000Y-100980000D01*
X107710000Y-101320000D01*
X107695537Y-101392710D01*
X107654350Y-101454350D01*
X107592710Y-101495537D01*
X107520000Y-101510000D01*
X107240000Y-101510000D01*
X107167290Y-101495537D01*
X107105650Y-101454350D01*
X107064463Y-101392710D01*
X107050000Y-101320000D01*
X107050000Y-100980000D01*
X107064463Y-100907290D01*
X107105650Y-100845650D01*
X107167290Y-100804463D01*
X107240000Y-100790000D01*
X107520000Y-100790000D01*
X107592710Y-100804463D01*
G37*
G36*
X142055796Y-100834082D02*
G01*
X142115815Y-100874185D01*
X142155918Y-100934204D01*
X142170000Y-101005000D01*
X142170000Y-101275000D01*
X142155918Y-101345796D01*
X142115815Y-101405815D01*
X142055796Y-101445918D01*
X141985000Y-101460000D01*
X141615000Y-101460000D01*
X141544204Y-101445918D01*
X141484185Y-101405815D01*
X141444082Y-101345796D01*
X141430000Y-101275000D01*
X141430000Y-101005000D01*
X141444082Y-100934204D01*
X141484185Y-100874185D01*
X141544204Y-100834082D01*
X141615000Y-100820000D01*
X141985000Y-100820000D01*
X142055796Y-100834082D01*
G37*
G36*
X143255796Y-100834082D02*
G01*
X143315815Y-100874185D01*
X143355918Y-100934204D01*
X143370000Y-101005000D01*
X143370000Y-101275000D01*
X143355918Y-101345796D01*
X143315815Y-101405815D01*
X143255796Y-101445918D01*
X143185000Y-101460000D01*
X142815000Y-101460000D01*
X142744204Y-101445918D01*
X142684185Y-101405815D01*
X142644082Y-101345796D01*
X142630000Y-101275000D01*
X142630000Y-101005000D01*
X142644082Y-100934204D01*
X142684185Y-100874185D01*
X142744204Y-100834082D01*
X142815000Y-100820000D01*
X143185000Y-100820000D01*
X143255796Y-100834082D01*
G37*
G36*
X144455796Y-100834082D02*
G01*
X144515815Y-100874185D01*
X144555918Y-100934204D01*
X144570000Y-101005000D01*
X144570000Y-101275000D01*
X144555918Y-101345796D01*
X144515815Y-101405815D01*
X144455796Y-101445918D01*
X144385000Y-101460000D01*
X144015000Y-101460000D01*
X143944204Y-101445918D01*
X143884185Y-101405815D01*
X143844082Y-101345796D01*
X143830000Y-101275000D01*
X143830000Y-101005000D01*
X143844082Y-100934204D01*
X143884185Y-100874185D01*
X143944204Y-100834082D01*
X144015000Y-100820000D01*
X144385000Y-100820000D01*
X144455796Y-100834082D01*
G37*
G36*
X145655796Y-100834082D02*
G01*
X145715815Y-100874185D01*
X145755918Y-100934204D01*
X145770000Y-101005000D01*
X145770000Y-101275000D01*
X145755918Y-101345796D01*
X145715815Y-101405815D01*
X145655796Y-101445918D01*
X145585000Y-101460000D01*
X145215000Y-101460000D01*
X145144204Y-101445918D01*
X145084185Y-101405815D01*
X145044082Y-101345796D01*
X145030000Y-101275000D01*
X145030000Y-101005000D01*
X145044082Y-100934204D01*
X145084185Y-100874185D01*
X145144204Y-100834082D01*
X145215000Y-100820000D01*
X145585000Y-100820000D01*
X145655796Y-100834082D01*
G37*
G36*
X138576537Y-100465224D02*
G01*
X138641421Y-100508579D01*
X138684776Y-100573463D01*
X138700000Y-100650000D01*
X138700000Y-100950000D01*
X138684776Y-101026537D01*
X138641421Y-101091421D01*
X138576537Y-101134776D01*
X138500000Y-101150000D01*
X138100000Y-101150000D01*
X138023463Y-101134776D01*
X137958579Y-101091421D01*
X137915224Y-101026537D01*
X137900000Y-100950000D01*
X137900000Y-100650000D01*
X137915224Y-100573463D01*
X137958579Y-100508579D01*
X138023463Y-100465224D01*
X138100000Y-100450000D01*
X138500000Y-100450000D01*
X138576537Y-100465224D01*
G37*
G36*
X94669134Y-99103806D02*
G01*
X94685355Y-99114645D01*
X94696194Y-99130866D01*
X94700000Y-99150000D01*
X94700000Y-100850000D01*
X94696194Y-100869134D01*
X94685355Y-100885355D01*
X94669134Y-100896194D01*
X94650000Y-100900000D01*
X92950000Y-100900000D01*
X92930866Y-100896194D01*
X92914645Y-100885355D01*
X92903806Y-100869134D01*
X92900000Y-100850000D01*
X92900000Y-99150000D01*
X92903806Y-99130866D01*
X92914645Y-99114645D01*
X92930866Y-99103806D01*
X92950000Y-99100000D01*
X94650000Y-99100000D01*
X94669134Y-99103806D01*
G37*
G36*
X117795796Y-99944082D02*
G01*
X117855815Y-99984185D01*
X117895918Y-100044204D01*
X117910000Y-100115000D01*
X117910000Y-100485000D01*
X117895918Y-100555796D01*
X117855815Y-100615815D01*
X117795796Y-100655918D01*
X117725000Y-100670000D01*
X117455000Y-100670000D01*
X117384204Y-100655918D01*
X117324185Y-100615815D01*
X117284082Y-100555796D01*
X117270000Y-100485000D01*
X117270000Y-100115000D01*
X117284082Y-100044204D01*
X117324185Y-99984185D01*
X117384204Y-99944082D01*
X117455000Y-99930000D01*
X117725000Y-99930000D01*
X117795796Y-99944082D01*
G37*
G36*
X118815796Y-99944082D02*
G01*
X118875815Y-99984185D01*
X118915918Y-100044204D01*
X118930000Y-100115000D01*
X118930000Y-100485000D01*
X118915918Y-100555796D01*
X118875815Y-100615815D01*
X118815796Y-100655918D01*
X118745000Y-100670000D01*
X118475000Y-100670000D01*
X118404204Y-100655918D01*
X118344185Y-100615815D01*
X118304082Y-100555796D01*
X118290000Y-100485000D01*
X118290000Y-100115000D01*
X118304082Y-100044204D01*
X118344185Y-99984185D01*
X118404204Y-99944082D01*
X118475000Y-99930000D01*
X118745000Y-99930000D01*
X118815796Y-99944082D01*
G37*
G36*
X119945796Y-99944082D02*
G01*
X120005815Y-99984185D01*
X120045918Y-100044204D01*
X120060000Y-100115000D01*
X120060000Y-100485000D01*
X120045918Y-100555796D01*
X120005815Y-100615815D01*
X119945796Y-100655918D01*
X119875000Y-100670000D01*
X119605000Y-100670000D01*
X119534204Y-100655918D01*
X119474185Y-100615815D01*
X119434082Y-100555796D01*
X119420000Y-100485000D01*
X119420000Y-100115000D01*
X119434082Y-100044204D01*
X119474185Y-99984185D01*
X119534204Y-99944082D01*
X119605000Y-99930000D01*
X119875000Y-99930000D01*
X119945796Y-99944082D01*
G37*
G36*
X120965796Y-99944082D02*
G01*
X121025815Y-99984185D01*
X121065918Y-100044204D01*
X121080000Y-100115000D01*
X121080000Y-100485000D01*
X121065918Y-100555796D01*
X121025815Y-100615815D01*
X120965796Y-100655918D01*
X120895000Y-100670000D01*
X120625000Y-100670000D01*
X120554204Y-100655918D01*
X120494185Y-100615815D01*
X120454082Y-100555796D01*
X120440000Y-100485000D01*
X120440000Y-100115000D01*
X120454082Y-100044204D01*
X120494185Y-99984185D01*
X120554204Y-99944082D01*
X120625000Y-99930000D01*
X120895000Y-99930000D01*
X120965796Y-99944082D01*
G37*
G36*
X140826537Y-99965224D02*
G01*
X140891421Y-100008579D01*
X140934776Y-100073463D01*
X140950000Y-100150000D01*
X140950000Y-100450000D01*
X140934776Y-100526537D01*
X140891421Y-100591421D01*
X140826537Y-100634776D01*
X140750000Y-100650000D01*
X140350000Y-100650000D01*
X140273463Y-100634776D01*
X140208579Y-100591421D01*
X140165224Y-100526537D01*
X140150000Y-100450000D01*
X140150000Y-100150000D01*
X140165224Y-100073463D01*
X140208579Y-100008579D01*
X140273463Y-99965224D01*
X140350000Y-99950000D01*
X140750000Y-99950000D01*
X140826537Y-99965224D01*
G37*
G36*
X106595796Y-99744082D02*
G01*
X106655815Y-99784185D01*
X106695918Y-99844204D01*
X106710000Y-99915000D01*
X106710000Y-100285000D01*
X106695918Y-100355796D01*
X106655815Y-100415815D01*
X106595796Y-100455918D01*
X106525000Y-100470000D01*
X106255000Y-100470000D01*
X106184204Y-100455918D01*
X106124185Y-100415815D01*
X106084082Y-100355796D01*
X106070000Y-100285000D01*
X106070000Y-99915000D01*
X106084082Y-99844204D01*
X106124185Y-99784185D01*
X106184204Y-99744082D01*
X106255000Y-99730000D01*
X106525000Y-99730000D01*
X106595796Y-99744082D01*
G37*
G36*
X107615796Y-99744082D02*
G01*
X107675815Y-99784185D01*
X107715918Y-99844204D01*
X107730000Y-99915000D01*
X107730000Y-100285000D01*
X107715918Y-100355796D01*
X107675815Y-100415815D01*
X107615796Y-100455918D01*
X107545000Y-100470000D01*
X107275000Y-100470000D01*
X107204204Y-100455918D01*
X107144185Y-100415815D01*
X107104082Y-100355796D01*
X107090000Y-100285000D01*
X107090000Y-99915000D01*
X107104082Y-99844204D01*
X107144185Y-99784185D01*
X107204204Y-99744082D01*
X107275000Y-99730000D01*
X107545000Y-99730000D01*
X107615796Y-99744082D01*
G37*
G36*
X124368685Y-99207969D02*
G01*
X124377358Y-99211798D01*
X124384925Y-99212901D01*
X124432223Y-99236023D01*
X124469541Y-99252501D01*
X124472996Y-99255956D01*
X124473920Y-99256408D01*
X124543591Y-99326079D01*
X124544042Y-99327002D01*
X124547499Y-99330459D01*
X124563978Y-99367782D01*
X124587098Y-99415073D01*
X124588200Y-99422639D01*
X124592031Y-99431315D01*
X124600000Y-99500000D01*
X124600000Y-100150000D01*
X124592031Y-100218685D01*
X124588199Y-100227361D01*
X124587098Y-100234925D01*
X124563985Y-100282202D01*
X124547499Y-100319541D01*
X124544041Y-100322998D01*
X124543591Y-100323920D01*
X124473920Y-100393591D01*
X124472998Y-100394041D01*
X124469541Y-100397499D01*
X124432207Y-100413983D01*
X124384926Y-100437098D01*
X124377361Y-100438200D01*
X124368685Y-100442031D01*
X124300000Y-100450000D01*
X122100000Y-100450000D01*
X122031315Y-100442031D01*
X122022638Y-100438200D01*
X122015074Y-100437098D01*
X121967787Y-100413981D01*
X121930459Y-100397499D01*
X121927002Y-100394042D01*
X121926079Y-100393591D01*
X121856408Y-100323920D01*
X121855956Y-100322996D01*
X121852501Y-100319541D01*
X121836025Y-100282228D01*
X121812901Y-100234926D01*
X121811798Y-100227357D01*
X121807969Y-100218685D01*
X121800000Y-100150000D01*
X121800000Y-99500000D01*
X121807969Y-99431315D01*
X121811798Y-99422642D01*
X121812901Y-99415074D01*
X121836028Y-99367766D01*
X121852501Y-99330459D01*
X121855955Y-99327004D01*
X121856408Y-99326079D01*
X121926079Y-99256408D01*
X121927004Y-99255955D01*
X121930459Y-99252501D01*
X121967761Y-99236030D01*
X122015073Y-99212901D01*
X122022642Y-99211798D01*
X122031315Y-99207969D01*
X122100000Y-99200000D01*
X124300000Y-99200000D01*
X124368685Y-99207969D01*
G37*
G36*
X127568685Y-99207969D02*
G01*
X127577358Y-99211798D01*
X127584925Y-99212901D01*
X127632223Y-99236023D01*
X127669541Y-99252501D01*
X127672996Y-99255956D01*
X127673920Y-99256408D01*
X127743591Y-99326079D01*
X127744042Y-99327002D01*
X127747499Y-99330459D01*
X127763978Y-99367782D01*
X127787098Y-99415073D01*
X127788200Y-99422639D01*
X127792031Y-99431315D01*
X127800000Y-99500000D01*
X127800000Y-100150000D01*
X127792031Y-100218685D01*
X127788199Y-100227361D01*
X127787098Y-100234925D01*
X127763985Y-100282202D01*
X127747499Y-100319541D01*
X127744041Y-100322998D01*
X127743591Y-100323920D01*
X127673920Y-100393591D01*
X127672998Y-100394041D01*
X127669541Y-100397499D01*
X127632207Y-100413983D01*
X127584926Y-100437098D01*
X127577361Y-100438200D01*
X127568685Y-100442031D01*
X127500000Y-100450000D01*
X125300000Y-100450000D01*
X125231315Y-100442031D01*
X125222638Y-100438200D01*
X125215074Y-100437098D01*
X125167787Y-100413981D01*
X125130459Y-100397499D01*
X125127002Y-100394042D01*
X125126079Y-100393591D01*
X125056408Y-100323920D01*
X125055956Y-100322996D01*
X125052501Y-100319541D01*
X125036025Y-100282228D01*
X125012901Y-100234926D01*
X125011798Y-100227357D01*
X125007969Y-100218685D01*
X125000000Y-100150000D01*
X125000000Y-99500000D01*
X125007969Y-99431315D01*
X125011798Y-99422642D01*
X125012901Y-99415074D01*
X125036028Y-99367766D01*
X125052501Y-99330459D01*
X125055955Y-99327004D01*
X125056408Y-99326079D01*
X125126079Y-99256408D01*
X125127004Y-99255955D01*
X125130459Y-99252501D01*
X125167761Y-99236030D01*
X125215073Y-99212901D01*
X125222642Y-99211798D01*
X125231315Y-99207969D01*
X125300000Y-99200000D01*
X127500000Y-99200000D01*
X127568685Y-99207969D01*
G37*
G36*
X130768685Y-99207969D02*
G01*
X130777358Y-99211798D01*
X130784925Y-99212901D01*
X130832223Y-99236023D01*
X130869541Y-99252501D01*
X130872996Y-99255956D01*
X130873920Y-99256408D01*
X130943591Y-99326079D01*
X130944042Y-99327002D01*
X130947499Y-99330459D01*
X130963978Y-99367782D01*
X130987098Y-99415073D01*
X130988200Y-99422639D01*
X130992031Y-99431315D01*
X131000000Y-99500000D01*
X131000000Y-100150000D01*
X130992031Y-100218685D01*
X130988199Y-100227361D01*
X130987098Y-100234925D01*
X130963985Y-100282202D01*
X130947499Y-100319541D01*
X130944041Y-100322998D01*
X130943591Y-100323920D01*
X130873920Y-100393591D01*
X130872998Y-100394041D01*
X130869541Y-100397499D01*
X130832207Y-100413983D01*
X130784926Y-100437098D01*
X130777361Y-100438200D01*
X130768685Y-100442031D01*
X130700000Y-100450000D01*
X128500000Y-100450000D01*
X128431315Y-100442031D01*
X128422638Y-100438200D01*
X128415074Y-100437098D01*
X128367787Y-100413981D01*
X128330459Y-100397499D01*
X128327002Y-100394042D01*
X128326079Y-100393591D01*
X128256408Y-100323920D01*
X128255956Y-100322996D01*
X128252501Y-100319541D01*
X128236025Y-100282228D01*
X128212901Y-100234926D01*
X128211798Y-100227357D01*
X128207969Y-100218685D01*
X128200000Y-100150000D01*
X128200000Y-99500000D01*
X128207969Y-99431315D01*
X128211798Y-99422642D01*
X128212901Y-99415074D01*
X128236028Y-99367766D01*
X128252501Y-99330459D01*
X128255955Y-99327004D01*
X128256408Y-99326079D01*
X128326079Y-99256408D01*
X128327004Y-99255955D01*
X128330459Y-99252501D01*
X128367761Y-99236030D01*
X128415073Y-99212901D01*
X128422642Y-99211798D01*
X128431315Y-99207969D01*
X128500000Y-99200000D01*
X130700000Y-99200000D01*
X130768685Y-99207969D01*
G37*
G36*
X133968685Y-99207969D02*
G01*
X133977358Y-99211798D01*
X133984925Y-99212901D01*
X134032223Y-99236023D01*
X134069541Y-99252501D01*
X134072996Y-99255956D01*
X134073920Y-99256408D01*
X134143591Y-99326079D01*
X134144042Y-99327002D01*
X134147499Y-99330459D01*
X134163978Y-99367782D01*
X134187098Y-99415073D01*
X134188200Y-99422639D01*
X134192031Y-99431315D01*
X134200000Y-99500000D01*
X134200000Y-100150000D01*
X134192031Y-100218685D01*
X134188199Y-100227361D01*
X134187098Y-100234925D01*
X134163985Y-100282202D01*
X134147499Y-100319541D01*
X134144041Y-100322998D01*
X134143591Y-100323920D01*
X134073920Y-100393591D01*
X134072998Y-100394041D01*
X134069541Y-100397499D01*
X134032207Y-100413983D01*
X133984926Y-100437098D01*
X133977361Y-100438200D01*
X133968685Y-100442031D01*
X133900000Y-100450000D01*
X131700000Y-100450000D01*
X131631315Y-100442031D01*
X131622638Y-100438200D01*
X131615074Y-100437098D01*
X131567787Y-100413981D01*
X131530459Y-100397499D01*
X131527002Y-100394042D01*
X131526079Y-100393591D01*
X131456408Y-100323920D01*
X131455956Y-100322996D01*
X131452501Y-100319541D01*
X131436025Y-100282228D01*
X131412901Y-100234926D01*
X131411798Y-100227357D01*
X131407969Y-100218685D01*
X131400000Y-100150000D01*
X131400000Y-99500000D01*
X131407969Y-99431315D01*
X131411798Y-99422642D01*
X131412901Y-99415074D01*
X131436028Y-99367766D01*
X131452501Y-99330459D01*
X131455955Y-99327004D01*
X131456408Y-99326079D01*
X131526079Y-99256408D01*
X131527004Y-99255955D01*
X131530459Y-99252501D01*
X131567761Y-99236030D01*
X131615073Y-99212901D01*
X131622642Y-99211798D01*
X131631315Y-99207969D01*
X131700000Y-99200000D01*
X133900000Y-99200000D01*
X133968685Y-99207969D01*
G37*
G36*
X137168685Y-99207969D02*
G01*
X137177358Y-99211798D01*
X137184925Y-99212901D01*
X137232223Y-99236023D01*
X137269541Y-99252501D01*
X137272996Y-99255956D01*
X137273920Y-99256408D01*
X137343591Y-99326079D01*
X137344042Y-99327002D01*
X137347499Y-99330459D01*
X137363978Y-99367782D01*
X137387098Y-99415073D01*
X137388200Y-99422639D01*
X137392031Y-99431315D01*
X137400000Y-99500000D01*
X137400000Y-100150000D01*
X137392031Y-100218685D01*
X137388199Y-100227361D01*
X137387098Y-100234925D01*
X137363985Y-100282202D01*
X137347499Y-100319541D01*
X137344041Y-100322998D01*
X137343591Y-100323920D01*
X137273920Y-100393591D01*
X137272998Y-100394041D01*
X137269541Y-100397499D01*
X137232207Y-100413983D01*
X137184926Y-100437098D01*
X137177361Y-100438200D01*
X137168685Y-100442031D01*
X137100000Y-100450000D01*
X134900000Y-100450000D01*
X134831315Y-100442031D01*
X134822638Y-100438200D01*
X134815074Y-100437098D01*
X134767787Y-100413981D01*
X134730459Y-100397499D01*
X134727002Y-100394042D01*
X134726079Y-100393591D01*
X134656408Y-100323920D01*
X134655956Y-100322996D01*
X134652501Y-100319541D01*
X134636025Y-100282228D01*
X134612901Y-100234926D01*
X134611798Y-100227357D01*
X134607969Y-100218685D01*
X134600000Y-100150000D01*
X134600000Y-99500000D01*
X134607969Y-99431315D01*
X134611798Y-99422642D01*
X134612901Y-99415074D01*
X134636028Y-99367766D01*
X134652501Y-99330459D01*
X134655955Y-99327004D01*
X134656408Y-99326079D01*
X134726079Y-99256408D01*
X134727004Y-99255955D01*
X134730459Y-99252501D01*
X134767761Y-99236030D01*
X134815073Y-99212901D01*
X134822642Y-99211798D01*
X134831315Y-99207969D01*
X134900000Y-99200000D01*
X137100000Y-99200000D01*
X137168685Y-99207969D01*
G37*
G36*
X142055796Y-99554082D02*
G01*
X142115815Y-99594185D01*
X142155918Y-99654204D01*
X142170000Y-99725000D01*
X142170000Y-99995000D01*
X142155918Y-100065796D01*
X142115815Y-100125815D01*
X142055796Y-100165918D01*
X141985000Y-100180000D01*
X141615000Y-100180000D01*
X141544204Y-100165918D01*
X141484185Y-100125815D01*
X141444082Y-100065796D01*
X141430000Y-99995000D01*
X141430000Y-99725000D01*
X141444082Y-99654204D01*
X141484185Y-99594185D01*
X141544204Y-99554082D01*
X141615000Y-99540000D01*
X141985000Y-99540000D01*
X142055796Y-99554082D01*
G37*
G36*
X143255796Y-99554082D02*
G01*
X143315815Y-99594185D01*
X143355918Y-99654204D01*
X143370000Y-99725000D01*
X143370000Y-99995000D01*
X143355918Y-100065796D01*
X143315815Y-100125815D01*
X143255796Y-100165918D01*
X143185000Y-100180000D01*
X142815000Y-100180000D01*
X142744204Y-100165918D01*
X142684185Y-100125815D01*
X142644082Y-100065796D01*
X142630000Y-99995000D01*
X142630000Y-99725000D01*
X142644082Y-99654204D01*
X142684185Y-99594185D01*
X142744204Y-99554082D01*
X142815000Y-99540000D01*
X143185000Y-99540000D01*
X143255796Y-99554082D01*
G37*
G36*
X144455796Y-99554082D02*
G01*
X144515815Y-99594185D01*
X144555918Y-99654204D01*
X144570000Y-99725000D01*
X144570000Y-99995000D01*
X144555918Y-100065796D01*
X144515815Y-100125815D01*
X144455796Y-100165918D01*
X144385000Y-100180000D01*
X144015000Y-100180000D01*
X143944204Y-100165918D01*
X143884185Y-100125815D01*
X143844082Y-100065796D01*
X143830000Y-99995000D01*
X143830000Y-99725000D01*
X143844082Y-99654204D01*
X143884185Y-99594185D01*
X143944204Y-99554082D01*
X144015000Y-99540000D01*
X144385000Y-99540000D01*
X144455796Y-99554082D01*
G37*
G36*
X145655796Y-99554082D02*
G01*
X145715815Y-99594185D01*
X145755918Y-99654204D01*
X145770000Y-99725000D01*
X145770000Y-99995000D01*
X145755918Y-100065796D01*
X145715815Y-100125815D01*
X145655796Y-100165918D01*
X145585000Y-100180000D01*
X145215000Y-100180000D01*
X145144204Y-100165918D01*
X145084185Y-100125815D01*
X145044082Y-100065796D01*
X145030000Y-99995000D01*
X145030000Y-99725000D01*
X145044082Y-99654204D01*
X145084185Y-99594185D01*
X145144204Y-99554082D01*
X145215000Y-99540000D01*
X145585000Y-99540000D01*
X145655796Y-99554082D01*
G37*
G36*
X108916537Y-97815224D02*
G01*
X108981421Y-97858579D01*
X109024776Y-97923463D01*
X109040000Y-98000000D01*
X109040000Y-99650000D01*
X109024776Y-99726537D01*
X108981421Y-99791421D01*
X108916537Y-99834776D01*
X108840000Y-99850000D01*
X108540000Y-99850000D01*
X108463463Y-99834776D01*
X108398579Y-99791421D01*
X108355224Y-99726537D01*
X108340000Y-99650000D01*
X108340000Y-98000000D01*
X108355224Y-97923463D01*
X108398579Y-97858579D01*
X108463463Y-97815224D01*
X108540000Y-97800000D01*
X108840000Y-97800000D01*
X108916537Y-97815224D01*
G37*
G36*
X110186537Y-97815224D02*
G01*
X110251421Y-97858579D01*
X110294776Y-97923463D01*
X110310000Y-98000000D01*
X110310000Y-99650000D01*
X110294776Y-99726537D01*
X110251421Y-99791421D01*
X110186537Y-99834776D01*
X110110000Y-99850000D01*
X109810000Y-99850000D01*
X109733463Y-99834776D01*
X109668579Y-99791421D01*
X109625224Y-99726537D01*
X109610000Y-99650000D01*
X109610000Y-98000000D01*
X109625224Y-97923463D01*
X109668579Y-97858579D01*
X109733463Y-97815224D01*
X109810000Y-97800000D01*
X110110000Y-97800000D01*
X110186537Y-97815224D01*
G37*
G36*
X111456537Y-97815224D02*
G01*
X111521421Y-97858579D01*
X111564776Y-97923463D01*
X111580000Y-98000000D01*
X111580000Y-99650000D01*
X111564776Y-99726537D01*
X111521421Y-99791421D01*
X111456537Y-99834776D01*
X111380000Y-99850000D01*
X111080000Y-99850000D01*
X111003463Y-99834776D01*
X110938579Y-99791421D01*
X110895224Y-99726537D01*
X110880000Y-99650000D01*
X110880000Y-98000000D01*
X110895224Y-97923463D01*
X110938579Y-97858579D01*
X111003463Y-97815224D01*
X111080000Y-97800000D01*
X111380000Y-97800000D01*
X111456537Y-97815224D01*
G37*
G36*
X112726537Y-97815224D02*
G01*
X112791421Y-97858579D01*
X112834776Y-97923463D01*
X112850000Y-98000000D01*
X112850000Y-99650000D01*
X112834776Y-99726537D01*
X112791421Y-99791421D01*
X112726537Y-99834776D01*
X112650000Y-99850000D01*
X112350000Y-99850000D01*
X112273463Y-99834776D01*
X112208579Y-99791421D01*
X112165224Y-99726537D01*
X112150000Y-99650000D01*
X112150000Y-98000000D01*
X112165224Y-97923463D01*
X112208579Y-97858579D01*
X112273463Y-97815224D01*
X112350000Y-97800000D01*
X112650000Y-97800000D01*
X112726537Y-97815224D01*
G37*
G36*
X113996537Y-97815224D02*
G01*
X114061421Y-97858579D01*
X114104776Y-97923463D01*
X114120000Y-98000000D01*
X114120000Y-99650000D01*
X114104776Y-99726537D01*
X114061421Y-99791421D01*
X113996537Y-99834776D01*
X113920000Y-99850000D01*
X113620000Y-99850000D01*
X113543463Y-99834776D01*
X113478579Y-99791421D01*
X113435224Y-99726537D01*
X113420000Y-99650000D01*
X113420000Y-98000000D01*
X113435224Y-97923463D01*
X113478579Y-97858579D01*
X113543463Y-97815224D01*
X113620000Y-97800000D01*
X113920000Y-97800000D01*
X113996537Y-97815224D01*
G37*
G36*
X115266537Y-97815224D02*
G01*
X115331421Y-97858579D01*
X115374776Y-97923463D01*
X115390000Y-98000000D01*
X115390000Y-99650000D01*
X115374776Y-99726537D01*
X115331421Y-99791421D01*
X115266537Y-99834776D01*
X115190000Y-99850000D01*
X114890000Y-99850000D01*
X114813463Y-99834776D01*
X114748579Y-99791421D01*
X114705224Y-99726537D01*
X114690000Y-99650000D01*
X114690000Y-98000000D01*
X114705224Y-97923463D01*
X114748579Y-97858579D01*
X114813463Y-97815224D01*
X114890000Y-97800000D01*
X115190000Y-97800000D01*
X115266537Y-97815224D01*
G37*
G36*
X116536537Y-97815224D02*
G01*
X116601421Y-97858579D01*
X116644776Y-97923463D01*
X116660000Y-98000000D01*
X116660000Y-99650000D01*
X116644776Y-99726537D01*
X116601421Y-99791421D01*
X116536537Y-99834776D01*
X116460000Y-99850000D01*
X116160000Y-99850000D01*
X116083463Y-99834776D01*
X116018579Y-99791421D01*
X115975224Y-99726537D01*
X115960000Y-99650000D01*
X115960000Y-98000000D01*
X115975224Y-97923463D01*
X116018579Y-97858579D01*
X116083463Y-97815224D01*
X116160000Y-97800000D01*
X116460000Y-97800000D01*
X116536537Y-97815224D01*
G37*
G36*
X138576537Y-99065224D02*
G01*
X138641421Y-99108579D01*
X138684776Y-99173463D01*
X138700000Y-99250000D01*
X138700000Y-99550000D01*
X138684776Y-99626537D01*
X138641421Y-99691421D01*
X138576537Y-99734776D01*
X138500000Y-99750000D01*
X138100000Y-99750000D01*
X138023463Y-99734776D01*
X137958579Y-99691421D01*
X137915224Y-99626537D01*
X137900000Y-99550000D01*
X137900000Y-99250000D01*
X137915224Y-99173463D01*
X137958579Y-99108579D01*
X138023463Y-99065224D01*
X138100000Y-99050000D01*
X138500000Y-99050000D01*
X138576537Y-99065224D01*
G37*
G36*
X119945796Y-98894082D02*
G01*
X120005815Y-98934185D01*
X120045918Y-98994204D01*
X120060000Y-99065000D01*
X120060000Y-99435000D01*
X120045918Y-99505796D01*
X120005815Y-99565815D01*
X119945796Y-99605918D01*
X119875000Y-99620000D01*
X119605000Y-99620000D01*
X119534204Y-99605918D01*
X119474185Y-99565815D01*
X119434082Y-99505796D01*
X119420000Y-99435000D01*
X119420000Y-99065000D01*
X119434082Y-98994204D01*
X119474185Y-98934185D01*
X119534204Y-98894082D01*
X119605000Y-98880000D01*
X119875000Y-98880000D01*
X119945796Y-98894082D01*
G37*
G36*
X120965796Y-98894082D02*
G01*
X121025815Y-98934185D01*
X121065918Y-98994204D01*
X121080000Y-99065000D01*
X121080000Y-99435000D01*
X121065918Y-99505796D01*
X121025815Y-99565815D01*
X120965796Y-99605918D01*
X120895000Y-99620000D01*
X120625000Y-99620000D01*
X120554204Y-99605918D01*
X120494185Y-99565815D01*
X120454082Y-99505796D01*
X120440000Y-99435000D01*
X120440000Y-99065000D01*
X120454082Y-98994204D01*
X120494185Y-98934185D01*
X120554204Y-98894082D01*
X120625000Y-98880000D01*
X120895000Y-98880000D01*
X120965796Y-98894082D01*
G37*
G36*
X117832710Y-98904463D02*
G01*
X117894350Y-98945650D01*
X117935537Y-99007290D01*
X117950000Y-99080000D01*
X117950000Y-99420000D01*
X117935537Y-99492710D01*
X117894350Y-99554350D01*
X117832710Y-99595537D01*
X117760000Y-99610000D01*
X117480000Y-99610000D01*
X117407290Y-99595537D01*
X117345650Y-99554350D01*
X117304463Y-99492710D01*
X117290000Y-99420000D01*
X117290000Y-99080000D01*
X117304463Y-99007290D01*
X117345650Y-98945650D01*
X117407290Y-98904463D01*
X117480000Y-98890000D01*
X117760000Y-98890000D01*
X117832710Y-98904463D01*
G37*
G36*
X118792710Y-98904463D02*
G01*
X118854350Y-98945650D01*
X118895537Y-99007290D01*
X118910000Y-99080000D01*
X118910000Y-99420000D01*
X118895537Y-99492710D01*
X118854350Y-99554350D01*
X118792710Y-99595537D01*
X118720000Y-99610000D01*
X118440000Y-99610000D01*
X118367290Y-99595537D01*
X118305650Y-99554350D01*
X118264463Y-99492710D01*
X118250000Y-99420000D01*
X118250000Y-99080000D01*
X118264463Y-99007290D01*
X118305650Y-98945650D01*
X118367290Y-98904463D01*
X118440000Y-98890000D01*
X118720000Y-98890000D01*
X118792710Y-98904463D01*
G37*
G36*
X106632710Y-98704463D02*
G01*
X106694350Y-98745650D01*
X106735537Y-98807290D01*
X106750000Y-98880000D01*
X106750000Y-99220000D01*
X106735537Y-99292710D01*
X106694350Y-99354350D01*
X106632710Y-99395537D01*
X106560000Y-99410000D01*
X106280000Y-99410000D01*
X106207290Y-99395537D01*
X106145650Y-99354350D01*
X106104463Y-99292710D01*
X106090000Y-99220000D01*
X106090000Y-98880000D01*
X106104463Y-98807290D01*
X106145650Y-98745650D01*
X106207290Y-98704463D01*
X106280000Y-98690000D01*
X106560000Y-98690000D01*
X106632710Y-98704463D01*
G37*
G36*
X107592710Y-98704463D02*
G01*
X107654350Y-98745650D01*
X107695537Y-98807290D01*
X107710000Y-98880000D01*
X107710000Y-99220000D01*
X107695537Y-99292710D01*
X107654350Y-99354350D01*
X107592710Y-99395537D01*
X107520000Y-99410000D01*
X107240000Y-99410000D01*
X107167290Y-99395537D01*
X107105650Y-99354350D01*
X107064463Y-99292710D01*
X107050000Y-99220000D01*
X107050000Y-98880000D01*
X107064463Y-98807290D01*
X107105650Y-98745650D01*
X107167290Y-98704463D01*
X107240000Y-98690000D01*
X107520000Y-98690000D01*
X107592710Y-98704463D01*
G37*
G36*
X105642710Y-98714463D02*
G01*
X105704350Y-98755650D01*
X105745537Y-98817290D01*
X105760000Y-98890000D01*
X105760000Y-99170000D01*
X105745537Y-99242710D01*
X105704350Y-99304350D01*
X105642710Y-99345537D01*
X105570000Y-99360000D01*
X105230000Y-99360000D01*
X105157290Y-99345537D01*
X105095650Y-99304350D01*
X105054463Y-99242710D01*
X105040000Y-99170000D01*
X105040000Y-98890000D01*
X105054463Y-98817290D01*
X105095650Y-98755650D01*
X105157290Y-98714463D01*
X105230000Y-98700000D01*
X105570000Y-98700000D01*
X105642710Y-98714463D01*
G37*
G36*
X140826537Y-98565224D02*
G01*
X140891421Y-98608579D01*
X140934776Y-98673463D01*
X140950000Y-98750000D01*
X140950000Y-99050000D01*
X140934776Y-99126537D01*
X140891421Y-99191421D01*
X140826537Y-99234776D01*
X140750000Y-99250000D01*
X140350000Y-99250000D01*
X140273463Y-99234776D01*
X140208579Y-99191421D01*
X140165224Y-99126537D01*
X140150000Y-99050000D01*
X140150000Y-98750000D01*
X140165224Y-98673463D01*
X140208579Y-98608579D01*
X140273463Y-98565224D01*
X140350000Y-98550000D01*
X140750000Y-98550000D01*
X140826537Y-98565224D01*
G37*
G36*
X142055796Y-98534082D02*
G01*
X142115815Y-98574185D01*
X142155918Y-98634204D01*
X142170000Y-98705000D01*
X142170000Y-98975000D01*
X142155918Y-99045796D01*
X142115815Y-99105815D01*
X142055796Y-99145918D01*
X141985000Y-99160000D01*
X141615000Y-99160000D01*
X141544204Y-99145918D01*
X141484185Y-99105815D01*
X141444082Y-99045796D01*
X141430000Y-98975000D01*
X141430000Y-98705000D01*
X141444082Y-98634204D01*
X141484185Y-98574185D01*
X141544204Y-98534082D01*
X141615000Y-98520000D01*
X141985000Y-98520000D01*
X142055796Y-98534082D01*
G37*
G36*
X143255796Y-98534082D02*
G01*
X143315815Y-98574185D01*
X143355918Y-98634204D01*
X143370000Y-98705000D01*
X143370000Y-98975000D01*
X143355918Y-99045796D01*
X143315815Y-99105815D01*
X143255796Y-99145918D01*
X143185000Y-99160000D01*
X142815000Y-99160000D01*
X142744204Y-99145918D01*
X142684185Y-99105815D01*
X142644082Y-99045796D01*
X142630000Y-98975000D01*
X142630000Y-98705000D01*
X142644082Y-98634204D01*
X142684185Y-98574185D01*
X142744204Y-98534082D01*
X142815000Y-98520000D01*
X143185000Y-98520000D01*
X143255796Y-98534082D01*
G37*
G36*
X144455796Y-98534082D02*
G01*
X144515815Y-98574185D01*
X144555918Y-98634204D01*
X144570000Y-98705000D01*
X144570000Y-98975000D01*
X144555918Y-99045796D01*
X144515815Y-99105815D01*
X144455796Y-99145918D01*
X144385000Y-99160000D01*
X144015000Y-99160000D01*
X143944204Y-99145918D01*
X143884185Y-99105815D01*
X143844082Y-99045796D01*
X143830000Y-98975000D01*
X143830000Y-98705000D01*
X143844082Y-98634204D01*
X143884185Y-98574185D01*
X143944204Y-98534082D01*
X144015000Y-98520000D01*
X144385000Y-98520000D01*
X144455796Y-98534082D01*
G37*
G36*
X145655796Y-98534082D02*
G01*
X145715815Y-98574185D01*
X145755918Y-98634204D01*
X145770000Y-98705000D01*
X145770000Y-98975000D01*
X145755918Y-99045796D01*
X145715815Y-99105815D01*
X145655796Y-99145918D01*
X145585000Y-99160000D01*
X145215000Y-99160000D01*
X145144204Y-99145918D01*
X145084185Y-99105815D01*
X145044082Y-99045796D01*
X145030000Y-98975000D01*
X145030000Y-98705000D01*
X145044082Y-98634204D01*
X145084185Y-98574185D01*
X145144204Y-98534082D01*
X145215000Y-98520000D01*
X145585000Y-98520000D01*
X145655796Y-98534082D01*
G37*
G36*
X117795796Y-97844082D02*
G01*
X117855815Y-97884185D01*
X117895918Y-97944204D01*
X117910000Y-98015000D01*
X117910000Y-98385000D01*
X117895918Y-98455796D01*
X117855815Y-98515815D01*
X117795796Y-98555918D01*
X117725000Y-98570000D01*
X117455000Y-98570000D01*
X117384204Y-98555918D01*
X117324185Y-98515815D01*
X117284082Y-98455796D01*
X117270000Y-98385000D01*
X117270000Y-98015000D01*
X117284082Y-97944204D01*
X117324185Y-97884185D01*
X117384204Y-97844082D01*
X117455000Y-97830000D01*
X117725000Y-97830000D01*
X117795796Y-97844082D01*
G37*
G36*
X118815796Y-97844082D02*
G01*
X118875815Y-97884185D01*
X118915918Y-97944204D01*
X118930000Y-98015000D01*
X118930000Y-98385000D01*
X118915918Y-98455796D01*
X118875815Y-98515815D01*
X118815796Y-98555918D01*
X118745000Y-98570000D01*
X118475000Y-98570000D01*
X118404204Y-98555918D01*
X118344185Y-98515815D01*
X118304082Y-98455796D01*
X118290000Y-98385000D01*
X118290000Y-98015000D01*
X118304082Y-97944204D01*
X118344185Y-97884185D01*
X118404204Y-97844082D01*
X118475000Y-97830000D01*
X118745000Y-97830000D01*
X118815796Y-97844082D01*
G37*
G36*
X119982710Y-97854463D02*
G01*
X120044350Y-97895650D01*
X120085537Y-97957290D01*
X120100000Y-98030000D01*
X120100000Y-98370000D01*
X120085537Y-98442710D01*
X120044350Y-98504350D01*
X119982710Y-98545537D01*
X119910000Y-98560000D01*
X119630000Y-98560000D01*
X119557290Y-98545537D01*
X119495650Y-98504350D01*
X119454463Y-98442710D01*
X119440000Y-98370000D01*
X119440000Y-98030000D01*
X119454463Y-97957290D01*
X119495650Y-97895650D01*
X119557290Y-97854463D01*
X119630000Y-97840000D01*
X119910000Y-97840000D01*
X119982710Y-97854463D01*
G37*
G36*
X120942710Y-97854463D02*
G01*
X121004350Y-97895650D01*
X121045537Y-97957290D01*
X121060000Y-98030000D01*
X121060000Y-98370000D01*
X121045537Y-98442710D01*
X121004350Y-98504350D01*
X120942710Y-98545537D01*
X120870000Y-98560000D01*
X120590000Y-98560000D01*
X120517290Y-98545537D01*
X120455650Y-98504350D01*
X120414463Y-98442710D01*
X120400000Y-98370000D01*
X120400000Y-98030000D01*
X120414463Y-97957290D01*
X120455650Y-97895650D01*
X120517290Y-97854463D01*
X120590000Y-97840000D01*
X120870000Y-97840000D01*
X120942710Y-97854463D01*
G37*
G36*
X105642710Y-97754463D02*
G01*
X105704350Y-97795650D01*
X105745537Y-97857290D01*
X105760000Y-97930000D01*
X105760000Y-98210000D01*
X105745537Y-98282710D01*
X105704350Y-98344350D01*
X105642710Y-98385537D01*
X105570000Y-98400000D01*
X105230000Y-98400000D01*
X105157290Y-98385537D01*
X105095650Y-98344350D01*
X105054463Y-98282710D01*
X105040000Y-98210000D01*
X105040000Y-97930000D01*
X105054463Y-97857290D01*
X105095650Y-97795650D01*
X105157290Y-97754463D01*
X105230000Y-97740000D01*
X105570000Y-97740000D01*
X105642710Y-97754463D01*
G37*
G36*
X106595796Y-97644082D02*
G01*
X106655815Y-97684185D01*
X106695918Y-97744204D01*
X106710000Y-97815000D01*
X106710000Y-98185000D01*
X106695918Y-98255796D01*
X106655815Y-98315815D01*
X106595796Y-98355918D01*
X106525000Y-98370000D01*
X106255000Y-98370000D01*
X106184204Y-98355918D01*
X106124185Y-98315815D01*
X106084082Y-98255796D01*
X106070000Y-98185000D01*
X106070000Y-97815000D01*
X106084082Y-97744204D01*
X106124185Y-97684185D01*
X106184204Y-97644082D01*
X106255000Y-97630000D01*
X106525000Y-97630000D01*
X106595796Y-97644082D01*
G37*
G36*
X107615796Y-97644082D02*
G01*
X107675815Y-97684185D01*
X107715918Y-97744204D01*
X107730000Y-97815000D01*
X107730000Y-98185000D01*
X107715918Y-98255796D01*
X107675815Y-98315815D01*
X107615796Y-98355918D01*
X107545000Y-98370000D01*
X107275000Y-98370000D01*
X107204204Y-98355918D01*
X107144185Y-98315815D01*
X107104082Y-98255796D01*
X107090000Y-98185000D01*
X107090000Y-97815000D01*
X107104082Y-97744204D01*
X107144185Y-97684185D01*
X107204204Y-97644082D01*
X107275000Y-97630000D01*
X107545000Y-97630000D01*
X107615796Y-97644082D01*
G37*
M02*
