M48
; DRILL file {KiCad 9.0.0} date 2026-02-16T12:32:11-0800
; FORMAT={-:-/ absolute / metric / decimal}
; #@! TF.CreationDate,2026-02-16T12:32:11-08:00
; #@! TF.GenerationSoftware,Kicad,Pcbnew,9.0.0
; #@! TF.FileFunction,Plated,1,4,PTH
FMAT,2
METRIC
; #@! TA.AperFunction,Plated,PTH,ViaDrill
T1C0.300
; #@! TA.AperFunction,Plated,PTH,ComponentDrill
T2C1.000
; #@! TA.AperFunction,Plated,PTH,ViaDrill
T3C3.400
%
G90
G05
T1
X105.75Y-100.1
X105.75Y-101.15
X105.75Y-102.2
X105.8Y-104.2
X108.9Y-100.725
X109.036Y-101.986
X109.866Y-100.134
X110.8Y-102.6
X111.536Y-100.994
X113.0Y-97.7
X113.825Y-100.2
X113.825Y-102.2
X114.417Y-102.55
X116.236Y-101.664
X119.305Y-101.295
X119.65Y-103.75
X121.45Y-99.25
X121.45Y-104.276
X124.8Y-102.05
X128.0Y-99.1
X132.7Y-98.9
X133.375Y-101.84
X134.3Y-101.45
X137.75Y-102.525
X138.9Y-100.1
X139.55Y-99.7
X139.6Y-103.5
X139.8Y-99.098
X141.1Y-101.681
X141.8Y-100.5
X142.5Y-102.65
X143.75Y-100.65
X144.6Y-103.498
X144.9Y-98.35
X146.1Y-99.85
X149.8Y-104.0
T2
X93.8Y-100.0
X93.8Y-102.54
X96.4Y-102.5
T3
X101.1Y-101.3
M30
