%TF.GenerationSoftware,KiCad,Pcbnew,9.0.0*%
%TF.CreationDate,2026-02-16T12:31:50-08:00*%
%TF.ProjectId,ref_mic,7265665f-6d69-4632-9e6b-696361645f70,rev?*%
%TF.SameCoordinates,Original*%
%TF.FileFunction,Legend,Top*%
%TF.FilePolarity,Positive*%
%FSLAX46Y46*%
G04 Gerber Fmt 4.6, Leading zero omitted, Abs format (unit mm)*
G04 Created by KiCad (PCBNEW 9.0.0) date 2026-02-16 12:31:50*
%MOMM*%
%LPD*%
G01*
G04 APERTURE LIST*
%ADD10C,0.150000*%
%ADD11C,0.120000*%
%ADD12C,0.152400*%
G04 APERTURE END LIST*
D10*
X94850000Y-103000000D02*
X94850000Y-103600000D01*
X94550000Y-103300000D02*
X95150000Y-103300000D01*
X95650000Y-99900000D02*
X95750000Y-99900000D01*
X95700000Y-98800000D02*
X95700000Y-99500000D01*
X96000000Y-99500000D02*
X95375000Y-99500000D01*
X95500000Y-99700000D02*
X95875000Y-99700000D01*
X98389160Y-104094295D02*
X98389160Y-103294295D01*
X98389160Y-103294295D02*
X98655826Y-103865723D01*
X98655826Y-103865723D02*
X98922493Y-103294295D01*
X98922493Y-103294295D02*
X98922493Y-104094295D01*
X99303446Y-104094295D02*
X99303446Y-103294295D01*
X100141541Y-104018104D02*
X100103445Y-104056200D01*
X100103445Y-104056200D02*
X99989160Y-104094295D01*
X99989160Y-104094295D02*
X99912969Y-104094295D01*
X99912969Y-104094295D02*
X99798683Y-104056200D01*
X99798683Y-104056200D02*
X99722493Y-103980009D01*
X99722493Y-103980009D02*
X99684398Y-103903819D01*
X99684398Y-103903819D02*
X99646302Y-103751438D01*
X99646302Y-103751438D02*
X99646302Y-103637152D01*
X99646302Y-103637152D02*
X99684398Y-103484771D01*
X99684398Y-103484771D02*
X99722493Y-103408580D01*
X99722493Y-103408580D02*
X99798683Y-103332390D01*
X99798683Y-103332390D02*
X99912969Y-103294295D01*
X99912969Y-103294295D02*
X99989160Y-103294295D01*
X99989160Y-103294295D02*
X100103445Y-103332390D01*
X100103445Y-103332390D02*
X100141541Y-103370485D01*
X100751064Y-103675247D02*
X100865350Y-103713342D01*
X100865350Y-103713342D02*
X100903445Y-103751438D01*
X100903445Y-103751438D02*
X100941541Y-103827628D01*
X100941541Y-103827628D02*
X100941541Y-103941914D01*
X100941541Y-103941914D02*
X100903445Y-104018104D01*
X100903445Y-104018104D02*
X100865350Y-104056200D01*
X100865350Y-104056200D02*
X100789160Y-104094295D01*
X100789160Y-104094295D02*
X100484398Y-104094295D01*
X100484398Y-104094295D02*
X100484398Y-103294295D01*
X100484398Y-103294295D02*
X100751064Y-103294295D01*
X100751064Y-103294295D02*
X100827255Y-103332390D01*
X100827255Y-103332390D02*
X100865350Y-103370485D01*
X100865350Y-103370485D02*
X100903445Y-103446676D01*
X100903445Y-103446676D02*
X100903445Y-103522866D01*
X100903445Y-103522866D02*
X100865350Y-103599057D01*
X100865350Y-103599057D02*
X100827255Y-103637152D01*
X100827255Y-103637152D02*
X100751064Y-103675247D01*
X100751064Y-103675247D02*
X100484398Y-103675247D01*
X101284398Y-104094295D02*
X101284398Y-103294295D01*
X101627254Y-103865723D02*
X102008207Y-103865723D01*
X101551064Y-104094295D02*
X101817731Y-103294295D01*
X101817731Y-103294295D02*
X102084397Y-104094295D01*
X102312968Y-104056200D02*
X102427254Y-104094295D01*
X102427254Y-104094295D02*
X102617730Y-104094295D01*
X102617730Y-104094295D02*
X102693921Y-104056200D01*
X102693921Y-104056200D02*
X102732016Y-104018104D01*
X102732016Y-104018104D02*
X102770111Y-103941914D01*
X102770111Y-103941914D02*
X102770111Y-103865723D01*
X102770111Y-103865723D02*
X102732016Y-103789533D01*
X102732016Y-103789533D02*
X102693921Y-103751438D01*
X102693921Y-103751438D02*
X102617730Y-103713342D01*
X102617730Y-103713342D02*
X102465349Y-103675247D01*
X102465349Y-103675247D02*
X102389159Y-103637152D01*
X102389159Y-103637152D02*
X102351064Y-103599057D01*
X102351064Y-103599057D02*
X102312968Y-103522866D01*
X102312968Y-103522866D02*
X102312968Y-103446676D01*
X102312968Y-103446676D02*
X102351064Y-103370485D01*
X102351064Y-103370485D02*
X102389159Y-103332390D01*
X102389159Y-103332390D02*
X102465349Y-103294295D01*
X102465349Y-103294295D02*
X102655826Y-103294295D01*
X102655826Y-103294295D02*
X102770111Y-103332390D01*
X130059580Y-104066666D02*
X130107200Y-104114285D01*
X130107200Y-104114285D02*
X130154819Y-104257142D01*
X130154819Y-104257142D02*
X130154819Y-104352380D01*
X130154819Y-104352380D02*
X130107200Y-104495237D01*
X130107200Y-104495237D02*
X130011961Y-104590475D01*
X130011961Y-104590475D02*
X129916723Y-104638094D01*
X129916723Y-104638094D02*
X129726247Y-104685713D01*
X129726247Y-104685713D02*
X129583390Y-104685713D01*
X129583390Y-104685713D02*
X129392914Y-104638094D01*
X129392914Y-104638094D02*
X129297676Y-104590475D01*
X129297676Y-104590475D02*
X129202438Y-104495237D01*
X129202438Y-104495237D02*
X129154819Y-104352380D01*
X129154819Y-104352380D02*
X129154819Y-104257142D01*
X129154819Y-104257142D02*
X129202438Y-104114285D01*
X129202438Y-104114285D02*
X129250057Y-104066666D01*
X130154819Y-103590475D02*
X130154819Y-103399999D01*
X130154819Y-103399999D02*
X130107200Y-103304761D01*
X130107200Y-103304761D02*
X130059580Y-103257142D01*
X130059580Y-103257142D02*
X129916723Y-103161904D01*
X129916723Y-103161904D02*
X129726247Y-103114285D01*
X129726247Y-103114285D02*
X129345295Y-103114285D01*
X129345295Y-103114285D02*
X129250057Y-103161904D01*
X129250057Y-103161904D02*
X129202438Y-103209523D01*
X129202438Y-103209523D02*
X129154819Y-103304761D01*
X129154819Y-103304761D02*
X129154819Y-103495237D01*
X129154819Y-103495237D02*
X129202438Y-103590475D01*
X129202438Y-103590475D02*
X129250057Y-103638094D01*
X129250057Y-103638094D02*
X129345295Y-103685713D01*
X129345295Y-103685713D02*
X129583390Y-103685713D01*
X129583390Y-103685713D02*
X129678628Y-103638094D01*
X129678628Y-103638094D02*
X129726247Y-103590475D01*
X129726247Y-103590475D02*
X129773866Y-103495237D01*
X129773866Y-103495237D02*
X129773866Y-103304761D01*
X129773866Y-103304761D02*
X129726247Y-103209523D01*
X129726247Y-103209523D02*
X129678628Y-103161904D01*
X129678628Y-103161904D02*
X129583390Y-103114285D01*
X120759580Y-104242857D02*
X120807200Y-104290476D01*
X120807200Y-104290476D02*
X120854819Y-104433333D01*
X120854819Y-104433333D02*
X120854819Y-104528571D01*
X120854819Y-104528571D02*
X120807200Y-104671428D01*
X120807200Y-104671428D02*
X120711961Y-104766666D01*
X120711961Y-104766666D02*
X120616723Y-104814285D01*
X120616723Y-104814285D02*
X120426247Y-104861904D01*
X120426247Y-104861904D02*
X120283390Y-104861904D01*
X120283390Y-104861904D02*
X120092914Y-104814285D01*
X120092914Y-104814285D02*
X119997676Y-104766666D01*
X119997676Y-104766666D02*
X119902438Y-104671428D01*
X119902438Y-104671428D02*
X119854819Y-104528571D01*
X119854819Y-104528571D02*
X119854819Y-104433333D01*
X119854819Y-104433333D02*
X119902438Y-104290476D01*
X119902438Y-104290476D02*
X119950057Y-104242857D01*
X120854819Y-103290476D02*
X120854819Y-103861904D01*
X120854819Y-103576190D02*
X119854819Y-103576190D01*
X119854819Y-103576190D02*
X119997676Y-103671428D01*
X119997676Y-103671428D02*
X120092914Y-103766666D01*
X120092914Y-103766666D02*
X120140533Y-103861904D01*
X119854819Y-102671428D02*
X119854819Y-102576190D01*
X119854819Y-102576190D02*
X119902438Y-102480952D01*
X119902438Y-102480952D02*
X119950057Y-102433333D01*
X119950057Y-102433333D02*
X120045295Y-102385714D01*
X120045295Y-102385714D02*
X120235771Y-102338095D01*
X120235771Y-102338095D02*
X120473866Y-102338095D01*
X120473866Y-102338095D02*
X120664342Y-102385714D01*
X120664342Y-102385714D02*
X120759580Y-102433333D01*
X120759580Y-102433333D02*
X120807200Y-102480952D01*
X120807200Y-102480952D02*
X120854819Y-102576190D01*
X120854819Y-102576190D02*
X120854819Y-102671428D01*
X120854819Y-102671428D02*
X120807200Y-102766666D01*
X120807200Y-102766666D02*
X120759580Y-102814285D01*
X120759580Y-102814285D02*
X120664342Y-102861904D01*
X120664342Y-102861904D02*
X120473866Y-102909523D01*
X120473866Y-102909523D02*
X120235771Y-102909523D01*
X120235771Y-102909523D02*
X120045295Y-102861904D01*
X120045295Y-102861904D02*
X119950057Y-102814285D01*
X119950057Y-102814285D02*
X119902438Y-102766666D01*
X119902438Y-102766666D02*
X119854819Y-102671428D01*
X142368095Y-105257200D02*
X142510952Y-105304819D01*
X142510952Y-105304819D02*
X142749047Y-105304819D01*
X142749047Y-105304819D02*
X142844285Y-105257200D01*
X142844285Y-105257200D02*
X142891904Y-105209580D01*
X142891904Y-105209580D02*
X142939523Y-105114342D01*
X142939523Y-105114342D02*
X142939523Y-105019104D01*
X142939523Y-105019104D02*
X142891904Y-104923866D01*
X142891904Y-104923866D02*
X142844285Y-104876247D01*
X142844285Y-104876247D02*
X142749047Y-104828628D01*
X142749047Y-104828628D02*
X142558571Y-104781009D01*
X142558571Y-104781009D02*
X142463333Y-104733390D01*
X142463333Y-104733390D02*
X142415714Y-104685771D01*
X142415714Y-104685771D02*
X142368095Y-104590533D01*
X142368095Y-104590533D02*
X142368095Y-104495295D01*
X142368095Y-104495295D02*
X142415714Y-104400057D01*
X142415714Y-104400057D02*
X142463333Y-104352438D01*
X142463333Y-104352438D02*
X142558571Y-104304819D01*
X142558571Y-104304819D02*
X142796666Y-104304819D01*
X142796666Y-104304819D02*
X142939523Y-104352438D01*
X143891904Y-105304819D02*
X143320476Y-105304819D01*
X143606190Y-105304819D02*
X143606190Y-104304819D01*
X143606190Y-104304819D02*
X143510952Y-104447676D01*
X143510952Y-104447676D02*
X143415714Y-104542914D01*
X143415714Y-104542914D02*
X143320476Y-104590533D01*
X149326666Y-97364819D02*
X149326666Y-98079104D01*
X149326666Y-98079104D02*
X149279047Y-98221961D01*
X149279047Y-98221961D02*
X149183809Y-98317200D01*
X149183809Y-98317200D02*
X149040952Y-98364819D01*
X149040952Y-98364819D02*
X148945714Y-98364819D01*
X149755238Y-97460057D02*
X149802857Y-97412438D01*
X149802857Y-97412438D02*
X149898095Y-97364819D01*
X149898095Y-97364819D02*
X150136190Y-97364819D01*
X150136190Y-97364819D02*
X150231428Y-97412438D01*
X150231428Y-97412438D02*
X150279047Y-97460057D01*
X150279047Y-97460057D02*
X150326666Y-97555295D01*
X150326666Y-97555295D02*
X150326666Y-97650533D01*
X150326666Y-97650533D02*
X150279047Y-97793390D01*
X150279047Y-97793390D02*
X149707619Y-98364819D01*
X149707619Y-98364819D02*
X150326666Y-98364819D01*
X98233333Y-100254819D02*
X97900000Y-99778628D01*
X97661905Y-100254819D02*
X97661905Y-99254819D01*
X97661905Y-99254819D02*
X98042857Y-99254819D01*
X98042857Y-99254819D02*
X98138095Y-99302438D01*
X98138095Y-99302438D02*
X98185714Y-99350057D01*
X98185714Y-99350057D02*
X98233333Y-99445295D01*
X98233333Y-99445295D02*
X98233333Y-99588152D01*
X98233333Y-99588152D02*
X98185714Y-99683390D01*
X98185714Y-99683390D02*
X98138095Y-99731009D01*
X98138095Y-99731009D02*
X98042857Y-99778628D01*
X98042857Y-99778628D02*
X97661905Y-99778628D01*
X99185714Y-100254819D02*
X98614286Y-100254819D01*
X98900000Y-100254819D02*
X98900000Y-99254819D01*
X98900000Y-99254819D02*
X98804762Y-99397676D01*
X98804762Y-99397676D02*
X98709524Y-99492914D01*
X98709524Y-99492914D02*
X98614286Y-99540533D01*
X110533333Y-98559580D02*
X110485714Y-98607200D01*
X110485714Y-98607200D02*
X110342857Y-98654819D01*
X110342857Y-98654819D02*
X110247619Y-98654819D01*
X110247619Y-98654819D02*
X110104762Y-98607200D01*
X110104762Y-98607200D02*
X110009524Y-98511961D01*
X110009524Y-98511961D02*
X109961905Y-98416723D01*
X109961905Y-98416723D02*
X109914286Y-98226247D01*
X109914286Y-98226247D02*
X109914286Y-98083390D01*
X109914286Y-98083390D02*
X109961905Y-97892914D01*
X109961905Y-97892914D02*
X110009524Y-97797676D01*
X110009524Y-97797676D02*
X110104762Y-97702438D01*
X110104762Y-97702438D02*
X110247619Y-97654819D01*
X110247619Y-97654819D02*
X110342857Y-97654819D01*
X110342857Y-97654819D02*
X110485714Y-97702438D01*
X110485714Y-97702438D02*
X110533333Y-97750057D01*
X111485714Y-98654819D02*
X110914286Y-98654819D01*
X111200000Y-98654819D02*
X111200000Y-97654819D01*
X111200000Y-97654819D02*
X111104762Y-97797676D01*
X111104762Y-97797676D02*
X111009524Y-97892914D01*
X111009524Y-97892914D02*
X110914286Y-97940533D01*
X105833333Y-98559580D02*
X105785714Y-98607200D01*
X105785714Y-98607200D02*
X105642857Y-98654819D01*
X105642857Y-98654819D02*
X105547619Y-98654819D01*
X105547619Y-98654819D02*
X105404762Y-98607200D01*
X105404762Y-98607200D02*
X105309524Y-98511961D01*
X105309524Y-98511961D02*
X105261905Y-98416723D01*
X105261905Y-98416723D02*
X105214286Y-98226247D01*
X105214286Y-98226247D02*
X105214286Y-98083390D01*
X105214286Y-98083390D02*
X105261905Y-97892914D01*
X105261905Y-97892914D02*
X105309524Y-97797676D01*
X105309524Y-97797676D02*
X105404762Y-97702438D01*
X105404762Y-97702438D02*
X105547619Y-97654819D01*
X105547619Y-97654819D02*
X105642857Y-97654819D01*
X105642857Y-97654819D02*
X105785714Y-97702438D01*
X105785714Y-97702438D02*
X105833333Y-97750057D01*
X106166667Y-97654819D02*
X106833333Y-97654819D01*
X106833333Y-97654819D02*
X106404762Y-98654819D01*
X115333333Y-98559580D02*
X115285714Y-98607200D01*
X115285714Y-98607200D02*
X115142857Y-98654819D01*
X115142857Y-98654819D02*
X115047619Y-98654819D01*
X115047619Y-98654819D02*
X114904762Y-98607200D01*
X114904762Y-98607200D02*
X114809524Y-98511961D01*
X114809524Y-98511961D02*
X114761905Y-98416723D01*
X114761905Y-98416723D02*
X114714286Y-98226247D01*
X114714286Y-98226247D02*
X114714286Y-98083390D01*
X114714286Y-98083390D02*
X114761905Y-97892914D01*
X114761905Y-97892914D02*
X114809524Y-97797676D01*
X114809524Y-97797676D02*
X114904762Y-97702438D01*
X114904762Y-97702438D02*
X115047619Y-97654819D01*
X115047619Y-97654819D02*
X115142857Y-97654819D01*
X115142857Y-97654819D02*
X115285714Y-97702438D01*
X115285714Y-97702438D02*
X115333333Y-97750057D01*
X115714286Y-97750057D02*
X115761905Y-97702438D01*
X115761905Y-97702438D02*
X115857143Y-97654819D01*
X115857143Y-97654819D02*
X116095238Y-97654819D01*
X116095238Y-97654819D02*
X116190476Y-97702438D01*
X116190476Y-97702438D02*
X116238095Y-97750057D01*
X116238095Y-97750057D02*
X116285714Y-97845295D01*
X116285714Y-97845295D02*
X116285714Y-97940533D01*
X116285714Y-97940533D02*
X116238095Y-98083390D01*
X116238095Y-98083390D02*
X115666667Y-98654819D01*
X115666667Y-98654819D02*
X116285714Y-98654819D01*
D11*
%TO.C,C9*%
X130490000Y-97890000D02*
X130490000Y-100240000D01*
X130490000Y-104710000D02*
X130490000Y-102360000D01*
X136245563Y-97890000D02*
X130490000Y-97890000D01*
X136245563Y-104710000D02*
X130490000Y-104710000D01*
X137310000Y-98954437D02*
X136245563Y-97890000D01*
X137310000Y-98954437D02*
X137310000Y-100240000D01*
X137310000Y-103645563D02*
X136245563Y-104710000D01*
X137310000Y-103645563D02*
X137310000Y-102360000D01*
X137943750Y-103541250D02*
X137943750Y-102753750D01*
X138337500Y-103147500D02*
X137550000Y-103147500D01*
%TO.C,C10*%
X121090000Y-97890000D02*
X121090000Y-100240000D01*
X121090000Y-104710000D02*
X121090000Y-102360000D01*
X126845563Y-97890000D02*
X121090000Y-97890000D01*
X126845563Y-104710000D02*
X121090000Y-104710000D01*
X127910000Y-98954437D02*
X126845563Y-97890000D01*
X127910000Y-98954437D02*
X127910000Y-100240000D01*
X127910000Y-103645563D02*
X126845563Y-104710000D01*
X127910000Y-103645563D02*
X127910000Y-102360000D01*
X128543750Y-103541250D02*
X128543750Y-102753750D01*
X128937500Y-103147500D02*
X128150000Y-103147500D01*
D12*
%TO.C,S1*%
X138718500Y-98671100D02*
X138718500Y-103928900D01*
X138718500Y-103928900D02*
X139630360Y-103928900D01*
X141489640Y-103928900D02*
X144710360Y-103928900D01*
X142170360Y-98671100D02*
X138718500Y-98671100D01*
X146569640Y-103928900D02*
X147481500Y-103928900D01*
X147481500Y-98671100D02*
X144029640Y-98671100D01*
X147481500Y-103928900D02*
X147481500Y-98671100D01*
D11*
%TO.C,R1*%
X96520000Y-100153641D02*
X96520000Y-99846359D01*
X97280000Y-100153641D02*
X97280000Y-99846359D01*
%TO.C,C1*%
X110340000Y-99040000D02*
X111540000Y-99040000D01*
X110340000Y-102495563D02*
X110340000Y-99040000D01*
X110790000Y-104050000D02*
X111290000Y-104050000D01*
X111040000Y-104300000D02*
X111040000Y-103800000D01*
X111404437Y-103560000D02*
X110340000Y-102495563D01*
X111404437Y-103560000D02*
X111540000Y-103560000D01*
X113795563Y-103560000D02*
X113660000Y-103560000D01*
X113795563Y-103560000D02*
X114860000Y-102495563D01*
X114860000Y-99040000D02*
X113660000Y-99040000D01*
X114860000Y-102495563D02*
X114860000Y-99040000D01*
%TO.C,C7*%
X105540000Y-99040000D02*
X106740000Y-99040000D01*
X105540000Y-102495563D02*
X105540000Y-99040000D01*
X105990000Y-104050000D02*
X106490000Y-104050000D01*
X106240000Y-104300000D02*
X106240000Y-103800000D01*
X106604437Y-103560000D02*
X105540000Y-102495563D01*
X106604437Y-103560000D02*
X106740000Y-103560000D01*
X108995563Y-103560000D02*
X108860000Y-103560000D01*
X108995563Y-103560000D02*
X110060000Y-102495563D01*
X110060000Y-99040000D02*
X108860000Y-99040000D01*
X110060000Y-102495563D02*
X110060000Y-99040000D01*
%TO.C,C2*%
X115140000Y-99040000D02*
X116340000Y-99040000D01*
X115140000Y-102495563D02*
X115140000Y-99040000D01*
X115590000Y-104050000D02*
X116090000Y-104050000D01*
X115840000Y-104300000D02*
X115840000Y-103800000D01*
X116204437Y-103560000D02*
X115140000Y-102495563D01*
X116204437Y-103560000D02*
X116340000Y-103560000D01*
X118595563Y-103560000D02*
X118460000Y-103560000D01*
X118595563Y-103560000D02*
X119660000Y-102495563D01*
X119660000Y-99040000D02*
X118460000Y-99040000D01*
X119660000Y-102495563D02*
X119660000Y-99040000D01*
%TO.C,MK1*%
X91200000Y-103870000D02*
X92340000Y-103870000D01*
X91230000Y-98670000D02*
X92340000Y-98670000D01*
X92340000Y-98670000D02*
X92340000Y-103870000D01*
X92340000Y-99640000D02*
X92690000Y-99640000D01*
X92340000Y-100360000D02*
X92690000Y-100360000D01*
X92340000Y-102180000D02*
X92750000Y-102180000D01*
X92340000Y-102900000D02*
X92750000Y-102900000D01*
X93800000Y-98670000D02*
X94910000Y-98670000D01*
X94910000Y-98670000D02*
X94910000Y-100000000D01*
%TD*%
M02*
