M48
; DRILL file {KiCad 9.0.0} date 2026-01-05T19:48:02-0800
; FORMAT={-:-/ absolute / metric / decimal}
; #@! TF.CreationDate,2026-01-05T19:48:02-08:00
; #@! TF.GenerationSoftware,Kicad,Pcbnew,9.0.0
; #@! TF.FileFunction,Plated,1,4,PTH
FMAT,2
METRIC
; #@! TA.AperFunction,Plated,PTH,ViaDrill
T1C0.300
; #@! TA.AperFunction,Plated,PTH,ComponentDrill
T2C1.000
; #@! TA.AperFunction,Plated,PTH,ViaDrill
T3C3.400
%
G90
G05
T1
X104.5Y-104.2
X105.0Y-103.0
X105.7Y-101.0
X105.8Y-104.5
X106.575Y-102.451
X108.9Y-100.725
X109.866Y-100.134
X110.8Y-102.6
X111.536Y-100.994
X113.0Y-97.7
X113.825Y-100.2
X113.825Y-102.2
X114.417Y-102.55
X115.7Y-101.5
X119.3Y-103.4
X120.6Y-99.4
X121.2Y-104.4
X123.7Y-104.4
X124.725Y-98.325
X129.5Y-98.9
X131.8Y-98.9
X133.1Y-102.8
X133.9Y-100.2
X133.9Y-102.4
X134.4Y-103.0
X137.2Y-102.7
X137.85Y-102.55
X138.5Y-100.1
X139.3Y-103.5
X140.6Y-99.6
X142.5Y-100.222
X143.4Y-101.0
X144.3Y-103.5
X144.6Y-98.4
X147.9Y-98.4
X149.8Y-97.8
X149.8Y-104.0
X150.945Y-98.548
T2
X93.8Y-100.0
X93.8Y-102.54
X96.4Y-102.5
T3
X101.1Y-101.3
M30
