%TF.GenerationSoftware,KiCad,Pcbnew,(6.0.4)*%
%TF.CreationDate,2022-05-07T21:28:23-07:00*%
%TF.ProjectId,ref_mic,7265665f-6d69-4632-9e6b-696361645f70,rev?*%
%TF.SameCoordinates,Original*%
%TF.FileFunction,Legend,Bot*%
%TF.FilePolarity,Positive*%
%FSLAX46Y46*%
G04 Gerber Fmt 4.6, Leading zero omitted, Abs format (unit mm)*
G04 Created by KiCad (PCBNEW (6.0.4)) date 2022-05-07 21:28:23*
%MOMM*%
%LPD*%
G01*
G04 APERTURE LIST*
%ADD10C,0.150000*%
%ADD11C,0.120000*%
G04 APERTURE END LIST*
D10*
%TO.C,R6*%
X177966666Y-107132380D02*
X178300000Y-106656190D01*
X178538095Y-107132380D02*
X178538095Y-106132380D01*
X178157142Y-106132380D01*
X178061904Y-106180000D01*
X178014285Y-106227619D01*
X177966666Y-106322857D01*
X177966666Y-106465714D01*
X178014285Y-106560952D01*
X178061904Y-106608571D01*
X178157142Y-106656190D01*
X178538095Y-106656190D01*
X177109523Y-106132380D02*
X177300000Y-106132380D01*
X177395238Y-106180000D01*
X177442857Y-106227619D01*
X177538095Y-106370476D01*
X177585714Y-106560952D01*
X177585714Y-106941904D01*
X177538095Y-107037142D01*
X177490476Y-107084761D01*
X177395238Y-107132380D01*
X177204761Y-107132380D01*
X177109523Y-107084761D01*
X177061904Y-107037142D01*
X177014285Y-106941904D01*
X177014285Y-106703809D01*
X177061904Y-106608571D01*
X177109523Y-106560952D01*
X177204761Y-106513333D01*
X177395238Y-106513333D01*
X177490476Y-106560952D01*
X177538095Y-106608571D01*
X177585714Y-106703809D01*
%TO.C,R5*%
X157900666Y-106751380D02*
X158234000Y-106275190D01*
X158472095Y-106751380D02*
X158472095Y-105751380D01*
X158091142Y-105751380D01*
X157995904Y-105799000D01*
X157948285Y-105846619D01*
X157900666Y-105941857D01*
X157900666Y-106084714D01*
X157948285Y-106179952D01*
X157995904Y-106227571D01*
X158091142Y-106275190D01*
X158472095Y-106275190D01*
X156995904Y-105751380D02*
X157472095Y-105751380D01*
X157519714Y-106227571D01*
X157472095Y-106179952D01*
X157376857Y-106132333D01*
X157138761Y-106132333D01*
X157043523Y-106179952D01*
X156995904Y-106227571D01*
X156948285Y-106322809D01*
X156948285Y-106560904D01*
X156995904Y-106656142D01*
X157043523Y-106703761D01*
X157138761Y-106751380D01*
X157376857Y-106751380D01*
X157472095Y-106703761D01*
X157519714Y-106656142D01*
%TO.C,C10*%
X167647857Y-112117142D02*
X167695476Y-112164761D01*
X167838333Y-112212380D01*
X167933571Y-112212380D01*
X168076428Y-112164761D01*
X168171666Y-112069523D01*
X168219285Y-111974285D01*
X168266904Y-111783809D01*
X168266904Y-111640952D01*
X168219285Y-111450476D01*
X168171666Y-111355238D01*
X168076428Y-111260000D01*
X167933571Y-111212380D01*
X167838333Y-111212380D01*
X167695476Y-111260000D01*
X167647857Y-111307619D01*
X166695476Y-112212380D02*
X167266904Y-112212380D01*
X166981190Y-112212380D02*
X166981190Y-111212380D01*
X167076428Y-111355238D01*
X167171666Y-111450476D01*
X167266904Y-111498095D01*
X166076428Y-111212380D02*
X165981190Y-111212380D01*
X165885952Y-111260000D01*
X165838333Y-111307619D01*
X165790714Y-111402857D01*
X165743095Y-111593333D01*
X165743095Y-111831428D01*
X165790714Y-112021904D01*
X165838333Y-112117142D01*
X165885952Y-112164761D01*
X165981190Y-112212380D01*
X166076428Y-112212380D01*
X166171666Y-112164761D01*
X166219285Y-112117142D01*
X166266904Y-112021904D01*
X166314523Y-111831428D01*
X166314523Y-111593333D01*
X166266904Y-111402857D01*
X166219285Y-111307619D01*
X166171666Y-111260000D01*
X166076428Y-111212380D01*
%TO.C,U1*%
X157671904Y-113977380D02*
X157671904Y-114786904D01*
X157624285Y-114882142D01*
X157576666Y-114929761D01*
X157481428Y-114977380D01*
X157290952Y-114977380D01*
X157195714Y-114929761D01*
X157148095Y-114882142D01*
X157100476Y-114786904D01*
X157100476Y-113977380D01*
X156100476Y-114977380D02*
X156671904Y-114977380D01*
X156386190Y-114977380D02*
X156386190Y-113977380D01*
X156481428Y-114120238D01*
X156576666Y-114215476D01*
X156671904Y-114263095D01*
%TO.C,D1*%
X144503095Y-111537380D02*
X144503095Y-110537380D01*
X144265000Y-110537380D01*
X144122142Y-110585000D01*
X144026904Y-110680238D01*
X143979285Y-110775476D01*
X143931666Y-110965952D01*
X143931666Y-111108809D01*
X143979285Y-111299285D01*
X144026904Y-111394523D01*
X144122142Y-111489761D01*
X144265000Y-111537380D01*
X144503095Y-111537380D01*
X142979285Y-111537380D02*
X143550714Y-111537380D01*
X143265000Y-111537380D02*
X143265000Y-110537380D01*
X143360238Y-110680238D01*
X143455476Y-110775476D01*
X143550714Y-110823095D01*
%TO.C,R2*%
X148121666Y-114752380D02*
X148455000Y-114276190D01*
X148693095Y-114752380D02*
X148693095Y-113752380D01*
X148312142Y-113752380D01*
X148216904Y-113800000D01*
X148169285Y-113847619D01*
X148121666Y-113942857D01*
X148121666Y-114085714D01*
X148169285Y-114180952D01*
X148216904Y-114228571D01*
X148312142Y-114276190D01*
X148693095Y-114276190D01*
X147740714Y-113847619D02*
X147693095Y-113800000D01*
X147597857Y-113752380D01*
X147359761Y-113752380D01*
X147264523Y-113800000D01*
X147216904Y-113847619D01*
X147169285Y-113942857D01*
X147169285Y-114038095D01*
X147216904Y-114180952D01*
X147788333Y-114752380D01*
X147169285Y-114752380D01*
%TO.C,R4*%
X162726666Y-114912380D02*
X163060000Y-114436190D01*
X163298095Y-114912380D02*
X163298095Y-113912380D01*
X162917142Y-113912380D01*
X162821904Y-113960000D01*
X162774285Y-114007619D01*
X162726666Y-114102857D01*
X162726666Y-114245714D01*
X162774285Y-114340952D01*
X162821904Y-114388571D01*
X162917142Y-114436190D01*
X163298095Y-114436190D01*
X161869523Y-114245714D02*
X161869523Y-114912380D01*
X162107619Y-113864761D02*
X162345714Y-114579047D01*
X161726666Y-114579047D01*
%TO.C,R11*%
X151495357Y-109197380D02*
X151828690Y-108721190D01*
X152066785Y-109197380D02*
X152066785Y-108197380D01*
X151685833Y-108197380D01*
X151590595Y-108245000D01*
X151542976Y-108292619D01*
X151495357Y-108387857D01*
X151495357Y-108530714D01*
X151542976Y-108625952D01*
X151590595Y-108673571D01*
X151685833Y-108721190D01*
X152066785Y-108721190D01*
X150542976Y-109197380D02*
X151114404Y-109197380D01*
X150828690Y-109197380D02*
X150828690Y-108197380D01*
X150923928Y-108340238D01*
X151019166Y-108435476D01*
X151114404Y-108483095D01*
X149590595Y-109197380D02*
X150162023Y-109197380D01*
X149876309Y-109197380D02*
X149876309Y-108197380D01*
X149971547Y-108340238D01*
X150066785Y-108435476D01*
X150162023Y-108483095D01*
%TO.C,D3*%
X171553095Y-114752380D02*
X171553095Y-113752380D01*
X171315000Y-113752380D01*
X171172142Y-113800000D01*
X171076904Y-113895238D01*
X171029285Y-113990476D01*
X170981666Y-114180952D01*
X170981666Y-114323809D01*
X171029285Y-114514285D01*
X171076904Y-114609523D01*
X171172142Y-114704761D01*
X171315000Y-114752380D01*
X171553095Y-114752380D01*
X170648333Y-113752380D02*
X170029285Y-113752380D01*
X170362619Y-114133333D01*
X170219761Y-114133333D01*
X170124523Y-114180952D01*
X170076904Y-114228571D01*
X170029285Y-114323809D01*
X170029285Y-114561904D01*
X170076904Y-114657142D01*
X170124523Y-114704761D01*
X170219761Y-114752380D01*
X170505476Y-114752380D01*
X170600714Y-114704761D01*
X170648333Y-114657142D01*
%TO.C,R12*%
X175625357Y-106972380D02*
X175958690Y-106496190D01*
X176196785Y-106972380D02*
X176196785Y-105972380D01*
X175815833Y-105972380D01*
X175720595Y-106020000D01*
X175672976Y-106067619D01*
X175625357Y-106162857D01*
X175625357Y-106305714D01*
X175672976Y-106400952D01*
X175720595Y-106448571D01*
X175815833Y-106496190D01*
X176196785Y-106496190D01*
X174672976Y-106972380D02*
X175244404Y-106972380D01*
X174958690Y-106972380D02*
X174958690Y-105972380D01*
X175053928Y-106115238D01*
X175149166Y-106210476D01*
X175244404Y-106258095D01*
X174292023Y-106067619D02*
X174244404Y-106020000D01*
X174149166Y-105972380D01*
X173911071Y-105972380D01*
X173815833Y-106020000D01*
X173768214Y-106067619D01*
X173720595Y-106162857D01*
X173720595Y-106258095D01*
X173768214Y-106400952D01*
X174339642Y-106972380D01*
X173720595Y-106972380D01*
%TO.C,R10*%
X167925357Y-106972380D02*
X168258690Y-106496190D01*
X168496785Y-106972380D02*
X168496785Y-105972380D01*
X168115833Y-105972380D01*
X168020595Y-106020000D01*
X167972976Y-106067619D01*
X167925357Y-106162857D01*
X167925357Y-106305714D01*
X167972976Y-106400952D01*
X168020595Y-106448571D01*
X168115833Y-106496190D01*
X168496785Y-106496190D01*
X166972976Y-106972380D02*
X167544404Y-106972380D01*
X167258690Y-106972380D02*
X167258690Y-105972380D01*
X167353928Y-106115238D01*
X167449166Y-106210476D01*
X167544404Y-106258095D01*
X166353928Y-105972380D02*
X166258690Y-105972380D01*
X166163452Y-106020000D01*
X166115833Y-106067619D01*
X166068214Y-106162857D01*
X166020595Y-106353333D01*
X166020595Y-106591428D01*
X166068214Y-106781904D01*
X166115833Y-106877142D01*
X166163452Y-106924761D01*
X166258690Y-106972380D01*
X166353928Y-106972380D01*
X166449166Y-106924761D01*
X166496785Y-106877142D01*
X166544404Y-106781904D01*
X166592023Y-106591428D01*
X166592023Y-106353333D01*
X166544404Y-106162857D01*
X166496785Y-106067619D01*
X166449166Y-106020000D01*
X166353928Y-105972380D01*
%TO.C,R9*%
X171339166Y-106972380D02*
X171672500Y-106496190D01*
X171910595Y-106972380D02*
X171910595Y-105972380D01*
X171529642Y-105972380D01*
X171434404Y-106020000D01*
X171386785Y-106067619D01*
X171339166Y-106162857D01*
X171339166Y-106305714D01*
X171386785Y-106400952D01*
X171434404Y-106448571D01*
X171529642Y-106496190D01*
X171910595Y-106496190D01*
X170862976Y-106972380D02*
X170672500Y-106972380D01*
X170577261Y-106924761D01*
X170529642Y-106877142D01*
X170434404Y-106734285D01*
X170386785Y-106543809D01*
X170386785Y-106162857D01*
X170434404Y-106067619D01*
X170482023Y-106020000D01*
X170577261Y-105972380D01*
X170767738Y-105972380D01*
X170862976Y-106020000D01*
X170910595Y-106067619D01*
X170958214Y-106162857D01*
X170958214Y-106400952D01*
X170910595Y-106496190D01*
X170862976Y-106543809D01*
X170767738Y-106591428D01*
X170577261Y-106591428D01*
X170482023Y-106543809D01*
X170434404Y-106496190D01*
X170386785Y-106400952D01*
D11*
%TO.C,R6*%
X177277500Y-109117224D02*
X177277500Y-108607776D01*
X178322500Y-109117224D02*
X178322500Y-108607776D01*
%TO.C,R5*%
X159362224Y-107837500D02*
X158852776Y-107837500D01*
X159362224Y-106792500D02*
X158852776Y-106792500D01*
%TO.C,C10*%
X167266252Y-109120000D02*
X166743748Y-109120000D01*
X167266252Y-110590000D02*
X166743748Y-110590000D01*
%TO.C,U1*%
X156910000Y-108565000D02*
X154960000Y-108565000D01*
X156910000Y-108565000D02*
X158860000Y-108565000D01*
X156910000Y-113685000D02*
X153460000Y-113685000D01*
X156910000Y-113685000D02*
X158860000Y-113685000D01*
%TO.C,D2*%
X161300000Y-110210000D02*
X162230000Y-110210000D01*
X161300000Y-110210000D02*
X161300000Y-107050000D01*
X164460000Y-110210000D02*
X163530000Y-110210000D01*
X164460000Y-110210000D02*
X164460000Y-108750000D01*
%TO.C,D1*%
X142915000Y-106935000D02*
X144715000Y-106935000D01*
X144715000Y-106935000D02*
X144715000Y-107985000D01*
X144715000Y-110235000D02*
X144715000Y-109185000D01*
X142315000Y-110235000D02*
X144715000Y-110235000D01*
%TO.C,C1*%
X147220000Y-108091248D02*
X147220000Y-108613752D01*
X148690000Y-108091248D02*
X148690000Y-108613752D01*
%TO.C,C9*%
X171308752Y-109120000D02*
X170786248Y-109120000D01*
X171308752Y-110590000D02*
X170786248Y-110590000D01*
%TO.C,R2*%
X150382500Y-112775276D02*
X150382500Y-113284724D01*
X149337500Y-112775276D02*
X149337500Y-113284724D01*
%TO.C,R4*%
X162305276Y-112507500D02*
X162814724Y-112507500D01*
X162305276Y-113552500D02*
X162814724Y-113552500D01*
%TO.C,R11*%
X150597776Y-106792500D02*
X151107224Y-106792500D01*
X150597776Y-107837500D02*
X151107224Y-107837500D01*
%TO.C,R1*%
X147297224Y-112282500D02*
X146787776Y-112282500D01*
X147297224Y-111237500D02*
X146787776Y-111237500D01*
%TO.C,D3*%
X171730000Y-111130000D02*
X174890000Y-111130000D01*
X171730000Y-111130000D02*
X171730000Y-112060000D01*
X171730000Y-114290000D02*
X171730000Y-113360000D01*
X171730000Y-114290000D02*
X173190000Y-114290000D01*
%TO.C,R3*%
X152287500Y-112775276D02*
X152287500Y-113284724D01*
X151242500Y-112775276D02*
X151242500Y-113284724D01*
%TO.C,R7*%
X150597776Y-110377500D02*
X151107224Y-110377500D01*
X150597776Y-109332500D02*
X151107224Y-109332500D01*
%TO.C,R8*%
X175237224Y-110377500D02*
X174727776Y-110377500D01*
X175237224Y-109332500D02*
X174727776Y-109332500D01*
%TO.C,R12*%
X175237224Y-107427500D02*
X174727776Y-107427500D01*
X175237224Y-108472500D02*
X174727776Y-108472500D01*
%TO.C,C4*%
X155493767Y-106805000D02*
X155201233Y-106805000D01*
X155493767Y-107825000D02*
X155201233Y-107825000D01*
%TO.C,R10*%
X167537224Y-108472500D02*
X167027776Y-108472500D01*
X167537224Y-107427500D02*
X167027776Y-107427500D01*
%TO.C,R9*%
X171427224Y-108472500D02*
X170917776Y-108472500D01*
X171427224Y-107427500D02*
X170917776Y-107427500D01*
%TD*%
M02*
