%TF.GenerationSoftware,KiCad,Pcbnew,9.0.0*%
%TF.CreationDate,2026-01-05T19:47:58-08:00*%
%TF.ProjectId,ref_mic,7265665f-6d69-4632-9e6b-696361645f70,rev?*%
%TF.SameCoordinates,Original*%
%TF.FileFunction,Legend,Bot*%
%TF.FilePolarity,Positive*%
%FSLAX46Y46*%
G04 Gerber Fmt 4.6, Leading zero omitted, Abs format (unit mm)*
G04 Created by KiCad (PCBNEW 9.0.0) date 2026-01-05 19:47:58*
%MOMM*%
%LPD*%
G01*
G04 APERTURE LIST*
%ADD10C,0.100000*%
%ADD11C,0.000000*%
%ADD12C,0.075000*%
%ADD13C,0.250000*%
%ADD14C,0.150000*%
%ADD15C,0.120000*%
G04 APERTURE END LIST*
D10*
X125221312Y-101605132D02*
X125215007Y-101601048D01*
X125208745Y-101596896D01*
X125202527Y-101592677D01*
X125196352Y-101588391D01*
X125190222Y-101584038D01*
X125184137Y-101579620D01*
X125178098Y-101575137D01*
X125172107Y-101570589D01*
X125166163Y-101565977D01*
X125160268Y-101561301D01*
X125154422Y-101556562D01*
X125148626Y-101551761D01*
X125142881Y-101546898D01*
X125137187Y-101541974D01*
X125131545Y-101536989D01*
X125125956Y-101531944D01*
X125120421Y-101526839D01*
X125114940Y-101521676D01*
X125109514Y-101516455D01*
X125104144Y-101511176D01*
X125101480Y-101508516D01*
X125098830Y-101505841D01*
X125096194Y-101503152D01*
X125093573Y-101500449D01*
X125090966Y-101497733D01*
X125088374Y-101495002D01*
X125085796Y-101492259D01*
X125083233Y-101489501D01*
X125080685Y-101486730D01*
X125078152Y-101483945D01*
X125075633Y-101481148D01*
X125073130Y-101478337D01*
X125070642Y-101475513D01*
X125068168Y-101472675D01*
X125065710Y-101469825D01*
X125063268Y-101466962D01*
X125060840Y-101464086D01*
X125058428Y-101461198D01*
X125056032Y-101458297D01*
X125053652Y-101455383D01*
X125051287Y-101452457D01*
X125048937Y-101449518D01*
X125046604Y-101446568D01*
X125044287Y-101443605D01*
X125041985Y-101440631D01*
X125039700Y-101437644D01*
X125037431Y-101434645D01*
X125035177Y-101431635D01*
X125032941Y-101428613D01*
X125030720Y-101425579D01*
X125028516Y-101422534D01*
X125026328Y-101419477D01*
X125024157Y-101416410D01*
X125022002Y-101413330D01*
X125019865Y-101410241D01*
X125017743Y-101407139D01*
X125015639Y-101404028D01*
X125013551Y-101400904D01*
X125011481Y-101397771D01*
X125009427Y-101394627D01*
X125007390Y-101391472D01*
X125005370Y-101388307D01*
X125003368Y-101385132D01*
X125001382Y-101381945D01*
X124999415Y-101378750D01*
X124997463Y-101375543D01*
X124995530Y-101372328D01*
X124993614Y-101369101D01*
X124991716Y-101365866D01*
X124989834Y-101362620D01*
X124987971Y-101359366D01*
X124986125Y-101356101D01*
X124984297Y-101352828D01*
X124982487Y-101349544D01*
X124980694Y-101346252D01*
X124978919Y-101342950D01*
X124977163Y-101339640D01*
X124975423Y-101336320D01*
X124973703Y-101332992D01*
X124971999Y-101329654D01*
X124970314Y-101326309D01*
X124968647Y-101322954D01*
X124966999Y-101319592D01*
X124965368Y-101316220D01*
X124963756Y-101312842D01*
X124962161Y-101309453D01*
X124960586Y-101306058D01*
X124959028Y-101302653D01*
X124957489Y-101299242D01*
X124955968Y-101295822D01*
X124954467Y-101292395D01*
X124952982Y-101288959D01*
X124951518Y-101285518D01*
X124950071Y-101282067D01*
X124948643Y-101278610D01*
X124947233Y-101275144D01*
X124945843Y-101271673D01*
X124944471Y-101268193D01*
X124943118Y-101264708D01*
X124941783Y-101261213D01*
X124940468Y-101257714D01*
X124939171Y-101254206D01*
X124937893Y-101250694D01*
X124936634Y-101247172D01*
X124935394Y-101243647D01*
X124934172Y-101240112D01*
X124932970Y-101236574D01*
X124931787Y-101233027D01*
X124930623Y-101229475D01*
X124929478Y-101225916D01*
X124928352Y-101222353D01*
X124927245Y-101218781D01*
X124926157Y-101215206D01*
X124925088Y-101211623D01*
X124924039Y-101208036D01*
X124923009Y-101204441D01*
X124921998Y-101200843D01*
X124921006Y-101197238D01*
X124920034Y-101193629D01*
X124919080Y-101190012D01*
X124918147Y-101186393D01*
X124917232Y-101182766D01*
X124916337Y-101179136D01*
X124915461Y-101175499D01*
X124914605Y-101171859D01*
X124913768Y-101168212D01*
X124912951Y-101164562D01*
X124912152Y-101160905D01*
X124911374Y-101157246D01*
X124910615Y-101153580D01*
X124909875Y-101149912D01*
X124909155Y-101146237D01*
X124908455Y-101142560D01*
X124907773Y-101138876D01*
X124907112Y-101135190D01*
X124906470Y-101131498D01*
X124905848Y-101127804D01*
X124905246Y-101124103D01*
X124904663Y-101120401D01*
X124904099Y-101116692D01*
X124903556Y-101112982D01*
X124903032Y-101109266D01*
X124902528Y-101105549D01*
X124902043Y-101101825D01*
X124901579Y-101098100D01*
X124901133Y-101094369D01*
X124900708Y-101090637D01*
X124900303Y-101086899D01*
X124899917Y-101083161D01*
X124899551Y-101079416D01*
X124899205Y-101075671D01*
X124898879Y-101071920D01*
X124898572Y-101068168D01*
X124898285Y-101064411D01*
X124898019Y-101060653D01*
X124897772Y-101056890D01*
X124897545Y-101053126D01*
X124897338Y-101049357D01*
X124897150Y-101045587D01*
X124896983Y-101041813D01*
X124896836Y-101038038D01*
X124896708Y-101034258D01*
X124896601Y-101030477D01*
X124896513Y-101026692D01*
X124896446Y-101022907D01*
X124896398Y-101019117D01*
X124896363Y-101012003D01*
X124577620Y-102682026D02*
X124578960Y-102681164D01*
X124580383Y-102680344D01*
X124581887Y-102679569D01*
X124583471Y-102678842D01*
X124585133Y-102678168D01*
X124586868Y-102677550D01*
X124588671Y-102676992D01*
X124590538Y-102676498D01*
X124592460Y-102676072D01*
X124594430Y-102675717D01*
X124596438Y-102675437D01*
X124598475Y-102675233D01*
X124600530Y-102675108D01*
X124601560Y-102675075D01*
X124602591Y-102675062D01*
X124603620Y-102675069D01*
X124604648Y-102675096D01*
X124605671Y-102675143D01*
X124606690Y-102675210D01*
X124607700Y-102675297D01*
X124608705Y-102675403D01*
X124609698Y-102675528D01*
X124610684Y-102675673D01*
X124611654Y-102675835D01*
X124612617Y-102676017D01*
X124613560Y-102676216D01*
X124614495Y-102676433D01*
X124615409Y-102676666D01*
X124616312Y-102676918D01*
X124617192Y-102677183D01*
X124618061Y-102677467D01*
X124618905Y-102677764D01*
X124619738Y-102678078D01*
X124620544Y-102678403D01*
X124621338Y-102678745D01*
X124622104Y-102679098D01*
X124622858Y-102679467D01*
X124623584Y-102679845D01*
X124624296Y-102680239D01*
X124624663Y-102680451D01*
X125098426Y-99192145D02*
X124669484Y-99367723D01*
D11*
G36*
X147668470Y-103949013D02*
G01*
X147748308Y-103949097D01*
X147818178Y-103991702D01*
X147888047Y-104034307D01*
X147900511Y-104081972D01*
X147912975Y-104129637D01*
X147879637Y-104162976D01*
X147846299Y-104196315D01*
X147763569Y-104196231D01*
X147680839Y-104196147D01*
X147607749Y-104151582D01*
X147534657Y-104107017D01*
X147534657Y-104054961D01*
X147534657Y-104002905D01*
X147561645Y-103975917D01*
X147588632Y-103948929D01*
X147668470Y-103949013D01*
G37*
D10*
X125918898Y-98488631D02*
X125282060Y-98488631D01*
X125878338Y-101704774D02*
X126324505Y-102782964D01*
X123080952Y-100689740D02*
X123080952Y-101326486D01*
X123593794Y-102564604D02*
X124044128Y-103014845D01*
X123950320Y-100019841D02*
X123951196Y-100021203D01*
X123952036Y-100022654D01*
X123952835Y-100024195D01*
X123953589Y-100025823D01*
X123954295Y-100027536D01*
X123954947Y-100029329D01*
X123955542Y-100031197D01*
X123956075Y-100033134D01*
X123956541Y-100035131D01*
X123956938Y-100037181D01*
X123957262Y-100039272D01*
X123957509Y-100041394D01*
X123957679Y-100043534D01*
X123957733Y-100044607D01*
X123957768Y-100045681D01*
X123957783Y-100046752D01*
X123957777Y-100047821D01*
X123957752Y-100048884D01*
X123957706Y-100049943D01*
X123957641Y-100050991D01*
X123957556Y-100052035D01*
X123957453Y-100053064D01*
X123957329Y-100054086D01*
X123957188Y-100055089D01*
X123957027Y-100056085D01*
X123956849Y-100057060D01*
X123956653Y-100058025D01*
X123956441Y-100058966D01*
X123956210Y-100059897D01*
X123955965Y-100060802D01*
X123955702Y-100061696D01*
X123955427Y-100062561D01*
X123955134Y-100063415D01*
X123954829Y-100064240D01*
X123954508Y-100065052D01*
X123954176Y-100065835D01*
X123953829Y-100066604D01*
X123953283Y-100067718D01*
X127156738Y-99001381D02*
X127155642Y-99000341D01*
X127154479Y-98999347D01*
X127153253Y-98998404D01*
X127151964Y-98997512D01*
X127150615Y-98996676D01*
X127149207Y-98995897D01*
X127147746Y-98995179D01*
X127146233Y-98994525D01*
X127144674Y-98993938D01*
X127143073Y-98993421D01*
X127141437Y-98992975D01*
X127139771Y-98992604D01*
X127138082Y-98992310D01*
X127136376Y-98992094D01*
X127135519Y-98992016D01*
X127134661Y-98991958D01*
X127133803Y-98991920D01*
X127132944Y-98991901D01*
X127132088Y-98991903D01*
X127131232Y-98991925D01*
X127130382Y-98991967D01*
X127129533Y-98992029D01*
X127128691Y-98992111D01*
X127127852Y-98992212D01*
X127127023Y-98992333D01*
X127126197Y-98992473D01*
X127125382Y-98992632D01*
X127124573Y-98992810D01*
X127123776Y-98993006D01*
X127122985Y-98993221D01*
X127122209Y-98993454D01*
X127121439Y-98993705D01*
X127120685Y-98993972D01*
X127119938Y-98994259D01*
X127119208Y-98994560D01*
X127118486Y-98994880D01*
X127117781Y-98995214D01*
X127117085Y-98995567D01*
X127116408Y-98995932D01*
X127115739Y-98996316D01*
X127115089Y-98996713D01*
X127114450Y-98997126D01*
X127114048Y-98997399D01*
X125979740Y-101605132D02*
X125945569Y-101631339D01*
X126304688Y-101012003D02*
X126304648Y-101019578D01*
X126304528Y-101027143D01*
X126304329Y-101034698D01*
X126304050Y-101042243D01*
X126303691Y-101049777D01*
X126303253Y-101057300D01*
X126302736Y-101064812D01*
X126302139Y-101072311D01*
X126301464Y-101079798D01*
X126300709Y-101087271D01*
X126299876Y-101094731D01*
X126298963Y-101102177D01*
X126297972Y-101109609D01*
X126296903Y-101117026D01*
X126295755Y-101124427D01*
X126294528Y-101131812D01*
X126293223Y-101139181D01*
X126291841Y-101146533D01*
X126290380Y-101153867D01*
X126288841Y-101161183D01*
X126287225Y-101168480D01*
X126285531Y-101175758D01*
X126283760Y-101183016D01*
X126281911Y-101190254D01*
X126279986Y-101197471D01*
X126277983Y-101204666D01*
X126275904Y-101211839D01*
X126273748Y-101218989D01*
X126271516Y-101226116D01*
X126269207Y-101233218D01*
X126266823Y-101240296D01*
X126264363Y-101247348D01*
X126261827Y-101254374D01*
X126259216Y-101261374D01*
X126256530Y-101268346D01*
X126253769Y-101275289D01*
X126250934Y-101282205D01*
X126248024Y-101289090D01*
X126245041Y-101295946D01*
X126241983Y-101302770D01*
X126238852Y-101309563D01*
X126235648Y-101316324D01*
X126232372Y-101323052D01*
X126229023Y-101329745D01*
X126225601Y-101336405D01*
X126222108Y-101343029D01*
X126218544Y-101349617D01*
X126214908Y-101356168D01*
X126211202Y-101362682D01*
X126207426Y-101369158D01*
X126203580Y-101375594D01*
X126199664Y-101381991D01*
X126195680Y-101388348D01*
X126191627Y-101394663D01*
X126187506Y-101400936D01*
X126183317Y-101407167D01*
X126179061Y-101413354D01*
X126174739Y-101419496D01*
X126170351Y-101425594D01*
X126165897Y-101431646D01*
X126161378Y-101437651D01*
X126156795Y-101443609D01*
X126152147Y-101449519D01*
X126147436Y-101455380D01*
X126142663Y-101461191D01*
X126137827Y-101466953D01*
X126132930Y-101472663D01*
X126127971Y-101478321D01*
X126122953Y-101483928D01*
X126117874Y-101489480D01*
X126112737Y-101494979D01*
X126107541Y-101500424D01*
X126102287Y-101505813D01*
X126096976Y-101511146D01*
X126094299Y-101513791D01*
X126091608Y-101516423D01*
X126088904Y-101519039D01*
X126086185Y-101521642D01*
X126083453Y-101524230D01*
X126080707Y-101526803D01*
X126077947Y-101529361D01*
X126075174Y-101531905D01*
X126072388Y-101534434D01*
X126069588Y-101536948D01*
X126066775Y-101539447D01*
X126063948Y-101541932D01*
X126061109Y-101544400D01*
X126058257Y-101546854D01*
X126055392Y-101549292D01*
X126052513Y-101551715D01*
X126049623Y-101554123D01*
X126046719Y-101556515D01*
X126043804Y-101558891D01*
X126040875Y-101561252D01*
X126037935Y-101563597D01*
X126034982Y-101565926D01*
X126032017Y-101568239D01*
X126029040Y-101570537D01*
X126026051Y-101572818D01*
X126023050Y-101575083D01*
X126020037Y-101577332D01*
X126017013Y-101579565D01*
X126013977Y-101581781D01*
X126010929Y-101583981D01*
X126007871Y-101586164D01*
X126004800Y-101588332D01*
X126001720Y-101590482D01*
X125998627Y-101592616D01*
X125995524Y-101594733D01*
X125992409Y-101596833D01*
X125989284Y-101598916D01*
X125986148Y-101600983D01*
X125983002Y-101603033D01*
X125979844Y-101605065D01*
X125979740Y-101605132D01*
X126102533Y-99192145D02*
X126101015Y-99191601D01*
X126099470Y-99190962D01*
X126097902Y-99190227D01*
X126096315Y-99189395D01*
X126094713Y-99188466D01*
X126093104Y-99187439D01*
X126091492Y-99186317D01*
X126089887Y-99185102D01*
X126088296Y-99183798D01*
X126086727Y-99182409D01*
X126085191Y-99180941D01*
X126083696Y-99179402D01*
X126082251Y-99177801D01*
X126081550Y-99176979D01*
X126080865Y-99176145D01*
X126080197Y-99175301D01*
X126079546Y-99174446D01*
X126078916Y-99173584D01*
X126078303Y-99172713D01*
X126077712Y-99171838D01*
X126077141Y-99170956D01*
X126076594Y-99170074D01*
X126076066Y-99169185D01*
X126075564Y-99168301D01*
X126075082Y-99167411D01*
X126074627Y-99166528D01*
X126074193Y-99165641D01*
X126073786Y-99164765D01*
X126073400Y-99163886D01*
X126073042Y-99163019D01*
X126072705Y-99162150D01*
X126072395Y-99161297D01*
X126072107Y-99160442D01*
X126071845Y-99159604D01*
X126071605Y-99158767D01*
X126071390Y-99157947D01*
X126071197Y-99157128D01*
X126070955Y-99155937D01*
X125891395Y-101664491D02*
X125890126Y-101665320D01*
X125888892Y-101666222D01*
X125887695Y-101667195D01*
X125886538Y-101668238D01*
X125885424Y-101669350D01*
X125884355Y-101670529D01*
X125883336Y-101671771D01*
X125882369Y-101673075D01*
X125881459Y-101674437D01*
X125880609Y-101675852D01*
X125879823Y-101677316D01*
X125879103Y-101678824D01*
X125878454Y-101680371D01*
X125877877Y-101681951D01*
X125877617Y-101682751D01*
X125877376Y-101683557D01*
X125877155Y-101684368D01*
X125876953Y-101685183D01*
X125876771Y-101686001D01*
X125876608Y-101686823D01*
X125876466Y-101687645D01*
X125876344Y-101688470D01*
X125876243Y-101689294D01*
X125876161Y-101690119D01*
X125876100Y-101690940D01*
X125876059Y-101691762D01*
X125876039Y-101692578D01*
X125876038Y-101693395D01*
X125876058Y-101694204D01*
X125876098Y-101695011D01*
X125876157Y-101695810D01*
X125876237Y-101696607D01*
X125876336Y-101697394D01*
X125876455Y-101698178D01*
X125876592Y-101698951D01*
X125876749Y-101699720D01*
X125876925Y-101700477D01*
X125877120Y-101701230D01*
X125877332Y-101701970D01*
X125877565Y-101702704D01*
X125877814Y-101703426D01*
X125878082Y-101704141D01*
X125878338Y-101704774D01*
X126623524Y-102682026D02*
X127114233Y-103018827D01*
X126576481Y-102680451D02*
X126577882Y-102679684D01*
X126579363Y-102678963D01*
X126580923Y-102678293D01*
X126582561Y-102677677D01*
X126584272Y-102677117D01*
X126586053Y-102676619D01*
X126587899Y-102676186D01*
X126589803Y-102675821D01*
X126591758Y-102675527D01*
X126593756Y-102675308D01*
X126595787Y-102675166D01*
X126597840Y-102675102D01*
X126599905Y-102675117D01*
X126600938Y-102675155D01*
X126601970Y-102675213D01*
X126602999Y-102675290D01*
X126604025Y-102675388D01*
X126605043Y-102675505D01*
X126606058Y-102675641D01*
X126607061Y-102675797D01*
X126608058Y-102675972D01*
X126609040Y-102676164D01*
X126610015Y-102676376D01*
X126610972Y-102676604D01*
X126611920Y-102676851D01*
X126612847Y-102677113D01*
X126613765Y-102677394D01*
X126614660Y-102677688D01*
X126615543Y-102678001D01*
X126616402Y-102678325D01*
X126617249Y-102678667D01*
X126618069Y-102679020D01*
X126618876Y-102679389D01*
X126619657Y-102679769D01*
X126620423Y-102680164D01*
X126621162Y-102680567D01*
X126621887Y-102680986D01*
X126622583Y-102681411D01*
X126623265Y-102681852D01*
X126623524Y-102682026D01*
X127606980Y-99451622D02*
X127156738Y-99001381D01*
X126579444Y-99364296D02*
X126578085Y-99365181D01*
X126576633Y-99366030D01*
X126575091Y-99366840D01*
X126573459Y-99367607D01*
X126571741Y-99368327D01*
X126569941Y-99368994D01*
X126568063Y-99369605D01*
X126566114Y-99370156D01*
X126564103Y-99370640D01*
X126562039Y-99371056D01*
X126559931Y-99371399D01*
X126557792Y-99371666D01*
X126555634Y-99371855D01*
X126554552Y-99371919D01*
X126553470Y-99371964D01*
X126552390Y-99371988D01*
X126551312Y-99371993D01*
X126550241Y-99371977D01*
X126549173Y-99371941D01*
X126548117Y-99371886D01*
X126547066Y-99371810D01*
X126546030Y-99371716D01*
X126545001Y-99371602D01*
X126543991Y-99371470D01*
X126542989Y-99371319D01*
X126542010Y-99371150D01*
X126541040Y-99370963D01*
X126540095Y-99370760D01*
X126539160Y-99370539D01*
X126538253Y-99370303D01*
X126537357Y-99370050D01*
X126536490Y-99369783D01*
X126535635Y-99369499D01*
X126534810Y-99369204D01*
X126533998Y-99368892D01*
X126533216Y-99368570D01*
X126532449Y-99368232D01*
X126531382Y-99367723D01*
X124044128Y-103014845D02*
X124045222Y-103015883D01*
X124046381Y-103016872D01*
X124047603Y-103017813D01*
X124048889Y-103018700D01*
X124050235Y-103019533D01*
X124051639Y-103020309D01*
X124053098Y-103021023D01*
X124054608Y-103021674D01*
X124056165Y-103022259D01*
X124057765Y-103022774D01*
X124059401Y-103023218D01*
X124061069Y-103023587D01*
X124062761Y-103023879D01*
X124064472Y-103024094D01*
X124066193Y-103024230D01*
X124067055Y-103024268D01*
X124067917Y-103024285D01*
X124068778Y-103024283D01*
X124069638Y-103024261D01*
X124070494Y-103024219D01*
X124071348Y-103024157D01*
X124072196Y-103024075D01*
X124073041Y-103023973D01*
X124073877Y-103023852D01*
X124074709Y-103023711D01*
X124075531Y-103023552D01*
X124076348Y-103023373D01*
X124077152Y-103023177D01*
X124077951Y-103022961D01*
X124078735Y-103022728D01*
X124079513Y-103022475D01*
X124080275Y-103022207D01*
X124081030Y-103021920D01*
X124081769Y-103021618D01*
X124082499Y-103021297D01*
X124083212Y-103020962D01*
X124083916Y-103020609D01*
X124084602Y-103020242D01*
X124085278Y-103019858D01*
X124085937Y-103019460D01*
X124086584Y-103019045D01*
X124086911Y-103018827D01*
X124669484Y-99367723D02*
X124668011Y-99368400D01*
X124666452Y-99369030D01*
X124664808Y-99369607D01*
X124663081Y-99370130D01*
X124661274Y-99370593D01*
X124659392Y-99370993D01*
X124657440Y-99371326D01*
X124655427Y-99371589D01*
X124653359Y-99371778D01*
X124651248Y-99371891D01*
X124649104Y-99371926D01*
X124646938Y-99371882D01*
X124644764Y-99371757D01*
X124643678Y-99371665D01*
X124642595Y-99371552D01*
X124641517Y-99371421D01*
X124640443Y-99371269D01*
X124639379Y-99371099D01*
X124638322Y-99370910D01*
X124637279Y-99370702D01*
X124636243Y-99370476D01*
X124635226Y-99370233D01*
X124634219Y-99369972D01*
X124633233Y-99369696D01*
X124632258Y-99369401D01*
X124631309Y-99369094D01*
X124630371Y-99368769D01*
X124629461Y-99368432D01*
X124628564Y-99368078D01*
X124627696Y-99367715D01*
X124626843Y-99367335D01*
X124626021Y-99366947D01*
X124625213Y-99366544D01*
X124624437Y-99366134D01*
X124623677Y-99365709D01*
X124622949Y-99365279D01*
X124622237Y-99364836D01*
X124621422Y-99364296D01*
X127437050Y-100510180D02*
X127247398Y-100067718D01*
X127268419Y-102022314D02*
X127267535Y-102020941D01*
X127266685Y-102019474D01*
X127265875Y-102017916D01*
X127265108Y-102016268D01*
X127264388Y-102014533D01*
X127263720Y-102012715D01*
X127263109Y-102010820D01*
X127262560Y-102008854D01*
X127262075Y-102006827D01*
X127261661Y-102004747D01*
X127261319Y-102002625D01*
X127261054Y-102000473D01*
X127260867Y-101998304D01*
X127260803Y-101997217D01*
X127260760Y-101996130D01*
X127260736Y-101995046D01*
X127260733Y-101993964D01*
X127260750Y-101992889D01*
X127260787Y-101991818D01*
X127260843Y-101990760D01*
X127260919Y-101989706D01*
X127261015Y-101988668D01*
X127261130Y-101987638D01*
X127261263Y-101986626D01*
X127261415Y-101985623D01*
X127261584Y-101984643D01*
X127261772Y-101983672D01*
X127261976Y-101982726D01*
X127262198Y-101981791D01*
X127262434Y-101980883D01*
X127262689Y-101979987D01*
X127262956Y-101979119D01*
X127263240Y-101978264D01*
X127263536Y-101977438D01*
X127263849Y-101976626D01*
X127264172Y-101975844D01*
X127264511Y-101975075D01*
X127264900Y-101974252D01*
X127611240Y-102521821D02*
X127268419Y-102022314D01*
X124624663Y-102680451D02*
X124841079Y-102796022D01*
X126360065Y-102796022D02*
X126576481Y-102680451D01*
X128092688Y-101359546D02*
X128094162Y-101359234D01*
X128095632Y-101358842D01*
X128097098Y-101358369D01*
X128098555Y-101357816D01*
X128100000Y-101357181D01*
X128101431Y-101356466D01*
X128102842Y-101355672D01*
X128104229Y-101354799D01*
X128105588Y-101353851D01*
X128106914Y-101352828D01*
X128108202Y-101351734D01*
X128109445Y-101350573D01*
X128110640Y-101349348D01*
X128111781Y-101348065D01*
X128112862Y-101346727D01*
X128113379Y-101346040D01*
X128113880Y-101345341D01*
X128114364Y-101344632D01*
X128114830Y-101343912D01*
X128115278Y-101343184D01*
X128115708Y-101342447D01*
X128116119Y-101341703D01*
X128116512Y-101340950D01*
X128116884Y-101340194D01*
X128117237Y-101339429D01*
X128117570Y-101338663D01*
X128117883Y-101337889D01*
X128118175Y-101337116D01*
X128118447Y-101336336D01*
X128118698Y-101335558D01*
X128118929Y-101334775D01*
X128119139Y-101333994D01*
X128119328Y-101333210D01*
X128119496Y-101332430D01*
X128119644Y-101331646D01*
X128119770Y-101330868D01*
X128119876Y-101330088D01*
X128119961Y-101329314D01*
X128120026Y-101328538D01*
X128120071Y-101327770D01*
X128120094Y-101327000D01*
X128120099Y-101326486D01*
X124086818Y-98997399D02*
X124085547Y-98996575D01*
X124084220Y-98995809D01*
X124082840Y-98995105D01*
X124081409Y-98994464D01*
X124079930Y-98993889D01*
X124078405Y-98993381D01*
X124076838Y-98992943D01*
X124075234Y-98992577D01*
X124073596Y-98992285D01*
X124071931Y-98992070D01*
X124070244Y-98991932D01*
X124068541Y-98991873D01*
X124066830Y-98991894D01*
X124065116Y-98991994D01*
X124064260Y-98992074D01*
X124063407Y-98992174D01*
X124062557Y-98992294D01*
X124061710Y-98992434D01*
X124060869Y-98992593D01*
X124060033Y-98992771D01*
X124059204Y-98992969D01*
X124058381Y-98993185D01*
X124057568Y-98993420D01*
X124056761Y-98993674D01*
X124055967Y-98993945D01*
X124055180Y-98994235D01*
X124054407Y-98994541D01*
X124053642Y-98994865D01*
X124052892Y-98995204D01*
X124052152Y-98995562D01*
X124051429Y-98995934D01*
X124050716Y-98996323D01*
X124050020Y-98996726D01*
X124049336Y-98997145D01*
X124048669Y-98997577D01*
X124048015Y-98998025D01*
X124047380Y-98998485D01*
X124046756Y-98998961D01*
X124046153Y-98999447D01*
X124045562Y-98999949D01*
X124044991Y-99000460D01*
X124044434Y-99000987D01*
X124044035Y-99001381D01*
X125282060Y-98488631D02*
X125280553Y-98488671D01*
X125279034Y-98488790D01*
X125277504Y-98488990D01*
X125275966Y-98489272D01*
X125274424Y-98489634D01*
X125272882Y-98490079D01*
X125271344Y-98490606D01*
X125269815Y-98491213D01*
X125268300Y-98491901D01*
X125266805Y-98492667D01*
X125265335Y-98493510D01*
X125263897Y-98494428D01*
X125262496Y-98495415D01*
X125261138Y-98496471D01*
X125260478Y-98497022D01*
X125259830Y-98497589D01*
X125259196Y-98498170D01*
X125258577Y-98498765D01*
X125257973Y-98499373D01*
X125257383Y-98499995D01*
X125256811Y-98500627D01*
X125256255Y-98501273D01*
X125255717Y-98501927D01*
X125255195Y-98502594D01*
X125254694Y-98503267D01*
X125254209Y-98503952D01*
X125253744Y-98504642D01*
X125253298Y-98505342D01*
X125252872Y-98506046D01*
X125252465Y-98506760D01*
X125252079Y-98507476D01*
X125251712Y-98508200D01*
X125251367Y-98508925D01*
X125251041Y-98509657D01*
X125250737Y-98510389D01*
X125250451Y-98511129D01*
X125250189Y-98511866D01*
X125249945Y-98512609D01*
X125249723Y-98513350D01*
X125249521Y-98514097D01*
X125249341Y-98514840D01*
X125249180Y-98515587D01*
X125249093Y-98516042D01*
X123711957Y-101471875D02*
X123713522Y-101472203D01*
X123715124Y-101472621D01*
X123716760Y-101473130D01*
X123718425Y-101473731D01*
X123720115Y-101474426D01*
X123721825Y-101475216D01*
X123723548Y-101476099D01*
X123725277Y-101477076D01*
X123727004Y-101478142D01*
X123728720Y-101479296D01*
X123730415Y-101480532D01*
X123732080Y-101481845D01*
X123733706Y-101483229D01*
X123734501Y-101483945D01*
X123735282Y-101484675D01*
X123736048Y-101485419D01*
X123736799Y-101486176D01*
X123737532Y-101486943D01*
X123738248Y-101487722D01*
X123738944Y-101488508D01*
X123739623Y-101489305D01*
X123740278Y-101490105D01*
X123740914Y-101490915D01*
X123741526Y-101491725D01*
X123742118Y-101492544D01*
X123742684Y-101493359D01*
X123743230Y-101494182D01*
X123743748Y-101494999D01*
X123744246Y-101495822D01*
X123744715Y-101496636D01*
X123745163Y-101497455D01*
X123745583Y-101498264D01*
X123745982Y-101499077D01*
X123746353Y-101499877D01*
X123746702Y-101500680D01*
X123747024Y-101501469D01*
X123747324Y-101502260D01*
X123747794Y-101503638D01*
X127607258Y-102564604D02*
X127608296Y-102563510D01*
X127609287Y-102562350D01*
X127610229Y-102561125D01*
X127611119Y-102559837D01*
X127611954Y-102558488D01*
X127612732Y-102557080D01*
X127613450Y-102555617D01*
X127614104Y-102554102D01*
X127614692Y-102552541D01*
X127615211Y-102550937D01*
X127615657Y-102549297D01*
X127616029Y-102547627D01*
X127616324Y-102545933D01*
X127616541Y-102544222D01*
X127616620Y-102543363D01*
X127616679Y-102542502D01*
X127616718Y-102541641D01*
X127616737Y-102540780D01*
X127616735Y-102539921D01*
X127616714Y-102539063D01*
X127616673Y-102538210D01*
X127616611Y-102537359D01*
X127616530Y-102536515D01*
X127616430Y-102535673D01*
X127616310Y-102534842D01*
X127616170Y-102534014D01*
X127616012Y-102533197D01*
X127615834Y-102532386D01*
X127615639Y-102531587D01*
X127615424Y-102530795D01*
X127615193Y-102530017D01*
X127614942Y-102529245D01*
X127614676Y-102528490D01*
X127614390Y-102527742D01*
X127614090Y-102527011D01*
X127613771Y-102526288D01*
X127613438Y-102525583D01*
X127613086Y-102524887D01*
X127612722Y-102524209D01*
X127612339Y-102523541D01*
X127611944Y-102522891D01*
X127611532Y-102522252D01*
X127611240Y-102521821D01*
X127453349Y-101503638D02*
X127453875Y-101502107D01*
X127454494Y-101500551D01*
X127455208Y-101498972D01*
X127456018Y-101497375D01*
X127456923Y-101495766D01*
X127457924Y-101494149D01*
X127459019Y-101492532D01*
X127460206Y-101490923D01*
X127461480Y-101489328D01*
X127462837Y-101487758D01*
X127464272Y-101486221D01*
X127465777Y-101484725D01*
X127467344Y-101483280D01*
X127468149Y-101482580D01*
X127468966Y-101481895D01*
X127469793Y-101481227D01*
X127470631Y-101480576D01*
X127471476Y-101479945D01*
X127472331Y-101479332D01*
X127473190Y-101478741D01*
X127474057Y-101478169D01*
X127474924Y-101477621D01*
X127475798Y-101477092D01*
X127476669Y-101476588D01*
X127477546Y-101476105D01*
X127478417Y-101475647D01*
X127479292Y-101475211D01*
X127480159Y-101474801D01*
X127481029Y-101474412D01*
X127481887Y-101474050D01*
X127482748Y-101473709D01*
X127483596Y-101473394D01*
X127484445Y-101473102D01*
X127485279Y-101472835D01*
X127486113Y-101472590D01*
X127486932Y-101472370D01*
X127487749Y-101472172D01*
X127489187Y-101471875D01*
X125255575Y-101631339D02*
X125221312Y-101605132D01*
X127264900Y-101974252D02*
X127453349Y-101503638D01*
X125309749Y-101664491D02*
X125255575Y-101631339D01*
D11*
G36*
X146543991Y-103949013D02*
G01*
X146623829Y-103949097D01*
X146693698Y-103991702D01*
X146763567Y-104034307D01*
X146776031Y-104081972D01*
X146788497Y-104129637D01*
X146755158Y-104162976D01*
X146721819Y-104196315D01*
X146639090Y-104196231D01*
X146556360Y-104196147D01*
X146483269Y-104151582D01*
X146410178Y-104107017D01*
X146410178Y-104054961D01*
X146410178Y-104002905D01*
X146437166Y-103975917D01*
X146464153Y-103948929D01*
X146543991Y-103949013D01*
G37*
D10*
X123080952Y-101326486D02*
X123080992Y-101327996D01*
X123081111Y-101329518D01*
X123081311Y-101331050D01*
X123081592Y-101332589D01*
X123081955Y-101334132D01*
X123082399Y-101335675D01*
X123082925Y-101337214D01*
X123083533Y-101338744D01*
X123084220Y-101340260D01*
X123084986Y-101341756D01*
X123085829Y-101343227D01*
X123086746Y-101344667D01*
X123087734Y-101346070D01*
X123088789Y-101347430D01*
X123089341Y-101348092D01*
X123089908Y-101348741D01*
X123090489Y-101349376D01*
X123091085Y-101349997D01*
X123091694Y-101350603D01*
X123092316Y-101351194D01*
X123092950Y-101351768D01*
X123093596Y-101352326D01*
X123094251Y-101352866D01*
X123094919Y-101353390D01*
X123095594Y-101353894D01*
X123096279Y-101354381D01*
X123096971Y-101354848D01*
X123097672Y-101355297D01*
X123098378Y-101355724D01*
X123099093Y-101356134D01*
X123099810Y-101356522D01*
X123100535Y-101356892D01*
X123101261Y-101357239D01*
X123101996Y-101357568D01*
X123102729Y-101357874D01*
X123103469Y-101358161D01*
X123104208Y-101358426D01*
X123104952Y-101358672D01*
X123105694Y-101358896D01*
X123106442Y-101359100D01*
X123107185Y-101359282D01*
X123107934Y-101359445D01*
X123108455Y-101359546D01*
X128092318Y-100656680D02*
X127473630Y-100541666D01*
D12*
X136627795Y-104094835D02*
X136747543Y-104095530D01*
X136829373Y-104129941D01*
X136847364Y-104137884D01*
X136867151Y-104147288D01*
X136888086Y-104157804D01*
X136909522Y-104169083D01*
X136930810Y-104180778D01*
X136951303Y-104192539D01*
X136970352Y-104204019D01*
X136987311Y-104214870D01*
X137004297Y-104226409D01*
X137023426Y-104239865D01*
X137044044Y-104254750D01*
X137065498Y-104270577D01*
X137087135Y-104286860D01*
X137108300Y-104303112D01*
X137128341Y-104318845D01*
X137146605Y-104333573D01*
X137195072Y-104374964D01*
X137265542Y-104437256D01*
X137348564Y-104512010D01*
X137434683Y-104590786D01*
X137477944Y-104630335D01*
X137522366Y-104670281D01*
X137566687Y-104709531D01*
X137609643Y-104746992D01*
X137649973Y-104781574D01*
X137686412Y-104812182D01*
X137717699Y-104837725D01*
X137742571Y-104857111D01*
X137845566Y-104934408D01*
X137944785Y-104985926D01*
X137966124Y-104996689D01*
X137988755Y-105007531D01*
X138011986Y-105018156D01*
X138035129Y-105028271D01*
X138057494Y-105037580D01*
X138078389Y-105045790D01*
X138097125Y-105052606D01*
X138113013Y-105057733D01*
X138128710Y-105061990D01*
X138146899Y-105066310D01*
X138166930Y-105070574D01*
X138188150Y-105074664D01*
X138209908Y-105078458D01*
X138231552Y-105081838D01*
X138252431Y-105084685D01*
X138271892Y-105086878D01*
X138361761Y-105095732D01*
X138477905Y-105073969D01*
X138594048Y-105052206D01*
X138696057Y-105014566D01*
X138721727Y-105004555D01*
X138755683Y-104990478D01*
X138842623Y-104952716D01*
X138945206Y-104906454D01*
X139051759Y-104856868D01*
X139305452Y-104736810D01*
X139442020Y-104688931D01*
X139578587Y-104641053D01*
X139710879Y-104614911D01*
X139843170Y-104588770D01*
X140008535Y-104588270D01*
X140173900Y-104587770D01*
X140286347Y-104603156D01*
X140348798Y-104612753D01*
X140435713Y-104627508D01*
X140535588Y-104645411D01*
X140636920Y-104664450D01*
X140741906Y-104684321D01*
X140851729Y-104704490D01*
X140953366Y-104722600D01*
X141033795Y-104736292D01*
X141192545Y-104762228D01*
X141407897Y-104776850D01*
X141623248Y-104791473D01*
X141946500Y-104776772D01*
X142538128Y-104748033D01*
X142806504Y-104733994D01*
X143507650Y-104738179D01*
X144208796Y-104742364D01*
X144226485Y-104753779D01*
X144244174Y-104765194D01*
X144231466Y-104777902D01*
X144218758Y-104790611D01*
X143406797Y-104794221D01*
X142594837Y-104797831D01*
X142224421Y-104821015D01*
X141854004Y-104844199D01*
X141556348Y-104837330D01*
X141258691Y-104830460D01*
X141085618Y-104803880D01*
X140999713Y-104789878D01*
X140893757Y-104771400D01*
X140781205Y-104750851D01*
X140675514Y-104730634D01*
X140571160Y-104710903D01*
X140462251Y-104691679D01*
X140361685Y-104675162D01*
X140282363Y-104663554D01*
X140126243Y-104643142D01*
X140011165Y-104643242D01*
X139896087Y-104643342D01*
X139810098Y-104656587D01*
X139769403Y-104663442D01*
X139722165Y-104672316D01*
X139674246Y-104682063D01*
X139631504Y-104691535D01*
X139610607Y-104696766D01*
X139586675Y-104703330D01*
X139560549Y-104710963D01*
X139533071Y-104719400D01*
X139505081Y-104728379D01*
X139477421Y-104737634D01*
X139450930Y-104746901D01*
X139426452Y-104755917D01*
X139365567Y-104780579D01*
X139282916Y-104816177D01*
X139189350Y-104857948D01*
X139095723Y-104901126D01*
X139003661Y-104944028D01*
X138914359Y-104985045D01*
X138838017Y-105019529D01*
X138784837Y-105042828D01*
X138763805Y-105051336D01*
X138739486Y-105060506D01*
X138712749Y-105070051D01*
X138684461Y-105079681D01*
X138655491Y-105089107D01*
X138626707Y-105098041D01*
X138598978Y-105106193D01*
X138573171Y-105113275D01*
X138454108Y-105144550D01*
X138340469Y-105145200D01*
X138226827Y-105145860D01*
X138125007Y-105119819D01*
X138023187Y-105093778D01*
X137921146Y-105040581D01*
X137819105Y-104987385D01*
X137706657Y-104902429D01*
X137679479Y-104881132D01*
X137645250Y-104853088D01*
X137561177Y-104781547D01*
X137465509Y-104697395D01*
X137369313Y-104610220D01*
X137322061Y-104567013D01*
X137273966Y-104523663D01*
X137226368Y-104481335D01*
X137180606Y-104441196D01*
X137138020Y-104404413D01*
X137099951Y-104372151D01*
X137067736Y-104345577D01*
X137042716Y-104325857D01*
X136941015Y-104248747D01*
X136851097Y-104204517D01*
X136761179Y-104160287D01*
X136628684Y-104160287D01*
X136496188Y-104160287D01*
X136410199Y-104206213D01*
X136324210Y-104252140D01*
X136205147Y-104372022D01*
X136086084Y-104491903D01*
X135992990Y-104623751D01*
X135950619Y-104684699D01*
X135904071Y-104753180D01*
X135858987Y-104820811D01*
X135821011Y-104879211D01*
X135742126Y-105002821D01*
X135718975Y-105015274D01*
X135695825Y-105027728D01*
X135695825Y-104996329D01*
X135695825Y-104964930D01*
X135816496Y-104780889D01*
X135842435Y-104741740D01*
X135869920Y-104701003D01*
X135926178Y-104619541D01*
X135953279Y-104581200D01*
X135978579Y-104546044D01*
X136001242Y-104515266D01*
X136020431Y-104490057D01*
X136103695Y-104383267D01*
X136205233Y-104288441D01*
X136306772Y-104193615D01*
X136407409Y-104143877D01*
X136508046Y-104094140D01*
X136627795Y-104094835D01*
G36*
X136627795Y-104094835D02*
G01*
X136747543Y-104095530D01*
X136829373Y-104129941D01*
X136847364Y-104137884D01*
X136867151Y-104147288D01*
X136888086Y-104157804D01*
X136909522Y-104169083D01*
X136930810Y-104180778D01*
X136951303Y-104192539D01*
X136970352Y-104204019D01*
X136987311Y-104214870D01*
X137004297Y-104226409D01*
X137023426Y-104239865D01*
X137044044Y-104254750D01*
X137065498Y-104270577D01*
X137087135Y-104286860D01*
X137108300Y-104303112D01*
X137128341Y-104318845D01*
X137146605Y-104333573D01*
X137195072Y-104374964D01*
X137265542Y-104437256D01*
X137348564Y-104512010D01*
X137434683Y-104590786D01*
X137477944Y-104630335D01*
X137522366Y-104670281D01*
X137566687Y-104709531D01*
X137609643Y-104746992D01*
X137649973Y-104781574D01*
X137686412Y-104812182D01*
X137717699Y-104837725D01*
X137742571Y-104857111D01*
X137845566Y-104934408D01*
X137944785Y-104985926D01*
X137966124Y-104996689D01*
X137988755Y-105007531D01*
X138011986Y-105018156D01*
X138035129Y-105028271D01*
X138057494Y-105037580D01*
X138078389Y-105045790D01*
X138097125Y-105052606D01*
X138113013Y-105057733D01*
X138128710Y-105061990D01*
X138146899Y-105066310D01*
X138166930Y-105070574D01*
X138188150Y-105074664D01*
X138209908Y-105078458D01*
X138231552Y-105081838D01*
X138252431Y-105084685D01*
X138271892Y-105086878D01*
X138361761Y-105095732D01*
X138477905Y-105073969D01*
X138594048Y-105052206D01*
X138696057Y-105014566D01*
X138721727Y-105004555D01*
X138755683Y-104990478D01*
X138842623Y-104952716D01*
X138945206Y-104906454D01*
X139051759Y-104856868D01*
X139305452Y-104736810D01*
X139442020Y-104688931D01*
X139578587Y-104641053D01*
X139710879Y-104614911D01*
X139843170Y-104588770D01*
X140008535Y-104588270D01*
X140173900Y-104587770D01*
X140286347Y-104603156D01*
X140348798Y-104612753D01*
X140435713Y-104627508D01*
X140535588Y-104645411D01*
X140636920Y-104664450D01*
X140741906Y-104684321D01*
X140851729Y-104704490D01*
X140953366Y-104722600D01*
X141033795Y-104736292D01*
X141192545Y-104762228D01*
X141407897Y-104776850D01*
X141623248Y-104791473D01*
X141946500Y-104776772D01*
X142538128Y-104748033D01*
X142806504Y-104733994D01*
X143507650Y-104738179D01*
X144208796Y-104742364D01*
X144226485Y-104753779D01*
X144244174Y-104765194D01*
X144231466Y-104777902D01*
X144218758Y-104790611D01*
X143406797Y-104794221D01*
X142594837Y-104797831D01*
X142224421Y-104821015D01*
X141854004Y-104844199D01*
X141556348Y-104837330D01*
X141258691Y-104830460D01*
X141085618Y-104803880D01*
X140999713Y-104789878D01*
X140893757Y-104771400D01*
X140781205Y-104750851D01*
X140675514Y-104730634D01*
X140571160Y-104710903D01*
X140462251Y-104691679D01*
X140361685Y-104675162D01*
X140282363Y-104663554D01*
X140126243Y-104643142D01*
X140011165Y-104643242D01*
X139896087Y-104643342D01*
X139810098Y-104656587D01*
X139769403Y-104663442D01*
X139722165Y-104672316D01*
X139674246Y-104682063D01*
X139631504Y-104691535D01*
X139610607Y-104696766D01*
X139586675Y-104703330D01*
X139560549Y-104710963D01*
X139533071Y-104719400D01*
X139505081Y-104728379D01*
X139477421Y-104737634D01*
X139450930Y-104746901D01*
X139426452Y-104755917D01*
X139365567Y-104780579D01*
X139282916Y-104816177D01*
X139189350Y-104857948D01*
X139095723Y-104901126D01*
X139003661Y-104944028D01*
X138914359Y-104985045D01*
X138838017Y-105019529D01*
X138784837Y-105042828D01*
X138763805Y-105051336D01*
X138739486Y-105060506D01*
X138712749Y-105070051D01*
X138684461Y-105079681D01*
X138655491Y-105089107D01*
X138626707Y-105098041D01*
X138598978Y-105106193D01*
X138573171Y-105113275D01*
X138454108Y-105144550D01*
X138340469Y-105145200D01*
X138226827Y-105145860D01*
X138125007Y-105119819D01*
X138023187Y-105093778D01*
X137921146Y-105040581D01*
X137819105Y-104987385D01*
X137706657Y-104902429D01*
X137679479Y-104881132D01*
X137645250Y-104853088D01*
X137561177Y-104781547D01*
X137465509Y-104697395D01*
X137369313Y-104610220D01*
X137322061Y-104567013D01*
X137273966Y-104523663D01*
X137226368Y-104481335D01*
X137180606Y-104441196D01*
X137138020Y-104404413D01*
X137099951Y-104372151D01*
X137067736Y-104345577D01*
X137042716Y-104325857D01*
X136941015Y-104248747D01*
X136851097Y-104204517D01*
X136761179Y-104160287D01*
X136628684Y-104160287D01*
X136496188Y-104160287D01*
X136410199Y-104206213D01*
X136324210Y-104252140D01*
X136205147Y-104372022D01*
X136086084Y-104491903D01*
X135992990Y-104623751D01*
X135950619Y-104684699D01*
X135904071Y-104753180D01*
X135858987Y-104820811D01*
X135821011Y-104879211D01*
X135742126Y-105002821D01*
X135718975Y-105015274D01*
X135695825Y-105027728D01*
X135695825Y-104996329D01*
X135695825Y-104964930D01*
X135816496Y-104780889D01*
X135842435Y-104741740D01*
X135869920Y-104701003D01*
X135926178Y-104619541D01*
X135953279Y-104581200D01*
X135978579Y-104546044D01*
X136001242Y-104515266D01*
X136020431Y-104490057D01*
X136103695Y-104383267D01*
X136205233Y-104288441D01*
X136306772Y-104193615D01*
X136407409Y-104143877D01*
X136508046Y-104094140D01*
X136627795Y-104094835D01*
G37*
D10*
X123589812Y-99494405D02*
X123950320Y-100019841D01*
X124876639Y-102782964D02*
X125322806Y-101704774D01*
X124621422Y-99364296D02*
X124086818Y-98997399D01*
D11*
G36*
X125920330Y-98488667D02*
G01*
X125921756Y-98488773D01*
X125923176Y-98488948D01*
X125924588Y-98489190D01*
X125925989Y-98489497D01*
X125927377Y-98489868D01*
X125928750Y-98490300D01*
X125930105Y-98490792D01*
X125931441Y-98491342D01*
X125932756Y-98491949D01*
X125934047Y-98492610D01*
X125935312Y-98493324D01*
X125936549Y-98494090D01*
X125937756Y-98494905D01*
X125938930Y-98495768D01*
X125940070Y-98496676D01*
X125941174Y-98497629D01*
X125942238Y-98498625D01*
X125943262Y-98499661D01*
X125944243Y-98500736D01*
X125945178Y-98501848D01*
X125946066Y-98502996D01*
X125946905Y-98504178D01*
X125947691Y-98505391D01*
X125948424Y-98506635D01*
X125949101Y-98507908D01*
X125949720Y-98509207D01*
X125950278Y-98510531D01*
X125950774Y-98511878D01*
X125951205Y-98513247D01*
X125951570Y-98514636D01*
X125951866Y-98516042D01*
X126070955Y-99155937D01*
X126071248Y-99157355D01*
X126071607Y-99158778D01*
X126072029Y-99160204D01*
X126072513Y-99161629D01*
X126073655Y-99164471D01*
X126075016Y-99167285D01*
X126076581Y-99170054D01*
X126078333Y-99172757D01*
X126080256Y-99175377D01*
X126082333Y-99177896D01*
X126084548Y-99180294D01*
X126086884Y-99182553D01*
X126089326Y-99184654D01*
X126091856Y-99186579D01*
X126094458Y-99188309D01*
X126097115Y-99189826D01*
X126098460Y-99190499D01*
X126099813Y-99191111D01*
X126101171Y-99191661D01*
X126102533Y-99192145D01*
X126531382Y-99367723D01*
X126534041Y-99368909D01*
X126536862Y-99369900D01*
X126539820Y-99370697D01*
X126542890Y-99371302D01*
X126546047Y-99371718D01*
X126549267Y-99371945D01*
X126552525Y-99371987D01*
X126555795Y-99371844D01*
X126559054Y-99371518D01*
X126562275Y-99371013D01*
X126565436Y-99370329D01*
X126568509Y-99369468D01*
X126571472Y-99368432D01*
X126574298Y-99367224D01*
X126576964Y-99365845D01*
X126579444Y-99364296D01*
X127114048Y-98997399D01*
X127115248Y-98996614D01*
X127116484Y-98995890D01*
X127117753Y-98995228D01*
X127119054Y-98994626D01*
X127120382Y-98994086D01*
X127121736Y-98993605D01*
X127123112Y-98993185D01*
X127124508Y-98992825D01*
X127125921Y-98992524D01*
X127127348Y-98992283D01*
X127130233Y-98991976D01*
X127133142Y-98991904D01*
X127136053Y-98992062D01*
X127138943Y-98992450D01*
X127141790Y-98993064D01*
X127144572Y-98993903D01*
X127145932Y-98994406D01*
X127147268Y-98994964D01*
X127148576Y-98995576D01*
X127149854Y-98996244D01*
X127151100Y-98996966D01*
X127152310Y-98997742D01*
X127153481Y-98998572D01*
X127154612Y-98999455D01*
X127155698Y-99000391D01*
X127156738Y-99001381D01*
X127606980Y-99451622D01*
X127607977Y-99452670D01*
X127608920Y-99453764D01*
X127609808Y-99454901D01*
X127610641Y-99456077D01*
X127611420Y-99457292D01*
X127612143Y-99458541D01*
X127613423Y-99461133D01*
X127614480Y-99463832D01*
X127615312Y-99466616D01*
X127615919Y-99469464D01*
X127616298Y-99472354D01*
X127616448Y-99475265D01*
X127616368Y-99478174D01*
X127616055Y-99481062D01*
X127615509Y-99483905D01*
X127614728Y-99486682D01*
X127614250Y-99488040D01*
X127613711Y-99489373D01*
X127613114Y-99490678D01*
X127612456Y-99491954D01*
X127611739Y-99493197D01*
X127610962Y-99494405D01*
X127250453Y-100019841D01*
X127248892Y-100022334D01*
X127247508Y-100025005D01*
X127246301Y-100027831D01*
X127245275Y-100030786D01*
X127244429Y-100033848D01*
X127243765Y-100036992D01*
X127243284Y-100040195D01*
X127242987Y-100043432D01*
X127242876Y-100046681D01*
X127242952Y-100049916D01*
X127243216Y-100053114D01*
X127243669Y-100056252D01*
X127244312Y-100059305D01*
X127245147Y-100062250D01*
X127246175Y-100065062D01*
X127247398Y-100067718D01*
X127437050Y-100510180D01*
X127438120Y-100512899D01*
X127439439Y-100515593D01*
X127440990Y-100518247D01*
X127442753Y-100520843D01*
X127444710Y-100523366D01*
X127446842Y-100525799D01*
X127449130Y-100528127D01*
X127451555Y-100530333D01*
X127454098Y-100532402D01*
X127456741Y-100534316D01*
X127459464Y-100536060D01*
X127462249Y-100537619D01*
X127465077Y-100538974D01*
X127467929Y-100540111D01*
X127470786Y-100541014D01*
X127473630Y-100541666D01*
X128092318Y-100656680D01*
X128092781Y-100656680D01*
X128094188Y-100656984D01*
X128095576Y-100657355D01*
X128096945Y-100657793D01*
X128098292Y-100658294D01*
X128099616Y-100658857D01*
X128100915Y-100659480D01*
X128102187Y-100660160D01*
X128103430Y-100660895D01*
X128104643Y-100661684D01*
X128105824Y-100662523D01*
X128108082Y-100664349D01*
X128110191Y-100666354D01*
X128112135Y-100668522D01*
X128113902Y-100670836D01*
X128115476Y-100673281D01*
X128116844Y-100675839D01*
X128117447Y-100677155D01*
X128117992Y-100678493D01*
X128118479Y-100679851D01*
X128118906Y-100681226D01*
X128119270Y-100682618D01*
X128119571Y-100684023D01*
X128119806Y-100685440D01*
X128119973Y-100686867D01*
X128120072Y-100688300D01*
X128120099Y-100689740D01*
X128120099Y-101326486D01*
X128120063Y-101327925D01*
X128119957Y-101329360D01*
X128119782Y-101330788D01*
X128119540Y-101332206D01*
X128119233Y-101333613D01*
X128118863Y-101335007D01*
X128118431Y-101336385D01*
X128117939Y-101337746D01*
X128117388Y-101339087D01*
X128116782Y-101340406D01*
X128116120Y-101341701D01*
X128115406Y-101342969D01*
X128114640Y-101344209D01*
X128113825Y-101345419D01*
X128112963Y-101346596D01*
X128112054Y-101347739D01*
X128111101Y-101348844D01*
X128110106Y-101349911D01*
X128109069Y-101350936D01*
X128107994Y-101351918D01*
X128106882Y-101352854D01*
X128105734Y-101353743D01*
X128104552Y-101354582D01*
X128103339Y-101355370D01*
X128102095Y-101356103D01*
X128100823Y-101356780D01*
X128099524Y-101357399D01*
X128098200Y-101357958D01*
X128096852Y-101358454D01*
X128095483Y-101358885D01*
X128094095Y-101359250D01*
X128092688Y-101359546D01*
X127489187Y-101471875D01*
X127487761Y-101472169D01*
X127486332Y-101472528D01*
X127484904Y-101472952D01*
X127483476Y-101473437D01*
X127480637Y-101474584D01*
X127477831Y-101475952D01*
X127475078Y-101477526D01*
X127472394Y-101479288D01*
X127469799Y-101481222D01*
X127467309Y-101483311D01*
X127464943Y-101485540D01*
X127462719Y-101487890D01*
X127460654Y-101490347D01*
X127458766Y-101492893D01*
X127457074Y-101495511D01*
X127455596Y-101498186D01*
X127454348Y-101500901D01*
X127453816Y-101502267D01*
X127453349Y-101503638D01*
X127264900Y-101974252D01*
X127263731Y-101976926D01*
X127262757Y-101979758D01*
X127261976Y-101982724D01*
X127261387Y-101985799D01*
X127260986Y-101988958D01*
X127260772Y-101992178D01*
X127260742Y-101995433D01*
X127260895Y-101998700D01*
X127261228Y-102001953D01*
X127261739Y-102005170D01*
X127262425Y-102008324D01*
X127263285Y-102011392D01*
X127264317Y-102014350D01*
X127265518Y-102017172D01*
X127266886Y-102019835D01*
X127268419Y-102022314D01*
X127611240Y-102521821D01*
X127612025Y-102523021D01*
X127612749Y-102524257D01*
X127613411Y-102525528D01*
X127614012Y-102526830D01*
X127614553Y-102528161D01*
X127615033Y-102529517D01*
X127615453Y-102530896D01*
X127615813Y-102532295D01*
X127616114Y-102533711D01*
X127616356Y-102535142D01*
X127616662Y-102538035D01*
X127616735Y-102540953D01*
X127616576Y-102543872D01*
X127616188Y-102546771D01*
X127615574Y-102549626D01*
X127614736Y-102552416D01*
X127614233Y-102553780D01*
X127613675Y-102555119D01*
X127613062Y-102556430D01*
X127612394Y-102557711D01*
X127611673Y-102558959D01*
X127610897Y-102560171D01*
X127610067Y-102561344D01*
X127609184Y-102562476D01*
X127608247Y-102563563D01*
X127607258Y-102564604D01*
X127156924Y-103014845D01*
X127155892Y-103015834D01*
X127154814Y-103016770D01*
X127153690Y-103017652D01*
X127152526Y-103018480D01*
X127151322Y-103019254D01*
X127150082Y-103019974D01*
X127147506Y-103021249D01*
X127144818Y-103022304D01*
X127142041Y-103023137D01*
X127139197Y-103023746D01*
X127136308Y-103024129D01*
X127133396Y-103024284D01*
X127130484Y-103024209D01*
X127127593Y-103023902D01*
X127124745Y-103023362D01*
X127121964Y-103022586D01*
X127120604Y-103022109D01*
X127119270Y-103021573D01*
X127117962Y-103020977D01*
X127116686Y-103020321D01*
X127115442Y-103019604D01*
X127114233Y-103018827D01*
X126623524Y-102682026D01*
X126621050Y-102680504D01*
X126618403Y-102679170D01*
X126615606Y-102678024D01*
X126612683Y-102677066D01*
X126609658Y-102676296D01*
X126606555Y-102675716D01*
X126603398Y-102675326D01*
X126600211Y-102675127D01*
X126597017Y-102675118D01*
X126593840Y-102675301D01*
X126590704Y-102675676D01*
X126587634Y-102676244D01*
X126584652Y-102677005D01*
X126581784Y-102677959D01*
X126579052Y-102679108D01*
X126576481Y-102680451D01*
X126360065Y-102796022D01*
X126358774Y-102796643D01*
X126357471Y-102797190D01*
X126356160Y-102797663D01*
X126354841Y-102798062D01*
X126353519Y-102798389D01*
X126352194Y-102798644D01*
X126350869Y-102798828D01*
X126349547Y-102798943D01*
X126348230Y-102798988D01*
X126346919Y-102798965D01*
X126345618Y-102798875D01*
X126344329Y-102798719D01*
X126343053Y-102798497D01*
X126341794Y-102798210D01*
X126340553Y-102797859D01*
X126339333Y-102797445D01*
X126338136Y-102796969D01*
X126336965Y-102796432D01*
X126335821Y-102795835D01*
X126334707Y-102795178D01*
X126333625Y-102794462D01*
X126332577Y-102793688D01*
X126331567Y-102792858D01*
X126330595Y-102791971D01*
X126329665Y-102791030D01*
X126328779Y-102790033D01*
X126327938Y-102788984D01*
X126327146Y-102787882D01*
X126326404Y-102786728D01*
X126325715Y-102785523D01*
X126325082Y-102784268D01*
X126324505Y-102782964D01*
X125878338Y-101704774D01*
X125877817Y-101703435D01*
X125877365Y-101702075D01*
X125876980Y-101700698D01*
X125876662Y-101699306D01*
X125876410Y-101697901D01*
X125876224Y-101696486D01*
X125876101Y-101695063D01*
X125876042Y-101693636D01*
X125876045Y-101692205D01*
X125876111Y-101690776D01*
X125876236Y-101689348D01*
X125876422Y-101687926D01*
X125876667Y-101686512D01*
X125876970Y-101685108D01*
X125877331Y-101683717D01*
X125877748Y-101682341D01*
X125878220Y-101680983D01*
X125878748Y-101679645D01*
X125879329Y-101678331D01*
X125879963Y-101677042D01*
X125880650Y-101675781D01*
X125881387Y-101674550D01*
X125882176Y-101673353D01*
X125883013Y-101672192D01*
X125883900Y-101671069D01*
X125884834Y-101669986D01*
X125885815Y-101668947D01*
X125886842Y-101667954D01*
X125887915Y-101667009D01*
X125889032Y-101666116D01*
X125890192Y-101665275D01*
X125891395Y-101664491D01*
X125945569Y-101631339D01*
X125949476Y-101628853D01*
X125953643Y-101626020D01*
X125957992Y-101622901D01*
X125962446Y-101619555D01*
X125966926Y-101616045D01*
X125971353Y-101612430D01*
X125975651Y-101608773D01*
X125979740Y-101605132D01*
X126015589Y-101580607D01*
X126049802Y-101553974D01*
X126082285Y-101525327D01*
X126112945Y-101494758D01*
X126141689Y-101462362D01*
X126168422Y-101428230D01*
X126193053Y-101392457D01*
X126215487Y-101355136D01*
X126235631Y-101316359D01*
X126253392Y-101276220D01*
X126268677Y-101234813D01*
X126281392Y-101192229D01*
X126291444Y-101148563D01*
X126298739Y-101103908D01*
X126303185Y-101058357D01*
X126304688Y-101012003D01*
X126303771Y-100975771D01*
X126301052Y-100940015D01*
X126296573Y-100904778D01*
X126290380Y-100870105D01*
X126282516Y-100836039D01*
X126273026Y-100802626D01*
X126261954Y-100769909D01*
X126249344Y-100737933D01*
X126235241Y-100706742D01*
X126219689Y-100676381D01*
X126202732Y-100646892D01*
X126184414Y-100618322D01*
X126164780Y-100590714D01*
X126143874Y-100564112D01*
X126121741Y-100538561D01*
X126098424Y-100514105D01*
X126073967Y-100490788D01*
X126048416Y-100468654D01*
X126021814Y-100447748D01*
X125994206Y-100428114D01*
X125965636Y-100409797D01*
X125936148Y-100392840D01*
X125905786Y-100377287D01*
X125874595Y-100363184D01*
X125842619Y-100350575D01*
X125809902Y-100339503D01*
X125776489Y-100330013D01*
X125742424Y-100322149D01*
X125707750Y-100315955D01*
X125672513Y-100311476D01*
X125636757Y-100308757D01*
X125600526Y-100307840D01*
X125564294Y-100308757D01*
X125528538Y-100311475D01*
X125493301Y-100315953D01*
X125458628Y-100322145D01*
X125424562Y-100330007D01*
X125391149Y-100339495D01*
X125358432Y-100350564D01*
X125326456Y-100363171D01*
X125295265Y-100377272D01*
X125264904Y-100392821D01*
X125235416Y-100409775D01*
X125206845Y-100428090D01*
X125179237Y-100447721D01*
X125152635Y-100468624D01*
X125127084Y-100490755D01*
X125102628Y-100514070D01*
X125079311Y-100538524D01*
X125057177Y-100564074D01*
X125036271Y-100590674D01*
X125016637Y-100618281D01*
X124998320Y-100646851D01*
X124981363Y-100676340D01*
X124965811Y-100706702D01*
X124951707Y-100737894D01*
X124939098Y-100769872D01*
X124928026Y-100802592D01*
X124918536Y-100836008D01*
X124910672Y-100870078D01*
X124904478Y-100904757D01*
X124900000Y-100940000D01*
X124897280Y-100975763D01*
X124896363Y-101012003D01*
X124896741Y-101035274D01*
X124897866Y-101058356D01*
X124899727Y-101081236D01*
X124902312Y-101103904D01*
X124905609Y-101126348D01*
X124909607Y-101148555D01*
X124914295Y-101170515D01*
X124919659Y-101192216D01*
X124925690Y-101213646D01*
X124932374Y-101234794D01*
X124939701Y-101255647D01*
X124947659Y-101276195D01*
X124956236Y-101296427D01*
X124965420Y-101316329D01*
X124985564Y-101355101D01*
X125007999Y-101392418D01*
X125032629Y-101428189D01*
X125059363Y-101462320D01*
X125088106Y-101494719D01*
X125118766Y-101525292D01*
X125151249Y-101553947D01*
X125185462Y-101580591D01*
X125221312Y-101605132D01*
X125225431Y-101608772D01*
X125229752Y-101612430D01*
X125234196Y-101616045D01*
X125238687Y-101619555D01*
X125243147Y-101622900D01*
X125247500Y-101626020D01*
X125251668Y-101628853D01*
X125255575Y-101631339D01*
X125309749Y-101664491D01*
X125310952Y-101665267D01*
X125312112Y-101666100D01*
X125313229Y-101666988D01*
X125314302Y-101667928D01*
X125315329Y-101668916D01*
X125316310Y-101669952D01*
X125318131Y-101672153D01*
X125319757Y-101674509D01*
X125321181Y-101677001D01*
X125322396Y-101679607D01*
X125323396Y-101682306D01*
X125324174Y-101685078D01*
X125324722Y-101687902D01*
X125325034Y-101690757D01*
X125325102Y-101693623D01*
X125324921Y-101696478D01*
X125324734Y-101697895D01*
X125324482Y-101699302D01*
X125324164Y-101700696D01*
X125323779Y-101702074D01*
X125323327Y-101703435D01*
X125322806Y-101704774D01*
X124876639Y-102782964D01*
X124876063Y-102784268D01*
X124875429Y-102785523D01*
X124874740Y-102786728D01*
X124873998Y-102787882D01*
X124873206Y-102788984D01*
X124872366Y-102790033D01*
X124871479Y-102791030D01*
X124870549Y-102791971D01*
X124869577Y-102792858D01*
X124868567Y-102793688D01*
X124867520Y-102794462D01*
X124866438Y-102795178D01*
X124865324Y-102795835D01*
X124864180Y-102796432D01*
X124863008Y-102796969D01*
X124861811Y-102797445D01*
X124860591Y-102797859D01*
X124859350Y-102798210D01*
X124858091Y-102798497D01*
X124856815Y-102798719D01*
X124855526Y-102798875D01*
X124854225Y-102798965D01*
X124852914Y-102798988D01*
X124851597Y-102798943D01*
X124850275Y-102798828D01*
X124848950Y-102798644D01*
X124847625Y-102798389D01*
X124846303Y-102798062D01*
X124844985Y-102797663D01*
X124843673Y-102797190D01*
X124842370Y-102796643D01*
X124841079Y-102796022D01*
X124624663Y-102680451D01*
X124622092Y-102679093D01*
X124619360Y-102677932D01*
X124616492Y-102676970D01*
X124613510Y-102676205D01*
X124610440Y-102675635D01*
X124607304Y-102675260D01*
X124604128Y-102675080D01*
X124600933Y-102675092D01*
X124597746Y-102675296D01*
X124594589Y-102675692D01*
X124591486Y-102676278D01*
X124588461Y-102677053D01*
X124585538Y-102678016D01*
X124582741Y-102679167D01*
X124580094Y-102680503D01*
X124577620Y-102682026D01*
X124086911Y-103018827D01*
X124085703Y-103019604D01*
X124084459Y-103020321D01*
X124083182Y-103020977D01*
X124081874Y-103021573D01*
X124080540Y-103022109D01*
X124079180Y-103022586D01*
X124077798Y-103023004D01*
X124076397Y-103023362D01*
X124073549Y-103023902D01*
X124070656Y-103024209D01*
X124067740Y-103024284D01*
X124064825Y-103024129D01*
X124061931Y-103023746D01*
X124059081Y-103023137D01*
X124056296Y-103022305D01*
X124054936Y-103021805D01*
X124053599Y-103021249D01*
X124052291Y-103020639D01*
X124051012Y-103019974D01*
X124049767Y-103019254D01*
X124048557Y-103018480D01*
X124047385Y-103017652D01*
X124046254Y-103016770D01*
X124045168Y-103015834D01*
X124044128Y-103014845D01*
X123593794Y-102564604D01*
X123592805Y-102563564D01*
X123591869Y-102562477D01*
X123590987Y-102561347D01*
X123590159Y-102560175D01*
X123589385Y-102558965D01*
X123588665Y-102557719D01*
X123587390Y-102555132D01*
X123586335Y-102552435D01*
X123585502Y-102549651D01*
X123584893Y-102546801D01*
X123584510Y-102543907D01*
X123584355Y-102540991D01*
X123584430Y-102538076D01*
X123584737Y-102535183D01*
X123585277Y-102532334D01*
X123586053Y-102529551D01*
X123586530Y-102528192D01*
X123587066Y-102526857D01*
X123587662Y-102525550D01*
X123588318Y-102524273D01*
X123589035Y-102523029D01*
X123589812Y-102521821D01*
X123932632Y-102022314D01*
X123934197Y-102019835D01*
X123935591Y-102017172D01*
X123936812Y-102014350D01*
X123937859Y-102011392D01*
X123938730Y-102008324D01*
X123939424Y-102005170D01*
X123939938Y-102001953D01*
X123940272Y-101998700D01*
X123940424Y-101995433D01*
X123940392Y-101992178D01*
X123940174Y-101988958D01*
X123939769Y-101985799D01*
X123939175Y-101982724D01*
X123938391Y-101979758D01*
X123937414Y-101976926D01*
X123936244Y-101974252D01*
X123747794Y-101503638D01*
X123746795Y-101500901D01*
X123745544Y-101498186D01*
X123744061Y-101495511D01*
X123742364Y-101492893D01*
X123740471Y-101490347D01*
X123738400Y-101487890D01*
X123736171Y-101485540D01*
X123733800Y-101483311D01*
X123731306Y-101481222D01*
X123728708Y-101479288D01*
X123726025Y-101477526D01*
X123723273Y-101475952D01*
X123720472Y-101474584D01*
X123717640Y-101473437D01*
X123714796Y-101472528D01*
X123713374Y-101472169D01*
X123711957Y-101471875D01*
X123108455Y-101359546D01*
X123107049Y-101359250D01*
X123105659Y-101358885D01*
X123104289Y-101358454D01*
X123102940Y-101357958D01*
X123101614Y-101357399D01*
X123100312Y-101356780D01*
X123099037Y-101356103D01*
X123097790Y-101355370D01*
X123096573Y-101354582D01*
X123095388Y-101353743D01*
X123093120Y-101351918D01*
X123091000Y-101349910D01*
X123089043Y-101347739D01*
X123087263Y-101345419D01*
X123085674Y-101342969D01*
X123084291Y-101340406D01*
X123083680Y-101339087D01*
X123083127Y-101337746D01*
X123082632Y-101336385D01*
X123082197Y-101335007D01*
X123081824Y-101333613D01*
X123081515Y-101332206D01*
X123081271Y-101330788D01*
X123081095Y-101329360D01*
X123080988Y-101327925D01*
X123080952Y-101326486D01*
X123080952Y-100689740D01*
X123080988Y-100688301D01*
X123081094Y-100686867D01*
X123081269Y-100685440D01*
X123081511Y-100684023D01*
X123081818Y-100682618D01*
X123082188Y-100681227D01*
X123082620Y-100679851D01*
X123083112Y-100678493D01*
X123083663Y-100677155D01*
X123084269Y-100675839D01*
X123084931Y-100674547D01*
X123085645Y-100673281D01*
X123086411Y-100672044D01*
X123087226Y-100670836D01*
X123088088Y-100669662D01*
X123088997Y-100668522D01*
X123089950Y-100667418D01*
X123090945Y-100666354D01*
X123091981Y-100665330D01*
X123093057Y-100664349D01*
X123094169Y-100663413D01*
X123095317Y-100662524D01*
X123096498Y-100661684D01*
X123097712Y-100660895D01*
X123098956Y-100660160D01*
X123100228Y-100659480D01*
X123101527Y-100658857D01*
X123102851Y-100658294D01*
X123104199Y-100657793D01*
X123105568Y-100657355D01*
X123106956Y-100656984D01*
X123108363Y-100656680D01*
X123727051Y-100541666D01*
X123728470Y-100541372D01*
X123729895Y-100541014D01*
X123731323Y-100540593D01*
X123732752Y-100540111D01*
X123735604Y-100538974D01*
X123738431Y-100537619D01*
X123741216Y-100536061D01*
X123743940Y-100534316D01*
X123746582Y-100532402D01*
X123749126Y-100530333D01*
X123751551Y-100528127D01*
X123753839Y-100525799D01*
X123755970Y-100523366D01*
X123757927Y-100520843D01*
X123759691Y-100518247D01*
X123761241Y-100515593D01*
X123761931Y-100514250D01*
X123762561Y-100512899D01*
X123763128Y-100511542D01*
X123763630Y-100510180D01*
X123953283Y-100067718D01*
X123954504Y-100065061D01*
X123955530Y-100062246D01*
X123956361Y-100059297D01*
X123957000Y-100056239D01*
X123957449Y-100053096D01*
X123957709Y-100049892D01*
X123957782Y-100046651D01*
X123957670Y-100043398D01*
X123957375Y-100040156D01*
X123956898Y-100036951D01*
X123956241Y-100033807D01*
X123955406Y-100030747D01*
X123954394Y-100027796D01*
X123953208Y-100024979D01*
X123951850Y-100022319D01*
X123950320Y-100019841D01*
X123589812Y-99494405D01*
X123589026Y-99493197D01*
X123588303Y-99491953D01*
X123587640Y-99490676D01*
X123587039Y-99489369D01*
X123586498Y-99488034D01*
X123586018Y-99486674D01*
X123585598Y-99485293D01*
X123585238Y-99483892D01*
X123584937Y-99482474D01*
X123584696Y-99481043D01*
X123584389Y-99478150D01*
X123584317Y-99475235D01*
X123584475Y-99472319D01*
X123584863Y-99469425D01*
X123585477Y-99466575D01*
X123586316Y-99463791D01*
X123586818Y-99462430D01*
X123587376Y-99461094D01*
X123587989Y-99459785D01*
X123588657Y-99458506D01*
X123589379Y-99457261D01*
X123590155Y-99456051D01*
X123590984Y-99454879D01*
X123591868Y-99453749D01*
X123592804Y-99452662D01*
X123593794Y-99451622D01*
X124044035Y-99001381D01*
X124045075Y-99000383D01*
X124046162Y-98999440D01*
X124047292Y-98998550D01*
X124048464Y-98997715D01*
X124049674Y-98996935D01*
X124050919Y-98996210D01*
X124053507Y-98994924D01*
X124056203Y-98993862D01*
X124058988Y-98993024D01*
X124061838Y-98992412D01*
X124064732Y-98992028D01*
X124067647Y-98991874D01*
X124070563Y-98991952D01*
X124073456Y-98992264D01*
X124076305Y-98992812D01*
X124079087Y-98993597D01*
X124080447Y-98994080D01*
X124081782Y-98994622D01*
X124083089Y-98995225D01*
X124084366Y-98995889D01*
X124085610Y-98996613D01*
X124086818Y-98997399D01*
X124621422Y-99364296D01*
X124623885Y-99365828D01*
X124626537Y-99367194D01*
X124629351Y-99368390D01*
X124632304Y-99369416D01*
X124635370Y-99370269D01*
X124638525Y-99370948D01*
X124641744Y-99371450D01*
X124645001Y-99371774D01*
X124648273Y-99371918D01*
X124651534Y-99371880D01*
X124654759Y-99371658D01*
X124657924Y-99371250D01*
X124661004Y-99370655D01*
X124663973Y-99369870D01*
X124666808Y-99368893D01*
X124669484Y-99367723D01*
X125098426Y-99192145D01*
X125101145Y-99191111D01*
X125103839Y-99189826D01*
X125106493Y-99188309D01*
X125109090Y-99186579D01*
X125111614Y-99184654D01*
X125114050Y-99182553D01*
X125116381Y-99180294D01*
X125118591Y-99177896D01*
X125120664Y-99175377D01*
X125122584Y-99172757D01*
X125124336Y-99170054D01*
X125125903Y-99167285D01*
X125127270Y-99164471D01*
X125128419Y-99161629D01*
X125129336Y-99158778D01*
X125130004Y-99155937D01*
X125249093Y-98516042D01*
X125249388Y-98514636D01*
X125249753Y-98513247D01*
X125250184Y-98511878D01*
X125250680Y-98510531D01*
X125251239Y-98509207D01*
X125251857Y-98507908D01*
X125252534Y-98506635D01*
X125253267Y-98505391D01*
X125254054Y-98504178D01*
X125254892Y-98502996D01*
X125256716Y-98500736D01*
X125258720Y-98498625D01*
X125260888Y-98496676D01*
X125263203Y-98494905D01*
X125265647Y-98493324D01*
X125268203Y-98491949D01*
X125270853Y-98490792D01*
X125272209Y-98490300D01*
X125273582Y-98489868D01*
X125274970Y-98489497D01*
X125276370Y-98489190D01*
X125277782Y-98488948D01*
X125279202Y-98488773D01*
X125280629Y-98488667D01*
X125282060Y-98488631D01*
X125918898Y-98488631D01*
X125920330Y-98488667D01*
G37*
D10*
X127610962Y-99494405D02*
X127611784Y-99493123D01*
X127612547Y-99491786D01*
X127613249Y-99490396D01*
X127613888Y-99488955D01*
X127614461Y-99487466D01*
X127614965Y-99485931D01*
X127615400Y-99484356D01*
X127615762Y-99482743D01*
X127616050Y-99481098D01*
X127616261Y-99479427D01*
X127616395Y-99477734D01*
X127616449Y-99476027D01*
X127616424Y-99474312D01*
X127616319Y-99472596D01*
X127616237Y-99471740D01*
X127616135Y-99470886D01*
X127616013Y-99470036D01*
X127615871Y-99469189D01*
X127615710Y-99468348D01*
X127615529Y-99467511D01*
X127615330Y-99466683D01*
X127615111Y-99465860D01*
X127614874Y-99465047D01*
X127614618Y-99464241D01*
X127614345Y-99463447D01*
X127614054Y-99462661D01*
X127613746Y-99461888D01*
X127613419Y-99461124D01*
X127613078Y-99460375D01*
X127612718Y-99459635D01*
X127612344Y-99458912D01*
X127611952Y-99458199D01*
X127611548Y-99457503D01*
X127611126Y-99456818D01*
X127610691Y-99456152D01*
X127610241Y-99455496D01*
X127609778Y-99454860D01*
X127609300Y-99454236D01*
X127608811Y-99453631D01*
X127608306Y-99453039D01*
X127607791Y-99452466D01*
X127607261Y-99451907D01*
X127606980Y-99451622D01*
X125322806Y-101704774D02*
X125323350Y-101703372D01*
X125323823Y-101701932D01*
X125324224Y-101700455D01*
X125324553Y-101698944D01*
X125324807Y-101697402D01*
X125324984Y-101695832D01*
X125325085Y-101694238D01*
X125325107Y-101692624D01*
X125325049Y-101690996D01*
X125324911Y-101689357D01*
X125324693Y-101687714D01*
X125324395Y-101686074D01*
X125324017Y-101684441D01*
X125323560Y-101682823D01*
X125323027Y-101681227D01*
X125322732Y-101680439D01*
X125322418Y-101679658D01*
X125322086Y-101678886D01*
X125321737Y-101678123D01*
X125321370Y-101677372D01*
X125320986Y-101676629D01*
X125320586Y-101675900D01*
X125320168Y-101675181D01*
X125319736Y-101674476D01*
X125319288Y-101673784D01*
X125318826Y-101673107D01*
X125318347Y-101672442D01*
X125317857Y-101671795D01*
X125317351Y-101671161D01*
X125316835Y-101670546D01*
X125316303Y-101669944D01*
X125315762Y-101669362D01*
X125315207Y-101668793D01*
X125314643Y-101668245D01*
X125314065Y-101667712D01*
X125313480Y-101667199D01*
X125312882Y-101666702D01*
X125312277Y-101666226D01*
X125311660Y-101665765D01*
X125311037Y-101665325D01*
X125310403Y-101664902D01*
X125309749Y-101664491D01*
X126324505Y-102782964D02*
X126325107Y-102784323D01*
X126325775Y-102785634D01*
X126326507Y-102786896D01*
X126327301Y-102788108D01*
X126328156Y-102789267D01*
X126329069Y-102790371D01*
X126330038Y-102791419D01*
X126331061Y-102792408D01*
X126332136Y-102793336D01*
X126333259Y-102794201D01*
X126334428Y-102795001D01*
X126335639Y-102795733D01*
X126336889Y-102796395D01*
X126338174Y-102796986D01*
X126339492Y-102797503D01*
X126340161Y-102797733D01*
X126340836Y-102797945D01*
X126341518Y-102798137D01*
X126342205Y-102798311D01*
X126342896Y-102798465D01*
X126343593Y-102798599D01*
X126344293Y-102798713D01*
X126344997Y-102798808D01*
X126345703Y-102798883D01*
X126346413Y-102798938D01*
X126347123Y-102798973D01*
X126347836Y-102798989D01*
X126348549Y-102798984D01*
X126349263Y-102798958D01*
X126349977Y-102798913D01*
X126350691Y-102798848D01*
X126351404Y-102798763D01*
X126352116Y-102798657D01*
X126352826Y-102798531D01*
X126353535Y-102798386D01*
X126354240Y-102798220D01*
X126354945Y-102798034D01*
X126355644Y-102797828D01*
X126356342Y-102797602D01*
X126357034Y-102797357D01*
X126357724Y-102797091D01*
X126358409Y-102796805D01*
X126359090Y-102796499D01*
X126360065Y-102796022D01*
X127250453Y-100019841D02*
X127610962Y-99494405D01*
X124086911Y-103018827D02*
X124577620Y-102682026D01*
X123108363Y-100656680D02*
X123106879Y-100657003D01*
X123105398Y-100657406D01*
X123103922Y-100657890D01*
X123102456Y-100658455D01*
X123101002Y-100659100D01*
X123099564Y-100659826D01*
X123098146Y-100660630D01*
X123096753Y-100661512D01*
X123095390Y-100662470D01*
X123094061Y-100663500D01*
X123092771Y-100664601D01*
X123091527Y-100665769D01*
X123090333Y-100666999D01*
X123089194Y-100668286D01*
X123088646Y-100668951D01*
X123088115Y-100669627D01*
X123087599Y-100670315D01*
X123087100Y-100671015D01*
X123086619Y-100671724D01*
X123086155Y-100672444D01*
X123085709Y-100673172D01*
X123085282Y-100673910D01*
X123084874Y-100674653D01*
X123084484Y-100675405D01*
X123084115Y-100676160D01*
X123083764Y-100676924D01*
X123083435Y-100677689D01*
X123083124Y-100678461D01*
X123082836Y-100679234D01*
X123082566Y-100680012D01*
X123082318Y-100680788D01*
X123082090Y-100681570D01*
X123081884Y-100682349D01*
X123081698Y-100683132D01*
X123081533Y-100683910D01*
X123081388Y-100684692D01*
X123081265Y-100685469D01*
X123081161Y-100686248D01*
X123081079Y-100687021D01*
X123081017Y-100687796D01*
X123080976Y-100688563D01*
X123080955Y-100689332D01*
X123080952Y-100689740D01*
X127156924Y-103014845D02*
X127607258Y-102564604D01*
X123589812Y-102521821D02*
X123588994Y-102523096D01*
X123588235Y-102524427D01*
X123587537Y-102525812D01*
X123586902Y-102527249D01*
X123586331Y-102528734D01*
X123585829Y-102530266D01*
X123585396Y-102531841D01*
X123585036Y-102533453D01*
X123584750Y-102535099D01*
X123584539Y-102536772D01*
X123584407Y-102538468D01*
X123584353Y-102540179D01*
X123584379Y-102541899D01*
X123584485Y-102543621D01*
X123584568Y-102544480D01*
X123584671Y-102545337D01*
X123584793Y-102546191D01*
X123584935Y-102547041D01*
X123585097Y-102547885D01*
X123585278Y-102548725D01*
X123585478Y-102549557D01*
X123585697Y-102550382D01*
X123585934Y-102551198D01*
X123586190Y-102552007D01*
X123586463Y-102552803D01*
X123586755Y-102553592D01*
X123587063Y-102554366D01*
X123587390Y-102555132D01*
X123587731Y-102555882D01*
X123588090Y-102556623D01*
X123588464Y-102557347D01*
X123588855Y-102558060D01*
X123589258Y-102558755D01*
X123589679Y-102559440D01*
X123590112Y-102560105D01*
X123590561Y-102560759D01*
X123591021Y-102561393D01*
X123591498Y-102562015D01*
X123591984Y-102562617D01*
X123592486Y-102563206D01*
X123592997Y-102563774D01*
X123593523Y-102564330D01*
X123593794Y-102564604D01*
X125951866Y-98516042D02*
X125951554Y-98514568D01*
X125951162Y-98513098D01*
X125950689Y-98511632D01*
X125950135Y-98510174D01*
X125949501Y-98508728D01*
X125948785Y-98507297D01*
X125947991Y-98505885D01*
X125947118Y-98504496D01*
X125946169Y-98503136D01*
X125945146Y-98501808D01*
X125944052Y-98500520D01*
X125942890Y-98499275D01*
X125941665Y-98498079D01*
X125940381Y-98496937D01*
X125939044Y-98495855D01*
X125938357Y-98495337D01*
X125937658Y-98494836D01*
X125936949Y-98494352D01*
X125936230Y-98493886D01*
X125935502Y-98493438D01*
X125934765Y-98493007D01*
X125934023Y-98492597D01*
X125933271Y-98492204D01*
X125932515Y-98491833D01*
X125931752Y-98491479D01*
X125930987Y-98491147D01*
X125930215Y-98490834D01*
X125929443Y-98490543D01*
X125928665Y-98490271D01*
X125927889Y-98490021D01*
X125927108Y-98489790D01*
X125926331Y-98489582D01*
X125925549Y-98489393D01*
X125924772Y-98489226D01*
X125923991Y-98489079D01*
X125923217Y-98488954D01*
X125922440Y-98488849D01*
X125921670Y-98488765D01*
X125920898Y-98488701D01*
X125920134Y-98488658D01*
X125919369Y-98488635D01*
X125918898Y-98488631D01*
X128120099Y-100689740D02*
X128120068Y-100688230D01*
X128119958Y-100686709D01*
X128119768Y-100685179D01*
X128119496Y-100683643D01*
X128119144Y-100682104D01*
X128118709Y-100680565D01*
X128118194Y-100679032D01*
X128117597Y-100677507D01*
X128116921Y-100675997D01*
X128116165Y-100674506D01*
X128115333Y-100673040D01*
X128114427Y-100671605D01*
X128113449Y-100670206D01*
X128112403Y-100668849D01*
X128111293Y-100667541D01*
X128110716Y-100666906D01*
X128110124Y-100666285D01*
X128109519Y-100665680D01*
X128108900Y-100665089D01*
X128108270Y-100664514D01*
X128107626Y-100663955D01*
X128106973Y-100663414D01*
X128106308Y-100662889D01*
X128105635Y-100662384D01*
X128104950Y-100661895D01*
X128104260Y-100661427D01*
X128103559Y-100660975D01*
X128102854Y-100660545D01*
X128102139Y-100660133D01*
X128101421Y-100659742D01*
X128100695Y-100659369D01*
X128099967Y-100659018D01*
X128099232Y-100658686D01*
X128098496Y-100658376D01*
X128097753Y-100658085D01*
X128097012Y-100657816D01*
X128096264Y-100657567D01*
X128095519Y-100657339D01*
X128094768Y-100657130D01*
X128094020Y-100656944D01*
X128093267Y-100656777D01*
X128092781Y-100656680D01*
X125945569Y-101631339D02*
X125891395Y-101664491D01*
X123953283Y-100067718D02*
X123763630Y-100510180D01*
X126531382Y-99367723D02*
X126102533Y-99192145D01*
X125130004Y-99155937D02*
X125129661Y-99157527D01*
X125129229Y-99159155D01*
X125128704Y-99160819D01*
X125128086Y-99162515D01*
X125127373Y-99164237D01*
X125126565Y-99165979D01*
X125125664Y-99167735D01*
X125124669Y-99169497D01*
X125123585Y-99171256D01*
X125122414Y-99173002D01*
X125121162Y-99174727D01*
X125119835Y-99176419D01*
X125118439Y-99178069D01*
X125117718Y-99178874D01*
X125116983Y-99179666D01*
X125116236Y-99180442D01*
X125115475Y-99181202D01*
X125114706Y-99181943D01*
X125113924Y-99182667D01*
X125113137Y-99183369D01*
X125112340Y-99184054D01*
X125111540Y-99184714D01*
X125110731Y-99185356D01*
X125109922Y-99185971D01*
X125109106Y-99186567D01*
X125108293Y-99187136D01*
X125107474Y-99187684D01*
X125106662Y-99188204D01*
X125105843Y-99188704D01*
X125105034Y-99189174D01*
X125104220Y-99189624D01*
X125103417Y-99190044D01*
X125102611Y-99190444D01*
X125101817Y-99190814D01*
X125101021Y-99191164D01*
X125100239Y-99191485D01*
X125099455Y-99191785D01*
X125098426Y-99192145D01*
X123936244Y-101974252D02*
X123936923Y-101975727D01*
X123937552Y-101977287D01*
X123938130Y-101978931D01*
X123938652Y-101980656D01*
X123939114Y-101982460D01*
X123939512Y-101984336D01*
X123939843Y-101986281D01*
X123940104Y-101988286D01*
X123940291Y-101990342D01*
X123940401Y-101992442D01*
X123940433Y-101994573D01*
X123940386Y-101996724D01*
X123940258Y-101998884D01*
X123940164Y-101999962D01*
X123940051Y-102001038D01*
X123939918Y-102002109D01*
X123939765Y-102003176D01*
X123939593Y-102004233D01*
X123939402Y-102005284D01*
X123939193Y-102006321D01*
X123938965Y-102007350D01*
X123938720Y-102008362D01*
X123938457Y-102009365D01*
X123938179Y-102010347D01*
X123937882Y-102011318D01*
X123937572Y-102012265D01*
X123937245Y-102013201D01*
X123936905Y-102014110D01*
X123936549Y-102015006D01*
X123936182Y-102015874D01*
X123935799Y-102016728D01*
X123935407Y-102017553D01*
X123934999Y-102018363D01*
X123934585Y-102019143D01*
X123934155Y-102019907D01*
X123933720Y-102020640D01*
X123933271Y-102021358D01*
X123932632Y-102022314D01*
X127473630Y-100541666D02*
X127472045Y-100541334D01*
X127470420Y-100540912D01*
X127468757Y-100540398D01*
X127467060Y-100539790D01*
X127465335Y-100539086D01*
X127463587Y-100538288D01*
X127461823Y-100537395D01*
X127460052Y-100536408D01*
X127458281Y-100535330D01*
X127456520Y-100534164D01*
X127454779Y-100532917D01*
X127453069Y-100531592D01*
X127451399Y-100530199D01*
X127450583Y-100529478D01*
X127449781Y-100528743D01*
X127448994Y-100527996D01*
X127448223Y-100527235D01*
X127447470Y-100526465D01*
X127446735Y-100525683D01*
X127446021Y-100524895D01*
X127445324Y-100524096D01*
X127444652Y-100523295D01*
X127443998Y-100522484D01*
X127443371Y-100521674D01*
X127442763Y-100520856D01*
X127442182Y-100520041D01*
X127441622Y-100519220D01*
X127441091Y-100518406D01*
X127440580Y-100517585D01*
X127440098Y-100516774D01*
X127439637Y-100515958D01*
X127439206Y-100515153D01*
X127438796Y-100514345D01*
X127438414Y-100513550D01*
X127438055Y-100512752D01*
X127437723Y-100511968D01*
X127437413Y-100511183D01*
X127437050Y-100510180D01*
X123593794Y-99451622D02*
X123592753Y-99452719D01*
X123591760Y-99453881D01*
X123590817Y-99455107D01*
X123589926Y-99456396D01*
X123589089Y-99457745D01*
X123588311Y-99459152D01*
X123587593Y-99460614D01*
X123586939Y-99462127D01*
X123586352Y-99463686D01*
X123585835Y-99465287D01*
X123585389Y-99466924D01*
X123585018Y-99468591D01*
X123584724Y-99470281D01*
X123584508Y-99471989D01*
X123584430Y-99472846D01*
X123584371Y-99473706D01*
X123584333Y-99474566D01*
X123584315Y-99475426D01*
X123584316Y-99476284D01*
X123584338Y-99477141D01*
X123584380Y-99477994D01*
X123584442Y-99478844D01*
X123584523Y-99479689D01*
X123584624Y-99480530D01*
X123584745Y-99481362D01*
X123584885Y-99482191D01*
X123585043Y-99483008D01*
X123585222Y-99483821D01*
X123585418Y-99484622D01*
X123585633Y-99485416D01*
X123585866Y-99486196D01*
X123586117Y-99486970D01*
X123586385Y-99487729D01*
X123586672Y-99488480D01*
X123586973Y-99489215D01*
X123587294Y-99489941D01*
X123587629Y-99490651D01*
X123587981Y-99491351D01*
X123588348Y-99492034D01*
X123588733Y-99492708D01*
X123589130Y-99493363D01*
X123589545Y-99494008D01*
X123589812Y-99494405D01*
X124044035Y-99001381D02*
X123593794Y-99451622D01*
X123763630Y-100510180D02*
X123763066Y-100511698D01*
X123762407Y-100513243D01*
X123761651Y-100514811D01*
X123760798Y-100516398D01*
X123759847Y-100517998D01*
X123758798Y-100519607D01*
X123757652Y-100521217D01*
X123756414Y-100522821D01*
X123755085Y-100524411D01*
X123753672Y-100525978D01*
X123752179Y-100527513D01*
X123750616Y-100529007D01*
X123748990Y-100530450D01*
X123748156Y-100531150D01*
X123747310Y-100531834D01*
X123746453Y-100532501D01*
X123745586Y-100533150D01*
X123744712Y-100533780D01*
X123743829Y-100534391D01*
X123742944Y-100534980D01*
X123742050Y-100535551D01*
X123741157Y-100536096D01*
X123740258Y-100536622D01*
X123739363Y-100537122D01*
X123738463Y-100537602D01*
X123737571Y-100538055D01*
X123736676Y-100538487D01*
X123735791Y-100538892D01*
X123734903Y-100539275D01*
X123734029Y-100539631D01*
X123733153Y-100539966D01*
X123732293Y-100540273D01*
X123731433Y-100540558D01*
X123730589Y-100540817D01*
X123729747Y-100541054D01*
X123728923Y-100541265D01*
X123728100Y-100541455D01*
X123727051Y-100541666D01*
X124841079Y-102796022D02*
X124842424Y-102796668D01*
X124843788Y-102797235D01*
X124845168Y-102797723D01*
X124846562Y-102798132D01*
X124847967Y-102798462D01*
X124849381Y-102798712D01*
X124850800Y-102798882D01*
X124852222Y-102798973D01*
X124853644Y-102798984D01*
X124855061Y-102798915D01*
X124856470Y-102798767D01*
X124857867Y-102798540D01*
X124859249Y-102798235D01*
X124860611Y-102797853D01*
X124861950Y-102797394D01*
X124862609Y-102797136D01*
X124863260Y-102796860D01*
X124863904Y-102796565D01*
X124864539Y-102796252D01*
X124865166Y-102795922D01*
X124865783Y-102795573D01*
X124866390Y-102795207D01*
X124866988Y-102794824D01*
X124867574Y-102794424D01*
X124868150Y-102794007D01*
X124868713Y-102793574D01*
X124869265Y-102793124D01*
X124869805Y-102792659D01*
X124870332Y-102792177D01*
X124870846Y-102791682D01*
X124871347Y-102791170D01*
X124871833Y-102790644D01*
X124872307Y-102790103D01*
X124872765Y-102789549D01*
X124873210Y-102788979D01*
X124873638Y-102788397D01*
X124874053Y-102787801D01*
X124874451Y-102787192D01*
X124874835Y-102786570D01*
X124875202Y-102785936D01*
X124875554Y-102785288D01*
X124875888Y-102784629D01*
X124876207Y-102783957D01*
X124876639Y-102782964D01*
X127489187Y-101471875D02*
X128092688Y-101359546D01*
X123727051Y-100541666D02*
X123108363Y-100656680D01*
X125249093Y-98516042D02*
X125130004Y-99155937D01*
X123747794Y-101503638D02*
X123936244Y-101974252D01*
X123932632Y-102022314D02*
X123589812Y-102521821D01*
D11*
G36*
X150483762Y-104456927D02*
G01*
X150574736Y-104544873D01*
X150650742Y-104694697D01*
X150726749Y-104844522D01*
X150807217Y-104871078D01*
X150887685Y-104897635D01*
X151021458Y-104882109D01*
X151155230Y-104866583D01*
X151079174Y-104777728D01*
X151003118Y-104688875D01*
X150853437Y-104256205D01*
X150703756Y-103823538D01*
X150636799Y-103706301D01*
X150569842Y-103589064D01*
X150536562Y-103589064D01*
X150503283Y-103589064D01*
X150503062Y-103617175D01*
X150504006Y-103627481D01*
X150506800Y-103646102D01*
X150517143Y-103704081D01*
X150532509Y-103782701D01*
X150551313Y-103873549D01*
X150599787Y-104101810D01*
X150585451Y-104139170D01*
X150571114Y-104176530D01*
X150488872Y-104169534D01*
X150406629Y-104162547D01*
X150343173Y-104083833D01*
X150279717Y-104005120D01*
X150236101Y-103788157D01*
X150226850Y-103743659D01*
X150217274Y-103700380D01*
X150207650Y-103659392D01*
X150198256Y-103621770D01*
X150189368Y-103588586D01*
X150181264Y-103560916D01*
X150174221Y-103539831D01*
X150171183Y-103532094D01*
X150168515Y-103526406D01*
X150144546Y-103481618D01*
X150205844Y-103456295D01*
X150267143Y-103430973D01*
X150441208Y-103420529D01*
X150615274Y-103410086D01*
X150670551Y-103431103D01*
X150676664Y-103433679D01*
X150683551Y-103437037D01*
X150691136Y-103441124D01*
X150699343Y-103445885D01*
X150717320Y-103457214D01*
X150736875Y-103470595D01*
X150757398Y-103485598D01*
X150778284Y-103501792D01*
X150798924Y-103518747D01*
X150818710Y-103536032D01*
X150911591Y-103619944D01*
X150965998Y-103727312D01*
X150979469Y-103755898D01*
X150996950Y-103796133D01*
X151041006Y-103904147D01*
X151092294Y-104036548D01*
X151144943Y-104178531D01*
X151199656Y-104325642D01*
X151256567Y-104472007D01*
X151308944Y-104600687D01*
X151331329Y-104653102D01*
X151350058Y-104694744D01*
X151430636Y-104867105D01*
X151478598Y-104879975D01*
X151489908Y-104882566D01*
X151503700Y-104884995D01*
X151519439Y-104887209D01*
X151536592Y-104889154D01*
X151554626Y-104890774D01*
X151573006Y-104892017D01*
X151591200Y-104892828D01*
X151608674Y-104893153D01*
X151690789Y-104893493D01*
X151737990Y-104973492D01*
X151742798Y-104981853D01*
X151747471Y-104990397D01*
X151751986Y-104999062D01*
X151756317Y-105007784D01*
X151760441Y-105016503D01*
X151762496Y-105021073D01*
X151764333Y-105025156D01*
X151767969Y-105033682D01*
X151771325Y-105042017D01*
X151774377Y-105050101D01*
X151777101Y-105057871D01*
X151779472Y-105065266D01*
X151781466Y-105072222D01*
X151783059Y-105078679D01*
X151784227Y-105084574D01*
X151784946Y-105089846D01*
X151785190Y-105094431D01*
X151785190Y-105135371D01*
X151753636Y-105161560D01*
X151750046Y-105164335D01*
X151745821Y-105167244D01*
X151741014Y-105170262D01*
X151735677Y-105173365D01*
X151723631Y-105179730D01*
X151710107Y-105186147D01*
X151695532Y-105192424D01*
X151680332Y-105198369D01*
X151664933Y-105203787D01*
X151649762Y-105208488D01*
X151577442Y-105229230D01*
X151508352Y-105193501D01*
X151439261Y-105157773D01*
X151291749Y-105185072D01*
X151144237Y-105212370D01*
X150975565Y-105174182D01*
X150940994Y-105166586D01*
X150907411Y-105159645D01*
X150875647Y-105153501D01*
X150846531Y-105148295D01*
X150820895Y-105144169D01*
X150799567Y-105141263D01*
X150790778Y-105140313D01*
X150783378Y-105139721D01*
X150777471Y-105139506D01*
X150773159Y-105139684D01*
X150744341Y-105142041D01*
X150690815Y-105145733D01*
X150540209Y-105155092D01*
X150340994Y-105166812D01*
X150275853Y-105139829D01*
X150210712Y-105112846D01*
X150139696Y-105031964D01*
X150068680Y-104951082D01*
X150004638Y-104809840D01*
X149940595Y-104668599D01*
X149896397Y-104668599D01*
X149852199Y-104668599D01*
X149872174Y-104719200D01*
X149882746Y-104745444D01*
X149896765Y-104779498D01*
X149927841Y-104853414D01*
X149963533Y-104937028D01*
X149963533Y-105003586D01*
X149963533Y-105070145D01*
X149904276Y-105116757D01*
X149845018Y-105163368D01*
X149745369Y-105163368D01*
X149645720Y-105163368D01*
X149599806Y-105138795D01*
X149553891Y-105114222D01*
X149529318Y-105138795D01*
X149504745Y-105163368D01*
X149431373Y-105163368D01*
X149358001Y-105163368D01*
X149233451Y-105116768D01*
X149108900Y-105070168D01*
X149049657Y-105116768D01*
X148990414Y-105163368D01*
X148902010Y-105163368D01*
X148813574Y-105163368D01*
X148767659Y-105138795D01*
X148721744Y-105114222D01*
X148697171Y-105138795D01*
X148672598Y-105163368D01*
X148587379Y-105163368D01*
X148502159Y-105163368D01*
X148390609Y-105120982D01*
X148279058Y-105078596D01*
X148240700Y-105120982D01*
X148202341Y-105163368D01*
X148117333Y-105163368D01*
X148108358Y-105163248D01*
X148099015Y-105162896D01*
X148079527Y-105161544D01*
X148059467Y-105159406D01*
X148039433Y-105156577D01*
X148020023Y-105153152D01*
X148001835Y-105149226D01*
X147993386Y-105147104D01*
X147985467Y-105144893D01*
X147978152Y-105142604D01*
X147971517Y-105140249D01*
X147957070Y-105134894D01*
X147944433Y-105130578D01*
X147933574Y-105127395D01*
X147924458Y-105125444D01*
X147920543Y-105124960D01*
X147917050Y-105124819D01*
X147913976Y-105125035D01*
X147911317Y-105125619D01*
X147909067Y-105126582D01*
X147907224Y-105127938D01*
X147905781Y-105129697D01*
X147904736Y-105131873D01*
X147904084Y-105134477D01*
X147903821Y-105137521D01*
X147903942Y-105141018D01*
X147904443Y-105144978D01*
X147905320Y-105149415D01*
X147906568Y-105154341D01*
X147910162Y-105165706D01*
X147915191Y-105179168D01*
X147921620Y-105194826D01*
X147929416Y-105212774D01*
X147938544Y-105233110D01*
X147983429Y-105332039D01*
X147983713Y-105365773D01*
X147983939Y-105392610D01*
X147984449Y-105453182D01*
X147934465Y-105488191D01*
X147884474Y-105523198D01*
X147776308Y-105523198D01*
X147668142Y-105523198D01*
X147584836Y-105488390D01*
X147576102Y-105484612D01*
X147567127Y-105480483D01*
X147557980Y-105476046D01*
X147548725Y-105471339D01*
X147539432Y-105466405D01*
X147530167Y-105461284D01*
X147520997Y-105456017D01*
X147511989Y-105450645D01*
X147503211Y-105445208D01*
X147494730Y-105439748D01*
X147486612Y-105434304D01*
X147478926Y-105428919D01*
X147471737Y-105423633D01*
X147465114Y-105418486D01*
X147459124Y-105413519D01*
X147453833Y-105408774D01*
X147406137Y-105363965D01*
X147343125Y-105207441D01*
X147287480Y-105069216D01*
X147467188Y-105069216D01*
X147533716Y-105217494D01*
X147600242Y-105365773D01*
X147623672Y-105365773D01*
X147647102Y-105365773D01*
X147645768Y-105337661D01*
X147645183Y-105333864D01*
X147643731Y-105328342D01*
X147638412Y-105312549D01*
X147630170Y-105291136D01*
X147619366Y-105264956D01*
X147606362Y-105234863D01*
X147591519Y-105201708D01*
X147575198Y-105166347D01*
X147557759Y-105129632D01*
X147471081Y-104949716D01*
X147469134Y-105009466D01*
X147467188Y-105069216D01*
X147287480Y-105069216D01*
X147280113Y-105050916D01*
X147251794Y-105050916D01*
X147248725Y-105050845D01*
X147245379Y-105050637D01*
X147241791Y-105050299D01*
X147237991Y-105049838D01*
X147229892Y-105048576D01*
X147221344Y-105046905D01*
X147212609Y-105044883D01*
X147203948Y-105042564D01*
X147195625Y-105040006D01*
X147191672Y-105038655D01*
X147187901Y-105037265D01*
X147152328Y-105023614D01*
X147152328Y-105052362D01*
X147152135Y-105055504D01*
X147151568Y-105058976D01*
X147150647Y-105062743D01*
X147149391Y-105066769D01*
X147147818Y-105071018D01*
X147145949Y-105075454D01*
X147143801Y-105080042D01*
X147141394Y-105084746D01*
X147138748Y-105089529D01*
X147135880Y-105094356D01*
X147132811Y-105099191D01*
X147129559Y-105103999D01*
X147126144Y-105108743D01*
X147122584Y-105113388D01*
X147118899Y-105117898D01*
X147115107Y-105122236D01*
X147077887Y-105163364D01*
X146992247Y-105163364D01*
X146906607Y-105163364D01*
X146798486Y-105120747D01*
X146690365Y-105078131D01*
X146637735Y-105120747D01*
X146585105Y-105163364D01*
X146376968Y-105163364D01*
X146168830Y-105163364D01*
X146011801Y-105084806D01*
X145854774Y-105006248D01*
X145722038Y-104851497D01*
X145694592Y-104818976D01*
X145667476Y-104785863D01*
X145641391Y-104753081D01*
X145617039Y-104721554D01*
X145595122Y-104692203D01*
X145576340Y-104665953D01*
X145561396Y-104643726D01*
X145555582Y-104634410D01*
X145550991Y-104626446D01*
X145512680Y-104556145D01*
X145489145Y-104556145D01*
X145465610Y-104556145D01*
X145465610Y-104588791D01*
X145466018Y-104593045D01*
X145467216Y-104599002D01*
X145471821Y-104615592D01*
X145479101Y-104637693D01*
X145488733Y-104664435D01*
X145500394Y-104694952D01*
X145513761Y-104728374D01*
X145528513Y-104763834D01*
X145544325Y-104800463D01*
X145623038Y-104979490D01*
X145623038Y-105046184D01*
X145623038Y-105112879D01*
X145589269Y-105140904D01*
X145555502Y-105168930D01*
X145436246Y-105159040D01*
X145316990Y-105149150D01*
X145205762Y-105095309D01*
X145094534Y-105041468D01*
X144998953Y-104953370D01*
X144903372Y-104865271D01*
X144903372Y-104837155D01*
X144903528Y-104834161D01*
X144903986Y-104830998D01*
X144904730Y-104827691D01*
X144905745Y-104824268D01*
X144907016Y-104820757D01*
X144908527Y-104817184D01*
X144910263Y-104813578D01*
X144912208Y-104809965D01*
X144914346Y-104806371D01*
X144916664Y-104802826D01*
X144919144Y-104799355D01*
X144921772Y-104795986D01*
X144924532Y-104792747D01*
X144927408Y-104789664D01*
X144930387Y-104786764D01*
X144933451Y-104784075D01*
X144963529Y-104759113D01*
X145017788Y-104817245D01*
X145023766Y-104823398D01*
X145030463Y-104829833D01*
X145037805Y-104836497D01*
X145045721Y-104843337D01*
X145062982Y-104857334D01*
X145081667Y-104871405D01*
X145101197Y-104885128D01*
X145120991Y-104898080D01*
X145140471Y-104909841D01*
X145149912Y-104915143D01*
X145159057Y-104919989D01*
X145246068Y-104964602D01*
X145266442Y-104944229D01*
X145286815Y-104923855D01*
X145228449Y-104796367D01*
X145170084Y-104668879D01*
X145177291Y-104620974D01*
X145184499Y-104573068D01*
X145431884Y-104430143D01*
X145528952Y-104374609D01*
X145572153Y-104350293D01*
X145610374Y-104329060D01*
X145642548Y-104311501D01*
X145667609Y-104298203D01*
X145684489Y-104289754D01*
X145689528Y-104287532D01*
X145692121Y-104286743D01*
X145694170Y-104288382D01*
X145697612Y-104293283D01*
X145708358Y-104312211D01*
X145723722Y-104342194D01*
X145743065Y-104381903D01*
X145791144Y-104485168D01*
X145847498Y-104611356D01*
X145990019Y-104936440D01*
X146071188Y-104968918D01*
X146090124Y-104975771D01*
X146112876Y-104982799D01*
X146138583Y-104989804D01*
X146166382Y-104996586D01*
X146195411Y-105002946D01*
X146224810Y-105008685D01*
X146253717Y-105013603D01*
X146281269Y-105017501D01*
X146410181Y-105033607D01*
X146410181Y-104987096D01*
X146410046Y-104982060D01*
X146409648Y-104976583D01*
X146409002Y-104970717D01*
X146408121Y-104964516D01*
X146407019Y-104958032D01*
X146405708Y-104951319D01*
X146402514Y-104937420D01*
X146398647Y-104923242D01*
X146394215Y-104909213D01*
X146391820Y-104902387D01*
X146389324Y-104895757D01*
X146386740Y-104889377D01*
X146384081Y-104883301D01*
X146357981Y-104826019D01*
X146214292Y-104826019D01*
X146070603Y-104826019D01*
X146007493Y-104793383D01*
X145944382Y-104760748D01*
X145896161Y-104648653D01*
X145847940Y-104536559D01*
X145847940Y-104485382D01*
X146140303Y-104485382D01*
X146140303Y-104506774D01*
X146140479Y-104509376D01*
X146140997Y-104512734D01*
X146142988Y-104521508D01*
X146146136Y-104532674D01*
X146150301Y-104545811D01*
X146155343Y-104560497D01*
X146161123Y-104576309D01*
X146167501Y-104592826D01*
X146174338Y-104609627D01*
X146208375Y-104691087D01*
X146251953Y-104691087D01*
X146295531Y-104691087D01*
X146252859Y-104595506D01*
X146210187Y-104499925D01*
X146175245Y-104492649D01*
X146140303Y-104485382D01*
X145847940Y-104485382D01*
X145847940Y-104472135D01*
X145847940Y-104407710D01*
X145874928Y-104380722D01*
X145901916Y-104353734D01*
X146087115Y-104353734D01*
X146272315Y-104353734D01*
X146327429Y-104374689D01*
X146382543Y-104395644D01*
X146462198Y-104477663D01*
X146541853Y-104559679D01*
X146596292Y-104691087D01*
X146616576Y-104740052D01*
X146691299Y-104920424D01*
X146741996Y-104944342D01*
X146792692Y-104968259D01*
X146806995Y-104953956D01*
X146821297Y-104939653D01*
X146716941Y-104705860D01*
X146695978Y-104658385D01*
X146676421Y-104613106D01*
X146658699Y-104571086D01*
X146643239Y-104533385D01*
X146630470Y-104501065D01*
X146620819Y-104475189D01*
X146614714Y-104456818D01*
X146613126Y-104450778D01*
X146612585Y-104447013D01*
X146612585Y-104421959D01*
X146724285Y-104365357D01*
X146746912Y-104353986D01*
X146768388Y-104343379D01*
X146788216Y-104333766D01*
X146805900Y-104325381D01*
X146820944Y-104318454D01*
X146832852Y-104313220D01*
X146841126Y-104309909D01*
X146843746Y-104309047D01*
X146845272Y-104308753D01*
X146846830Y-104310124D01*
X146849547Y-104314147D01*
X146858193Y-104329604D01*
X146870688Y-104354043D01*
X146886509Y-104386378D01*
X146926040Y-104470402D01*
X146972610Y-104573006D01*
X147090659Y-104837259D01*
X147125795Y-104865371D01*
X147160930Y-104893484D01*
X147211739Y-104893484D01*
X147262547Y-104893484D01*
X147283035Y-104856873D01*
X147303524Y-104820262D01*
X147213496Y-104738928D01*
X147171830Y-104699374D01*
X147152974Y-104679591D01*
X147135038Y-104659128D01*
X147117726Y-104637477D01*
X147100741Y-104614131D01*
X147083783Y-104588583D01*
X147066558Y-104560325D01*
X147048765Y-104528849D01*
X147030110Y-104493649D01*
X146989017Y-104410045D01*
X146940901Y-104305454D01*
X146883382Y-104175818D01*
X146762530Y-103900579D01*
X146945801Y-103900579D01*
X147096118Y-104237998D01*
X147246435Y-104575417D01*
X147289343Y-104614248D01*
X147293714Y-104618126D01*
X147297962Y-104621743D01*
X147302066Y-104625087D01*
X147306003Y-104628146D01*
X147309752Y-104630906D01*
X147313290Y-104633357D01*
X147316595Y-104635486D01*
X147318154Y-104636425D01*
X147319646Y-104637280D01*
X147321069Y-104638048D01*
X147322421Y-104638728D01*
X147323697Y-104639318D01*
X147324896Y-104639817D01*
X147326015Y-104640223D01*
X147327052Y-104640534D01*
X147328002Y-104640750D01*
X147328864Y-104640869D01*
X147329635Y-104640889D01*
X147330313Y-104640808D01*
X147330893Y-104640625D01*
X147331374Y-104640339D01*
X147331753Y-104639948D01*
X147332027Y-104639450D01*
X147332194Y-104638845D01*
X147332250Y-104638130D01*
X147328714Y-104625553D01*
X147318699Y-104599329D01*
X147282780Y-104513771D01*
X147172251Y-104265013D01*
X147057488Y-104017121D01*
X147016275Y-103932645D01*
X147002819Y-103907125D01*
X146995313Y-103895360D01*
X146973167Y-103873215D01*
X146959484Y-103886897D01*
X146945801Y-103900579D01*
X146762530Y-103900579D01*
X146741076Y-103851719D01*
X146763374Y-103815984D01*
X146765926Y-103812199D01*
X146768956Y-103808238D01*
X146772425Y-103804133D01*
X146776294Y-103799916D01*
X146780524Y-103795621D01*
X146785076Y-103791279D01*
X146789911Y-103786923D01*
X146794989Y-103782585D01*
X146800272Y-103778299D01*
X146805720Y-103774097D01*
X146811294Y-103770011D01*
X146816955Y-103766075D01*
X146822664Y-103762319D01*
X146828382Y-103758778D01*
X146834070Y-103755484D01*
X146839688Y-103752469D01*
X146893705Y-103724688D01*
X146987821Y-103724348D01*
X147081938Y-103724009D01*
X147145248Y-103747877D01*
X147152069Y-103750667D01*
X147159426Y-103754080D01*
X147167251Y-103758070D01*
X147175475Y-103762589D01*
X147184028Y-103767589D01*
X147192842Y-103773023D01*
X147201848Y-103778843D01*
X147210975Y-103785002D01*
X147220156Y-103791451D01*
X147229320Y-103798144D01*
X147238399Y-103805032D01*
X147247324Y-103812068D01*
X147256025Y-103819205D01*
X147264434Y-103826395D01*
X147272481Y-103833590D01*
X147280096Y-103840742D01*
X147351635Y-103909739D01*
X147580067Y-104422152D01*
X147676349Y-104638130D01*
X147808500Y-104934566D01*
X147865394Y-104948846D01*
X147871250Y-104950240D01*
X147877062Y-104951475D01*
X147882794Y-104952550D01*
X147888411Y-104953464D01*
X147893878Y-104954215D01*
X147899159Y-104954803D01*
X147904220Y-104955225D01*
X147909025Y-104955481D01*
X147913539Y-104955569D01*
X147917726Y-104955488D01*
X147921553Y-104955236D01*
X147924982Y-104954813D01*
X147927980Y-104954217D01*
X147929307Y-104953854D01*
X147930511Y-104953447D01*
X147931591Y-104952996D01*
X147932540Y-104952501D01*
X147933356Y-104951962D01*
X147934032Y-104951379D01*
X147934687Y-104948970D01*
X147934261Y-104944248D01*
X147930357Y-104928371D01*
X147922701Y-104904756D01*
X147911671Y-104874408D01*
X147897648Y-104838336D01*
X147881012Y-104797546D01*
X147862143Y-104753046D01*
X147841419Y-104705842D01*
X147820456Y-104658367D01*
X147800900Y-104613089D01*
X147783178Y-104571068D01*
X147767718Y-104533368D01*
X147754948Y-104501049D01*
X147745297Y-104475172D01*
X147739193Y-104456801D01*
X147737604Y-104450762D01*
X147737063Y-104446996D01*
X147737063Y-104421942D01*
X147848763Y-104365340D01*
X147871399Y-104353970D01*
X147892899Y-104343362D01*
X147912764Y-104333749D01*
X147930498Y-104325364D01*
X147945601Y-104318438D01*
X147957577Y-104313203D01*
X147965927Y-104309892D01*
X147968587Y-104309030D01*
X147970153Y-104308736D01*
X147971823Y-104310265D01*
X147974786Y-104314749D01*
X147984301Y-104331981D01*
X148015659Y-104395269D01*
X148059591Y-104488937D01*
X148111461Y-104603317D01*
X148243078Y-104897897D01*
X148307509Y-104931330D01*
X148371940Y-104964763D01*
X148389165Y-104945982D01*
X148406389Y-104927200D01*
X148208364Y-104484118D01*
X148540125Y-104484118D01*
X148552185Y-104514510D01*
X148592105Y-104606994D01*
X148671148Y-104786667D01*
X148778053Y-105028432D01*
X148808553Y-105028432D01*
X148816351Y-105028214D01*
X148822912Y-105027322D01*
X148828135Y-105025404D01*
X148831923Y-105022103D01*
X148834174Y-105017067D01*
X148834789Y-105009941D01*
X148833668Y-105000370D01*
X148830712Y-104988001D01*
X148825822Y-104972478D01*
X148818896Y-104953448D01*
X148798544Y-104903450D01*
X148768857Y-104835171D01*
X148729038Y-104745776D01*
X148619023Y-104499928D01*
X148579574Y-104492023D01*
X148540125Y-104484118D01*
X148208364Y-104484118D01*
X148154361Y-104363287D01*
X147972119Y-103953954D01*
X147913374Y-103820818D01*
X147887872Y-103761690D01*
X147873412Y-103724007D01*
X148037357Y-103724007D01*
X148201303Y-103724007D01*
X148341590Y-104036407D01*
X148481876Y-104348808D01*
X148522218Y-104338259D01*
X148562560Y-104327709D01*
X148658950Y-104353663D01*
X148755340Y-104379619D01*
X148862670Y-104489810D01*
X148970000Y-104600000D01*
X149033841Y-104757464D01*
X149097682Y-104914926D01*
X149162884Y-104937928D01*
X149176142Y-104942548D01*
X149188823Y-104946859D01*
X149200625Y-104950765D01*
X149211250Y-104954173D01*
X149220397Y-104956988D01*
X149227766Y-104959115D01*
X149233059Y-104960461D01*
X149234833Y-104960811D01*
X149235974Y-104960930D01*
X149238201Y-104960658D01*
X149240107Y-104959840D01*
X149241690Y-104958474D01*
X149242952Y-104956557D01*
X149244505Y-104951063D01*
X149244759Y-104943341D01*
X149243710Y-104933372D01*
X149241352Y-104921138D01*
X149237678Y-104906621D01*
X149232683Y-104889803D01*
X149218708Y-104849192D01*
X149199382Y-104799161D01*
X149174659Y-104739564D01*
X149144493Y-104670259D01*
X149045122Y-104446136D01*
X149071402Y-104425135D01*
X149078727Y-104419885D01*
X149089516Y-104412993D01*
X149103251Y-104404752D01*
X149119412Y-104395456D01*
X149137480Y-104385399D01*
X149156936Y-104374874D01*
X149177261Y-104364173D01*
X149197937Y-104353592D01*
X149298193Y-104303049D01*
X149305962Y-104322758D01*
X149355717Y-104435230D01*
X149464427Y-104677967D01*
X149613538Y-105009941D01*
X149615121Y-105013466D01*
X149643143Y-105022807D01*
X149671166Y-105032148D01*
X149671166Y-104990167D01*
X149670524Y-104984471D01*
X149668641Y-104976150D01*
X149661405Y-104952278D01*
X149649966Y-104919846D01*
X149634831Y-104880148D01*
X149616506Y-104834479D01*
X149595500Y-104784133D01*
X149572320Y-104730403D01*
X149547473Y-104674586D01*
X149513399Y-104598522D01*
X150210729Y-104598522D01*
X150292190Y-104785363D01*
X150309259Y-104823699D01*
X150326547Y-104861016D01*
X150343578Y-104896387D01*
X150359875Y-104928882D01*
X150374964Y-104957575D01*
X150388368Y-104981538D01*
X150394289Y-104991456D01*
X150399611Y-104999843D01*
X150404273Y-105006584D01*
X150408217Y-105011562D01*
X150412041Y-105015824D01*
X150415805Y-105019835D01*
X150419504Y-105023594D01*
X150423134Y-105027103D01*
X150426693Y-105030359D01*
X150430175Y-105033363D01*
X150433577Y-105036113D01*
X150436894Y-105038610D01*
X150440123Y-105040853D01*
X150443260Y-105042841D01*
X150446300Y-105044573D01*
X150449240Y-105046050D01*
X150452075Y-105047271D01*
X150454802Y-105048235D01*
X150457417Y-105048941D01*
X150459915Y-105049390D01*
X150462293Y-105049580D01*
X150464547Y-105049512D01*
X150466672Y-105049184D01*
X150468664Y-105048596D01*
X150470521Y-105047748D01*
X150472237Y-105046638D01*
X150473808Y-105045267D01*
X150475231Y-105043634D01*
X150476502Y-105041739D01*
X150477616Y-105039580D01*
X150478570Y-105037158D01*
X150479359Y-105034471D01*
X150479980Y-105031520D01*
X150480428Y-105028304D01*
X150480700Y-105024821D01*
X150480792Y-105021073D01*
X150478612Y-105011668D01*
X150472429Y-104993411D01*
X150450200Y-104935387D01*
X150418392Y-104857095D01*
X150381292Y-104768628D01*
X150343189Y-104680079D01*
X150308371Y-104601540D01*
X150281125Y-104543105D01*
X150271681Y-104524580D01*
X150265738Y-104514866D01*
X150265389Y-104514538D01*
X150264980Y-104514333D01*
X150264515Y-104514248D01*
X150263995Y-104514280D01*
X150263422Y-104514427D01*
X150262799Y-104514686D01*
X150261406Y-104515533D01*
X150259834Y-104516800D01*
X150258097Y-104518468D01*
X150256211Y-104520518D01*
X150254192Y-104522930D01*
X150252056Y-104525685D01*
X150249818Y-104528762D01*
X150247494Y-104532143D01*
X150245100Y-104535809D01*
X150242652Y-104539738D01*
X150240164Y-104543913D01*
X150237653Y-104548313D01*
X150235135Y-104552919D01*
X150210729Y-104598522D01*
X149513399Y-104598522D01*
X149499446Y-104567373D01*
X149460115Y-104477715D01*
X149444980Y-104442401D01*
X149433540Y-104414993D01*
X149426305Y-104396666D01*
X149424422Y-104391275D01*
X149423780Y-104388593D01*
X149423974Y-104387957D01*
X149424549Y-104387330D01*
X149426804Y-104386103D01*
X149430469Y-104384918D01*
X149435469Y-104383781D01*
X149449169Y-104381677D01*
X149467295Y-104379841D01*
X149489241Y-104378325D01*
X149514398Y-104377179D01*
X149542159Y-104376454D01*
X149571916Y-104376201D01*
X149720053Y-104376201D01*
X149745520Y-104443670D01*
X149770986Y-104511138D01*
X149824067Y-104511138D01*
X149877147Y-104511138D01*
X149862618Y-104444989D01*
X149852456Y-104398722D01*
X150008511Y-104398722D01*
X150008511Y-104443701D01*
X150008511Y-104488680D01*
X150031000Y-104488680D01*
X150053489Y-104488680D01*
X150053489Y-104443701D01*
X150053489Y-104398722D01*
X150031000Y-104398722D01*
X150008511Y-104398722D01*
X149852456Y-104398722D01*
X149848089Y-104378839D01*
X149873961Y-104330497D01*
X149899833Y-104282156D01*
X150004773Y-104292751D01*
X150028743Y-104295549D01*
X150056688Y-104299454D01*
X150087599Y-104304289D01*
X150120464Y-104309874D01*
X150154273Y-104316032D01*
X150188015Y-104322585D01*
X150220678Y-104329355D01*
X150251251Y-104336164D01*
X150392789Y-104368982D01*
X150470080Y-104443701D01*
X150483762Y-104456927D01*
G37*
D10*
X127114048Y-98997399D02*
X126579444Y-99364296D01*
X127114233Y-103018827D02*
X127115508Y-103019645D01*
X127116839Y-103020404D01*
X127118224Y-103021102D01*
X127119661Y-103021738D01*
X127121147Y-103022308D01*
X127122679Y-103022810D01*
X127124254Y-103023243D01*
X127125866Y-103023604D01*
X127127511Y-103023890D01*
X127129184Y-103024100D01*
X127130879Y-103024232D01*
X127132589Y-103024286D01*
X127134307Y-103024260D01*
X127136026Y-103024154D01*
X127136884Y-103024071D01*
X127137740Y-103023968D01*
X127138591Y-103023845D01*
X127139440Y-103023703D01*
X127140282Y-103023542D01*
X127141119Y-103023360D01*
X127141948Y-103023161D01*
X127142772Y-103022942D01*
X127143584Y-103022705D01*
X127144390Y-103022449D01*
X127145183Y-103022176D01*
X127145969Y-103021884D01*
X127146740Y-103021577D01*
X127147502Y-103021251D01*
X127148248Y-103020910D01*
X127148985Y-103020551D01*
X127149705Y-103020179D01*
X127150414Y-103019789D01*
X127151105Y-103019386D01*
X127151785Y-103018966D01*
X127152445Y-103018534D01*
X127153094Y-103018086D01*
X127153723Y-103017627D01*
X127154340Y-103017152D01*
X127154937Y-103016667D01*
X127155521Y-103016167D01*
X127156085Y-103015657D01*
X127156635Y-103015133D01*
X127156924Y-103014845D01*
X126070955Y-99155937D02*
X125951866Y-98516042D01*
X123108455Y-101359546D02*
X123711957Y-101471875D01*
X124896363Y-101012003D02*
X124896403Y-101004425D01*
X124896523Y-100996856D01*
X124896722Y-100989298D01*
X124897001Y-100981750D01*
X124897360Y-100974212D01*
X124897798Y-100966686D01*
X124898315Y-100959172D01*
X124898912Y-100951669D01*
X124899587Y-100944180D01*
X124900342Y-100936703D01*
X124901175Y-100929240D01*
X124902088Y-100921790D01*
X124903079Y-100914355D01*
X124904148Y-100906936D01*
X124905296Y-100899531D01*
X124906523Y-100892143D01*
X124907828Y-100884771D01*
X124909210Y-100877416D01*
X124910671Y-100870079D01*
X124912210Y-100862760D01*
X124913826Y-100855459D01*
X124915520Y-100848178D01*
X124917291Y-100840917D01*
X124919140Y-100833676D01*
X124921065Y-100826456D01*
X124923068Y-100819258D01*
X124925147Y-100812082D01*
X124927303Y-100804928D01*
X124929535Y-100797799D01*
X124931844Y-100790693D01*
X124934228Y-100783612D01*
X124936688Y-100776557D01*
X124939224Y-100769528D01*
X124941835Y-100762525D01*
X124944521Y-100755550D01*
X124947281Y-100748603D01*
X124950117Y-100741685D01*
X124953026Y-100734796D01*
X124956010Y-100727938D01*
X124959068Y-100721110D01*
X124962198Y-100714314D01*
X124965402Y-100707550D01*
X124968679Y-100700819D01*
X124972028Y-100694122D01*
X124975449Y-100687460D01*
X124978943Y-100680833D01*
X124982507Y-100674241D01*
X124986142Y-100667687D01*
X124989849Y-100661170D01*
X124993625Y-100654691D01*
X124997471Y-100648251D01*
X125001386Y-100641851D01*
X125005371Y-100635492D01*
X125009424Y-100629173D01*
X125013545Y-100622897D01*
X125017734Y-100616663D01*
X125021989Y-100610473D01*
X125026312Y-100604327D01*
X125030700Y-100598227D01*
X125035154Y-100592172D01*
X125039673Y-100586163D01*
X125044257Y-100580202D01*
X125048904Y-100574289D01*
X125053615Y-100568424D01*
X125058388Y-100562610D01*
X125063224Y-100556845D01*
X125068122Y-100551131D01*
X125073080Y-100545470D01*
X125078099Y-100539860D01*
X125083178Y-100534304D01*
X125088315Y-100528802D01*
X125093512Y-100523354D01*
X125098766Y-100517961D01*
X125104077Y-100512625D01*
X125106754Y-100509978D01*
X125109444Y-100507345D01*
X125112149Y-100504727D01*
X125114868Y-100502122D01*
X125117600Y-100499533D01*
X125120347Y-100496958D01*
X125123106Y-100494398D01*
X125125880Y-100491852D01*
X125128666Y-100489321D01*
X125131466Y-100486805D01*
X125134279Y-100484305D01*
X125137106Y-100481819D01*
X125139945Y-100479348D01*
X125142798Y-100476893D01*
X125145663Y-100474453D01*
X125148541Y-100472028D01*
X125151432Y-100469619D01*
X125154336Y-100467225D01*
X125157252Y-100464847D01*
X125160180Y-100462484D01*
X125163121Y-100460138D01*
X125166074Y-100457807D01*
X125169039Y-100455492D01*
X125172017Y-100453193D01*
X125175006Y-100450910D01*
X125178007Y-100448643D01*
X125181019Y-100446392D01*
X125184044Y-100444157D01*
X125187080Y-100441939D01*
X125190128Y-100439737D01*
X125193187Y-100437552D01*
X125196258Y-100435383D01*
X125199339Y-100433231D01*
X125202432Y-100431095D01*
X125205535Y-100428977D01*
X125208650Y-100426874D01*
X125211775Y-100424789D01*
X125214912Y-100422720D01*
X125218059Y-100420669D01*
X125221217Y-100418634D01*
X125224384Y-100416617D01*
X125227563Y-100414617D01*
X125230751Y-100412634D01*
X125233950Y-100410668D01*
X125237158Y-100408720D01*
X125240378Y-100406788D01*
X125243606Y-100404875D01*
X125246845Y-100402978D01*
X125250092Y-100401099D01*
X125253351Y-100399238D01*
X125256617Y-100397394D01*
X125259895Y-100395568D01*
X125263180Y-100393760D01*
X125266476Y-100391969D01*
X125269780Y-100390197D01*
X125273094Y-100388442D01*
X125276415Y-100386705D01*
X125279747Y-100384986D01*
X125283087Y-100383285D01*
X125286436Y-100381602D01*
X125289792Y-100379938D01*
X125293159Y-100378291D01*
X125296532Y-100376663D01*
X125299915Y-100375052D01*
X125303305Y-100373460D01*
X125306705Y-100371886D01*
X125310111Y-100370331D01*
X125313526Y-100368794D01*
X125316948Y-100367276D01*
X125320379Y-100365775D01*
X125323816Y-100364294D01*
X125327263Y-100362831D01*
X125330715Y-100361387D01*
X125334176Y-100359960D01*
X125337643Y-100358553D01*
X125341119Y-100357164D01*
X125344600Y-100355795D01*
X125348091Y-100354443D01*
X125351586Y-100353111D01*
X125355090Y-100351798D01*
X125358599Y-100350503D01*
X125362116Y-100349227D01*
X125365638Y-100347970D01*
X125369169Y-100346732D01*
X125372704Y-100345513D01*
X125376248Y-100344313D01*
X125379796Y-100343132D01*
X125383352Y-100341970D01*
X125386912Y-100340827D01*
X125390481Y-100339703D01*
X125394053Y-100338598D01*
X125397633Y-100337512D01*
X125401217Y-100336446D01*
X125404809Y-100335399D01*
X125408404Y-100334371D01*
X125412007Y-100333362D01*
X125415613Y-100332372D01*
X125419227Y-100331402D01*
X125422844Y-100330451D01*
X125426469Y-100329519D01*
X125430096Y-100328607D01*
X125433731Y-100327714D01*
X125437369Y-100326840D01*
X125441014Y-100325986D01*
X125444661Y-100325151D01*
X125448316Y-100324336D01*
X125451973Y-100323540D01*
X125455637Y-100322763D01*
X125459303Y-100322007D01*
X125462976Y-100321269D01*
X125466652Y-100320551D01*
X125470334Y-100319853D01*
X125474018Y-100319174D01*
X125477708Y-100318515D01*
X125481401Y-100317876D01*
X125485100Y-100317255D01*
X125488800Y-100316655D01*
X125492507Y-100316074D01*
X125496216Y-100315514D01*
X125499931Y-100314972D01*
X125503647Y-100314450D01*
X125507369Y-100313948D01*
X125511093Y-100313466D01*
X125514823Y-100313004D01*
X125518553Y-100312561D01*
X125522290Y-100312138D01*
X125526028Y-100311735D01*
X125529771Y-100311351D01*
X125533515Y-100310987D01*
X125537265Y-100310643D01*
X125541016Y-100310319D01*
X125544772Y-100310015D01*
X125548529Y-100309731D01*
X125552291Y-100309466D01*
X125556054Y-100309222D01*
X125559822Y-100308997D01*
X125563591Y-100308792D01*
X125567365Y-100308607D01*
X125571139Y-100308442D01*
X125574918Y-100308297D01*
X125578697Y-100308172D01*
X125582482Y-100308067D01*
X125586266Y-100307982D01*
X125590055Y-100307916D01*
X125593845Y-100307871D01*
X125597639Y-100307846D01*
X125600526Y-100307840D01*
X125600526Y-100307840D02*
X125608102Y-100307880D01*
X125615669Y-100308000D01*
X125623226Y-100308199D01*
X125630772Y-100308478D01*
X125638308Y-100308837D01*
X125645833Y-100309275D01*
X125653346Y-100309792D01*
X125660847Y-100310389D01*
X125668336Y-100311064D01*
X125675811Y-100311819D01*
X125683273Y-100312652D01*
X125690721Y-100313565D01*
X125698155Y-100314556D01*
X125705574Y-100315626D01*
X125712978Y-100316774D01*
X125720365Y-100318000D01*
X125727736Y-100319305D01*
X125735090Y-100320688D01*
X125742427Y-100322149D01*
X125749745Y-100323688D01*
X125757045Y-100325304D01*
X125764326Y-100326998D01*
X125771587Y-100328769D01*
X125778827Y-100330618D01*
X125786047Y-100332544D01*
X125793244Y-100334547D01*
X125800420Y-100336626D01*
X125807573Y-100338782D01*
X125814702Y-100341015D01*
X125821808Y-100343323D01*
X125828888Y-100345708D01*
X125835944Y-100348168D01*
X125842973Y-100350704D01*
X125849975Y-100353315D01*
X125856951Y-100356002D01*
X125863898Y-100358763D01*
X125870816Y-100361598D01*
X125877705Y-100364508D01*
X125884564Y-100367492D01*
X125891391Y-100370550D01*
X125898188Y-100373681D01*
X125904952Y-100376886D01*
X125911683Y-100380163D01*
X125918380Y-100383512D01*
X125925043Y-100386934D01*
X125931670Y-100390428D01*
X125938262Y-100393993D01*
X125944817Y-100397629D01*
X125951334Y-100401335D01*
X125957813Y-100405112D01*
X125964254Y-100408959D01*
X125970654Y-100412875D01*
X125977014Y-100416860D01*
X125983333Y-100420913D01*
X125989610Y-100425035D01*
X125995844Y-100429224D01*
X126002035Y-100433480D01*
X126008181Y-100437803D01*
X126014282Y-100442192D01*
X126020338Y-100446647D01*
X126026347Y-100451166D01*
X126032309Y-100455750D01*
X126038222Y-100460398D01*
X126044087Y-100465110D01*
X126049903Y-100469884D01*
X126055668Y-100474720D01*
X126061382Y-100479618D01*
X126067044Y-100484578D01*
X126072654Y-100489597D01*
X126078211Y-100494676D01*
X126083714Y-100499814D01*
X126089162Y-100505011D01*
X126094556Y-100510266D01*
X126099893Y-100515578D01*
X126102540Y-100518255D01*
X126105173Y-100520946D01*
X126107792Y-100523651D01*
X126110396Y-100526370D01*
X126112986Y-100529103D01*
X126115561Y-100531849D01*
X126118122Y-100534609D01*
X126120668Y-100537383D01*
X126123198Y-100540169D01*
X126125715Y-100542970D01*
X126128216Y-100545783D01*
X126130702Y-100548610D01*
X126133173Y-100551450D01*
X126135628Y-100554303D01*
X126138069Y-100557168D01*
X126140494Y-100560047D01*
X126142903Y-100562938D01*
X126145297Y-100565841D01*
X126147675Y-100568758D01*
X126150038Y-100571686D01*
X126152385Y-100574627D01*
X126154716Y-100577581D01*
X126157031Y-100580546D01*
X126159331Y-100583524D01*
X126161614Y-100586513D01*
X126163881Y-100589514D01*
X126166132Y-100592527D01*
X126168367Y-100595552D01*
X126170585Y-100598588D01*
X126172787Y-100601637D01*
X126174973Y-100604695D01*
X126177142Y-100607766D01*
X126179294Y-100610848D01*
X126181430Y-100613941D01*
X126183549Y-100617044D01*
X126185652Y-100620160D01*
X126187737Y-100623285D01*
X126189806Y-100626422D01*
X126191857Y-100629568D01*
X126193892Y-100632727D01*
X126195909Y-100635894D01*
X126197910Y-100639073D01*
X126199893Y-100642261D01*
X126201859Y-100645461D01*
X126203808Y-100648669D01*
X126205739Y-100651888D01*
X126207653Y-100655117D01*
X126209550Y-100658356D01*
X126211428Y-100661603D01*
X126213290Y-100664862D01*
X126215133Y-100668129D01*
X126216960Y-100671406D01*
X126218768Y-100674691D01*
X126220559Y-100677987D01*
X126222331Y-100681291D01*
X126224087Y-100684605D01*
X126225823Y-100687927D01*
X126227543Y-100691259D01*
X126229243Y-100694598D01*
X126230927Y-100697948D01*
X126232591Y-100701304D01*
X126234238Y-100704671D01*
X126235866Y-100708044D01*
X126237477Y-100711427D01*
X126239069Y-100714817D01*
X126240643Y-100718217D01*
X126242198Y-100721622D01*
X126243736Y-100725038D01*
X126245254Y-100728460D01*
X126246754Y-100731891D01*
X126248236Y-100735328D01*
X126249699Y-100738774D01*
X126251143Y-100742226D01*
X126252570Y-100745688D01*
X126253976Y-100749155D01*
X126255365Y-100752630D01*
X126256735Y-100756111D01*
X126258086Y-100759602D01*
X126259419Y-100763097D01*
X126260732Y-100766601D01*
X126262027Y-100770109D01*
X126263303Y-100773627D01*
X126264560Y-100777149D01*
X126265798Y-100780680D01*
X126267017Y-100784215D01*
X126268217Y-100787758D01*
X126269398Y-100791306D01*
X126270561Y-100794862D01*
X126271703Y-100798422D01*
X126272827Y-100801990D01*
X126273932Y-100805562D01*
X126275018Y-100809142D01*
X126276084Y-100812726D01*
X126277132Y-100816317D01*
X126278159Y-100819912D01*
X126279169Y-100823515D01*
X126280158Y-100827121D01*
X126281128Y-100830735D01*
X126282079Y-100834351D01*
X126283011Y-100837976D01*
X126283923Y-100841603D01*
X126284816Y-100845238D01*
X126285690Y-100848875D01*
X126286544Y-100852520D01*
X126287379Y-100856167D01*
X126288194Y-100859821D01*
X126288990Y-100863478D01*
X126289767Y-100867142D01*
X126290523Y-100870808D01*
X126291261Y-100874481D01*
X126291978Y-100878155D01*
X126292677Y-100881837D01*
X126293355Y-100885521D01*
X126294015Y-100889211D01*
X126294654Y-100892903D01*
X126295274Y-100896602D01*
X126295874Y-100900302D01*
X126296455Y-100904009D01*
X126297016Y-100907717D01*
X126297557Y-100911431D01*
X126298079Y-100915147D01*
X126298581Y-100918869D01*
X126299063Y-100922592D01*
X126299526Y-100926322D01*
X126299968Y-100930052D01*
X126300391Y-100933788D01*
X126300795Y-100937525D01*
X126301178Y-100941268D01*
X126301542Y-100945012D01*
X126301886Y-100948762D01*
X126302209Y-100952512D01*
X126302514Y-100956268D01*
X126302798Y-100960024D01*
X126303062Y-100963786D01*
X126303307Y-100967548D01*
X126303532Y-100971316D01*
X126303736Y-100975084D01*
X126303921Y-100978857D01*
X126304086Y-100982631D01*
X126304231Y-100986410D01*
X126304356Y-100990188D01*
X126304462Y-100993972D01*
X126304547Y-100997756D01*
X126304612Y-101001545D01*
X126304657Y-101005334D01*
X126304682Y-101009127D01*
X126304688Y-101012003D01*
X128092781Y-100656680D02*
X128092318Y-100656680D01*
X127247398Y-100067718D02*
X127246691Y-100066254D01*
X127246032Y-100064707D01*
X127245426Y-100063080D01*
X127244875Y-100061373D01*
X127244384Y-100059591D01*
X127243956Y-100057737D01*
X127243594Y-100055819D01*
X127243303Y-100053841D01*
X127243085Y-100051813D01*
X127242943Y-100049744D01*
X127242879Y-100047643D01*
X127242895Y-100045523D01*
X127242990Y-100043393D01*
X127243067Y-100042329D01*
X127243165Y-100041266D01*
X127243282Y-100040209D01*
X127243419Y-100039155D01*
X127243575Y-100038110D01*
X127243751Y-100037070D01*
X127243944Y-100036044D01*
X127244157Y-100035024D01*
X127244387Y-100034020D01*
X127244636Y-100033025D01*
X127244900Y-100032050D01*
X127245183Y-100031084D01*
X127245480Y-100030141D01*
X127245795Y-100029209D01*
X127246123Y-100028302D01*
X127246467Y-100027406D01*
X127246823Y-100026538D01*
X127247196Y-100025683D01*
X127247578Y-100024855D01*
X127247977Y-100024042D01*
X127248383Y-100023257D01*
X127248805Y-100022487D01*
X127249234Y-100021746D01*
X127249677Y-100021021D01*
X127250453Y-100019841D01*
X128120099Y-101326486D02*
X128120099Y-100689740D01*
D13*
X91526003Y-103647904D02*
X91526003Y-102347904D01*
X91526003Y-102347904D02*
X91092669Y-103276476D01*
X91092669Y-103276476D02*
X90659336Y-102347904D01*
X90659336Y-102347904D02*
X90659336Y-103647904D01*
X90040289Y-103647904D02*
X90040289Y-102781238D01*
X90040289Y-102347904D02*
X90102193Y-102409809D01*
X90102193Y-102409809D02*
X90040289Y-102471714D01*
X90040289Y-102471714D02*
X89978384Y-102409809D01*
X89978384Y-102409809D02*
X90040289Y-102347904D01*
X90040289Y-102347904D02*
X90040289Y-102471714D01*
X88864098Y-103586000D02*
X88987907Y-103647904D01*
X88987907Y-103647904D02*
X89235526Y-103647904D01*
X89235526Y-103647904D02*
X89359336Y-103586000D01*
X89359336Y-103586000D02*
X89421241Y-103524095D01*
X89421241Y-103524095D02*
X89483145Y-103400285D01*
X89483145Y-103400285D02*
X89483145Y-103028857D01*
X89483145Y-103028857D02*
X89421241Y-102905047D01*
X89421241Y-102905047D02*
X89359336Y-102843142D01*
X89359336Y-102843142D02*
X89235526Y-102781238D01*
X89235526Y-102781238D02*
X88987907Y-102781238D01*
X88987907Y-102781238D02*
X88864098Y-102843142D01*
D14*
X86808458Y-102873152D02*
X86570363Y-103539819D01*
X86570363Y-103539819D02*
X86332268Y-102873152D01*
X85998934Y-102635057D02*
X85951315Y-102587438D01*
X85951315Y-102587438D02*
X85856077Y-102539819D01*
X85856077Y-102539819D02*
X85617982Y-102539819D01*
X85617982Y-102539819D02*
X85522744Y-102587438D01*
X85522744Y-102587438D02*
X85475125Y-102635057D01*
X85475125Y-102635057D02*
X85427506Y-102730295D01*
X85427506Y-102730295D02*
X85427506Y-102825533D01*
X85427506Y-102825533D02*
X85475125Y-102968390D01*
X85475125Y-102968390D02*
X86046553Y-103539819D01*
X86046553Y-103539819D02*
X85427506Y-103539819D01*
D13*
X91338384Y-98897904D02*
X91090765Y-98897904D01*
X91090765Y-98897904D02*
X90966955Y-98959809D01*
X90966955Y-98959809D02*
X90843146Y-99083619D01*
X90843146Y-99083619D02*
X90781241Y-99331238D01*
X90781241Y-99331238D02*
X90781241Y-99764571D01*
X90781241Y-99764571D02*
X90843146Y-100012190D01*
X90843146Y-100012190D02*
X90966955Y-100136000D01*
X90966955Y-100136000D02*
X91090765Y-100197904D01*
X91090765Y-100197904D02*
X91338384Y-100197904D01*
X91338384Y-100197904D02*
X91462193Y-100136000D01*
X91462193Y-100136000D02*
X91586003Y-100012190D01*
X91586003Y-100012190D02*
X91647907Y-99764571D01*
X91647907Y-99764571D02*
X91647907Y-99331238D01*
X91647907Y-99331238D02*
X91586003Y-99083619D01*
X91586003Y-99083619D02*
X91462193Y-98959809D01*
X91462193Y-98959809D02*
X91338384Y-98897904D01*
X90224098Y-99331238D02*
X90224098Y-100631238D01*
X90224098Y-99393142D02*
X90100288Y-99331238D01*
X90100288Y-99331238D02*
X89852669Y-99331238D01*
X89852669Y-99331238D02*
X89728860Y-99393142D01*
X89728860Y-99393142D02*
X89666955Y-99455047D01*
X89666955Y-99455047D02*
X89605050Y-99578857D01*
X89605050Y-99578857D02*
X89605050Y-99950285D01*
X89605050Y-99950285D02*
X89666955Y-100074095D01*
X89666955Y-100074095D02*
X89728860Y-100136000D01*
X89728860Y-100136000D02*
X89852669Y-100197904D01*
X89852669Y-100197904D02*
X90100288Y-100197904D01*
X90100288Y-100197904D02*
X90224098Y-100136000D01*
X88552670Y-100136000D02*
X88676479Y-100197904D01*
X88676479Y-100197904D02*
X88924098Y-100197904D01*
X88924098Y-100197904D02*
X89047908Y-100136000D01*
X89047908Y-100136000D02*
X89109812Y-100012190D01*
X89109812Y-100012190D02*
X89109812Y-99516952D01*
X89109812Y-99516952D02*
X89047908Y-99393142D01*
X89047908Y-99393142D02*
X88924098Y-99331238D01*
X88924098Y-99331238D02*
X88676479Y-99331238D01*
X88676479Y-99331238D02*
X88552670Y-99393142D01*
X88552670Y-99393142D02*
X88490765Y-99516952D01*
X88490765Y-99516952D02*
X88490765Y-99640761D01*
X88490765Y-99640761D02*
X89109812Y-99764571D01*
X87933622Y-99331238D02*
X87933622Y-100197904D01*
X87933622Y-99455047D02*
X87871717Y-99393142D01*
X87871717Y-99393142D02*
X87747907Y-99331238D01*
X87747907Y-99331238D02*
X87562193Y-99331238D01*
X87562193Y-99331238D02*
X87438384Y-99393142D01*
X87438384Y-99393142D02*
X87376479Y-99516952D01*
X87376479Y-99516952D02*
X87376479Y-100197904D01*
X90793146Y-101907904D02*
X91226479Y-101288857D01*
X91536003Y-101907904D02*
X91536003Y-100607904D01*
X91536003Y-100607904D02*
X91040765Y-100607904D01*
X91040765Y-100607904D02*
X90916955Y-100669809D01*
X90916955Y-100669809D02*
X90855050Y-100731714D01*
X90855050Y-100731714D02*
X90793146Y-100855523D01*
X90793146Y-100855523D02*
X90793146Y-101041238D01*
X90793146Y-101041238D02*
X90855050Y-101165047D01*
X90855050Y-101165047D02*
X90916955Y-101226952D01*
X90916955Y-101226952D02*
X91040765Y-101288857D01*
X91040765Y-101288857D02*
X91536003Y-101288857D01*
X89740765Y-101846000D02*
X89864574Y-101907904D01*
X89864574Y-101907904D02*
X90112193Y-101907904D01*
X90112193Y-101907904D02*
X90236003Y-101846000D01*
X90236003Y-101846000D02*
X90297907Y-101722190D01*
X90297907Y-101722190D02*
X90297907Y-101226952D01*
X90297907Y-101226952D02*
X90236003Y-101103142D01*
X90236003Y-101103142D02*
X90112193Y-101041238D01*
X90112193Y-101041238D02*
X89864574Y-101041238D01*
X89864574Y-101041238D02*
X89740765Y-101103142D01*
X89740765Y-101103142D02*
X89678860Y-101226952D01*
X89678860Y-101226952D02*
X89678860Y-101350761D01*
X89678860Y-101350761D02*
X90297907Y-101474571D01*
X89307431Y-101041238D02*
X88812193Y-101041238D01*
X89121717Y-101907904D02*
X89121717Y-100793619D01*
X89121717Y-100793619D02*
X89059812Y-100669809D01*
X89059812Y-100669809D02*
X88936002Y-100607904D01*
X88936002Y-100607904D02*
X88812193Y-100607904D01*
D14*
X132662857Y-98399580D02*
X132710476Y-98447200D01*
X132710476Y-98447200D02*
X132853333Y-98494819D01*
X132853333Y-98494819D02*
X132948571Y-98494819D01*
X132948571Y-98494819D02*
X133091428Y-98447200D01*
X133091428Y-98447200D02*
X133186666Y-98351961D01*
X133186666Y-98351961D02*
X133234285Y-98256723D01*
X133234285Y-98256723D02*
X133281904Y-98066247D01*
X133281904Y-98066247D02*
X133281904Y-97923390D01*
X133281904Y-97923390D02*
X133234285Y-97732914D01*
X133234285Y-97732914D02*
X133186666Y-97637676D01*
X133186666Y-97637676D02*
X133091428Y-97542438D01*
X133091428Y-97542438D02*
X132948571Y-97494819D01*
X132948571Y-97494819D02*
X132853333Y-97494819D01*
X132853333Y-97494819D02*
X132710476Y-97542438D01*
X132710476Y-97542438D02*
X132662857Y-97590057D01*
X131710476Y-98494819D02*
X132281904Y-98494819D01*
X131996190Y-98494819D02*
X131996190Y-97494819D01*
X131996190Y-97494819D02*
X132091428Y-97637676D01*
X132091428Y-97637676D02*
X132186666Y-97732914D01*
X132186666Y-97732914D02*
X132281904Y-97780533D01*
X131329523Y-97590057D02*
X131281904Y-97542438D01*
X131281904Y-97542438D02*
X131186666Y-97494819D01*
X131186666Y-97494819D02*
X130948571Y-97494819D01*
X130948571Y-97494819D02*
X130853333Y-97542438D01*
X130853333Y-97542438D02*
X130805714Y-97590057D01*
X130805714Y-97590057D02*
X130758095Y-97685295D01*
X130758095Y-97685295D02*
X130758095Y-97780533D01*
X130758095Y-97780533D02*
X130805714Y-97923390D01*
X130805714Y-97923390D02*
X131377142Y-98494819D01*
X131377142Y-98494819D02*
X130758095Y-98494819D01*
X151082857Y-97994819D02*
X151416190Y-97518628D01*
X151654285Y-97994819D02*
X151654285Y-96994819D01*
X151654285Y-96994819D02*
X151273333Y-96994819D01*
X151273333Y-96994819D02*
X151178095Y-97042438D01*
X151178095Y-97042438D02*
X151130476Y-97090057D01*
X151130476Y-97090057D02*
X151082857Y-97185295D01*
X151082857Y-97185295D02*
X151082857Y-97328152D01*
X151082857Y-97328152D02*
X151130476Y-97423390D01*
X151130476Y-97423390D02*
X151178095Y-97471009D01*
X151178095Y-97471009D02*
X151273333Y-97518628D01*
X151273333Y-97518628D02*
X151654285Y-97518628D01*
X150130476Y-97994819D02*
X150701904Y-97994819D01*
X150416190Y-97994819D02*
X150416190Y-96994819D01*
X150416190Y-96994819D02*
X150511428Y-97137676D01*
X150511428Y-97137676D02*
X150606666Y-97232914D01*
X150606666Y-97232914D02*
X150701904Y-97280533D01*
X149797142Y-96994819D02*
X149130476Y-96994819D01*
X149130476Y-96994819D02*
X149559047Y-97994819D01*
X121542857Y-103854819D02*
X121876190Y-103378628D01*
X122114285Y-103854819D02*
X122114285Y-102854819D01*
X122114285Y-102854819D02*
X121733333Y-102854819D01*
X121733333Y-102854819D02*
X121638095Y-102902438D01*
X121638095Y-102902438D02*
X121590476Y-102950057D01*
X121590476Y-102950057D02*
X121542857Y-103045295D01*
X121542857Y-103045295D02*
X121542857Y-103188152D01*
X121542857Y-103188152D02*
X121590476Y-103283390D01*
X121590476Y-103283390D02*
X121638095Y-103331009D01*
X121638095Y-103331009D02*
X121733333Y-103378628D01*
X121733333Y-103378628D02*
X122114285Y-103378628D01*
X120590476Y-103854819D02*
X121161904Y-103854819D01*
X120876190Y-103854819D02*
X120876190Y-102854819D01*
X120876190Y-102854819D02*
X120971428Y-102997676D01*
X120971428Y-102997676D02*
X121066666Y-103092914D01*
X121066666Y-103092914D02*
X121161904Y-103140533D01*
X119971428Y-102854819D02*
X119876190Y-102854819D01*
X119876190Y-102854819D02*
X119780952Y-102902438D01*
X119780952Y-102902438D02*
X119733333Y-102950057D01*
X119733333Y-102950057D02*
X119685714Y-103045295D01*
X119685714Y-103045295D02*
X119638095Y-103235771D01*
X119638095Y-103235771D02*
X119638095Y-103473866D01*
X119638095Y-103473866D02*
X119685714Y-103664342D01*
X119685714Y-103664342D02*
X119733333Y-103759580D01*
X119733333Y-103759580D02*
X119780952Y-103807200D01*
X119780952Y-103807200D02*
X119876190Y-103854819D01*
X119876190Y-103854819D02*
X119971428Y-103854819D01*
X119971428Y-103854819D02*
X120066666Y-103807200D01*
X120066666Y-103807200D02*
X120114285Y-103759580D01*
X120114285Y-103759580D02*
X120161904Y-103664342D01*
X120161904Y-103664342D02*
X120209523Y-103473866D01*
X120209523Y-103473866D02*
X120209523Y-103235771D01*
X120209523Y-103235771D02*
X120161904Y-103045295D01*
X120161904Y-103045295D02*
X120114285Y-102950057D01*
X120114285Y-102950057D02*
X120066666Y-102902438D01*
X120066666Y-102902438D02*
X119971428Y-102854819D01*
X140488094Y-98074819D02*
X140488094Y-97074819D01*
X140488094Y-97074819D02*
X140249999Y-97074819D01*
X140249999Y-97074819D02*
X140107142Y-97122438D01*
X140107142Y-97122438D02*
X140011904Y-97217676D01*
X140011904Y-97217676D02*
X139964285Y-97312914D01*
X139964285Y-97312914D02*
X139916666Y-97503390D01*
X139916666Y-97503390D02*
X139916666Y-97646247D01*
X139916666Y-97646247D02*
X139964285Y-97836723D01*
X139964285Y-97836723D02*
X140011904Y-97931961D01*
X140011904Y-97931961D02*
X140107142Y-98027200D01*
X140107142Y-98027200D02*
X140249999Y-98074819D01*
X140249999Y-98074819D02*
X140488094Y-98074819D01*
X138964285Y-98074819D02*
X139535713Y-98074819D01*
X139249999Y-98074819D02*
X139249999Y-97074819D01*
X139249999Y-97074819D02*
X139345237Y-97217676D01*
X139345237Y-97217676D02*
X139440475Y-97312914D01*
X139440475Y-97312914D02*
X139535713Y-97360533D01*
X118266666Y-97854819D02*
X118599999Y-97378628D01*
X118838094Y-97854819D02*
X118838094Y-96854819D01*
X118838094Y-96854819D02*
X118457142Y-96854819D01*
X118457142Y-96854819D02*
X118361904Y-96902438D01*
X118361904Y-96902438D02*
X118314285Y-96950057D01*
X118314285Y-96950057D02*
X118266666Y-97045295D01*
X118266666Y-97045295D02*
X118266666Y-97188152D01*
X118266666Y-97188152D02*
X118314285Y-97283390D01*
X118314285Y-97283390D02*
X118361904Y-97331009D01*
X118361904Y-97331009D02*
X118457142Y-97378628D01*
X118457142Y-97378628D02*
X118838094Y-97378628D01*
X117409523Y-96854819D02*
X117599999Y-96854819D01*
X117599999Y-96854819D02*
X117695237Y-96902438D01*
X117695237Y-96902438D02*
X117742856Y-96950057D01*
X117742856Y-96950057D02*
X117838094Y-97092914D01*
X117838094Y-97092914D02*
X117885713Y-97283390D01*
X117885713Y-97283390D02*
X117885713Y-97664342D01*
X117885713Y-97664342D02*
X117838094Y-97759580D01*
X117838094Y-97759580D02*
X117790475Y-97807200D01*
X117790475Y-97807200D02*
X117695237Y-97854819D01*
X117695237Y-97854819D02*
X117504761Y-97854819D01*
X117504761Y-97854819D02*
X117409523Y-97807200D01*
X117409523Y-97807200D02*
X117361904Y-97759580D01*
X117361904Y-97759580D02*
X117314285Y-97664342D01*
X117314285Y-97664342D02*
X117314285Y-97426247D01*
X117314285Y-97426247D02*
X117361904Y-97331009D01*
X117361904Y-97331009D02*
X117409523Y-97283390D01*
X117409523Y-97283390D02*
X117504761Y-97235771D01*
X117504761Y-97235771D02*
X117695237Y-97235771D01*
X117695237Y-97235771D02*
X117790475Y-97283390D01*
X117790475Y-97283390D02*
X117838094Y-97331009D01*
X117838094Y-97331009D02*
X117885713Y-97426247D01*
X138394819Y-97051905D02*
X137394819Y-97051905D01*
X137394819Y-97051905D02*
X137394819Y-97290000D01*
X137394819Y-97290000D02*
X137442438Y-97432857D01*
X137442438Y-97432857D02*
X137537676Y-97528095D01*
X137537676Y-97528095D02*
X137632914Y-97575714D01*
X137632914Y-97575714D02*
X137823390Y-97623333D01*
X137823390Y-97623333D02*
X137966247Y-97623333D01*
X137966247Y-97623333D02*
X138156723Y-97575714D01*
X138156723Y-97575714D02*
X138251961Y-97528095D01*
X138251961Y-97528095D02*
X138347200Y-97432857D01*
X138347200Y-97432857D02*
X138394819Y-97290000D01*
X138394819Y-97290000D02*
X138394819Y-97051905D01*
X137394819Y-97956667D02*
X137394819Y-98575714D01*
X137394819Y-98575714D02*
X137775771Y-98242381D01*
X137775771Y-98242381D02*
X137775771Y-98385238D01*
X137775771Y-98385238D02*
X137823390Y-98480476D01*
X137823390Y-98480476D02*
X137871009Y-98528095D01*
X137871009Y-98528095D02*
X137966247Y-98575714D01*
X137966247Y-98575714D02*
X138204342Y-98575714D01*
X138204342Y-98575714D02*
X138299580Y-98528095D01*
X138299580Y-98528095D02*
X138347200Y-98480476D01*
X138347200Y-98480476D02*
X138394819Y-98385238D01*
X138394819Y-98385238D02*
X138394819Y-98099524D01*
X138394819Y-98099524D02*
X138347200Y-98004286D01*
X138347200Y-98004286D02*
X138299580Y-97956667D01*
X136262857Y-98839580D02*
X136310476Y-98887200D01*
X136310476Y-98887200D02*
X136453333Y-98934819D01*
X136453333Y-98934819D02*
X136548571Y-98934819D01*
X136548571Y-98934819D02*
X136691428Y-98887200D01*
X136691428Y-98887200D02*
X136786666Y-98791961D01*
X136786666Y-98791961D02*
X136834285Y-98696723D01*
X136834285Y-98696723D02*
X136881904Y-98506247D01*
X136881904Y-98506247D02*
X136881904Y-98363390D01*
X136881904Y-98363390D02*
X136834285Y-98172914D01*
X136834285Y-98172914D02*
X136786666Y-98077676D01*
X136786666Y-98077676D02*
X136691428Y-97982438D01*
X136691428Y-97982438D02*
X136548571Y-97934819D01*
X136548571Y-97934819D02*
X136453333Y-97934819D01*
X136453333Y-97934819D02*
X136310476Y-97982438D01*
X136310476Y-97982438D02*
X136262857Y-98030057D01*
X135310476Y-98934819D02*
X135881904Y-98934819D01*
X135596190Y-98934819D02*
X135596190Y-97934819D01*
X135596190Y-97934819D02*
X135691428Y-98077676D01*
X135691428Y-98077676D02*
X135786666Y-98172914D01*
X135786666Y-98172914D02*
X135881904Y-98220533D01*
X134977142Y-97934819D02*
X134358095Y-97934819D01*
X134358095Y-97934819D02*
X134691428Y-98315771D01*
X134691428Y-98315771D02*
X134548571Y-98315771D01*
X134548571Y-98315771D02*
X134453333Y-98363390D01*
X134453333Y-98363390D02*
X134405714Y-98411009D01*
X134405714Y-98411009D02*
X134358095Y-98506247D01*
X134358095Y-98506247D02*
X134358095Y-98744342D01*
X134358095Y-98744342D02*
X134405714Y-98839580D01*
X134405714Y-98839580D02*
X134453333Y-98887200D01*
X134453333Y-98887200D02*
X134548571Y-98934819D01*
X134548571Y-98934819D02*
X134834285Y-98934819D01*
X134834285Y-98934819D02*
X134929523Y-98887200D01*
X134929523Y-98887200D02*
X134977142Y-98839580D01*
X104776666Y-100964819D02*
X105109999Y-100488628D01*
X105348094Y-100964819D02*
X105348094Y-99964819D01*
X105348094Y-99964819D02*
X104967142Y-99964819D01*
X104967142Y-99964819D02*
X104871904Y-100012438D01*
X104871904Y-100012438D02*
X104824285Y-100060057D01*
X104824285Y-100060057D02*
X104776666Y-100155295D01*
X104776666Y-100155295D02*
X104776666Y-100298152D01*
X104776666Y-100298152D02*
X104824285Y-100393390D01*
X104824285Y-100393390D02*
X104871904Y-100441009D01*
X104871904Y-100441009D02*
X104967142Y-100488628D01*
X104967142Y-100488628D02*
X105348094Y-100488628D01*
X103919523Y-100298152D02*
X103919523Y-100964819D01*
X104157618Y-99917200D02*
X104395713Y-100631485D01*
X104395713Y-100631485D02*
X103776666Y-100631485D01*
X130052857Y-104779580D02*
X130100476Y-104827200D01*
X130100476Y-104827200D02*
X130243333Y-104874819D01*
X130243333Y-104874819D02*
X130338571Y-104874819D01*
X130338571Y-104874819D02*
X130481428Y-104827200D01*
X130481428Y-104827200D02*
X130576666Y-104731961D01*
X130576666Y-104731961D02*
X130624285Y-104636723D01*
X130624285Y-104636723D02*
X130671904Y-104446247D01*
X130671904Y-104446247D02*
X130671904Y-104303390D01*
X130671904Y-104303390D02*
X130624285Y-104112914D01*
X130624285Y-104112914D02*
X130576666Y-104017676D01*
X130576666Y-104017676D02*
X130481428Y-103922438D01*
X130481428Y-103922438D02*
X130338571Y-103874819D01*
X130338571Y-103874819D02*
X130243333Y-103874819D01*
X130243333Y-103874819D02*
X130100476Y-103922438D01*
X130100476Y-103922438D02*
X130052857Y-103970057D01*
X129100476Y-104874819D02*
X129671904Y-104874819D01*
X129386190Y-104874819D02*
X129386190Y-103874819D01*
X129386190Y-103874819D02*
X129481428Y-104017676D01*
X129481428Y-104017676D02*
X129576666Y-104112914D01*
X129576666Y-104112914D02*
X129671904Y-104160533D01*
X128148095Y-104874819D02*
X128719523Y-104874819D01*
X128433809Y-104874819D02*
X128433809Y-103874819D01*
X128433809Y-103874819D02*
X128529047Y-104017676D01*
X128529047Y-104017676D02*
X128624285Y-104112914D01*
X128624285Y-104112914D02*
X128719523Y-104160533D01*
X121276666Y-98849580D02*
X121324285Y-98897200D01*
X121324285Y-98897200D02*
X121467142Y-98944819D01*
X121467142Y-98944819D02*
X121562380Y-98944819D01*
X121562380Y-98944819D02*
X121705237Y-98897200D01*
X121705237Y-98897200D02*
X121800475Y-98801961D01*
X121800475Y-98801961D02*
X121848094Y-98706723D01*
X121848094Y-98706723D02*
X121895713Y-98516247D01*
X121895713Y-98516247D02*
X121895713Y-98373390D01*
X121895713Y-98373390D02*
X121848094Y-98182914D01*
X121848094Y-98182914D02*
X121800475Y-98087676D01*
X121800475Y-98087676D02*
X121705237Y-97992438D01*
X121705237Y-97992438D02*
X121562380Y-97944819D01*
X121562380Y-97944819D02*
X121467142Y-97944819D01*
X121467142Y-97944819D02*
X121324285Y-97992438D01*
X121324285Y-97992438D02*
X121276666Y-98040057D01*
X120419523Y-97944819D02*
X120609999Y-97944819D01*
X120609999Y-97944819D02*
X120705237Y-97992438D01*
X120705237Y-97992438D02*
X120752856Y-98040057D01*
X120752856Y-98040057D02*
X120848094Y-98182914D01*
X120848094Y-98182914D02*
X120895713Y-98373390D01*
X120895713Y-98373390D02*
X120895713Y-98754342D01*
X120895713Y-98754342D02*
X120848094Y-98849580D01*
X120848094Y-98849580D02*
X120800475Y-98897200D01*
X120800475Y-98897200D02*
X120705237Y-98944819D01*
X120705237Y-98944819D02*
X120514761Y-98944819D01*
X120514761Y-98944819D02*
X120419523Y-98897200D01*
X120419523Y-98897200D02*
X120371904Y-98849580D01*
X120371904Y-98849580D02*
X120324285Y-98754342D01*
X120324285Y-98754342D02*
X120324285Y-98516247D01*
X120324285Y-98516247D02*
X120371904Y-98421009D01*
X120371904Y-98421009D02*
X120419523Y-98373390D01*
X120419523Y-98373390D02*
X120514761Y-98325771D01*
X120514761Y-98325771D02*
X120705237Y-98325771D01*
X120705237Y-98325771D02*
X120800475Y-98373390D01*
X120800475Y-98373390D02*
X120848094Y-98421009D01*
X120848094Y-98421009D02*
X120895713Y-98516247D01*
X105176666Y-98084819D02*
X105509999Y-97608628D01*
X105748094Y-98084819D02*
X105748094Y-97084819D01*
X105748094Y-97084819D02*
X105367142Y-97084819D01*
X105367142Y-97084819D02*
X105271904Y-97132438D01*
X105271904Y-97132438D02*
X105224285Y-97180057D01*
X105224285Y-97180057D02*
X105176666Y-97275295D01*
X105176666Y-97275295D02*
X105176666Y-97418152D01*
X105176666Y-97418152D02*
X105224285Y-97513390D01*
X105224285Y-97513390D02*
X105271904Y-97561009D01*
X105271904Y-97561009D02*
X105367142Y-97608628D01*
X105367142Y-97608628D02*
X105748094Y-97608628D01*
X104271904Y-97084819D02*
X104748094Y-97084819D01*
X104748094Y-97084819D02*
X104795713Y-97561009D01*
X104795713Y-97561009D02*
X104748094Y-97513390D01*
X104748094Y-97513390D02*
X104652856Y-97465771D01*
X104652856Y-97465771D02*
X104414761Y-97465771D01*
X104414761Y-97465771D02*
X104319523Y-97513390D01*
X104319523Y-97513390D02*
X104271904Y-97561009D01*
X104271904Y-97561009D02*
X104224285Y-97656247D01*
X104224285Y-97656247D02*
X104224285Y-97894342D01*
X104224285Y-97894342D02*
X104271904Y-97989580D01*
X104271904Y-97989580D02*
X104319523Y-98037200D01*
X104319523Y-98037200D02*
X104414761Y-98084819D01*
X104414761Y-98084819D02*
X104652856Y-98084819D01*
X104652856Y-98084819D02*
X104748094Y-98037200D01*
X104748094Y-98037200D02*
X104795713Y-97989580D01*
X103496666Y-104664819D02*
X103829999Y-104188628D01*
X104068094Y-104664819D02*
X104068094Y-103664819D01*
X104068094Y-103664819D02*
X103687142Y-103664819D01*
X103687142Y-103664819D02*
X103591904Y-103712438D01*
X103591904Y-103712438D02*
X103544285Y-103760057D01*
X103544285Y-103760057D02*
X103496666Y-103855295D01*
X103496666Y-103855295D02*
X103496666Y-103998152D01*
X103496666Y-103998152D02*
X103544285Y-104093390D01*
X103544285Y-104093390D02*
X103591904Y-104141009D01*
X103591904Y-104141009D02*
X103687142Y-104188628D01*
X103687142Y-104188628D02*
X104068094Y-104188628D01*
X103163332Y-103664819D02*
X102496666Y-103664819D01*
X102496666Y-103664819D02*
X102925237Y-104664819D01*
X96793333Y-99534819D02*
X96793333Y-100249104D01*
X96793333Y-100249104D02*
X96840952Y-100391961D01*
X96840952Y-100391961D02*
X96936190Y-100487200D01*
X96936190Y-100487200D02*
X97079047Y-100534819D01*
X97079047Y-100534819D02*
X97174285Y-100534819D01*
X95793333Y-100534819D02*
X96364761Y-100534819D01*
X96079047Y-100534819D02*
X96079047Y-99534819D01*
X96079047Y-99534819D02*
X96174285Y-99677676D01*
X96174285Y-99677676D02*
X96269523Y-99772914D01*
X96269523Y-99772914D02*
X96364761Y-99820533D01*
X104226666Y-99359580D02*
X104274285Y-99407200D01*
X104274285Y-99407200D02*
X104417142Y-99454819D01*
X104417142Y-99454819D02*
X104512380Y-99454819D01*
X104512380Y-99454819D02*
X104655237Y-99407200D01*
X104655237Y-99407200D02*
X104750475Y-99311961D01*
X104750475Y-99311961D02*
X104798094Y-99216723D01*
X104798094Y-99216723D02*
X104845713Y-99026247D01*
X104845713Y-99026247D02*
X104845713Y-98883390D01*
X104845713Y-98883390D02*
X104798094Y-98692914D01*
X104798094Y-98692914D02*
X104750475Y-98597676D01*
X104750475Y-98597676D02*
X104655237Y-98502438D01*
X104655237Y-98502438D02*
X104512380Y-98454819D01*
X104512380Y-98454819D02*
X104417142Y-98454819D01*
X104417142Y-98454819D02*
X104274285Y-98502438D01*
X104274285Y-98502438D02*
X104226666Y-98550057D01*
X103893332Y-98454819D02*
X103274285Y-98454819D01*
X103274285Y-98454819D02*
X103607618Y-98835771D01*
X103607618Y-98835771D02*
X103464761Y-98835771D01*
X103464761Y-98835771D02*
X103369523Y-98883390D01*
X103369523Y-98883390D02*
X103321904Y-98931009D01*
X103321904Y-98931009D02*
X103274285Y-99026247D01*
X103274285Y-99026247D02*
X103274285Y-99264342D01*
X103274285Y-99264342D02*
X103321904Y-99359580D01*
X103321904Y-99359580D02*
X103369523Y-99407200D01*
X103369523Y-99407200D02*
X103464761Y-99454819D01*
X103464761Y-99454819D02*
X103750475Y-99454819D01*
X103750475Y-99454819D02*
X103845713Y-99407200D01*
X103845713Y-99407200D02*
X103893332Y-99359580D01*
X125922857Y-104864819D02*
X126256190Y-104388628D01*
X126494285Y-104864819D02*
X126494285Y-103864819D01*
X126494285Y-103864819D02*
X126113333Y-103864819D01*
X126113333Y-103864819D02*
X126018095Y-103912438D01*
X126018095Y-103912438D02*
X125970476Y-103960057D01*
X125970476Y-103960057D02*
X125922857Y-104055295D01*
X125922857Y-104055295D02*
X125922857Y-104198152D01*
X125922857Y-104198152D02*
X125970476Y-104293390D01*
X125970476Y-104293390D02*
X126018095Y-104341009D01*
X126018095Y-104341009D02*
X126113333Y-104388628D01*
X126113333Y-104388628D02*
X126494285Y-104388628D01*
X124970476Y-104864819D02*
X125541904Y-104864819D01*
X125256190Y-104864819D02*
X125256190Y-103864819D01*
X125256190Y-103864819D02*
X125351428Y-104007676D01*
X125351428Y-104007676D02*
X125446666Y-104102914D01*
X125446666Y-104102914D02*
X125541904Y-104150533D01*
X124065714Y-103864819D02*
X124541904Y-103864819D01*
X124541904Y-103864819D02*
X124589523Y-104341009D01*
X124589523Y-104341009D02*
X124541904Y-104293390D01*
X124541904Y-104293390D02*
X124446666Y-104245771D01*
X124446666Y-104245771D02*
X124208571Y-104245771D01*
X124208571Y-104245771D02*
X124113333Y-104293390D01*
X124113333Y-104293390D02*
X124065714Y-104341009D01*
X124065714Y-104341009D02*
X124018095Y-104436247D01*
X124018095Y-104436247D02*
X124018095Y-104674342D01*
X124018095Y-104674342D02*
X124065714Y-104769580D01*
X124065714Y-104769580D02*
X124113333Y-104817200D01*
X124113333Y-104817200D02*
X124208571Y-104864819D01*
X124208571Y-104864819D02*
X124446666Y-104864819D01*
X124446666Y-104864819D02*
X124541904Y-104817200D01*
X124541904Y-104817200D02*
X124589523Y-104769580D01*
X147194819Y-100697142D02*
X146718628Y-100363809D01*
X147194819Y-100125714D02*
X146194819Y-100125714D01*
X146194819Y-100125714D02*
X146194819Y-100506666D01*
X146194819Y-100506666D02*
X146242438Y-100601904D01*
X146242438Y-100601904D02*
X146290057Y-100649523D01*
X146290057Y-100649523D02*
X146385295Y-100697142D01*
X146385295Y-100697142D02*
X146528152Y-100697142D01*
X146528152Y-100697142D02*
X146623390Y-100649523D01*
X146623390Y-100649523D02*
X146671009Y-100601904D01*
X146671009Y-100601904D02*
X146718628Y-100506666D01*
X146718628Y-100506666D02*
X146718628Y-100125714D01*
X146290057Y-101078095D02*
X146242438Y-101125714D01*
X146242438Y-101125714D02*
X146194819Y-101220952D01*
X146194819Y-101220952D02*
X146194819Y-101459047D01*
X146194819Y-101459047D02*
X146242438Y-101554285D01*
X146242438Y-101554285D02*
X146290057Y-101601904D01*
X146290057Y-101601904D02*
X146385295Y-101649523D01*
X146385295Y-101649523D02*
X146480533Y-101649523D01*
X146480533Y-101649523D02*
X146623390Y-101601904D01*
X146623390Y-101601904D02*
X147194819Y-101030476D01*
X147194819Y-101030476D02*
X147194819Y-101649523D01*
X146194819Y-101982857D02*
X146194819Y-102601904D01*
X146194819Y-102601904D02*
X146575771Y-102268571D01*
X146575771Y-102268571D02*
X146575771Y-102411428D01*
X146575771Y-102411428D02*
X146623390Y-102506666D01*
X146623390Y-102506666D02*
X146671009Y-102554285D01*
X146671009Y-102554285D02*
X146766247Y-102601904D01*
X146766247Y-102601904D02*
X147004342Y-102601904D01*
X147004342Y-102601904D02*
X147099580Y-102554285D01*
X147099580Y-102554285D02*
X147147200Y-102506666D01*
X147147200Y-102506666D02*
X147194819Y-102411428D01*
X147194819Y-102411428D02*
X147194819Y-102125714D01*
X147194819Y-102125714D02*
X147147200Y-102030476D01*
X147147200Y-102030476D02*
X147099580Y-101982857D01*
X122066666Y-100554819D02*
X122399999Y-100078628D01*
X122638094Y-100554819D02*
X122638094Y-99554819D01*
X122638094Y-99554819D02*
X122257142Y-99554819D01*
X122257142Y-99554819D02*
X122161904Y-99602438D01*
X122161904Y-99602438D02*
X122114285Y-99650057D01*
X122114285Y-99650057D02*
X122066666Y-99745295D01*
X122066666Y-99745295D02*
X122066666Y-99888152D01*
X122066666Y-99888152D02*
X122114285Y-99983390D01*
X122114285Y-99983390D02*
X122161904Y-100031009D01*
X122161904Y-100031009D02*
X122257142Y-100078628D01*
X122257142Y-100078628D02*
X122638094Y-100078628D01*
X121733332Y-99554819D02*
X121114285Y-99554819D01*
X121114285Y-99554819D02*
X121447618Y-99935771D01*
X121447618Y-99935771D02*
X121304761Y-99935771D01*
X121304761Y-99935771D02*
X121209523Y-99983390D01*
X121209523Y-99983390D02*
X121161904Y-100031009D01*
X121161904Y-100031009D02*
X121114285Y-100126247D01*
X121114285Y-100126247D02*
X121114285Y-100364342D01*
X121114285Y-100364342D02*
X121161904Y-100459580D01*
X121161904Y-100459580D02*
X121209523Y-100507200D01*
X121209523Y-100507200D02*
X121304761Y-100554819D01*
X121304761Y-100554819D02*
X121590475Y-100554819D01*
X121590475Y-100554819D02*
X121685713Y-100507200D01*
X121685713Y-100507200D02*
X121733332Y-100459580D01*
X140358094Y-103124819D02*
X140358094Y-102124819D01*
X140358094Y-102124819D02*
X140119999Y-102124819D01*
X140119999Y-102124819D02*
X139977142Y-102172438D01*
X139977142Y-102172438D02*
X139881904Y-102267676D01*
X139881904Y-102267676D02*
X139834285Y-102362914D01*
X139834285Y-102362914D02*
X139786666Y-102553390D01*
X139786666Y-102553390D02*
X139786666Y-102696247D01*
X139786666Y-102696247D02*
X139834285Y-102886723D01*
X139834285Y-102886723D02*
X139881904Y-102981961D01*
X139881904Y-102981961D02*
X139977142Y-103077200D01*
X139977142Y-103077200D02*
X140119999Y-103124819D01*
X140119999Y-103124819D02*
X140358094Y-103124819D01*
X139405713Y-102220057D02*
X139358094Y-102172438D01*
X139358094Y-102172438D02*
X139262856Y-102124819D01*
X139262856Y-102124819D02*
X139024761Y-102124819D01*
X139024761Y-102124819D02*
X138929523Y-102172438D01*
X138929523Y-102172438D02*
X138881904Y-102220057D01*
X138881904Y-102220057D02*
X138834285Y-102315295D01*
X138834285Y-102315295D02*
X138834285Y-102410533D01*
X138834285Y-102410533D02*
X138881904Y-102553390D01*
X138881904Y-102553390D02*
X139453332Y-103124819D01*
X139453332Y-103124819D02*
X138834285Y-103124819D01*
X144282857Y-97944819D02*
X144616190Y-97468628D01*
X144854285Y-97944819D02*
X144854285Y-96944819D01*
X144854285Y-96944819D02*
X144473333Y-96944819D01*
X144473333Y-96944819D02*
X144378095Y-96992438D01*
X144378095Y-96992438D02*
X144330476Y-97040057D01*
X144330476Y-97040057D02*
X144282857Y-97135295D01*
X144282857Y-97135295D02*
X144282857Y-97278152D01*
X144282857Y-97278152D02*
X144330476Y-97373390D01*
X144330476Y-97373390D02*
X144378095Y-97421009D01*
X144378095Y-97421009D02*
X144473333Y-97468628D01*
X144473333Y-97468628D02*
X144854285Y-97468628D01*
X143330476Y-97944819D02*
X143901904Y-97944819D01*
X143616190Y-97944819D02*
X143616190Y-96944819D01*
X143616190Y-96944819D02*
X143711428Y-97087676D01*
X143711428Y-97087676D02*
X143806666Y-97182914D01*
X143806666Y-97182914D02*
X143901904Y-97230533D01*
X142854285Y-97944819D02*
X142663809Y-97944819D01*
X142663809Y-97944819D02*
X142568571Y-97897200D01*
X142568571Y-97897200D02*
X142520952Y-97849580D01*
X142520952Y-97849580D02*
X142425714Y-97706723D01*
X142425714Y-97706723D02*
X142378095Y-97516247D01*
X142378095Y-97516247D02*
X142378095Y-97135295D01*
X142378095Y-97135295D02*
X142425714Y-97040057D01*
X142425714Y-97040057D02*
X142473333Y-96992438D01*
X142473333Y-96992438D02*
X142568571Y-96944819D01*
X142568571Y-96944819D02*
X142759047Y-96944819D01*
X142759047Y-96944819D02*
X142854285Y-96992438D01*
X142854285Y-96992438D02*
X142901904Y-97040057D01*
X142901904Y-97040057D02*
X142949523Y-97135295D01*
X142949523Y-97135295D02*
X142949523Y-97373390D01*
X142949523Y-97373390D02*
X142901904Y-97468628D01*
X142901904Y-97468628D02*
X142854285Y-97516247D01*
X142854285Y-97516247D02*
X142759047Y-97563866D01*
X142759047Y-97563866D02*
X142568571Y-97563866D01*
X142568571Y-97563866D02*
X142473333Y-97516247D01*
X142473333Y-97516247D02*
X142425714Y-97468628D01*
X142425714Y-97468628D02*
X142378095Y-97373390D01*
X148302857Y-97964819D02*
X148636190Y-97488628D01*
X148874285Y-97964819D02*
X148874285Y-96964819D01*
X148874285Y-96964819D02*
X148493333Y-96964819D01*
X148493333Y-96964819D02*
X148398095Y-97012438D01*
X148398095Y-97012438D02*
X148350476Y-97060057D01*
X148350476Y-97060057D02*
X148302857Y-97155295D01*
X148302857Y-97155295D02*
X148302857Y-97298152D01*
X148302857Y-97298152D02*
X148350476Y-97393390D01*
X148350476Y-97393390D02*
X148398095Y-97441009D01*
X148398095Y-97441009D02*
X148493333Y-97488628D01*
X148493333Y-97488628D02*
X148874285Y-97488628D01*
X147921904Y-97060057D02*
X147874285Y-97012438D01*
X147874285Y-97012438D02*
X147779047Y-96964819D01*
X147779047Y-96964819D02*
X147540952Y-96964819D01*
X147540952Y-96964819D02*
X147445714Y-97012438D01*
X147445714Y-97012438D02*
X147398095Y-97060057D01*
X147398095Y-97060057D02*
X147350476Y-97155295D01*
X147350476Y-97155295D02*
X147350476Y-97250533D01*
X147350476Y-97250533D02*
X147398095Y-97393390D01*
X147398095Y-97393390D02*
X147969523Y-97964819D01*
X147969523Y-97964819D02*
X147350476Y-97964819D01*
X146398095Y-97964819D02*
X146969523Y-97964819D01*
X146683809Y-97964819D02*
X146683809Y-96964819D01*
X146683809Y-96964819D02*
X146779047Y-97107676D01*
X146779047Y-97107676D02*
X146874285Y-97202914D01*
X146874285Y-97202914D02*
X146969523Y-97250533D01*
X121166666Y-102354819D02*
X121499999Y-101878628D01*
X121738094Y-102354819D02*
X121738094Y-101354819D01*
X121738094Y-101354819D02*
X121357142Y-101354819D01*
X121357142Y-101354819D02*
X121261904Y-101402438D01*
X121261904Y-101402438D02*
X121214285Y-101450057D01*
X121214285Y-101450057D02*
X121166666Y-101545295D01*
X121166666Y-101545295D02*
X121166666Y-101688152D01*
X121166666Y-101688152D02*
X121214285Y-101783390D01*
X121214285Y-101783390D02*
X121261904Y-101831009D01*
X121261904Y-101831009D02*
X121357142Y-101878628D01*
X121357142Y-101878628D02*
X121738094Y-101878628D01*
X120785713Y-101450057D02*
X120738094Y-101402438D01*
X120738094Y-101402438D02*
X120642856Y-101354819D01*
X120642856Y-101354819D02*
X120404761Y-101354819D01*
X120404761Y-101354819D02*
X120309523Y-101402438D01*
X120309523Y-101402438D02*
X120261904Y-101450057D01*
X120261904Y-101450057D02*
X120214285Y-101545295D01*
X120214285Y-101545295D02*
X120214285Y-101640533D01*
X120214285Y-101640533D02*
X120261904Y-101783390D01*
X120261904Y-101783390D02*
X120833332Y-102354819D01*
X120833332Y-102354819D02*
X120214285Y-102354819D01*
X118266666Y-100859580D02*
X118314285Y-100907200D01*
X118314285Y-100907200D02*
X118457142Y-100954819D01*
X118457142Y-100954819D02*
X118552380Y-100954819D01*
X118552380Y-100954819D02*
X118695237Y-100907200D01*
X118695237Y-100907200D02*
X118790475Y-100811961D01*
X118790475Y-100811961D02*
X118838094Y-100716723D01*
X118838094Y-100716723D02*
X118885713Y-100526247D01*
X118885713Y-100526247D02*
X118885713Y-100383390D01*
X118885713Y-100383390D02*
X118838094Y-100192914D01*
X118838094Y-100192914D02*
X118790475Y-100097676D01*
X118790475Y-100097676D02*
X118695237Y-100002438D01*
X118695237Y-100002438D02*
X118552380Y-99954819D01*
X118552380Y-99954819D02*
X118457142Y-99954819D01*
X118457142Y-99954819D02*
X118314285Y-100002438D01*
X118314285Y-100002438D02*
X118266666Y-100050057D01*
X117361904Y-99954819D02*
X117838094Y-99954819D01*
X117838094Y-99954819D02*
X117885713Y-100431009D01*
X117885713Y-100431009D02*
X117838094Y-100383390D01*
X117838094Y-100383390D02*
X117742856Y-100335771D01*
X117742856Y-100335771D02*
X117504761Y-100335771D01*
X117504761Y-100335771D02*
X117409523Y-100383390D01*
X117409523Y-100383390D02*
X117361904Y-100431009D01*
X117361904Y-100431009D02*
X117314285Y-100526247D01*
X117314285Y-100526247D02*
X117314285Y-100764342D01*
X117314285Y-100764342D02*
X117361904Y-100859580D01*
X117361904Y-100859580D02*
X117409523Y-100907200D01*
X117409523Y-100907200D02*
X117504761Y-100954819D01*
X117504761Y-100954819D02*
X117742856Y-100954819D01*
X117742856Y-100954819D02*
X117838094Y-100907200D01*
X117838094Y-100907200D02*
X117885713Y-100859580D01*
X145734819Y-101767142D02*
X145258628Y-101433809D01*
X145734819Y-101195714D02*
X144734819Y-101195714D01*
X144734819Y-101195714D02*
X144734819Y-101576666D01*
X144734819Y-101576666D02*
X144782438Y-101671904D01*
X144782438Y-101671904D02*
X144830057Y-101719523D01*
X144830057Y-101719523D02*
X144925295Y-101767142D01*
X144925295Y-101767142D02*
X145068152Y-101767142D01*
X145068152Y-101767142D02*
X145163390Y-101719523D01*
X145163390Y-101719523D02*
X145211009Y-101671904D01*
X145211009Y-101671904D02*
X145258628Y-101576666D01*
X145258628Y-101576666D02*
X145258628Y-101195714D01*
X145734819Y-102719523D02*
X145734819Y-102148095D01*
X145734819Y-102433809D02*
X144734819Y-102433809D01*
X144734819Y-102433809D02*
X144877676Y-102338571D01*
X144877676Y-102338571D02*
X144972914Y-102243333D01*
X144972914Y-102243333D02*
X145020533Y-102148095D01*
X144734819Y-103576666D02*
X144734819Y-103386190D01*
X144734819Y-103386190D02*
X144782438Y-103290952D01*
X144782438Y-103290952D02*
X144830057Y-103243333D01*
X144830057Y-103243333D02*
X144972914Y-103148095D01*
X144972914Y-103148095D02*
X145163390Y-103100476D01*
X145163390Y-103100476D02*
X145544342Y-103100476D01*
X145544342Y-103100476D02*
X145639580Y-103148095D01*
X145639580Y-103148095D02*
X145687200Y-103195714D01*
X145687200Y-103195714D02*
X145734819Y-103290952D01*
X145734819Y-103290952D02*
X145734819Y-103481428D01*
X145734819Y-103481428D02*
X145687200Y-103576666D01*
X145687200Y-103576666D02*
X145639580Y-103624285D01*
X145639580Y-103624285D02*
X145544342Y-103671904D01*
X145544342Y-103671904D02*
X145306247Y-103671904D01*
X145306247Y-103671904D02*
X145211009Y-103624285D01*
X145211009Y-103624285D02*
X145163390Y-103576666D01*
X145163390Y-103576666D02*
X145115771Y-103481428D01*
X145115771Y-103481428D02*
X145115771Y-103290952D01*
X145115771Y-103290952D02*
X145163390Y-103195714D01*
X145163390Y-103195714D02*
X145211009Y-103148095D01*
X145211009Y-103148095D02*
X145306247Y-103100476D01*
X106286666Y-102669580D02*
X106334285Y-102717200D01*
X106334285Y-102717200D02*
X106477142Y-102764819D01*
X106477142Y-102764819D02*
X106572380Y-102764819D01*
X106572380Y-102764819D02*
X106715237Y-102717200D01*
X106715237Y-102717200D02*
X106810475Y-102621961D01*
X106810475Y-102621961D02*
X106858094Y-102526723D01*
X106858094Y-102526723D02*
X106905713Y-102336247D01*
X106905713Y-102336247D02*
X106905713Y-102193390D01*
X106905713Y-102193390D02*
X106858094Y-102002914D01*
X106858094Y-102002914D02*
X106810475Y-101907676D01*
X106810475Y-101907676D02*
X106715237Y-101812438D01*
X106715237Y-101812438D02*
X106572380Y-101764819D01*
X106572380Y-101764819D02*
X106477142Y-101764819D01*
X106477142Y-101764819D02*
X106334285Y-101812438D01*
X106334285Y-101812438D02*
X106286666Y-101860057D01*
X105715237Y-102193390D02*
X105810475Y-102145771D01*
X105810475Y-102145771D02*
X105858094Y-102098152D01*
X105858094Y-102098152D02*
X105905713Y-102002914D01*
X105905713Y-102002914D02*
X105905713Y-101955295D01*
X105905713Y-101955295D02*
X105858094Y-101860057D01*
X105858094Y-101860057D02*
X105810475Y-101812438D01*
X105810475Y-101812438D02*
X105715237Y-101764819D01*
X105715237Y-101764819D02*
X105524761Y-101764819D01*
X105524761Y-101764819D02*
X105429523Y-101812438D01*
X105429523Y-101812438D02*
X105381904Y-101860057D01*
X105381904Y-101860057D02*
X105334285Y-101955295D01*
X105334285Y-101955295D02*
X105334285Y-102002914D01*
X105334285Y-102002914D02*
X105381904Y-102098152D01*
X105381904Y-102098152D02*
X105429523Y-102145771D01*
X105429523Y-102145771D02*
X105524761Y-102193390D01*
X105524761Y-102193390D02*
X105715237Y-102193390D01*
X105715237Y-102193390D02*
X105810475Y-102241009D01*
X105810475Y-102241009D02*
X105858094Y-102288628D01*
X105858094Y-102288628D02*
X105905713Y-102383866D01*
X105905713Y-102383866D02*
X105905713Y-102574342D01*
X105905713Y-102574342D02*
X105858094Y-102669580D01*
X105858094Y-102669580D02*
X105810475Y-102717200D01*
X105810475Y-102717200D02*
X105715237Y-102764819D01*
X105715237Y-102764819D02*
X105524761Y-102764819D01*
X105524761Y-102764819D02*
X105429523Y-102717200D01*
X105429523Y-102717200D02*
X105381904Y-102669580D01*
X105381904Y-102669580D02*
X105334285Y-102574342D01*
X105334285Y-102574342D02*
X105334285Y-102383866D01*
X105334285Y-102383866D02*
X105381904Y-102288628D01*
X105381904Y-102288628D02*
X105429523Y-102241009D01*
X105429523Y-102241009D02*
X105524761Y-102193390D01*
X134504819Y-103357142D02*
X134028628Y-103023809D01*
X134504819Y-102785714D02*
X133504819Y-102785714D01*
X133504819Y-102785714D02*
X133504819Y-103166666D01*
X133504819Y-103166666D02*
X133552438Y-103261904D01*
X133552438Y-103261904D02*
X133600057Y-103309523D01*
X133600057Y-103309523D02*
X133695295Y-103357142D01*
X133695295Y-103357142D02*
X133838152Y-103357142D01*
X133838152Y-103357142D02*
X133933390Y-103309523D01*
X133933390Y-103309523D02*
X133981009Y-103261904D01*
X133981009Y-103261904D02*
X134028628Y-103166666D01*
X134028628Y-103166666D02*
X134028628Y-102785714D01*
X133600057Y-103738095D02*
X133552438Y-103785714D01*
X133552438Y-103785714D02*
X133504819Y-103880952D01*
X133504819Y-103880952D02*
X133504819Y-104119047D01*
X133504819Y-104119047D02*
X133552438Y-104214285D01*
X133552438Y-104214285D02*
X133600057Y-104261904D01*
X133600057Y-104261904D02*
X133695295Y-104309523D01*
X133695295Y-104309523D02*
X133790533Y-104309523D01*
X133790533Y-104309523D02*
X133933390Y-104261904D01*
X133933390Y-104261904D02*
X134504819Y-103690476D01*
X134504819Y-103690476D02*
X134504819Y-104309523D01*
X133504819Y-104928571D02*
X133504819Y-105023809D01*
X133504819Y-105023809D02*
X133552438Y-105119047D01*
X133552438Y-105119047D02*
X133600057Y-105166666D01*
X133600057Y-105166666D02*
X133695295Y-105214285D01*
X133695295Y-105214285D02*
X133885771Y-105261904D01*
X133885771Y-105261904D02*
X134123866Y-105261904D01*
X134123866Y-105261904D02*
X134314342Y-105214285D01*
X134314342Y-105214285D02*
X134409580Y-105166666D01*
X134409580Y-105166666D02*
X134457200Y-105119047D01*
X134457200Y-105119047D02*
X134504819Y-105023809D01*
X134504819Y-105023809D02*
X134504819Y-104928571D01*
X134504819Y-104928571D02*
X134457200Y-104833333D01*
X134457200Y-104833333D02*
X134409580Y-104785714D01*
X134409580Y-104785714D02*
X134314342Y-104738095D01*
X134314342Y-104738095D02*
X134123866Y-104690476D01*
X134123866Y-104690476D02*
X133885771Y-104690476D01*
X133885771Y-104690476D02*
X133695295Y-104738095D01*
X133695295Y-104738095D02*
X133600057Y-104785714D01*
X133600057Y-104785714D02*
X133552438Y-104833333D01*
X133552438Y-104833333D02*
X133504819Y-104928571D01*
X143194819Y-100537142D02*
X142718628Y-100203809D01*
X143194819Y-99965714D02*
X142194819Y-99965714D01*
X142194819Y-99965714D02*
X142194819Y-100346666D01*
X142194819Y-100346666D02*
X142242438Y-100441904D01*
X142242438Y-100441904D02*
X142290057Y-100489523D01*
X142290057Y-100489523D02*
X142385295Y-100537142D01*
X142385295Y-100537142D02*
X142528152Y-100537142D01*
X142528152Y-100537142D02*
X142623390Y-100489523D01*
X142623390Y-100489523D02*
X142671009Y-100441904D01*
X142671009Y-100441904D02*
X142718628Y-100346666D01*
X142718628Y-100346666D02*
X142718628Y-99965714D01*
X143194819Y-101489523D02*
X143194819Y-100918095D01*
X143194819Y-101203809D02*
X142194819Y-101203809D01*
X142194819Y-101203809D02*
X142337676Y-101108571D01*
X142337676Y-101108571D02*
X142432914Y-101013333D01*
X142432914Y-101013333D02*
X142480533Y-100918095D01*
X142623390Y-102060952D02*
X142575771Y-101965714D01*
X142575771Y-101965714D02*
X142528152Y-101918095D01*
X142528152Y-101918095D02*
X142432914Y-101870476D01*
X142432914Y-101870476D02*
X142385295Y-101870476D01*
X142385295Y-101870476D02*
X142290057Y-101918095D01*
X142290057Y-101918095D02*
X142242438Y-101965714D01*
X142242438Y-101965714D02*
X142194819Y-102060952D01*
X142194819Y-102060952D02*
X142194819Y-102251428D01*
X142194819Y-102251428D02*
X142242438Y-102346666D01*
X142242438Y-102346666D02*
X142290057Y-102394285D01*
X142290057Y-102394285D02*
X142385295Y-102441904D01*
X142385295Y-102441904D02*
X142432914Y-102441904D01*
X142432914Y-102441904D02*
X142528152Y-102394285D01*
X142528152Y-102394285D02*
X142575771Y-102346666D01*
X142575771Y-102346666D02*
X142623390Y-102251428D01*
X142623390Y-102251428D02*
X142623390Y-102060952D01*
X142623390Y-102060952D02*
X142671009Y-101965714D01*
X142671009Y-101965714D02*
X142718628Y-101918095D01*
X142718628Y-101918095D02*
X142813866Y-101870476D01*
X142813866Y-101870476D02*
X143004342Y-101870476D01*
X143004342Y-101870476D02*
X143099580Y-101918095D01*
X143099580Y-101918095D02*
X143147200Y-101965714D01*
X143147200Y-101965714D02*
X143194819Y-102060952D01*
X143194819Y-102060952D02*
X143194819Y-102251428D01*
X143194819Y-102251428D02*
X143147200Y-102346666D01*
X143147200Y-102346666D02*
X143099580Y-102394285D01*
X143099580Y-102394285D02*
X143004342Y-102441904D01*
X143004342Y-102441904D02*
X142813866Y-102441904D01*
X142813866Y-102441904D02*
X142718628Y-102394285D01*
X142718628Y-102394285D02*
X142671009Y-102346666D01*
X142671009Y-102346666D02*
X142623390Y-102251428D01*
D15*
%TO.C,R13*%
X117946359Y-104020000D02*
X118253641Y-104020000D01*
X117946359Y-104780000D02*
X118253641Y-104780000D01*
%TO.C,C12*%
X130890000Y-100588748D02*
X130890000Y-102011252D01*
X132710000Y-100588748D02*
X132710000Y-102011252D01*
%TO.C,R17*%
X149820000Y-98796359D02*
X149820000Y-99103641D01*
X150580000Y-98796359D02*
X150580000Y-99103641D01*
%TO.C,R10*%
X118253641Y-103020000D02*
X117946359Y-103020000D01*
X118253641Y-103780000D02*
X117946359Y-103780000D01*
%TO.C,U1*%
X108065000Y-101300000D02*
X108065000Y-99350000D01*
X108065000Y-101300000D02*
X108065000Y-103250000D01*
X116935000Y-101300000D02*
X116935000Y-99350000D01*
X116935000Y-101300000D02*
X116935000Y-103250000D01*
X108700000Y-97540000D02*
X108460000Y-97210000D01*
X108940000Y-97210000D01*
X108700000Y-97540000D01*
G36*
X108700000Y-97540000D02*
G01*
X108460000Y-97210000D01*
X108940000Y-97210000D01*
X108700000Y-97540000D01*
G37*
%TO.C,D1*%
X140700000Y-97840000D02*
X141900000Y-97840000D01*
X140700000Y-99800000D02*
X140700000Y-97840000D01*
X141900000Y-99800000D02*
X141900000Y-97840000D01*
%TO.C,R6*%
X118253641Y-98020000D02*
X117946359Y-98020000D01*
X118253641Y-98780000D02*
X117946359Y-98780000D01*
%TO.C,D3*%
X137300000Y-98840000D02*
X138500000Y-98840000D01*
X137300000Y-100800000D02*
X137300000Y-98840000D01*
X138500000Y-100800000D02*
X138500000Y-98840000D01*
%TO.C,C13*%
X134990000Y-100588748D02*
X134990000Y-102011252D01*
X136810000Y-100588748D02*
X136810000Y-102011252D01*
%TO.C,R4*%
X106020000Y-100346359D02*
X106020000Y-100653641D01*
X106780000Y-100346359D02*
X106780000Y-100653641D01*
%TO.C,C11*%
X128540000Y-102011252D02*
X128540000Y-100588748D01*
X130360000Y-102011252D02*
X130360000Y-100588748D01*
%TO.C,C6*%
X119240000Y-98707836D02*
X119240000Y-98492164D01*
X119960000Y-98707836D02*
X119960000Y-98492164D01*
%TO.C,R11*%
X117220000Y-101746359D02*
X117220000Y-102053641D01*
X117980000Y-101746359D02*
X117980000Y-102053641D01*
%TO.C,R5*%
X106746359Y-97620000D02*
X107053641Y-97620000D01*
X106746359Y-98380000D02*
X107053641Y-98380000D01*
%TO.C,R7*%
X104620000Y-103946359D02*
X104620000Y-104253641D01*
X105380000Y-103946359D02*
X105380000Y-104253641D01*
%TO.C,J1*%
X95070000Y-103770000D02*
X95070000Y-103830000D01*
X97730000Y-101170000D02*
X96400000Y-101170000D01*
X97730000Y-102500000D02*
X97730000Y-101170000D01*
X97730000Y-103770000D02*
X95070000Y-103770000D01*
X97730000Y-103770000D02*
X97730000Y-103830000D01*
X97730000Y-103830000D02*
X95070000Y-103830000D01*
%TO.C,C3*%
X105792164Y-98640000D02*
X106007836Y-98640000D01*
X105792164Y-99360000D02*
X106007836Y-99360000D01*
%TO.C,R15*%
X122246359Y-104020000D02*
X122553641Y-104020000D01*
X122246359Y-104780000D02*
X122553641Y-104780000D01*
%TO.C,R9*%
X107053641Y-103120000D02*
X106746359Y-103120000D01*
X107053641Y-103880000D02*
X106746359Y-103880000D01*
%TO.C,R23*%
X146320000Y-98746359D02*
X146320000Y-99053641D01*
X147080000Y-98746359D02*
X147080000Y-99053641D01*
%TO.C,R3*%
X119946359Y-99720000D02*
X120253641Y-99720000D01*
X119946359Y-100480000D02*
X120253641Y-100480000D01*
%TO.C,D2*%
X137300000Y-101900000D02*
X137300000Y-103860000D01*
X138500000Y-101900000D02*
X138500000Y-103860000D01*
X138500000Y-103860000D02*
X137300000Y-103860000D01*
%TO.C,R8*%
X107053641Y-104120000D02*
X106746359Y-104120000D01*
X107053641Y-104880000D02*
X106746359Y-104880000D01*
%TO.C,R22*%
X145120000Y-98746359D02*
X145120000Y-99053641D01*
X145880000Y-98746359D02*
X145880000Y-99053641D01*
%TO.C,R19*%
X143220000Y-99053641D02*
X143220000Y-98746359D01*
X143980000Y-99053641D02*
X143980000Y-98746359D01*
%TO.C,R14*%
X119946359Y-104020000D02*
X120253641Y-104020000D01*
X119946359Y-104780000D02*
X120253641Y-104780000D01*
%TO.C,R21*%
X148220000Y-99053641D02*
X148220000Y-98746359D01*
X148980000Y-99053641D02*
X148980000Y-98746359D01*
%TO.C,R2*%
X119220000Y-102053641D02*
X119220000Y-101746359D01*
X119980000Y-102053641D02*
X119980000Y-101746359D01*
%TO.C,C5*%
X117992164Y-99140000D02*
X118207836Y-99140000D01*
X117992164Y-99860000D02*
X118207836Y-99860000D01*
%TO.C,R16*%
X144846359Y-100120000D02*
X145153641Y-100120000D01*
X144846359Y-100880000D02*
X145153641Y-100880000D01*
%TO.C,C8*%
X107040000Y-101492164D02*
X107040000Y-101707836D01*
X107760000Y-101492164D02*
X107760000Y-101707836D01*
%TO.C,C4*%
X107040000Y-99392164D02*
X107040000Y-99607836D01*
X107760000Y-99392164D02*
X107760000Y-99607836D01*
%TO.C,R20*%
X133520000Y-101146359D02*
X133520000Y-101453641D01*
X134280000Y-101146359D02*
X134280000Y-101453641D01*
%TO.C,R12*%
X118220000Y-101746359D02*
X118220000Y-102053641D01*
X118980000Y-101746359D02*
X118980000Y-102053641D01*
%TO.C,R18*%
X142120000Y-98746359D02*
X142120000Y-99053641D01*
X142880000Y-98746359D02*
X142880000Y-99053641D01*
%TD*%
M02*
