%TF.GenerationSoftware,KiCad,Pcbnew,9.0.0*%
%TF.CreationDate,2026-01-05T19:47:58-08:00*%
%TF.ProjectId,ref_mic,7265665f-6d69-4632-9e6b-696361645f70,rev?*%
%TF.SameCoordinates,Original*%
%TF.FileFunction,Copper,L4,Bot*%
%TF.FilePolarity,Positive*%
%FSLAX46Y46*%
G04 Gerber Fmt 4.6, Leading zero omitted, Abs format (unit mm)*
G04 Created by KiCad (PCBNEW 9.0.0) date 2026-01-05 19:47:58*
%MOMM*%
%LPD*%
G01*
G04 APERTURE LIST*
G04 Aperture macros list*
%AMRoundRect*
0 Rectangle with rounded corners*
0 $1 Rounding radius*
0 $2 $3 $4 $5 $6 $7 $8 $9 X,Y pos of 4 corners*
0 Add a 4 corners polygon primitive as box body*
4,1,4,$2,$3,$4,$5,$6,$7,$8,$9,$2,$3,0*
0 Add four circle primitives for the rounded corners*
1,1,$1+$1,$2,$3*
1,1,$1+$1,$4,$5*
1,1,$1+$1,$6,$7*
1,1,$1+$1,$8,$9*
0 Add four rect primitives between the rounded corners*
20,1,$1+$1,$2,$3,$4,$5,0*
20,1,$1+$1,$4,$5,$6,$7,0*
20,1,$1+$1,$6,$7,$8,$9,0*
20,1,$1+$1,$8,$9,$2,$3,0*%
G04 Aperture macros list end*
%TA.AperFunction,SMDPad,CuDef*%
%ADD10RoundRect,0.225000X-1.775000X-0.525000X1.775000X-0.525000X1.775000X0.525000X-1.775000X0.525000X0*%
%TD*%
%TA.AperFunction,ComponentPad*%
%ADD11R,1.700000X1.700000*%
%TD*%
%TA.AperFunction,ComponentPad*%
%ADD12O,1.700000X1.700000*%
%TD*%
%TA.AperFunction,SMDPad,CuDef*%
%ADD13RoundRect,0.135000X-0.135000X-0.185000X0.135000X-0.185000X0.135000X0.185000X-0.135000X0.185000X0*%
%TD*%
%TA.AperFunction,SMDPad,CuDef*%
%ADD14RoundRect,0.250000X-0.650000X0.325000X-0.650000X-0.325000X0.650000X-0.325000X0.650000X0.325000X0*%
%TD*%
%TA.AperFunction,SMDPad,CuDef*%
%ADD15RoundRect,0.135000X-0.185000X0.135000X-0.185000X-0.135000X0.185000X-0.135000X0.185000X0.135000X0*%
%TD*%
%TA.AperFunction,SMDPad,CuDef*%
%ADD16RoundRect,0.135000X0.135000X0.185000X-0.135000X0.185000X-0.135000X-0.185000X0.135000X-0.185000X0*%
%TD*%
%TA.AperFunction,SMDPad,CuDef*%
%ADD17RoundRect,0.150000X-0.150000X0.825000X-0.150000X-0.825000X0.150000X-0.825000X0.150000X0.825000X0*%
%TD*%
%TA.AperFunction,SMDPad,CuDef*%
%ADD18RoundRect,0.150000X0.200000X-0.150000X0.200000X0.150000X-0.200000X0.150000X-0.200000X-0.150000X0*%
%TD*%
%TA.AperFunction,SMDPad,CuDef*%
%ADD19RoundRect,0.250000X0.650000X-0.325000X0.650000X0.325000X-0.650000X0.325000X-0.650000X-0.325000X0*%
%TD*%
%TA.AperFunction,SMDPad,CuDef*%
%ADD20RoundRect,0.140000X0.170000X-0.140000X0.170000X0.140000X-0.170000X0.140000X-0.170000X-0.140000X0*%
%TD*%
%TA.AperFunction,SMDPad,CuDef*%
%ADD21RoundRect,0.140000X-0.140000X-0.170000X0.140000X-0.170000X0.140000X0.170000X-0.140000X0.170000X0*%
%TD*%
%TA.AperFunction,SMDPad,CuDef*%
%ADD22RoundRect,0.150000X-0.200000X0.150000X-0.200000X-0.150000X0.200000X-0.150000X0.200000X0.150000X0*%
%TD*%
%TA.AperFunction,SMDPad,CuDef*%
%ADD23RoundRect,0.135000X0.185000X-0.135000X0.185000X0.135000X-0.185000X0.135000X-0.185000X-0.135000X0*%
%TD*%
%TA.AperFunction,SMDPad,CuDef*%
%ADD24RoundRect,0.140000X-0.170000X0.140000X-0.170000X-0.140000X0.170000X-0.140000X0.170000X0.140000X0*%
%TD*%
%TA.AperFunction,ViaPad*%
%ADD25C,3.400000*%
%TD*%
%TA.AperFunction,ViaPad*%
%ADD26C,0.450000*%
%TD*%
%TA.AperFunction,Conductor*%
%ADD27C,0.250000*%
%TD*%
%TA.AperFunction,Conductor*%
%ADD28C,0.200000*%
%TD*%
G04 APERTURE END LIST*
D10*
%TO.P,J2,2*%
%TO.N,/XLR2(+)*%
X149800000Y-101300000D03*
%TD*%
D11*
%TO.P,MK1,1,-*%
%TO.N,GND*%
X93800000Y-100000000D03*
D12*
%TO.P,MK1,2,+*%
%TO.N,/MIC+*%
X93800000Y-102540000D03*
%TD*%
D13*
%TO.P,R13,1*%
%TO.N,/MIX_IN*%
X117590000Y-104400000D03*
%TO.P,R13,2*%
%TO.N,/MIX_OUT*%
X118610000Y-104400000D03*
%TD*%
D14*
%TO.P,C12,1*%
%TO.N,VGND*%
X131800000Y-99825000D03*
%TO.P,C12,2*%
%TO.N,GND*%
X131800000Y-102775000D03*
%TD*%
D15*
%TO.P,R17,1*%
%TO.N,Net-(C10-Pad1)*%
X150200000Y-98440000D03*
%TO.P,R17,2*%
%TO.N,/XLR3(-)*%
X150200000Y-99460000D03*
%TD*%
D16*
%TO.P,R10,1*%
%TO.N,/PREAMP_OUT*%
X118610000Y-103400000D03*
%TO.P,R10,2*%
%TO.N,/MIX_IN*%
X117590000Y-103400000D03*
%TD*%
D17*
%TO.P,U1,1*%
%TO.N,/HP_OUT*%
X108690000Y-98825000D03*
%TO.P,U1,2,-*%
X109960000Y-98825000D03*
%TO.P,U1,3,+*%
%TO.N,/HP_IN*%
X111230000Y-98825000D03*
%TO.P,U1,4,V+*%
%TO.N,AMP_VDD*%
X112500000Y-98825000D03*
%TO.P,U1,5,+*%
%TO.N,VGND*%
X113770000Y-98825000D03*
%TO.P,U1,6,-*%
%TO.N,/BP_IN*%
X115040000Y-98825000D03*
%TO.P,U1,7*%
%TO.N,/BP_OUT*%
X116310000Y-98825000D03*
%TO.P,U1,8*%
%TO.N,/MIX_OUT*%
X116310000Y-103775000D03*
%TO.P,U1,9,-*%
%TO.N,/MIX_IN*%
X115040000Y-103775000D03*
%TO.P,U1,10,+*%
%TO.N,VGND*%
X113770000Y-103775000D03*
%TO.P,U1,11,V-*%
%TO.N,GND*%
X112500000Y-103775000D03*
%TO.P,U1,12,+*%
%TO.N,/PREAMP_IN*%
X111230000Y-103775000D03*
%TO.P,U1,13,-*%
%TO.N,/PREAMP_FB*%
X109960000Y-103775000D03*
%TO.P,U1,14*%
%TO.N,/PREAMP_OUT*%
X108690000Y-103775000D03*
%TD*%
D18*
%TO.P,D1,1,K*%
%TO.N,AMP_VDD*%
X141300000Y-98400000D03*
%TO.P,D1,2,A*%
%TO.N,/OUT+*%
X141300000Y-99800000D03*
%TD*%
D16*
%TO.P,R6,1*%
%TO.N,/BP_IN*%
X118610000Y-98400000D03*
%TO.P,R6,2*%
%TO.N,/BP_OUT*%
X117590000Y-98400000D03*
%TD*%
D18*
%TO.P,D3,1,K*%
%TO.N,MICBIAS*%
X137900000Y-99400000D03*
%TO.P,D3,2,A*%
%TO.N,GND*%
X137900000Y-100800000D03*
%TD*%
D14*
%TO.P,C13,1*%
%TO.N,MICBIAS*%
X135900000Y-99825000D03*
%TO.P,C13,2*%
%TO.N,GND*%
X135900000Y-102775000D03*
%TD*%
D15*
%TO.P,R4,1*%
%TO.N,/HP_IN*%
X106400000Y-99990000D03*
%TO.P,R4,2*%
%TO.N,VGND*%
X106400000Y-101010000D03*
%TD*%
D19*
%TO.P,C11,1*%
%TO.N,AMP_VDD*%
X129450000Y-102775000D03*
%TO.P,C11,2*%
%TO.N,VGND*%
X129450000Y-99825000D03*
%TD*%
D20*
%TO.P,C6,1*%
%TO.N,/BP_FB*%
X119600000Y-99080000D03*
%TO.P,C6,2*%
%TO.N,/BP_IN*%
X119600000Y-98120000D03*
%TD*%
D15*
%TO.P,R11,1*%
%TO.N,/HP_OUT*%
X117600000Y-101390000D03*
%TO.P,R11,2*%
%TO.N,/MIX_IN*%
X117600000Y-102410000D03*
%TD*%
D13*
%TO.P,R5,1*%
%TO.N,/HP_FB*%
X106390000Y-98000000D03*
%TO.P,R5,2*%
%TO.N,/HP_OUT*%
X107410000Y-98000000D03*
%TD*%
D15*
%TO.P,R7,1*%
%TO.N,/PREAMP_IN*%
X105000000Y-103590000D03*
%TO.P,R7,2*%
%TO.N,VGND*%
X105000000Y-104610000D03*
%TD*%
D11*
%TO.P,J1,1,Pin_1*%
%TO.N,MICBIAS*%
X96400000Y-102500000D03*
%TD*%
D21*
%TO.P,C3,1*%
%TO.N,/PREAMP_OUT*%
X105420000Y-99000000D03*
%TO.P,C3,2*%
%TO.N,/HP_FB*%
X106380000Y-99000000D03*
%TD*%
D13*
%TO.P,R15,1*%
%TO.N,/OUT-*%
X121890000Y-104400000D03*
%TO.P,R15,2*%
%TO.N,GND*%
X122910000Y-104400000D03*
%TD*%
D16*
%TO.P,R9,1*%
%TO.N,/PREAMP_FB*%
X107410000Y-103500000D03*
%TO.P,R9,2*%
%TO.N,/PREAMP_OUT*%
X106390000Y-103500000D03*
%TD*%
D15*
%TO.P,R23,1*%
%TO.N,MICBIAS*%
X146700000Y-98390000D03*
%TO.P,R23,2*%
%TO.N,/XLR3(-)*%
X146700000Y-99410000D03*
%TD*%
D13*
%TO.P,R3,1*%
%TO.N,/BP_FB*%
X119590000Y-100100000D03*
%TO.P,R3,2*%
%TO.N,VGND*%
X120610000Y-100100000D03*
%TD*%
D22*
%TO.P,D2,1,K*%
%TO.N,AMP_VDD*%
X137900000Y-103300000D03*
%TO.P,D2,2,A*%
%TO.N,GND*%
X137900000Y-101900000D03*
%TD*%
D16*
%TO.P,R8,1*%
%TO.N,/PREAMP_FB*%
X107410000Y-104500000D03*
%TO.P,R8,2*%
%TO.N,Net-(C7-Pad1)*%
X106390000Y-104500000D03*
%TD*%
D15*
%TO.P,R22,1*%
%TO.N,MICBIAS*%
X145500000Y-98390000D03*
%TO.P,R22,2*%
%TO.N,/XLR2(+)*%
X145500000Y-99410000D03*
%TD*%
D23*
%TO.P,R19,1*%
%TO.N,/XLR2(+)*%
X143600000Y-99410000D03*
%TO.P,R19,2*%
%TO.N,AMP_VDD*%
X143600000Y-98390000D03*
%TD*%
D13*
%TO.P,R14,1*%
%TO.N,/MIX_OUT*%
X119590000Y-104400000D03*
%TO.P,R14,2*%
%TO.N,/OUT-*%
X120610000Y-104400000D03*
%TD*%
D23*
%TO.P,R21,1*%
%TO.N,/XLR3(-)*%
X148600000Y-99410000D03*
%TO.P,R21,2*%
%TO.N,AMP_VDD*%
X148600000Y-98390000D03*
%TD*%
%TO.P,R2,1*%
%TO.N,/PREAMP_OUT*%
X119600000Y-102410000D03*
%TO.P,R2,2*%
%TO.N,/BP_FB*%
X119600000Y-101390000D03*
%TD*%
D21*
%TO.P,C5,1*%
%TO.N,/BP_OUT*%
X117620000Y-99500000D03*
%TO.P,C5,2*%
%TO.N,/BP_FB*%
X118580000Y-99500000D03*
%TD*%
D13*
%TO.P,R16,1*%
%TO.N,Net-(C9-Pad1)*%
X144490000Y-100500000D03*
%TO.P,R16,2*%
%TO.N,/XLR2(+)*%
X145510000Y-100500000D03*
%TD*%
D24*
%TO.P,C8,1*%
%TO.N,AMP_VDD*%
X107400000Y-101120000D03*
%TO.P,C8,2*%
%TO.N,GND*%
X107400000Y-102080000D03*
%TD*%
%TO.P,C4,1*%
%TO.N,/HP_FB*%
X107400000Y-99020000D03*
%TO.P,C4,2*%
%TO.N,/HP_IN*%
X107400000Y-99980000D03*
%TD*%
D15*
%TO.P,R20,1*%
%TO.N,VGND*%
X133900000Y-100790000D03*
%TO.P,R20,2*%
%TO.N,GND*%
X133900000Y-101810000D03*
%TD*%
%TO.P,R12,1*%
%TO.N,/BP_OUT*%
X118600000Y-101390000D03*
%TO.P,R12,2*%
%TO.N,/MIX_IN*%
X118600000Y-102410000D03*
%TD*%
%TO.P,R18,1*%
%TO.N,AMP_VDD*%
X142500000Y-98390000D03*
%TO.P,R18,2*%
%TO.N,VGND*%
X142500000Y-99410000D03*
%TD*%
D25*
%TO.N,*%
X101100000Y-101300000D03*
D26*
%TO.N,GND*%
X123700000Y-104400000D03*
X113825000Y-102200000D03*
X108900000Y-100725000D03*
X133900000Y-102400000D03*
X106575000Y-102451076D03*
X137850000Y-102550000D03*
X137200000Y-102700000D03*
X138500000Y-100100000D03*
X133100000Y-102800000D03*
X149800000Y-104000000D03*
%TO.N,Net-(C7-Pad1)*%
X105800000Y-104500000D03*
%TO.N,/XLR3(-)*%
X150945000Y-98548142D03*
%TO.N,/PREAMP_IN*%
X110800000Y-102600000D03*
X105000000Y-103000000D03*
%TO.N,/PREAMP_OUT*%
X139300000Y-103500000D03*
X119300000Y-103400000D03*
X115700000Y-101500000D03*
%TO.N,AMP_VDD*%
X144600000Y-98400000D03*
X124725000Y-98325000D03*
X147900000Y-98400000D03*
X113000000Y-97700000D03*
%TO.N,Net-(C9-Pad1)*%
X143400000Y-101000000D03*
%TO.N,/OUT+*%
X140600000Y-99600000D03*
%TO.N,/OUT-*%
X121200000Y-104400000D03*
%TO.N,Net-(C10-Pad1)*%
X149800000Y-97800000D03*
%TO.N,VGND*%
X104500000Y-104200000D03*
X131800000Y-98900000D03*
X129500000Y-98900000D03*
X120600000Y-99400000D03*
X114417341Y-102550000D03*
X133900000Y-100200000D03*
X142499834Y-100221591D03*
X113825000Y-100200000D03*
X105700000Y-101000000D03*
%TO.N,MICBIAS*%
X134400000Y-103000000D03*
%TO.N,/HP_OUT*%
X109866025Y-100133975D03*
X111536345Y-100993791D03*
%TO.N,/MIX_OUT*%
X144300000Y-103500000D03*
%TD*%
D27*
%TO.N,GND*%
X113825000Y-102200000D02*
X113625000Y-102200000D01*
X131800000Y-102775000D02*
X133075000Y-102775000D01*
X138500000Y-100100000D02*
X138500000Y-100190459D01*
X113625000Y-102200000D02*
X112500000Y-103325000D01*
X133900000Y-101810000D02*
X133900000Y-102400000D01*
X106575000Y-102451076D02*
X106575000Y-102425000D01*
X122910000Y-104400000D02*
X123700000Y-104400000D01*
X106575000Y-102425000D02*
X106920000Y-102080000D01*
X133075000Y-102775000D02*
X133100000Y-102800000D01*
X137175000Y-102675000D02*
X137200000Y-102700000D01*
X137900000Y-102500000D02*
X137850000Y-102550000D01*
X138500000Y-100190459D02*
X137900000Y-100790459D01*
X137900000Y-101900000D02*
X137900000Y-102500000D01*
X137900000Y-100790459D02*
X137900000Y-100800000D01*
X112500000Y-103325000D02*
X112500000Y-103775000D01*
X106920000Y-102080000D02*
X107400000Y-102080000D01*
X135900000Y-102675000D02*
X137175000Y-102675000D01*
%TO.N,Net-(C7-Pad1)*%
X106390000Y-104500000D02*
X105800000Y-104500000D01*
%TO.N,/XLR2(+)*%
X145510000Y-100500000D02*
X145510000Y-99420000D01*
X148500000Y-101300000D02*
X147700000Y-100500000D01*
X145510000Y-99420000D02*
X145500000Y-99410000D01*
X145500000Y-99410000D02*
X143600000Y-99410000D01*
X149800000Y-101300000D02*
X148500000Y-101300000D01*
X147700000Y-100500000D02*
X145510000Y-100500000D01*
%TO.N,/XLR3(-)*%
X150945000Y-98715000D02*
X150200000Y-99460000D01*
X148650000Y-99460000D02*
X148600000Y-99410000D01*
X150200000Y-99460000D02*
X148650000Y-99460000D01*
X150945000Y-98548142D02*
X150945000Y-98715000D01*
X148600000Y-99410000D02*
X146700000Y-99410000D01*
%TO.N,/PREAMP_IN*%
X110800000Y-102600000D02*
X111230000Y-103030000D01*
X111230000Y-103030000D02*
X111230000Y-103775000D01*
X105000000Y-103000000D02*
X105000000Y-103590000D01*
%TO.N,/PREAMP_OUT*%
X138600000Y-104200000D02*
X125200000Y-104200000D01*
X105420000Y-99000000D02*
X104900000Y-99520000D01*
X119300000Y-103400000D02*
X119600000Y-103100000D01*
X104900000Y-99520000D02*
X104900000Y-101000000D01*
X108354000Y-102854000D02*
X108690000Y-103190000D01*
X104900000Y-101000000D02*
X106024000Y-102124000D01*
X125200000Y-104200000D02*
X124100000Y-103100000D01*
X107036000Y-102854000D02*
X108354000Y-102854000D01*
X106024000Y-102124000D02*
X106024000Y-103024000D01*
X139300000Y-103500000D02*
X138600000Y-104200000D01*
X108690000Y-103190000D02*
X108690000Y-103775000D01*
X115700000Y-101500000D02*
X113500000Y-101500000D01*
X118610000Y-103400000D02*
X119300000Y-103400000D01*
X109974000Y-101826000D02*
X108690000Y-103110000D01*
X108690000Y-103110000D02*
X108690000Y-103775000D01*
X106390000Y-103500000D02*
X107036000Y-102854000D01*
X113174000Y-101826000D02*
X109974000Y-101826000D01*
X106024000Y-103024000D02*
X106390000Y-103390000D01*
X106390000Y-103390000D02*
X106390000Y-103500000D01*
X113500000Y-101500000D02*
X113174000Y-101826000D01*
X119600000Y-103100000D02*
X119600000Y-102410000D01*
X124100000Y-103100000D02*
X119600000Y-103100000D01*
D28*
%TO.N,/HP_FB*%
X106380000Y-98800000D02*
X106380000Y-99000000D01*
X106390000Y-98000000D02*
X106390000Y-98790000D01*
D27*
X106380000Y-99000000D02*
X107380000Y-99000000D01*
X107380000Y-99000000D02*
X107400000Y-99020000D01*
D28*
X106390000Y-98790000D02*
X106380000Y-98800000D01*
D27*
%TO.N,/HP_IN*%
X111230000Y-99570000D02*
X111230000Y-98825000D01*
X109654232Y-100700000D02*
X110100000Y-100700000D01*
X107400000Y-99980000D02*
X107594000Y-100174000D01*
X106400000Y-99990000D02*
X107390000Y-99990000D01*
X107594000Y-100174000D02*
X109128232Y-100174000D01*
X109128232Y-100174000D02*
X109654232Y-100700000D01*
X107390000Y-99990000D02*
X107400000Y-99980000D01*
X110100000Y-100700000D02*
X111230000Y-99570000D01*
%TO.N,/BP_FB*%
X118980000Y-99100000D02*
X119580000Y-99100000D01*
X118580000Y-99500000D02*
X118980000Y-99100000D01*
X119590000Y-100100000D02*
X119590000Y-101380000D01*
X119580000Y-99100000D02*
X119600000Y-99080000D01*
X119590000Y-101380000D02*
X119600000Y-101390000D01*
X119600000Y-99080000D02*
X119600000Y-100090000D01*
X119600000Y-100090000D02*
X119590000Y-100100000D01*
%TO.N,/BP_OUT*%
X116985000Y-99500000D02*
X116310000Y-98825000D01*
X117620000Y-98430000D02*
X117620000Y-99500000D01*
X117620000Y-99500000D02*
X116985000Y-99500000D01*
X117590000Y-98400000D02*
X117620000Y-98430000D01*
X117620000Y-99500000D02*
X117620000Y-100410000D01*
X117620000Y-100410000D02*
X118600000Y-101390000D01*
%TO.N,/BP_IN*%
X118610000Y-98140000D02*
X118610000Y-98400000D01*
X119600000Y-98120000D02*
X118630000Y-98120000D01*
X118610000Y-98100000D02*
X118034000Y-97524000D01*
X115040000Y-98442678D02*
X115040000Y-98825000D01*
X118610000Y-98400000D02*
X118610000Y-98100000D01*
X115958678Y-97524000D02*
X115040000Y-98442678D01*
X118630000Y-98120000D02*
X118610000Y-98140000D01*
X118034000Y-97524000D02*
X115958678Y-97524000D01*
%TO.N,AMP_VDD*%
X107400000Y-101120000D02*
X107556000Y-101276000D01*
X140700000Y-98400000D02*
X139150000Y-99950000D01*
X141310000Y-98390000D02*
X141300000Y-98400000D01*
X138800000Y-102400000D02*
X137900000Y-103300000D01*
X110424000Y-101276000D02*
X111400000Y-100300000D01*
X112500000Y-98200000D02*
X113000000Y-97700000D01*
X137500000Y-103700000D02*
X137900000Y-103300000D01*
X142500000Y-98390000D02*
X141310000Y-98390000D01*
X124725000Y-98325000D02*
X129175000Y-102775000D01*
X112500000Y-98825000D02*
X112500000Y-98200000D01*
X139150000Y-100550000D02*
X138800000Y-100900000D01*
D28*
X148590000Y-98400000D02*
X148600000Y-98390000D01*
D27*
X129175000Y-102775000D02*
X129450000Y-102775000D01*
X144590000Y-98390000D02*
X144600000Y-98400000D01*
X112000000Y-100300000D02*
X112500000Y-99800000D01*
X129450000Y-102775000D02*
X130375000Y-103700000D01*
X130375000Y-103700000D02*
X137500000Y-103700000D01*
X107556000Y-101276000D02*
X110424000Y-101276000D01*
X111400000Y-100300000D02*
X112000000Y-100300000D01*
X141300000Y-98400000D02*
X140700000Y-98400000D01*
X139150000Y-99950000D02*
X139150000Y-100550000D01*
X143600000Y-98390000D02*
X144590000Y-98390000D01*
D28*
X147900000Y-98400000D02*
X148590000Y-98400000D01*
D27*
X143600000Y-98390000D02*
X142500000Y-98390000D01*
X112500000Y-99800000D02*
X112500000Y-98825000D01*
X138800000Y-100900000D02*
X138800000Y-102400000D01*
%TO.N,Net-(C9-Pad1)*%
X143400000Y-101000000D02*
X143900000Y-100500000D01*
X143900000Y-100500000D02*
X144490000Y-100500000D01*
%TO.N,/OUT+*%
X140800000Y-99800000D02*
X140600000Y-99600000D01*
X141300000Y-99800000D02*
X140800000Y-99800000D01*
D28*
%TO.N,/OUT-*%
X120610000Y-104400000D02*
X121200000Y-104400000D01*
X121890000Y-104400000D02*
X121200000Y-104400000D01*
D27*
%TO.N,Net-(C10-Pad1)*%
X150200000Y-98440000D02*
X150200000Y-98200000D01*
X150200000Y-98200000D02*
X149800000Y-97800000D01*
%TO.N,VGND*%
X142500000Y-100221425D02*
X142499834Y-100221591D01*
X120610000Y-99410000D02*
X120600000Y-99400000D01*
X105000000Y-104610000D02*
X104910000Y-104610000D01*
X113770000Y-103197341D02*
X113770000Y-103775000D01*
X120610000Y-100100000D02*
X120610000Y-99410000D01*
X105000000Y-104610000D02*
X105010000Y-104610000D01*
X129450000Y-98950000D02*
X129450000Y-99825000D01*
X131800000Y-99825000D02*
X131800000Y-98900000D01*
X114417341Y-102550000D02*
X113770000Y-103197341D01*
X106390000Y-101000000D02*
X106400000Y-101010000D01*
X142500000Y-99410000D02*
X142500000Y-100221425D01*
X104910000Y-104610000D02*
X104500000Y-104200000D01*
X113770000Y-100145000D02*
X113825000Y-100200000D01*
X113770000Y-98825000D02*
X113770000Y-100145000D01*
X105700000Y-101000000D02*
X106390000Y-101000000D01*
X129500000Y-98900000D02*
X129450000Y-98950000D01*
X133900000Y-100790000D02*
X133900000Y-100200000D01*
%TO.N,MICBIAS*%
X137900000Y-99400000D02*
X136325000Y-99400000D01*
X145500000Y-98390000D02*
X144810000Y-97700000D01*
X139600000Y-97700000D02*
X137900000Y-99400000D01*
D28*
X146700000Y-98390000D02*
X145500000Y-98390000D01*
D27*
X134674000Y-102726000D02*
X134674000Y-101051000D01*
X134674000Y-101051000D02*
X135900000Y-99825000D01*
X144810000Y-97700000D02*
X139600000Y-97700000D01*
X134400000Y-103000000D02*
X134674000Y-102726000D01*
X136325000Y-99400000D02*
X135900000Y-99825000D01*
%TO.N,/HP_OUT*%
X117010000Y-100800000D02*
X117600000Y-101390000D01*
X107865000Y-98000000D02*
X108690000Y-98825000D01*
X111536345Y-100993791D02*
X111730136Y-100800000D01*
X109960000Y-98825000D02*
X108690000Y-98825000D01*
X109866025Y-100133975D02*
X109886025Y-100133975D01*
X107410000Y-98000000D02*
X107865000Y-98000000D01*
X109886025Y-100133975D02*
X109960000Y-100060000D01*
X109960000Y-100060000D02*
X109960000Y-98825000D01*
X111730136Y-100800000D02*
X117010000Y-100800000D01*
%TO.N,/PREAMP_FB*%
X107410000Y-103500000D02*
X107410000Y-104500000D01*
X107410000Y-104500000D02*
X107986000Y-105076000D01*
X109324000Y-105076000D02*
X109960000Y-104440000D01*
X109960000Y-104440000D02*
X109960000Y-103775000D01*
X107986000Y-105076000D02*
X109324000Y-105076000D01*
%TO.N,/MIX_IN*%
X117590000Y-104400000D02*
X117590000Y-103400000D01*
X118600000Y-102410000D02*
X117600000Y-102410000D01*
X115040000Y-103392678D02*
X116022678Y-102410000D01*
X117600000Y-102410000D02*
X117600000Y-103390000D01*
X115040000Y-103775000D02*
X115040000Y-103392678D01*
X116022678Y-102410000D02*
X117600000Y-102410000D01*
X117600000Y-103390000D02*
X117590000Y-103400000D01*
%TO.N,/MIX_OUT*%
X123900000Y-103849000D02*
X123805000Y-103754000D01*
X123805000Y-103754000D02*
X120236000Y-103754000D01*
X116310000Y-104095694D02*
X117260306Y-105046000D01*
X116310000Y-103775000D02*
X116310000Y-104095694D01*
X120236000Y-103754000D02*
X119590000Y-104400000D01*
X144300000Y-103500000D02*
X143000000Y-104800000D01*
X117260306Y-105046000D02*
X117964000Y-105046000D01*
X118610000Y-104400000D02*
X119590000Y-104400000D01*
X123928232Y-103849000D02*
X123900000Y-103849000D01*
X124879232Y-104800000D02*
X123928232Y-103849000D01*
X117964000Y-105046000D02*
X118610000Y-104400000D01*
X143000000Y-104800000D02*
X124879232Y-104800000D01*
%TD*%
M02*
