%TF.GenerationSoftware,KiCad,Pcbnew,(6.0.4)*%
%TF.CreationDate,2022-05-07T21:28:23-07:00*%
%TF.ProjectId,ref_mic,7265665f-6d69-4632-9e6b-696361645f70,rev?*%
%TF.SameCoordinates,Original*%
%TF.FileFunction,Paste,Bot*%
%TF.FilePolarity,Positive*%
%FSLAX46Y46*%
G04 Gerber Fmt 4.6, Leading zero omitted, Abs format (unit mm)*
G04 Created by KiCad (PCBNEW (6.0.4)) date 2022-05-07 21:28:23*
%MOMM*%
%LPD*%
G01*
G04 APERTURE LIST*
G04 Aperture macros list*
%AMRoundRect*
0 Rectangle with rounded corners*
0 $1 Rounding radius*
0 $2 $3 $4 $5 $6 $7 $8 $9 X,Y pos of 4 corners*
0 Add a 4 corners polygon primitive as box body*
4,1,4,$2,$3,$4,$5,$6,$7,$8,$9,$2,$3,0*
0 Add four circle primitives for the rounded corners*
1,1,$1+$1,$2,$3*
1,1,$1+$1,$4,$5*
1,1,$1+$1,$6,$7*
1,1,$1+$1,$8,$9*
0 Add four rect primitives between the rounded corners*
20,1,$1+$1,$2,$3,$4,$5,0*
20,1,$1+$1,$4,$5,$6,$7,0*
20,1,$1+$1,$6,$7,$8,$9,0*
20,1,$1+$1,$8,$9,$2,$3,0*%
G04 Aperture macros list end*
%ADD10RoundRect,0.237500X0.237500X-0.250000X0.237500X0.250000X-0.237500X0.250000X-0.237500X-0.250000X0*%
%ADD11RoundRect,0.237500X0.250000X0.237500X-0.250000X0.237500X-0.250000X-0.237500X0.250000X-0.237500X0*%
%ADD12RoundRect,0.250000X0.337500X0.475000X-0.337500X0.475000X-0.337500X-0.475000X0.337500X-0.475000X0*%
%ADD13RoundRect,0.150000X-0.825000X-0.150000X0.825000X-0.150000X0.825000X0.150000X-0.825000X0.150000X0*%
%ADD14R,0.800000X1.900000*%
%ADD15R,1.800000X0.800000*%
%ADD16RoundRect,0.250000X-0.475000X0.337500X-0.475000X-0.337500X0.475000X-0.337500X0.475000X0.337500X0*%
%ADD17RoundRect,0.237500X-0.237500X0.250000X-0.237500X-0.250000X0.237500X-0.250000X0.237500X0.250000X0*%
%ADD18RoundRect,0.237500X-0.250000X-0.237500X0.250000X-0.237500X0.250000X0.237500X-0.250000X0.237500X0*%
%ADD19R,1.900000X0.800000*%
%ADD20RoundRect,0.237500X0.300000X0.237500X-0.300000X0.237500X-0.300000X-0.237500X0.300000X-0.237500X0*%
G04 APERTURE END LIST*
D10*
%TO.C,R6*%
X177800000Y-107950000D03*
X177800000Y-109775000D03*
%TD*%
D11*
%TO.C,R5*%
X158195000Y-107315000D03*
X160020000Y-107315000D03*
%TD*%
D12*
%TO.C,C10*%
X165967500Y-109855000D03*
X168042500Y-109855000D03*
%TD*%
D13*
%TO.C,U1*%
X159385000Y-113030000D03*
X159385000Y-111760000D03*
X159385000Y-110490000D03*
X159385000Y-109220000D03*
X154435000Y-109220000D03*
X154435000Y-110490000D03*
X154435000Y-111760000D03*
X154435000Y-113030000D03*
%TD*%
D14*
%TO.C,D2*%
X162880000Y-110950000D03*
X163830000Y-107950000D03*
X161930000Y-107950000D03*
%TD*%
D15*
%TO.C,D1*%
X145415000Y-108585000D03*
X142115000Y-107635000D03*
X142115000Y-109535000D03*
%TD*%
D16*
%TO.C,C1*%
X147955000Y-109390000D03*
X147955000Y-107315000D03*
%TD*%
D12*
%TO.C,C9*%
X170010000Y-109855000D03*
X172085000Y-109855000D03*
%TD*%
D17*
%TO.C,R2*%
X149860000Y-113942500D03*
X149860000Y-112117500D03*
%TD*%
D18*
%TO.C,R4*%
X163472500Y-113030000D03*
X161647500Y-113030000D03*
%TD*%
%TO.C,R11*%
X151765000Y-107315000D03*
X149940000Y-107315000D03*
%TD*%
D11*
%TO.C,R1*%
X146130000Y-111760000D03*
X147955000Y-111760000D03*
%TD*%
D19*
%TO.C,D3*%
X170990000Y-112710000D03*
X173990000Y-113660000D03*
X173990000Y-111760000D03*
%TD*%
D17*
%TO.C,R3*%
X151765000Y-113942500D03*
X151765000Y-112117500D03*
%TD*%
D18*
%TO.C,R7*%
X151765000Y-109855000D03*
X149940000Y-109855000D03*
%TD*%
D11*
%TO.C,R8*%
X174070000Y-109855000D03*
X175895000Y-109855000D03*
%TD*%
%TO.C,R12*%
X174070000Y-107950000D03*
X175895000Y-107950000D03*
%TD*%
D20*
%TO.C,C4*%
X154485000Y-107315000D03*
X156210000Y-107315000D03*
%TD*%
D11*
%TO.C,R10*%
X166370000Y-107950000D03*
X168195000Y-107950000D03*
%TD*%
%TO.C,R9*%
X170260000Y-107950000D03*
X172085000Y-107950000D03*
%TD*%
M02*
