%TF.GenerationSoftware,KiCad,Pcbnew,9.0.0*%
%TF.CreationDate,2026-05-10T02:13:21-07:00*%
%TF.ProjectId,ref_mic,7265665f-6d69-4632-9e6b-696361645f70,rev?*%
%TF.SameCoordinates,Original*%
%TF.FileFunction,AssemblyDrawing,Bot*%
%FSLAX46Y46*%
G04 Gerber Fmt 4.6, Leading zero omitted, Abs format (unit mm)*
G04 Created by KiCad (PCBNEW 9.0.0) date 2026-05-10 02:13:21*
%MOMM*%
%LPD*%
G01*
G04 APERTURE LIST*
%ADD10C,0.040000*%
%ADD11C,0.100000*%
G04 APERTURE END LIST*
D10*
X96483332Y-102363574D02*
X96483332Y-102542146D01*
X96483332Y-102542146D02*
X96495237Y-102577860D01*
X96495237Y-102577860D02*
X96519046Y-102601670D01*
X96519046Y-102601670D02*
X96554761Y-102613574D01*
X96554761Y-102613574D02*
X96578570Y-102613574D01*
X96233332Y-102613574D02*
X96376189Y-102613574D01*
X96304761Y-102613574D02*
X96304761Y-102363574D01*
X96304761Y-102363574D02*
X96328570Y-102399289D01*
X96328570Y-102399289D02*
X96352380Y-102423098D01*
X96352380Y-102423098D02*
X96376189Y-102435003D01*
D11*
%TO.C,J2*%
X152300000Y-95737500D02*
X152300000Y-106862500D01*
X152300000Y-95737500D02*
X166050000Y-95737500D01*
X152300000Y-106862500D02*
X166050000Y-106862500D01*
X166050000Y-95737500D02*
X166050000Y-106862500D01*
%TO.C,R13*%
X117575000Y-103130000D02*
X117575000Y-103670000D01*
X117575000Y-103670000D02*
X118625000Y-103670000D01*
X118625000Y-103130000D02*
X117575000Y-103130000D01*
X118625000Y-103670000D02*
X118625000Y-103130000D01*
%TO.C,C12*%
X128350000Y-99700000D02*
X128350000Y-102900000D01*
X128350000Y-102900000D02*
X130850000Y-102900000D01*
X130850000Y-99700000D02*
X128350000Y-99700000D01*
X130850000Y-102900000D02*
X130850000Y-99700000D01*
%TO.C,R17*%
X145130000Y-98825000D02*
X145130000Y-99875000D01*
X145130000Y-99875000D02*
X145670000Y-99875000D01*
X145670000Y-98825000D02*
X145130000Y-98825000D01*
X145670000Y-99875000D02*
X145670000Y-98825000D01*
%TO.C,R10*%
X117575000Y-102130000D02*
X117575000Y-102670000D01*
X117575000Y-102670000D02*
X118625000Y-102670000D01*
X118625000Y-102130000D02*
X117575000Y-102130000D01*
X118625000Y-102670000D02*
X118625000Y-102130000D01*
%TO.C,U1*%
X108175000Y-100325000D02*
X108175000Y-103250000D01*
X108175000Y-103250000D02*
X116825000Y-103250000D01*
X109150000Y-99350000D02*
X108175000Y-100325000D01*
X116825000Y-99350000D02*
X109150000Y-99350000D01*
X116825000Y-103250000D02*
X116825000Y-99350000D01*
%TO.C,D1*%
X140100000Y-98950000D02*
X140100000Y-100250000D01*
X140100000Y-100250000D02*
X141000000Y-100250000D01*
X140350000Y-99500000D02*
X140750000Y-99500000D01*
X140350000Y-99800000D02*
X140750000Y-99800000D01*
X140550000Y-99500000D02*
X140550000Y-99350000D01*
X140550000Y-99800000D02*
X140350000Y-99500000D01*
X140550000Y-99800000D02*
X140550000Y-99950000D01*
X140750000Y-99500000D02*
X140550000Y-99800000D01*
X141000000Y-98950000D02*
X140100000Y-98950000D01*
X141000000Y-100250000D02*
X141000000Y-98950000D01*
%TO.C,R6*%
X117575000Y-97930000D02*
X117575000Y-98470000D01*
X117575000Y-98470000D02*
X118625000Y-98470000D01*
X118625000Y-97930000D02*
X117575000Y-97930000D01*
X118625000Y-98470000D02*
X118625000Y-97930000D01*
%TO.C,D3*%
X137850000Y-99450000D02*
X137850000Y-100750000D01*
X137850000Y-100750000D02*
X138750000Y-100750000D01*
X138100000Y-100200000D02*
X138300000Y-99900000D01*
X138300000Y-99900000D02*
X138300000Y-99750000D01*
X138300000Y-99900000D02*
X138500000Y-100200000D01*
X138300000Y-100200000D02*
X138300000Y-100350000D01*
X138500000Y-99900000D02*
X138100000Y-99900000D01*
X138500000Y-100200000D02*
X138100000Y-100200000D01*
X138750000Y-99450000D02*
X137850000Y-99450000D01*
X138750000Y-100750000D02*
X138750000Y-99450000D01*
%TO.C,C15*%
X134750000Y-99700000D02*
X134750000Y-102900000D01*
X134750000Y-102900000D02*
X137250000Y-102900000D01*
X137250000Y-99700000D02*
X134750000Y-99700000D01*
X137250000Y-102900000D02*
X137250000Y-99700000D01*
%TO.C,C13*%
X121950000Y-99700000D02*
X121950000Y-102900000D01*
X121950000Y-102900000D02*
X124450000Y-102900000D01*
X124450000Y-99700000D02*
X121950000Y-99700000D01*
X124450000Y-102900000D02*
X124450000Y-99700000D01*
%TO.C,R4*%
X106375000Y-99830000D02*
X106375000Y-100370000D01*
X106375000Y-100370000D02*
X107425000Y-100370000D01*
X107425000Y-99830000D02*
X106375000Y-99830000D01*
X107425000Y-100370000D02*
X107425000Y-99830000D01*
%TO.C,D4*%
X119650000Y-102600000D02*
X119650000Y-103500000D01*
X119650000Y-103500000D02*
X120950000Y-103500000D01*
X120200000Y-102850000D02*
X120500000Y-103050000D01*
X120200000Y-103050000D02*
X120050000Y-103050000D01*
X120200000Y-103250000D02*
X120200000Y-102850000D01*
X120500000Y-103050000D02*
X120200000Y-103250000D01*
X120500000Y-103050000D02*
X120650000Y-103050000D01*
X120500000Y-103250000D02*
X120500000Y-102850000D01*
X120950000Y-102600000D02*
X119650000Y-102600000D01*
X120950000Y-103500000D02*
X120950000Y-102600000D01*
%TO.C,C11*%
X125150000Y-99700000D02*
X125150000Y-102900000D01*
X125150000Y-102900000D02*
X127650000Y-102900000D01*
X127650000Y-99700000D02*
X125150000Y-99700000D01*
X127650000Y-102900000D02*
X127650000Y-99700000D01*
%TO.C,C6*%
X119750000Y-97950000D02*
X119750000Y-98450000D01*
X119750000Y-98450000D02*
X120750000Y-98450000D01*
X120750000Y-97950000D02*
X119750000Y-97950000D01*
X120750000Y-98450000D02*
X120750000Y-97950000D01*
%TO.C,R11*%
X117575000Y-101080000D02*
X117575000Y-101620000D01*
X117575000Y-101620000D02*
X118625000Y-101620000D01*
X118625000Y-101080000D02*
X117575000Y-101080000D01*
X118625000Y-101620000D02*
X118625000Y-101080000D01*
%TO.C,R5*%
X106375000Y-97730000D02*
X106375000Y-98270000D01*
X106375000Y-98270000D02*
X107425000Y-98270000D01*
X107425000Y-97730000D02*
X106375000Y-97730000D01*
X107425000Y-98270000D02*
X107425000Y-97730000D01*
%TO.C,R7*%
X106375000Y-101930000D02*
X106375000Y-102470000D01*
X106375000Y-102470000D02*
X107425000Y-102470000D01*
X107425000Y-101930000D02*
X106375000Y-101930000D01*
X107425000Y-102470000D02*
X107425000Y-101930000D01*
%TO.C,J1*%
X96900000Y-102500000D02*
G75*
G02*
X95900000Y-102500000I-500000J0D01*
G01*
X95900000Y-102500000D02*
G75*
G02*
X96900000Y-102500000I500000J0D01*
G01*
%TO.C,C3*%
X105150000Y-98050000D02*
X105150000Y-99050000D01*
X105150000Y-99050000D02*
X105650000Y-99050000D01*
X105650000Y-98050000D02*
X105150000Y-98050000D01*
X105650000Y-99050000D02*
X105650000Y-98050000D01*
%TO.C,R15*%
X119775000Y-104130000D02*
X119775000Y-104670000D01*
X119775000Y-104670000D02*
X120825000Y-104670000D01*
X120825000Y-104130000D02*
X119775000Y-104130000D01*
X120825000Y-104670000D02*
X120825000Y-104130000D01*
%TO.C,R9*%
X106375000Y-103230000D02*
X106375000Y-103770000D01*
X106375000Y-103770000D02*
X107425000Y-103770000D01*
X107425000Y-103230000D02*
X106375000Y-103230000D01*
X107425000Y-103770000D02*
X107425000Y-103230000D01*
%TO.C,R23*%
X145130000Y-101125000D02*
X145130000Y-102175000D01*
X145130000Y-102175000D02*
X145670000Y-102175000D01*
X145670000Y-101125000D02*
X145130000Y-101125000D01*
X145670000Y-102175000D02*
X145670000Y-101125000D01*
%TO.C,R3*%
X119725000Y-98980000D02*
X119725000Y-99520000D01*
X119725000Y-99520000D02*
X120775000Y-99520000D01*
X120775000Y-98980000D02*
X119725000Y-98980000D01*
X120775000Y-99520000D02*
X120775000Y-98980000D01*
%TO.C,D2*%
X137850000Y-101950000D02*
X137850000Y-103250000D01*
X137850000Y-103250000D02*
X138750000Y-103250000D01*
X138100000Y-102500000D02*
X138500000Y-102500000D01*
X138100000Y-102800000D02*
X138500000Y-102800000D01*
X138300000Y-102500000D02*
X138300000Y-102350000D01*
X138300000Y-102800000D02*
X138100000Y-102500000D01*
X138300000Y-102800000D02*
X138300000Y-102950000D01*
X138500000Y-102500000D02*
X138300000Y-102800000D01*
X138750000Y-101950000D02*
X137850000Y-101950000D01*
X138750000Y-103250000D02*
X138750000Y-101950000D01*
X106325000Y-104230000D02*
X106325000Y-104770000D01*
X106425000Y-104770000D02*
G75*
G02*
X106325000Y-104770000I-50000J0D01*
G01*
X106425000Y-104770000D02*
X106425000Y-104230000D01*
X106425000Y-104230000D02*
G75*
G03*
X106325000Y-104230000I-50000J0D01*
G01*
X106375000Y-104820000D02*
X107425000Y-104820000D01*
X107425000Y-104720000D02*
G75*
G02*
X107425000Y-104820000I0J-50000D01*
G01*
X107425000Y-104720000D02*
X106375000Y-104720000D01*
X106375000Y-104720000D02*
G75*
G03*
X106375000Y-104820000I0J-50000D01*
G01*
X107425000Y-104180000D02*
X106375000Y-104180000D01*
X106375000Y-104280000D02*
G75*
G02*
X106375000Y-104180000I0J50000D01*
G01*
X106375000Y-104280000D02*
X107425000Y-104280000D01*
X107425000Y-104280000D02*
G75*
G03*
X107425000Y-104180000I0J50000D01*
G01*
X107475000Y-104770000D02*
X107475000Y-104230000D01*
X107375000Y-104230000D02*
G75*
G02*
X107475000Y-104230000I50000J0D01*
G01*
X107375000Y-104230000D02*
X107375000Y-104770000D01*
X107375000Y-104770000D02*
G75*
G03*
X107475000Y-104770000I50000J0D01*
G01*
%TO.C,R22*%
X143930000Y-101125000D02*
X143930000Y-102175000D01*
X143930000Y-102175000D02*
X144470000Y-102175000D01*
X144470000Y-101125000D02*
X143930000Y-101125000D01*
X144470000Y-102175000D02*
X144470000Y-101125000D01*
%TO.C,R18*%
X142730000Y-98825000D02*
X142730000Y-99875000D01*
X142730000Y-99875000D02*
X143270000Y-99875000D01*
X143270000Y-98825000D02*
X142730000Y-98825000D01*
X143270000Y-99875000D02*
X143270000Y-98825000D01*
X117525000Y-104130000D02*
X117525000Y-104670000D01*
X117625000Y-104670000D02*
G75*
G02*
X117525000Y-104670000I-50000J0D01*
G01*
X117625000Y-104670000D02*
X117625000Y-104130000D01*
X117625000Y-104130000D02*
G75*
G03*
X117525000Y-104130000I-50000J0D01*
G01*
X117575000Y-104720000D02*
X118625000Y-104720000D01*
X118625000Y-104620000D02*
G75*
G02*
X118625000Y-104720000I0J-50000D01*
G01*
X118625000Y-104620000D02*
X117575000Y-104620000D01*
X117575000Y-104620000D02*
G75*
G03*
X117575000Y-104720000I0J-50000D01*
G01*
X118625000Y-104080000D02*
X117575000Y-104080000D01*
X117575000Y-104180000D02*
G75*
G02*
X117575000Y-104080000I0J50000D01*
G01*
X117575000Y-104180000D02*
X118625000Y-104180000D01*
X118625000Y-104180000D02*
G75*
G03*
X118625000Y-104080000I0J50000D01*
G01*
X118675000Y-104670000D02*
X118675000Y-104130000D01*
X118575000Y-104130000D02*
G75*
G02*
X118675000Y-104130000I50000J0D01*
G01*
X118575000Y-104130000D02*
X118575000Y-104670000D01*
X118575000Y-104670000D02*
G75*
G03*
X118675000Y-104670000I50000J0D01*
G01*
%TO.C,R19*%
X143930000Y-98825000D02*
X143930000Y-99875000D01*
X143930000Y-99875000D02*
X144470000Y-99875000D01*
X144470000Y-98825000D02*
X143930000Y-98825000D01*
X144470000Y-99875000D02*
X144470000Y-98825000D01*
%TO.C,R2*%
X119725000Y-100030000D02*
X119725000Y-100570000D01*
X119725000Y-100570000D02*
X120775000Y-100570000D01*
X120775000Y-100030000D02*
X119725000Y-100030000D01*
X120775000Y-100570000D02*
X120775000Y-100030000D01*
%TO.C,C14*%
X131550000Y-99700000D02*
X131550000Y-102900000D01*
X131550000Y-102900000D02*
X134050000Y-102900000D01*
X134050000Y-99700000D02*
X131550000Y-99700000D01*
X134050000Y-102900000D02*
X134050000Y-99700000D01*
%TO.C,C5*%
X117600000Y-99000000D02*
X117600000Y-99500000D01*
X117600000Y-99500000D02*
X118600000Y-99500000D01*
X118600000Y-99000000D02*
X117600000Y-99000000D01*
X118600000Y-99500000D02*
X118600000Y-99000000D01*
%TO.C,R16*%
X142730000Y-101125000D02*
X142730000Y-102175000D01*
X142730000Y-102175000D02*
X143270000Y-102175000D01*
X143270000Y-101125000D02*
X142730000Y-101125000D01*
X143270000Y-102175000D02*
X143270000Y-101125000D01*
%TO.C,C8*%
X106400000Y-100900000D02*
X106400000Y-101400000D01*
X106400000Y-101400000D02*
X107400000Y-101400000D01*
X107400000Y-100900000D02*
X106400000Y-100900000D01*
X107400000Y-101400000D02*
X107400000Y-100900000D01*
%TO.C,C4*%
X106400000Y-98800000D02*
X106400000Y-99300000D01*
X106400000Y-99300000D02*
X107400000Y-99300000D01*
X107400000Y-98800000D02*
X106400000Y-98800000D01*
X107400000Y-99300000D02*
X107400000Y-98800000D01*
%TO.C,R21*%
X141530000Y-101125000D02*
X141530000Y-102175000D01*
X141530000Y-102175000D02*
X142070000Y-102175000D01*
X142070000Y-101125000D02*
X141530000Y-101125000D01*
X142070000Y-102175000D02*
X142070000Y-101125000D01*
%TO.C,R12*%
X117575000Y-100030000D02*
X117575000Y-100570000D01*
X117575000Y-100570000D02*
X118625000Y-100570000D01*
X118625000Y-100030000D02*
X117575000Y-100030000D01*
X118625000Y-100570000D02*
X118625000Y-100030000D01*
%TO.C,R20*%
X141530000Y-98825000D02*
X141530000Y-99875000D01*
X141530000Y-99875000D02*
X142070000Y-99875000D01*
X142070000Y-98825000D02*
X141530000Y-98825000D01*
X142070000Y-99875000D02*
X142070000Y-98825000D01*
%TD*%
X105375000Y-97925000D02*
X110225000Y-104675000D01*
X105375000Y-104675000D02*
X110225000Y-97925000D01*
X105945000Y-104005000D02*
X107855000Y-104995000D01*
X105945000Y-104995000D02*
X107855000Y-104005000D01*
X117145000Y-103905000D02*
X119055000Y-104895000D01*
X117145000Y-104895000D02*
X119055000Y-103905000D01*
M02*
