%TF.GenerationSoftware,KiCad,Pcbnew,9.0.0*%
%TF.CreationDate,2026-01-05T19:47:58-08:00*%
%TF.ProjectId,ref_mic,7265665f-6d69-4632-9e6b-696361645f70,rev?*%
%TF.SameCoordinates,Original*%
%TF.FileFunction,Legend,Top*%
%TF.FilePolarity,Positive*%
%FSLAX46Y46*%
G04 Gerber Fmt 4.6, Leading zero omitted, Abs format (unit mm)*
G04 Created by KiCad (PCBNEW 9.0.0) date 2026-01-05 19:47:58*
%MOMM*%
%LPD*%
G01*
G04 APERTURE LIST*
%ADD10C,0.150000*%
%ADD11C,0.100000*%
%ADD12C,0.120000*%
%ADD13C,0.152400*%
G04 APERTURE END LIST*
D10*
X94850000Y-103050000D02*
X94850000Y-103550000D01*
X94600000Y-103300000D02*
X95100000Y-103300000D01*
X95300000Y-99600000D02*
X95500000Y-99400000D01*
X95300000Y-99400000D02*
X95100000Y-99400000D01*
X95100000Y-99400000D02*
X95300000Y-99600000D01*
X95300000Y-99100000D02*
X95300000Y-99600000D01*
X95500000Y-99400000D02*
X95300000Y-99400000D01*
X97779160Y-104104295D02*
X97779160Y-103304295D01*
X97779160Y-103304295D02*
X98045826Y-103875723D01*
X98045826Y-103875723D02*
X98312493Y-103304295D01*
X98312493Y-103304295D02*
X98312493Y-104104295D01*
X98693446Y-104104295D02*
X98693446Y-103304295D01*
X99531541Y-104028104D02*
X99493445Y-104066200D01*
X99493445Y-104066200D02*
X99379160Y-104104295D01*
X99379160Y-104104295D02*
X99302969Y-104104295D01*
X99302969Y-104104295D02*
X99188683Y-104066200D01*
X99188683Y-104066200D02*
X99112493Y-103990009D01*
X99112493Y-103990009D02*
X99074398Y-103913819D01*
X99074398Y-103913819D02*
X99036302Y-103761438D01*
X99036302Y-103761438D02*
X99036302Y-103647152D01*
X99036302Y-103647152D02*
X99074398Y-103494771D01*
X99074398Y-103494771D02*
X99112493Y-103418580D01*
X99112493Y-103418580D02*
X99188683Y-103342390D01*
X99188683Y-103342390D02*
X99302969Y-103304295D01*
X99302969Y-103304295D02*
X99379160Y-103304295D01*
X99379160Y-103304295D02*
X99493445Y-103342390D01*
X99493445Y-103342390D02*
X99531541Y-103380485D01*
X100141064Y-103685247D02*
X100255350Y-103723342D01*
X100255350Y-103723342D02*
X100293445Y-103761438D01*
X100293445Y-103761438D02*
X100331541Y-103837628D01*
X100331541Y-103837628D02*
X100331541Y-103951914D01*
X100331541Y-103951914D02*
X100293445Y-104028104D01*
X100293445Y-104028104D02*
X100255350Y-104066200D01*
X100255350Y-104066200D02*
X100179160Y-104104295D01*
X100179160Y-104104295D02*
X99874398Y-104104295D01*
X99874398Y-104104295D02*
X99874398Y-103304295D01*
X99874398Y-103304295D02*
X100141064Y-103304295D01*
X100141064Y-103304295D02*
X100217255Y-103342390D01*
X100217255Y-103342390D02*
X100255350Y-103380485D01*
X100255350Y-103380485D02*
X100293445Y-103456676D01*
X100293445Y-103456676D02*
X100293445Y-103532866D01*
X100293445Y-103532866D02*
X100255350Y-103609057D01*
X100255350Y-103609057D02*
X100217255Y-103647152D01*
X100217255Y-103647152D02*
X100141064Y-103685247D01*
X100141064Y-103685247D02*
X99874398Y-103685247D01*
X100674398Y-104104295D02*
X100674398Y-103304295D01*
X101017254Y-103875723D02*
X101398207Y-103875723D01*
X100941064Y-104104295D02*
X101207731Y-103304295D01*
X101207731Y-103304295D02*
X101474397Y-104104295D01*
X101702968Y-104066200D02*
X101817254Y-104104295D01*
X101817254Y-104104295D02*
X102007730Y-104104295D01*
X102007730Y-104104295D02*
X102083921Y-104066200D01*
X102083921Y-104066200D02*
X102122016Y-104028104D01*
X102122016Y-104028104D02*
X102160111Y-103951914D01*
X102160111Y-103951914D02*
X102160111Y-103875723D01*
X102160111Y-103875723D02*
X102122016Y-103799533D01*
X102122016Y-103799533D02*
X102083921Y-103761438D01*
X102083921Y-103761438D02*
X102007730Y-103723342D01*
X102007730Y-103723342D02*
X101855349Y-103685247D01*
X101855349Y-103685247D02*
X101779159Y-103647152D01*
X101779159Y-103647152D02*
X101741064Y-103609057D01*
X101741064Y-103609057D02*
X101702968Y-103532866D01*
X101702968Y-103532866D02*
X101702968Y-103456676D01*
X101702968Y-103456676D02*
X101741064Y-103380485D01*
X101741064Y-103380485D02*
X101779159Y-103342390D01*
X101779159Y-103342390D02*
X101855349Y-103304295D01*
X101855349Y-103304295D02*
X102045826Y-103304295D01*
X102045826Y-103304295D02*
X102160111Y-103342390D01*
X130059580Y-104066666D02*
X130107200Y-104114285D01*
X130107200Y-104114285D02*
X130154819Y-104257142D01*
X130154819Y-104257142D02*
X130154819Y-104352380D01*
X130154819Y-104352380D02*
X130107200Y-104495237D01*
X130107200Y-104495237D02*
X130011961Y-104590475D01*
X130011961Y-104590475D02*
X129916723Y-104638094D01*
X129916723Y-104638094D02*
X129726247Y-104685713D01*
X129726247Y-104685713D02*
X129583390Y-104685713D01*
X129583390Y-104685713D02*
X129392914Y-104638094D01*
X129392914Y-104638094D02*
X129297676Y-104590475D01*
X129297676Y-104590475D02*
X129202438Y-104495237D01*
X129202438Y-104495237D02*
X129154819Y-104352380D01*
X129154819Y-104352380D02*
X129154819Y-104257142D01*
X129154819Y-104257142D02*
X129202438Y-104114285D01*
X129202438Y-104114285D02*
X129250057Y-104066666D01*
X130154819Y-103590475D02*
X130154819Y-103399999D01*
X130154819Y-103399999D02*
X130107200Y-103304761D01*
X130107200Y-103304761D02*
X130059580Y-103257142D01*
X130059580Y-103257142D02*
X129916723Y-103161904D01*
X129916723Y-103161904D02*
X129726247Y-103114285D01*
X129726247Y-103114285D02*
X129345295Y-103114285D01*
X129345295Y-103114285D02*
X129250057Y-103161904D01*
X129250057Y-103161904D02*
X129202438Y-103209523D01*
X129202438Y-103209523D02*
X129154819Y-103304761D01*
X129154819Y-103304761D02*
X129154819Y-103495237D01*
X129154819Y-103495237D02*
X129202438Y-103590475D01*
X129202438Y-103590475D02*
X129250057Y-103638094D01*
X129250057Y-103638094D02*
X129345295Y-103685713D01*
X129345295Y-103685713D02*
X129583390Y-103685713D01*
X129583390Y-103685713D02*
X129678628Y-103638094D01*
X129678628Y-103638094D02*
X129726247Y-103590475D01*
X129726247Y-103590475D02*
X129773866Y-103495237D01*
X129773866Y-103495237D02*
X129773866Y-103304761D01*
X129773866Y-103304761D02*
X129726247Y-103209523D01*
X129726247Y-103209523D02*
X129678628Y-103161904D01*
X129678628Y-103161904D02*
X129583390Y-103114285D01*
X120759580Y-104242857D02*
X120807200Y-104290476D01*
X120807200Y-104290476D02*
X120854819Y-104433333D01*
X120854819Y-104433333D02*
X120854819Y-104528571D01*
X120854819Y-104528571D02*
X120807200Y-104671428D01*
X120807200Y-104671428D02*
X120711961Y-104766666D01*
X120711961Y-104766666D02*
X120616723Y-104814285D01*
X120616723Y-104814285D02*
X120426247Y-104861904D01*
X120426247Y-104861904D02*
X120283390Y-104861904D01*
X120283390Y-104861904D02*
X120092914Y-104814285D01*
X120092914Y-104814285D02*
X119997676Y-104766666D01*
X119997676Y-104766666D02*
X119902438Y-104671428D01*
X119902438Y-104671428D02*
X119854819Y-104528571D01*
X119854819Y-104528571D02*
X119854819Y-104433333D01*
X119854819Y-104433333D02*
X119902438Y-104290476D01*
X119902438Y-104290476D02*
X119950057Y-104242857D01*
X120854819Y-103290476D02*
X120854819Y-103861904D01*
X120854819Y-103576190D02*
X119854819Y-103576190D01*
X119854819Y-103576190D02*
X119997676Y-103671428D01*
X119997676Y-103671428D02*
X120092914Y-103766666D01*
X120092914Y-103766666D02*
X120140533Y-103861904D01*
X119854819Y-102671428D02*
X119854819Y-102576190D01*
X119854819Y-102576190D02*
X119902438Y-102480952D01*
X119902438Y-102480952D02*
X119950057Y-102433333D01*
X119950057Y-102433333D02*
X120045295Y-102385714D01*
X120045295Y-102385714D02*
X120235771Y-102338095D01*
X120235771Y-102338095D02*
X120473866Y-102338095D01*
X120473866Y-102338095D02*
X120664342Y-102385714D01*
X120664342Y-102385714D02*
X120759580Y-102433333D01*
X120759580Y-102433333D02*
X120807200Y-102480952D01*
X120807200Y-102480952D02*
X120854819Y-102576190D01*
X120854819Y-102576190D02*
X120854819Y-102671428D01*
X120854819Y-102671428D02*
X120807200Y-102766666D01*
X120807200Y-102766666D02*
X120759580Y-102814285D01*
X120759580Y-102814285D02*
X120664342Y-102861904D01*
X120664342Y-102861904D02*
X120473866Y-102909523D01*
X120473866Y-102909523D02*
X120235771Y-102909523D01*
X120235771Y-102909523D02*
X120045295Y-102861904D01*
X120045295Y-102861904D02*
X119950057Y-102814285D01*
X119950057Y-102814285D02*
X119902438Y-102766666D01*
X119902438Y-102766666D02*
X119854819Y-102671428D01*
X142368095Y-105257200D02*
X142510952Y-105304819D01*
X142510952Y-105304819D02*
X142749047Y-105304819D01*
X142749047Y-105304819D02*
X142844285Y-105257200D01*
X142844285Y-105257200D02*
X142891904Y-105209580D01*
X142891904Y-105209580D02*
X142939523Y-105114342D01*
X142939523Y-105114342D02*
X142939523Y-105019104D01*
X142939523Y-105019104D02*
X142891904Y-104923866D01*
X142891904Y-104923866D02*
X142844285Y-104876247D01*
X142844285Y-104876247D02*
X142749047Y-104828628D01*
X142749047Y-104828628D02*
X142558571Y-104781009D01*
X142558571Y-104781009D02*
X142463333Y-104733390D01*
X142463333Y-104733390D02*
X142415714Y-104685771D01*
X142415714Y-104685771D02*
X142368095Y-104590533D01*
X142368095Y-104590533D02*
X142368095Y-104495295D01*
X142368095Y-104495295D02*
X142415714Y-104400057D01*
X142415714Y-104400057D02*
X142463333Y-104352438D01*
X142463333Y-104352438D02*
X142558571Y-104304819D01*
X142558571Y-104304819D02*
X142796666Y-104304819D01*
X142796666Y-104304819D02*
X142939523Y-104352438D01*
X143891904Y-105304819D02*
X143320476Y-105304819D01*
X143606190Y-105304819D02*
X143606190Y-104304819D01*
X143606190Y-104304819D02*
X143510952Y-104447676D01*
X143510952Y-104447676D02*
X143415714Y-104542914D01*
X143415714Y-104542914D02*
X143320476Y-104590533D01*
D11*
X149326666Y-97367419D02*
X149326666Y-98081704D01*
X149326666Y-98081704D02*
X149279047Y-98224561D01*
X149279047Y-98224561D02*
X149183809Y-98319800D01*
X149183809Y-98319800D02*
X149040952Y-98367419D01*
X149040952Y-98367419D02*
X148945714Y-98367419D01*
X149755238Y-97462657D02*
X149802857Y-97415038D01*
X149802857Y-97415038D02*
X149898095Y-97367419D01*
X149898095Y-97367419D02*
X150136190Y-97367419D01*
X150136190Y-97367419D02*
X150231428Y-97415038D01*
X150231428Y-97415038D02*
X150279047Y-97462657D01*
X150279047Y-97462657D02*
X150326666Y-97557895D01*
X150326666Y-97557895D02*
X150326666Y-97653133D01*
X150326666Y-97653133D02*
X150279047Y-97795990D01*
X150279047Y-97795990D02*
X149707619Y-98367419D01*
X149707619Y-98367419D02*
X150326666Y-98367419D01*
D10*
X98233333Y-100254819D02*
X97900000Y-99778628D01*
X97661905Y-100254819D02*
X97661905Y-99254819D01*
X97661905Y-99254819D02*
X98042857Y-99254819D01*
X98042857Y-99254819D02*
X98138095Y-99302438D01*
X98138095Y-99302438D02*
X98185714Y-99350057D01*
X98185714Y-99350057D02*
X98233333Y-99445295D01*
X98233333Y-99445295D02*
X98233333Y-99588152D01*
X98233333Y-99588152D02*
X98185714Y-99683390D01*
X98185714Y-99683390D02*
X98138095Y-99731009D01*
X98138095Y-99731009D02*
X98042857Y-99778628D01*
X98042857Y-99778628D02*
X97661905Y-99778628D01*
X99185714Y-100254819D02*
X98614286Y-100254819D01*
X98900000Y-100254819D02*
X98900000Y-99254819D01*
X98900000Y-99254819D02*
X98804762Y-99397676D01*
X98804762Y-99397676D02*
X98709524Y-99492914D01*
X98709524Y-99492914D02*
X98614286Y-99540533D01*
X112733333Y-97859580D02*
X112685714Y-97907200D01*
X112685714Y-97907200D02*
X112542857Y-97954819D01*
X112542857Y-97954819D02*
X112447619Y-97954819D01*
X112447619Y-97954819D02*
X112304762Y-97907200D01*
X112304762Y-97907200D02*
X112209524Y-97811961D01*
X112209524Y-97811961D02*
X112161905Y-97716723D01*
X112161905Y-97716723D02*
X112114286Y-97526247D01*
X112114286Y-97526247D02*
X112114286Y-97383390D01*
X112114286Y-97383390D02*
X112161905Y-97192914D01*
X112161905Y-97192914D02*
X112209524Y-97097676D01*
X112209524Y-97097676D02*
X112304762Y-97002438D01*
X112304762Y-97002438D02*
X112447619Y-96954819D01*
X112447619Y-96954819D02*
X112542857Y-96954819D01*
X112542857Y-96954819D02*
X112685714Y-97002438D01*
X112685714Y-97002438D02*
X112733333Y-97050057D01*
X113685714Y-97954819D02*
X113114286Y-97954819D01*
X113400000Y-97954819D02*
X113400000Y-96954819D01*
X113400000Y-96954819D02*
X113304762Y-97097676D01*
X113304762Y-97097676D02*
X113209524Y-97192914D01*
X113209524Y-97192914D02*
X113114286Y-97240533D01*
X107733333Y-97859580D02*
X107685714Y-97907200D01*
X107685714Y-97907200D02*
X107542857Y-97954819D01*
X107542857Y-97954819D02*
X107447619Y-97954819D01*
X107447619Y-97954819D02*
X107304762Y-97907200D01*
X107304762Y-97907200D02*
X107209524Y-97811961D01*
X107209524Y-97811961D02*
X107161905Y-97716723D01*
X107161905Y-97716723D02*
X107114286Y-97526247D01*
X107114286Y-97526247D02*
X107114286Y-97383390D01*
X107114286Y-97383390D02*
X107161905Y-97192914D01*
X107161905Y-97192914D02*
X107209524Y-97097676D01*
X107209524Y-97097676D02*
X107304762Y-97002438D01*
X107304762Y-97002438D02*
X107447619Y-96954819D01*
X107447619Y-96954819D02*
X107542857Y-96954819D01*
X107542857Y-96954819D02*
X107685714Y-97002438D01*
X107685714Y-97002438D02*
X107733333Y-97050057D01*
X108066667Y-96954819D02*
X108733333Y-96954819D01*
X108733333Y-96954819D02*
X108304762Y-97954819D01*
X117233333Y-97859580D02*
X117185714Y-97907200D01*
X117185714Y-97907200D02*
X117042857Y-97954819D01*
X117042857Y-97954819D02*
X116947619Y-97954819D01*
X116947619Y-97954819D02*
X116804762Y-97907200D01*
X116804762Y-97907200D02*
X116709524Y-97811961D01*
X116709524Y-97811961D02*
X116661905Y-97716723D01*
X116661905Y-97716723D02*
X116614286Y-97526247D01*
X116614286Y-97526247D02*
X116614286Y-97383390D01*
X116614286Y-97383390D02*
X116661905Y-97192914D01*
X116661905Y-97192914D02*
X116709524Y-97097676D01*
X116709524Y-97097676D02*
X116804762Y-97002438D01*
X116804762Y-97002438D02*
X116947619Y-96954819D01*
X116947619Y-96954819D02*
X117042857Y-96954819D01*
X117042857Y-96954819D02*
X117185714Y-97002438D01*
X117185714Y-97002438D02*
X117233333Y-97050057D01*
X117614286Y-97050057D02*
X117661905Y-97002438D01*
X117661905Y-97002438D02*
X117757143Y-96954819D01*
X117757143Y-96954819D02*
X117995238Y-96954819D01*
X117995238Y-96954819D02*
X118090476Y-97002438D01*
X118090476Y-97002438D02*
X118138095Y-97050057D01*
X118138095Y-97050057D02*
X118185714Y-97145295D01*
X118185714Y-97145295D02*
X118185714Y-97240533D01*
X118185714Y-97240533D02*
X118138095Y-97383390D01*
X118138095Y-97383390D02*
X117566667Y-97954819D01*
X117566667Y-97954819D02*
X118185714Y-97954819D01*
D12*
%TO.C,C9*%
X130490000Y-97890000D02*
X130490000Y-100240000D01*
X130490000Y-104710000D02*
X130490000Y-102360000D01*
X136245563Y-97890000D02*
X130490000Y-97890000D01*
X136245563Y-104710000D02*
X130490000Y-104710000D01*
X137310000Y-98954437D02*
X136245563Y-97890000D01*
X137310000Y-98954437D02*
X137310000Y-100240000D01*
X137310000Y-103645563D02*
X136245563Y-104710000D01*
X137310000Y-103645563D02*
X137310000Y-102360000D01*
X137943750Y-103541250D02*
X137943750Y-102753750D01*
X138337500Y-103147500D02*
X137550000Y-103147500D01*
%TO.C,C10*%
X121090000Y-97890000D02*
X121090000Y-100240000D01*
X121090000Y-104710000D02*
X121090000Y-102360000D01*
X126845563Y-97890000D02*
X121090000Y-97890000D01*
X126845563Y-104710000D02*
X121090000Y-104710000D01*
X127910000Y-98954437D02*
X126845563Y-97890000D01*
X127910000Y-98954437D02*
X127910000Y-100240000D01*
X127910000Y-103645563D02*
X126845563Y-104710000D01*
X127910000Y-103645563D02*
X127910000Y-102360000D01*
X128543750Y-103541250D02*
X128543750Y-102753750D01*
X128937500Y-103147500D02*
X128150000Y-103147500D01*
D13*
%TO.C,S1*%
X138718500Y-98671100D02*
X138718500Y-103928900D01*
X138718500Y-103928900D02*
X139630360Y-103928900D01*
X141489640Y-103928900D02*
X144710360Y-103928900D01*
X142170360Y-98671100D02*
X138718500Y-98671100D01*
X146569640Y-103928900D02*
X147481500Y-103928900D01*
X147481500Y-98671100D02*
X144029640Y-98671100D01*
X147481500Y-103928900D02*
X147481500Y-98671100D01*
D12*
%TO.C,R1*%
X96520000Y-100153641D02*
X96520000Y-99846359D01*
X97280000Y-100153641D02*
X97280000Y-99846359D01*
%TO.C,C1*%
X110340000Y-99040000D02*
X111540000Y-99040000D01*
X110340000Y-102495563D02*
X110340000Y-99040000D01*
X110790000Y-104050000D02*
X111290000Y-104050000D01*
X111040000Y-104300000D02*
X111040000Y-103800000D01*
X111404437Y-103560000D02*
X110340000Y-102495563D01*
X111404437Y-103560000D02*
X111540000Y-103560000D01*
X113795563Y-103560000D02*
X113660000Y-103560000D01*
X113795563Y-103560000D02*
X114860000Y-102495563D01*
X114860000Y-99040000D02*
X113660000Y-99040000D01*
X114860000Y-102495563D02*
X114860000Y-99040000D01*
%TO.C,C7*%
X105540000Y-99040000D02*
X106740000Y-99040000D01*
X105540000Y-102495563D02*
X105540000Y-99040000D01*
X105990000Y-104050000D02*
X106490000Y-104050000D01*
X106240000Y-104300000D02*
X106240000Y-103800000D01*
X106604437Y-103560000D02*
X105540000Y-102495563D01*
X106604437Y-103560000D02*
X106740000Y-103560000D01*
X108995563Y-103560000D02*
X108860000Y-103560000D01*
X108995563Y-103560000D02*
X110060000Y-102495563D01*
X110060000Y-99040000D02*
X108860000Y-99040000D01*
X110060000Y-102495563D02*
X110060000Y-99040000D01*
%TO.C,C2*%
X115140000Y-99040000D02*
X116340000Y-99040000D01*
X115140000Y-102495563D02*
X115140000Y-99040000D01*
X115590000Y-104050000D02*
X116090000Y-104050000D01*
X115840000Y-104300000D02*
X115840000Y-103800000D01*
X116204437Y-103560000D02*
X115140000Y-102495563D01*
X116204437Y-103560000D02*
X116340000Y-103560000D01*
X118595563Y-103560000D02*
X118460000Y-103560000D01*
X118595563Y-103560000D02*
X119660000Y-102495563D01*
X119660000Y-99040000D02*
X118460000Y-99040000D01*
X119660000Y-102495563D02*
X119660000Y-99040000D01*
%TO.C,MK1*%
X91200000Y-103870000D02*
X92340000Y-103870000D01*
X91230000Y-98670000D02*
X92340000Y-98670000D01*
X92340000Y-98670000D02*
X92340000Y-103870000D01*
X92340000Y-99640000D02*
X92690000Y-99640000D01*
X92340000Y-100360000D02*
X92690000Y-100360000D01*
X92340000Y-102180000D02*
X92750000Y-102180000D01*
X92340000Y-102900000D02*
X92750000Y-102900000D01*
X93800000Y-98670000D02*
X94910000Y-98670000D01*
X94910000Y-98670000D02*
X94910000Y-100000000D01*
%TD*%
M02*
