%TF.GenerationSoftware,KiCad,Pcbnew,9.0.0*%
%TF.CreationDate,2026-02-16T12:31:50-08:00*%
%TF.ProjectId,ref_mic,7265665f-6d69-4632-9e6b-696361645f70,rev?*%
%TF.SameCoordinates,Original*%
%TF.FileFunction,Copper,L3,Inr*%
%TF.FilePolarity,Positive*%
%FSLAX46Y46*%
G04 Gerber Fmt 4.6, Leading zero omitted, Abs format (unit mm)*
G04 Created by KiCad (PCBNEW 9.0.0) date 2026-02-16 12:31:50*
%MOMM*%
%LPD*%
G01*
G04 APERTURE LIST*
G04 Aperture macros list*
%AMRoundRect*
0 Rectangle with rounded corners*
0 $1 Rounding radius*
0 $2 $3 $4 $5 $6 $7 $8 $9 X,Y pos of 4 corners*
0 Add a 4 corners polygon primitive as box body*
4,1,4,$2,$3,$4,$5,$6,$7,$8,$9,$2,$3,0*
0 Add four circle primitives for the rounded corners*
1,1,$1+$1,$2,$3*
1,1,$1+$1,$4,$5*
1,1,$1+$1,$6,$7*
1,1,$1+$1,$8,$9*
0 Add four rect primitives between the rounded corners*
20,1,$1+$1,$2,$3,$4,$5,0*
20,1,$1+$1,$4,$5,$6,$7,0*
20,1,$1+$1,$6,$7,$8,$9,0*
20,1,$1+$1,$8,$9,$2,$3,0*%
G04 Aperture macros list end*
%TA.AperFunction,ComponentPad*%
%ADD10R,1.700000X1.700000*%
%TD*%
%TA.AperFunction,ComponentPad*%
%ADD11O,1.700000X1.700000*%
%TD*%
%TA.AperFunction,ComponentPad*%
%ADD12RoundRect,0.250000X0.550000X0.550000X-0.550000X0.550000X-0.550000X-0.550000X0.550000X-0.550000X0*%
%TD*%
%TA.AperFunction,ViaPad*%
%ADD13C,3.400000*%
%TD*%
%TA.AperFunction,ViaPad*%
%ADD14C,0.450000*%
%TD*%
G04 APERTURE END LIST*
D10*
%TO.N,GND*%
%TO.C,MK1*%
X93800000Y-100000000D03*
D11*
%TO.N,/MIC+*%
X93800000Y-102540000D03*
%TD*%
D12*
%TO.N,MICBIAS*%
%TO.C,J1*%
X96400000Y-102500000D03*
%TD*%
D13*
%TO.N,*%
X101100000Y-101300000D03*
D14*
%TO.N,GND*%
X113825000Y-102200000D03*
X108900000Y-100725000D03*
X141100000Y-101680688D03*
X105750000Y-101150000D03*
X137750000Y-102525000D03*
X133375000Y-101839857D03*
X138900000Y-100100000D03*
X149800000Y-104000000D03*
%TO.N,Net-(C7-Pad1)*%
X105800000Y-104200000D03*
%TO.N,/XLR3(-)*%
X146100000Y-99850000D03*
%TO.N,/PREAMP_IN*%
X110800000Y-102600000D03*
X109036091Y-101986091D03*
%TO.N,/PREAMP_OUT*%
X119305000Y-101295009D03*
X139600000Y-103500000D03*
X116236091Y-101663909D03*
%TO.N,AMP_VDD*%
X124800000Y-102050000D03*
X113000000Y-97700000D03*
%TO.N,Net-(C9-Pad1)*%
X142500000Y-102650000D03*
%TO.N,/OUT+*%
X139800000Y-99098102D03*
%TO.N,/OUT-*%
X119650000Y-103750000D03*
%TO.N,Net-(C10-Pad1)*%
X144900000Y-98350000D03*
%TO.N,VGND*%
X105750000Y-102200000D03*
X128000000Y-99100000D03*
X121450000Y-99250000D03*
X114417341Y-102550000D03*
X132700000Y-98900000D03*
X141800000Y-100500000D03*
X113825000Y-100200000D03*
X121450000Y-104276000D03*
X105750000Y-100100000D03*
%TO.N,MICBIAS*%
X143750000Y-100650000D03*
X134300000Y-101450000D03*
X139550000Y-99700000D03*
%TO.N,/HP_OUT*%
X109866025Y-100133975D03*
X111536345Y-100993791D03*
%TO.N,/MIX_OUT*%
X144600000Y-103498101D03*
%TD*%
%TA.AperFunction,Conductor*%
%TO.N,VGND*%
G36*
X112791629Y-97120185D02*
G01*
X112837384Y-97172989D01*
X112847328Y-97242147D01*
X112818303Y-97305703D01*
X112786590Y-97331887D01*
X112738740Y-97359513D01*
X112738734Y-97359517D01*
X112659517Y-97438734D01*
X112659513Y-97438740D01*
X112603498Y-97535760D01*
X112603497Y-97535763D01*
X112574500Y-97643982D01*
X112574500Y-97756018D01*
X112603497Y-97864237D01*
X112659515Y-97961263D01*
X112738737Y-98040485D01*
X112835763Y-98096503D01*
X112943982Y-98125500D01*
X112943984Y-98125500D01*
X113056016Y-98125500D01*
X113056018Y-98125500D01*
X113164237Y-98096503D01*
X113261263Y-98040485D01*
X113340485Y-97961263D01*
X113396503Y-97864237D01*
X113425500Y-97756018D01*
X113425500Y-97643982D01*
X113396503Y-97535763D01*
X113340485Y-97438737D01*
X113261263Y-97359515D01*
X113213410Y-97331887D01*
X113165194Y-97281320D01*
X113151971Y-97212713D01*
X113177940Y-97147848D01*
X113234854Y-97107320D01*
X113275410Y-97100500D01*
X151775500Y-97100500D01*
X151842539Y-97120185D01*
X151888294Y-97172989D01*
X151899500Y-97224500D01*
X151899500Y-105375500D01*
X151879815Y-105442539D01*
X151827011Y-105488294D01*
X151775500Y-105499500D01*
X99464790Y-105499500D01*
X99397751Y-105479815D01*
X99351996Y-105427011D01*
X99344393Y-105405176D01*
X99304703Y-105244148D01*
X99210303Y-104995236D01*
X99086589Y-104759517D01*
X98935363Y-104540430D01*
X98915253Y-104517730D01*
X98758833Y-104341168D01*
X98758831Y-104341166D01*
X98631849Y-104228670D01*
X98559575Y-104164641D01*
X98559572Y-104164639D01*
X98559570Y-104164637D01*
X98529646Y-104143982D01*
X105374500Y-104143982D01*
X105374500Y-104256018D01*
X105403497Y-104364237D01*
X105459515Y-104461263D01*
X105538737Y-104540485D01*
X105635763Y-104596503D01*
X105743982Y-104625500D01*
X105743984Y-104625500D01*
X105856016Y-104625500D01*
X105856018Y-104625500D01*
X105964237Y-104596503D01*
X106061263Y-104540485D01*
X106140485Y-104461263D01*
X106196503Y-104364237D01*
X106225500Y-104256018D01*
X106225500Y-104143982D01*
X106196503Y-104035763D01*
X106140485Y-103938737D01*
X106061263Y-103859515D01*
X105996579Y-103822169D01*
X105964239Y-103803498D01*
X105964238Y-103803497D01*
X105964237Y-103803497D01*
X105856018Y-103774500D01*
X105743982Y-103774500D01*
X105635763Y-103803497D01*
X105635760Y-103803498D01*
X105538740Y-103859513D01*
X105538734Y-103859517D01*
X105459517Y-103938734D01*
X105459513Y-103938740D01*
X105403498Y-104035760D01*
X105403497Y-104035763D01*
X105374500Y-104143982D01*
X98529646Y-104143982D01*
X98340483Y-104013411D01*
X98104764Y-103889697D01*
X97855857Y-103795298D01*
X97794045Y-103780062D01*
X97597376Y-103731588D01*
X97438814Y-103712335D01*
X97333108Y-103699500D01*
X97333106Y-103699500D01*
X97252727Y-103699500D01*
X97187644Y-103699500D01*
X97168852Y-103693982D01*
X119224500Y-103693982D01*
X119224500Y-103806018D01*
X119253497Y-103914237D01*
X119309515Y-104011263D01*
X119388737Y-104090485D01*
X119485763Y-104146503D01*
X119593982Y-104175500D01*
X119593984Y-104175500D01*
X119706016Y-104175500D01*
X119706018Y-104175500D01*
X119814237Y-104146503D01*
X119911263Y-104090485D01*
X119990485Y-104011263D01*
X120029330Y-103943982D01*
X149374500Y-103943982D01*
X149374500Y-104056018D01*
X149403497Y-104164237D01*
X149459515Y-104261263D01*
X149538737Y-104340485D01*
X149635763Y-104396503D01*
X149743982Y-104425500D01*
X149743984Y-104425500D01*
X149856016Y-104425500D01*
X149856018Y-104425500D01*
X149964237Y-104396503D01*
X150061263Y-104340485D01*
X150140485Y-104261263D01*
X150196503Y-104164237D01*
X150225500Y-104056018D01*
X150225500Y-103943982D01*
X150196503Y-103835763D01*
X150140485Y-103738737D01*
X150061263Y-103659515D01*
X149964237Y-103603497D01*
X149856018Y-103574500D01*
X149743982Y-103574500D01*
X149635763Y-103603497D01*
X149635760Y-103603498D01*
X149538740Y-103659513D01*
X149538734Y-103659517D01*
X149459517Y-103738734D01*
X149459513Y-103738740D01*
X149403498Y-103835760D01*
X149403497Y-103835763D01*
X149374500Y-103943982D01*
X120029330Y-103943982D01*
X120046503Y-103914237D01*
X120075500Y-103806018D01*
X120075500Y-103693982D01*
X120046503Y-103585763D01*
X119990485Y-103488737D01*
X119945730Y-103443982D01*
X139174500Y-103443982D01*
X139174500Y-103556018D01*
X139203497Y-103664237D01*
X139259515Y-103761263D01*
X139338737Y-103840485D01*
X139435763Y-103896503D01*
X139543982Y-103925500D01*
X139543984Y-103925500D01*
X139656016Y-103925500D01*
X139656018Y-103925500D01*
X139764237Y-103896503D01*
X139861263Y-103840485D01*
X139940485Y-103761263D01*
X139996503Y-103664237D01*
X140025500Y-103556018D01*
X140025500Y-103443982D01*
X140024991Y-103442083D01*
X144174500Y-103442083D01*
X144174500Y-103554119D01*
X144195555Y-103632695D01*
X144203497Y-103662337D01*
X144203498Y-103662340D01*
X144213587Y-103679815D01*
X144259515Y-103759364D01*
X144338737Y-103838586D01*
X144435763Y-103894604D01*
X144543982Y-103923601D01*
X144543984Y-103923601D01*
X144656016Y-103923601D01*
X144656018Y-103923601D01*
X144764237Y-103894604D01*
X144861263Y-103838586D01*
X144940485Y-103759364D01*
X144996503Y-103662338D01*
X145025500Y-103554119D01*
X145025500Y-103442083D01*
X144996503Y-103333864D01*
X144940485Y-103236838D01*
X144861263Y-103157616D01*
X144796579Y-103120270D01*
X144764239Y-103101599D01*
X144764238Y-103101598D01*
X144764237Y-103101598D01*
X144656018Y-103072601D01*
X144543982Y-103072601D01*
X144435763Y-103101598D01*
X144435760Y-103101599D01*
X144338740Y-103157614D01*
X144338734Y-103157618D01*
X144259517Y-103236835D01*
X144259513Y-103236841D01*
X144203498Y-103333861D01*
X144203497Y-103333864D01*
X144174500Y-103442083D01*
X140024991Y-103442083D01*
X139996503Y-103335763D01*
X139940485Y-103238737D01*
X139861263Y-103159515D01*
X139764237Y-103103497D01*
X139656018Y-103074500D01*
X139543982Y-103074500D01*
X139435763Y-103103497D01*
X139435760Y-103103498D01*
X139338740Y-103159513D01*
X139338734Y-103159517D01*
X139259517Y-103238734D01*
X139259513Y-103238740D01*
X139203498Y-103335760D01*
X139203497Y-103335763D01*
X139174500Y-103443982D01*
X119945730Y-103443982D01*
X119911263Y-103409515D01*
X119846543Y-103372149D01*
X119814239Y-103353498D01*
X119814238Y-103353497D01*
X119814237Y-103353497D01*
X119706018Y-103324500D01*
X119593982Y-103324500D01*
X119485763Y-103353497D01*
X119485760Y-103353498D01*
X119388740Y-103409513D01*
X119388734Y-103409517D01*
X119309517Y-103488734D01*
X119309513Y-103488740D01*
X119253498Y-103585760D01*
X119253497Y-103585763D01*
X119224500Y-103693982D01*
X97168852Y-103693982D01*
X97120605Y-103679815D01*
X97074850Y-103627011D01*
X97064906Y-103557853D01*
X97093931Y-103494297D01*
X97146689Y-103458459D01*
X97162882Y-103452793D01*
X97272150Y-103372150D01*
X97352793Y-103262882D01*
X97388963Y-103159515D01*
X97397646Y-103134701D01*
X97397646Y-103134699D01*
X97400500Y-103104269D01*
X97400500Y-101895730D01*
X97397646Y-101865300D01*
X97397646Y-101865298D01*
X97364006Y-101769163D01*
X97352793Y-101737118D01*
X97272150Y-101627850D01*
X97162882Y-101547207D01*
X97162880Y-101547206D01*
X97034700Y-101502353D01*
X97004270Y-101499500D01*
X97004266Y-101499500D01*
X95795734Y-101499500D01*
X95795730Y-101499500D01*
X95765300Y-101502353D01*
X95765298Y-101502353D01*
X95637119Y-101547206D01*
X95637117Y-101547207D01*
X95527850Y-101627850D01*
X95447207Y-101737117D01*
X95447206Y-101737119D01*
X95402353Y-101865298D01*
X95402353Y-101865300D01*
X95399500Y-101895730D01*
X95399500Y-103104269D01*
X95402353Y-103134699D01*
X95402353Y-103134701D01*
X95438757Y-103238734D01*
X95447207Y-103262882D01*
X95527850Y-103372150D01*
X95637118Y-103452793D01*
X95653311Y-103458459D01*
X95710087Y-103499180D01*
X95735834Y-103564133D01*
X95722378Y-103632695D01*
X95673990Y-103683097D01*
X95612356Y-103699500D01*
X94364308Y-103699500D01*
X94297269Y-103679815D01*
X94251514Y-103627011D01*
X94241570Y-103557853D01*
X94270595Y-103494297D01*
X94295418Y-103472397D01*
X94297595Y-103470942D01*
X94297598Y-103470941D01*
X94469655Y-103355977D01*
X94615977Y-103209655D01*
X94730941Y-103037598D01*
X94810130Y-102846420D01*
X94850500Y-102643465D01*
X94850500Y-102436535D01*
X94810130Y-102233580D01*
X94730941Y-102042402D01*
X94615977Y-101870345D01*
X94615975Y-101870342D01*
X94469657Y-101724024D01*
X94352292Y-101645604D01*
X94297598Y-101609059D01*
X94294778Y-101607891D01*
X94106420Y-101529870D01*
X94106412Y-101529868D01*
X93903469Y-101489500D01*
X93903465Y-101489500D01*
X93696535Y-101489500D01*
X93696530Y-101489500D01*
X93493587Y-101529868D01*
X93493579Y-101529870D01*
X93302403Y-101609058D01*
X93130342Y-101724024D01*
X92984024Y-101870342D01*
X92869058Y-102042403D01*
X92789870Y-102233579D01*
X92789868Y-102233587D01*
X92749500Y-102436530D01*
X92749500Y-102643469D01*
X92789868Y-102846412D01*
X92789870Y-102846420D01*
X92869059Y-103037598D01*
X92894384Y-103075500D01*
X92984024Y-103209657D01*
X93130342Y-103355975D01*
X93130345Y-103355977D01*
X93302402Y-103470941D01*
X93302404Y-103470941D01*
X93304582Y-103472397D01*
X93349388Y-103526009D01*
X93358095Y-103595334D01*
X93327941Y-103658362D01*
X93268498Y-103695082D01*
X93235692Y-103699500D01*
X85324500Y-103699500D01*
X85257461Y-103679815D01*
X85211706Y-103627011D01*
X85200500Y-103575500D01*
X85200500Y-101175441D01*
X99199500Y-101175441D01*
X99199500Y-101424558D01*
X99199501Y-101424575D01*
X99232017Y-101671561D01*
X99296498Y-101912207D01*
X99391830Y-102142361D01*
X99391837Y-102142376D01*
X99516400Y-102358126D01*
X99668060Y-102555774D01*
X99668066Y-102555781D01*
X99844218Y-102731933D01*
X99844225Y-102731939D01*
X100041873Y-102883599D01*
X100257623Y-103008162D01*
X100257638Y-103008169D01*
X100328682Y-103037596D01*
X100487793Y-103103502D01*
X100728435Y-103167982D01*
X100975435Y-103200500D01*
X100975442Y-103200500D01*
X101224558Y-103200500D01*
X101224565Y-103200500D01*
X101471565Y-103167982D01*
X101712207Y-103103502D01*
X101942373Y-103008164D01*
X102158127Y-102883599D01*
X102355776Y-102731938D01*
X102531938Y-102555776D01*
X102540988Y-102543982D01*
X110374500Y-102543982D01*
X110374500Y-102656018D01*
X110403497Y-102764237D01*
X110459515Y-102861263D01*
X110538737Y-102940485D01*
X110635763Y-102996503D01*
X110743982Y-103025500D01*
X110743984Y-103025500D01*
X110856016Y-103025500D01*
X110856018Y-103025500D01*
X110964237Y-102996503D01*
X111061263Y-102940485D01*
X111140485Y-102861263D01*
X111196503Y-102764237D01*
X111225500Y-102656018D01*
X111225500Y-102543982D01*
X111196503Y-102435763D01*
X111140485Y-102338737D01*
X111061263Y-102259515D01*
X110982839Y-102214237D01*
X110964239Y-102203498D01*
X110964238Y-102203497D01*
X110964237Y-102203497D01*
X110856018Y-102174500D01*
X110743982Y-102174500D01*
X110635763Y-102203497D01*
X110635760Y-102203498D01*
X110538740Y-102259513D01*
X110538734Y-102259517D01*
X110459517Y-102338734D01*
X110459513Y-102338740D01*
X110403498Y-102435760D01*
X110403497Y-102435763D01*
X110374500Y-102543982D01*
X102540988Y-102543982D01*
X102598536Y-102468984D01*
X102605147Y-102460369D01*
X102660113Y-102388734D01*
X102683599Y-102358127D01*
X102808164Y-102142373D01*
X102896102Y-101930073D01*
X108610591Y-101930073D01*
X108610591Y-102042109D01*
X108639588Y-102150328D01*
X108695606Y-102247354D01*
X108774828Y-102326576D01*
X108871854Y-102382594D01*
X108980073Y-102411591D01*
X108980075Y-102411591D01*
X109092107Y-102411591D01*
X109092109Y-102411591D01*
X109200328Y-102382594D01*
X109297354Y-102326576D01*
X109376576Y-102247354D01*
X109432594Y-102150328D01*
X109434294Y-102143982D01*
X113399500Y-102143982D01*
X113399500Y-102256018D01*
X113428497Y-102364237D01*
X113484515Y-102461263D01*
X113563737Y-102540485D01*
X113660763Y-102596503D01*
X113768982Y-102625500D01*
X113768984Y-102625500D01*
X113881016Y-102625500D01*
X113881018Y-102625500D01*
X113989237Y-102596503D01*
X114086263Y-102540485D01*
X114165485Y-102461263D01*
X114221503Y-102364237D01*
X114250500Y-102256018D01*
X114250500Y-102143982D01*
X114221503Y-102035763D01*
X114165485Y-101938737D01*
X114086263Y-101859515D01*
X113989237Y-101803497D01*
X113881018Y-101774500D01*
X113768982Y-101774500D01*
X113660763Y-101803497D01*
X113660760Y-101803498D01*
X113563740Y-101859513D01*
X113563734Y-101859517D01*
X113484517Y-101938734D01*
X113484513Y-101938740D01*
X113428498Y-102035760D01*
X113428497Y-102035763D01*
X113399500Y-102143982D01*
X109434294Y-102143982D01*
X109461591Y-102042109D01*
X109461591Y-101930073D01*
X109432594Y-101821854D01*
X109376576Y-101724828D01*
X109297354Y-101645606D01*
X109232030Y-101607891D01*
X115810591Y-101607891D01*
X115810591Y-101719927D01*
X115837902Y-101821851D01*
X115839588Y-101828145D01*
X115839589Y-101828148D01*
X115850185Y-101846501D01*
X115895606Y-101925172D01*
X115974828Y-102004394D01*
X116071854Y-102060412D01*
X116180073Y-102089409D01*
X116180075Y-102089409D01*
X116292107Y-102089409D01*
X116292109Y-102089409D01*
X116400328Y-102060412D01*
X116497354Y-102004394D01*
X116507766Y-101993982D01*
X124374500Y-101993982D01*
X124374500Y-102106018D01*
X124403497Y-102214237D01*
X124459515Y-102311263D01*
X124538737Y-102390485D01*
X124635763Y-102446503D01*
X124743982Y-102475500D01*
X124743984Y-102475500D01*
X124856016Y-102475500D01*
X124856018Y-102475500D01*
X124880344Y-102468982D01*
X137324500Y-102468982D01*
X137324500Y-102581017D01*
X137353497Y-102689236D01*
X137353498Y-102689239D01*
X137372169Y-102721579D01*
X137409515Y-102786263D01*
X137488737Y-102865485D01*
X137585763Y-102921503D01*
X137693982Y-102950500D01*
X137693984Y-102950500D01*
X137806016Y-102950500D01*
X137806018Y-102950500D01*
X137914237Y-102921503D01*
X138011263Y-102865485D01*
X138090485Y-102786263D01*
X138146503Y-102689237D01*
X138172026Y-102593982D01*
X142074500Y-102593982D01*
X142074500Y-102706018D01*
X142103497Y-102814237D01*
X142159515Y-102911263D01*
X142238737Y-102990485D01*
X142335763Y-103046503D01*
X142443982Y-103075500D01*
X142443984Y-103075500D01*
X142556016Y-103075500D01*
X142556018Y-103075500D01*
X142664237Y-103046503D01*
X142761263Y-102990485D01*
X142840485Y-102911263D01*
X142896503Y-102814237D01*
X142925500Y-102706018D01*
X142925500Y-102593982D01*
X142896503Y-102485763D01*
X142840485Y-102388737D01*
X142761263Y-102309515D01*
X142684777Y-102265356D01*
X142664239Y-102253498D01*
X142664238Y-102253497D01*
X142664237Y-102253497D01*
X142556018Y-102224500D01*
X142443982Y-102224500D01*
X142335763Y-102253497D01*
X142335760Y-102253498D01*
X142238740Y-102309513D01*
X142238734Y-102309517D01*
X142159517Y-102388734D01*
X142159513Y-102388740D01*
X142103498Y-102485760D01*
X142103497Y-102485763D01*
X142074500Y-102593982D01*
X138172026Y-102593982D01*
X138175500Y-102581018D01*
X138175500Y-102468982D01*
X138146503Y-102360763D01*
X138090485Y-102263737D01*
X138011263Y-102184515D01*
X137914237Y-102128497D01*
X137806018Y-102099500D01*
X137693982Y-102099500D01*
X137585763Y-102128497D01*
X137585760Y-102128498D01*
X137488740Y-102184513D01*
X137488734Y-102184517D01*
X137409517Y-102263734D01*
X137409513Y-102263740D01*
X137353498Y-102360760D01*
X137353497Y-102360763D01*
X137324500Y-102468982D01*
X124880344Y-102468982D01*
X124964237Y-102446503D01*
X125061263Y-102390485D01*
X125140485Y-102311263D01*
X125196503Y-102214237D01*
X125225500Y-102106018D01*
X125225500Y-101993982D01*
X125196503Y-101885763D01*
X125173835Y-101846501D01*
X125168761Y-101837712D01*
X125140487Y-101788740D01*
X125140482Y-101788734D01*
X125135587Y-101783839D01*
X132949500Y-101783839D01*
X132949500Y-101895875D01*
X132961847Y-101941953D01*
X132978497Y-102004093D01*
X132978498Y-102004096D01*
X132988358Y-102021174D01*
X133034515Y-102101120D01*
X133113737Y-102180342D01*
X133210763Y-102236360D01*
X133318982Y-102265357D01*
X133318984Y-102265357D01*
X133431016Y-102265357D01*
X133431018Y-102265357D01*
X133539237Y-102236360D01*
X133636263Y-102180342D01*
X133715485Y-102101120D01*
X133771503Y-102004094D01*
X133800500Y-101895875D01*
X133800500Y-101851610D01*
X133820185Y-101784571D01*
X133872989Y-101738816D01*
X133942147Y-101728872D01*
X134005703Y-101757897D01*
X134012181Y-101763929D01*
X134038737Y-101790485D01*
X134135763Y-101846503D01*
X134243982Y-101875500D01*
X134243984Y-101875500D01*
X134356016Y-101875500D01*
X134356018Y-101875500D01*
X134464237Y-101846503D01*
X134561263Y-101790485D01*
X134640485Y-101711263D01*
X134696503Y-101614237D01*
X134725500Y-101506018D01*
X134725500Y-101393982D01*
X134696503Y-101285763D01*
X134668043Y-101236468D01*
X139055002Y-101236468D01*
X139055002Y-101363531D01*
X139079787Y-101488132D01*
X139079790Y-101488144D01*
X139128406Y-101605515D01*
X139128413Y-101605528D01*
X139198997Y-101711163D01*
X139199000Y-101711167D01*
X139288834Y-101801001D01*
X139288838Y-101801004D01*
X139394473Y-101871588D01*
X139394486Y-101871595D01*
X139511857Y-101920211D01*
X139511862Y-101920213D01*
X139621147Y-101941951D01*
X139636470Y-101944999D01*
X139636474Y-101945000D01*
X139636475Y-101945000D01*
X139763530Y-101945000D01*
X139763531Y-101944999D01*
X139888142Y-101920213D01*
X140005524Y-101871592D01*
X140111166Y-101801004D01*
X140201006Y-101711164D01*
X140258800Y-101624670D01*
X140674500Y-101624670D01*
X140674500Y-101736706D01*
X140701565Y-101837712D01*
X140703497Y-101844924D01*
X140703498Y-101844927D01*
X140718173Y-101870345D01*
X140759515Y-101941951D01*
X140838737Y-102021173D01*
X140935763Y-102077191D01*
X141043982Y-102106188D01*
X141043984Y-102106188D01*
X141156016Y-102106188D01*
X141156018Y-102106188D01*
X141264237Y-102077191D01*
X141361263Y-102021173D01*
X141440485Y-101941951D01*
X141496503Y-101844925D01*
X141525500Y-101736706D01*
X141525500Y-101624670D01*
X141496503Y-101516451D01*
X141440485Y-101419425D01*
X141361263Y-101340203D01*
X141357046Y-101337768D01*
X141357045Y-101337768D01*
X141350998Y-101334277D01*
X141264237Y-101284185D01*
X141156018Y-101255188D01*
X141043982Y-101255188D01*
X140935763Y-101284185D01*
X140935760Y-101284186D01*
X140838740Y-101340201D01*
X140838734Y-101340205D01*
X140759517Y-101419422D01*
X140759513Y-101419428D01*
X140703498Y-101516448D01*
X140703497Y-101516451D01*
X140674500Y-101624670D01*
X140258800Y-101624670D01*
X140271594Y-101605522D01*
X140282749Y-101578591D01*
X140286685Y-101569090D01*
X140286685Y-101569088D01*
X140290042Y-101560985D01*
X140320215Y-101488140D01*
X140345002Y-101363527D01*
X140345002Y-101236473D01*
X140345001Y-101236468D01*
X145854998Y-101236468D01*
X145854998Y-101363531D01*
X145879783Y-101488132D01*
X145879786Y-101488144D01*
X145928402Y-101605515D01*
X145928409Y-101605528D01*
X145998993Y-101711163D01*
X145998996Y-101711167D01*
X146088830Y-101801001D01*
X146088834Y-101801004D01*
X146194469Y-101871588D01*
X146194482Y-101871595D01*
X146311853Y-101920211D01*
X146311858Y-101920213D01*
X146421143Y-101941951D01*
X146436466Y-101944999D01*
X146436470Y-101945000D01*
X146436471Y-101945000D01*
X146563526Y-101945000D01*
X146563527Y-101944999D01*
X146688138Y-101920213D01*
X146805520Y-101871592D01*
X146911162Y-101801004D01*
X147001002Y-101711164D01*
X147071590Y-101605522D01*
X147120211Y-101488140D01*
X147144998Y-101363527D01*
X147144998Y-101236473D01*
X147120211Y-101111860D01*
X147119239Y-101109513D01*
X147071593Y-100994484D01*
X147071586Y-100994471D01*
X147001002Y-100888836D01*
X147000999Y-100888832D01*
X146911165Y-100798998D01*
X146911161Y-100798995D01*
X146805526Y-100728411D01*
X146805513Y-100728404D01*
X146688142Y-100679788D01*
X146688130Y-100679785D01*
X146563529Y-100655000D01*
X146563525Y-100655000D01*
X146436471Y-100655000D01*
X146436466Y-100655000D01*
X146311865Y-100679785D01*
X146311853Y-100679788D01*
X146194482Y-100728404D01*
X146194469Y-100728411D01*
X146088834Y-100798995D01*
X146088830Y-100798998D01*
X145998996Y-100888832D01*
X145998993Y-100888836D01*
X145928409Y-100994471D01*
X145928402Y-100994484D01*
X145879786Y-101111855D01*
X145879783Y-101111867D01*
X145854998Y-101236468D01*
X140345001Y-101236468D01*
X140320215Y-101111860D01*
X140319243Y-101109513D01*
X140271597Y-100994484D01*
X140271590Y-100994471D01*
X140201006Y-100888836D01*
X140201003Y-100888832D01*
X140111169Y-100798998D01*
X140111165Y-100798995D01*
X140005530Y-100728411D01*
X140005517Y-100728404D01*
X139937946Y-100700416D01*
X139888146Y-100679788D01*
X139888134Y-100679785D01*
X139763533Y-100655000D01*
X139763529Y-100655000D01*
X139636475Y-100655000D01*
X139636470Y-100655000D01*
X139511869Y-100679785D01*
X139511857Y-100679788D01*
X139394486Y-100728404D01*
X139394473Y-100728411D01*
X139288838Y-100798995D01*
X139288834Y-100798998D01*
X139199000Y-100888832D01*
X139198997Y-100888836D01*
X139128413Y-100994471D01*
X139128406Y-100994484D01*
X139079790Y-101111855D01*
X139079787Y-101111867D01*
X139055002Y-101236468D01*
X134668043Y-101236468D01*
X134640485Y-101188737D01*
X134561263Y-101109515D01*
X134464237Y-101053497D01*
X134356018Y-101024500D01*
X134243982Y-101024500D01*
X134135763Y-101053497D01*
X134135760Y-101053498D01*
X134038740Y-101109513D01*
X134038734Y-101109517D01*
X133959517Y-101188734D01*
X133959513Y-101188740D01*
X133903498Y-101285760D01*
X133903497Y-101285763D01*
X133874500Y-101393982D01*
X133874500Y-101438247D01*
X133854815Y-101505286D01*
X133802011Y-101551041D01*
X133732853Y-101560985D01*
X133669297Y-101531960D01*
X133662819Y-101525928D01*
X133636265Y-101499374D01*
X133636263Y-101499372D01*
X133539237Y-101443354D01*
X133431018Y-101414357D01*
X133318982Y-101414357D01*
X133210763Y-101443354D01*
X133210760Y-101443355D01*
X133113740Y-101499370D01*
X133113734Y-101499374D01*
X133034517Y-101578591D01*
X133034513Y-101578597D01*
X132978498Y-101675617D01*
X132978497Y-101675620D01*
X132949500Y-101783839D01*
X125135587Y-101783839D01*
X125061265Y-101709517D01*
X125061263Y-101709515D01*
X124964237Y-101653497D01*
X124856018Y-101624500D01*
X124743982Y-101624500D01*
X124635763Y-101653497D01*
X124635760Y-101653498D01*
X124538740Y-101709513D01*
X124538734Y-101709517D01*
X124459517Y-101788734D01*
X124459513Y-101788740D01*
X124403498Y-101885760D01*
X124403497Y-101885763D01*
X124374500Y-101993982D01*
X116507766Y-101993982D01*
X116576576Y-101925172D01*
X116632594Y-101828146D01*
X116661591Y-101719927D01*
X116661591Y-101607891D01*
X116632594Y-101499672D01*
X116576576Y-101402646D01*
X116497354Y-101323424D01*
X116400328Y-101267406D01*
X116294281Y-101238991D01*
X118879500Y-101238991D01*
X118879500Y-101351027D01*
X118908497Y-101459246D01*
X118964515Y-101556272D01*
X119043737Y-101635494D01*
X119140763Y-101691512D01*
X119248982Y-101720509D01*
X119248984Y-101720509D01*
X119361016Y-101720509D01*
X119361018Y-101720509D01*
X119469237Y-101691512D01*
X119566263Y-101635494D01*
X119645485Y-101556272D01*
X119701503Y-101459246D01*
X119730500Y-101351027D01*
X119730500Y-101238991D01*
X119701503Y-101130772D01*
X119645485Y-101033746D01*
X119566263Y-100954524D01*
X119469237Y-100898506D01*
X119361018Y-100869509D01*
X119248982Y-100869509D01*
X119140763Y-100898506D01*
X119140760Y-100898507D01*
X119043740Y-100954522D01*
X119043734Y-100954526D01*
X118964517Y-101033743D01*
X118964513Y-101033749D01*
X118908498Y-101130769D01*
X118908497Y-101130772D01*
X118879500Y-101238991D01*
X116294281Y-101238991D01*
X116292109Y-101238409D01*
X116180073Y-101238409D01*
X116071854Y-101267406D01*
X116071851Y-101267407D01*
X115974831Y-101323422D01*
X115974825Y-101323426D01*
X115895608Y-101402643D01*
X115895604Y-101402649D01*
X115839589Y-101499669D01*
X115839588Y-101499672D01*
X115810591Y-101607891D01*
X109232030Y-101607891D01*
X109227937Y-101605528D01*
X109200330Y-101589589D01*
X109200329Y-101589588D01*
X109200328Y-101589588D01*
X109092109Y-101560591D01*
X108980073Y-101560591D01*
X108871854Y-101589588D01*
X108871851Y-101589589D01*
X108774831Y-101645604D01*
X108774825Y-101645608D01*
X108695608Y-101724825D01*
X108695604Y-101724831D01*
X108639589Y-101821851D01*
X108639588Y-101821854D01*
X108610591Y-101930073D01*
X102896102Y-101930073D01*
X102903502Y-101912207D01*
X102905437Y-101904982D01*
X102909493Y-101889851D01*
X102950528Y-101736704D01*
X102967982Y-101671565D01*
X103000500Y-101424565D01*
X103000500Y-101175435D01*
X102993400Y-101121502D01*
X102990838Y-101102040D01*
X102989777Y-101093982D01*
X105324500Y-101093982D01*
X105324500Y-101206018D01*
X105345868Y-101285763D01*
X105353497Y-101314236D01*
X105353498Y-101314239D01*
X105365067Y-101334277D01*
X105409515Y-101411263D01*
X105488737Y-101490485D01*
X105585763Y-101546503D01*
X105693982Y-101575500D01*
X105693984Y-101575500D01*
X105806016Y-101575500D01*
X105806018Y-101575500D01*
X105914237Y-101546503D01*
X106011263Y-101490485D01*
X106090485Y-101411263D01*
X106146503Y-101314237D01*
X106175500Y-101206018D01*
X106175500Y-101093982D01*
X106146503Y-100985763D01*
X106090485Y-100888737D01*
X106011263Y-100809515D01*
X105914237Y-100753497D01*
X105806018Y-100724500D01*
X105693982Y-100724500D01*
X105585763Y-100753497D01*
X105585760Y-100753498D01*
X105488740Y-100809513D01*
X105488734Y-100809517D01*
X105409517Y-100888734D01*
X105409513Y-100888740D01*
X105353498Y-100985760D01*
X105353497Y-100985763D01*
X105324500Y-101093982D01*
X102989777Y-101093982D01*
X102971417Y-100954526D01*
X102967982Y-100928435D01*
X102903502Y-100687793D01*
X102895710Y-100668982D01*
X108474500Y-100668982D01*
X108474500Y-100781018D01*
X108503497Y-100889237D01*
X108559515Y-100986263D01*
X108638737Y-101065485D01*
X108735763Y-101121503D01*
X108843982Y-101150500D01*
X108843984Y-101150500D01*
X108956016Y-101150500D01*
X108956018Y-101150500D01*
X109064237Y-101121503D01*
X109161263Y-101065485D01*
X109240485Y-100986263D01*
X109268481Y-100937773D01*
X111110845Y-100937773D01*
X111110845Y-101049809D01*
X111139842Y-101158028D01*
X111195860Y-101255054D01*
X111275082Y-101334276D01*
X111372108Y-101390294D01*
X111480327Y-101419291D01*
X111480329Y-101419291D01*
X111592361Y-101419291D01*
X111592363Y-101419291D01*
X111700582Y-101390294D01*
X111797608Y-101334276D01*
X111876830Y-101255054D01*
X111932848Y-101158028D01*
X111961845Y-101049809D01*
X111961845Y-100937773D01*
X111932848Y-100829554D01*
X111876830Y-100732528D01*
X111797608Y-100653306D01*
X111700582Y-100597288D01*
X111688244Y-100593982D01*
X143324500Y-100593982D01*
X143324500Y-100706018D01*
X143352233Y-100809517D01*
X143353497Y-100814236D01*
X143353498Y-100814239D01*
X143362340Y-100829554D01*
X143409515Y-100911263D01*
X143488737Y-100990485D01*
X143585763Y-101046503D01*
X143693982Y-101075500D01*
X143693984Y-101075500D01*
X143806016Y-101075500D01*
X143806018Y-101075500D01*
X143914237Y-101046503D01*
X144011263Y-100990485D01*
X144090485Y-100911263D01*
X144146503Y-100814237D01*
X144175500Y-100706018D01*
X144175500Y-100593982D01*
X144146503Y-100485763D01*
X144090485Y-100388737D01*
X144011263Y-100309515D01*
X143932839Y-100264237D01*
X143914239Y-100253498D01*
X143914238Y-100253497D01*
X143914237Y-100253497D01*
X143806018Y-100224500D01*
X143693982Y-100224500D01*
X143585763Y-100253497D01*
X143585760Y-100253498D01*
X143488740Y-100309513D01*
X143488734Y-100309517D01*
X143409517Y-100388734D01*
X143409513Y-100388740D01*
X143353498Y-100485760D01*
X143353497Y-100485763D01*
X143324500Y-100593982D01*
X111688244Y-100593982D01*
X111592363Y-100568291D01*
X111480327Y-100568291D01*
X111372108Y-100597288D01*
X111372105Y-100597289D01*
X111275085Y-100653304D01*
X111275079Y-100653308D01*
X111195862Y-100732525D01*
X111195858Y-100732531D01*
X111139843Y-100829551D01*
X111139842Y-100829554D01*
X111110845Y-100937773D01*
X109268481Y-100937773D01*
X109296503Y-100889237D01*
X109325500Y-100781018D01*
X109325500Y-100668982D01*
X109296503Y-100560763D01*
X109240485Y-100463737D01*
X109161263Y-100384515D01*
X109064237Y-100328497D01*
X108956018Y-100299500D01*
X108843982Y-100299500D01*
X108735763Y-100328497D01*
X108735760Y-100328498D01*
X108638740Y-100384513D01*
X108638734Y-100384517D01*
X108559517Y-100463734D01*
X108559513Y-100463740D01*
X108503498Y-100560760D01*
X108503497Y-100560763D01*
X108474500Y-100668982D01*
X102895710Y-100668982D01*
X102838340Y-100530478D01*
X102808169Y-100457638D01*
X102808162Y-100457623D01*
X102683599Y-100241873D01*
X102609509Y-100145316D01*
X102557823Y-100077957D01*
X109440525Y-100077957D01*
X109440525Y-100189993D01*
X109463437Y-100275500D01*
X109469522Y-100298211D01*
X109469523Y-100298214D01*
X109476047Y-100309513D01*
X109525540Y-100395238D01*
X109604762Y-100474460D01*
X109701788Y-100530478D01*
X109810007Y-100559475D01*
X109810009Y-100559475D01*
X109922041Y-100559475D01*
X109922043Y-100559475D01*
X110030262Y-100530478D01*
X110127288Y-100474460D01*
X110206510Y-100395238D01*
X110262528Y-100298212D01*
X110291525Y-100189993D01*
X110291525Y-100077957D01*
X110282421Y-100043982D01*
X138474500Y-100043982D01*
X138474500Y-100156018D01*
X138503497Y-100264237D01*
X138559515Y-100361263D01*
X138638737Y-100440485D01*
X138735763Y-100496503D01*
X138843982Y-100525500D01*
X138843984Y-100525500D01*
X138956016Y-100525500D01*
X138956018Y-100525500D01*
X139064237Y-100496503D01*
X139161263Y-100440485D01*
X139240485Y-100361263D01*
X139296503Y-100264237D01*
X139312322Y-100205195D01*
X139348685Y-100145538D01*
X139411531Y-100115008D01*
X139464188Y-100117516D01*
X139493982Y-100125500D01*
X139493984Y-100125500D01*
X139606016Y-100125500D01*
X139606018Y-100125500D01*
X139714237Y-100096503D01*
X139811263Y-100040485D01*
X139890485Y-99961263D01*
X139946503Y-99864237D01*
X139965328Y-99793982D01*
X145674500Y-99793982D01*
X145674500Y-99906018D01*
X145703497Y-100014237D01*
X145759515Y-100111263D01*
X145838737Y-100190485D01*
X145935763Y-100246503D01*
X146043982Y-100275500D01*
X146043984Y-100275500D01*
X146156016Y-100275500D01*
X146156018Y-100275500D01*
X146264237Y-100246503D01*
X146361263Y-100190485D01*
X146440485Y-100111263D01*
X146496503Y-100014237D01*
X146525500Y-99906018D01*
X146525500Y-99793982D01*
X146496503Y-99685763D01*
X146440485Y-99588737D01*
X146361263Y-99509515D01*
X146296579Y-99472169D01*
X146264239Y-99453498D01*
X146264238Y-99453497D01*
X146264237Y-99453497D01*
X146156018Y-99424500D01*
X146043982Y-99424500D01*
X145935763Y-99453497D01*
X145935760Y-99453498D01*
X145838740Y-99509513D01*
X145838734Y-99509517D01*
X145759517Y-99588734D01*
X145759513Y-99588740D01*
X145703498Y-99685760D01*
X145703497Y-99685763D01*
X145674500Y-99793982D01*
X139965328Y-99793982D01*
X139975500Y-99756018D01*
X139975500Y-99643982D01*
X139960637Y-99588514D01*
X139959922Y-99575730D01*
X139965076Y-99553683D01*
X139965615Y-99531044D01*
X139972879Y-99520310D01*
X139975829Y-99507695D01*
X139992083Y-99491935D01*
X140004777Y-99473181D01*
X140021720Y-99461416D01*
X140061263Y-99438587D01*
X140140485Y-99359365D01*
X140196503Y-99262339D01*
X140225500Y-99154120D01*
X140225500Y-99042084D01*
X140196503Y-98933865D01*
X140140485Y-98836839D01*
X140061263Y-98757617D01*
X139964237Y-98701599D01*
X139856018Y-98672602D01*
X139743982Y-98672602D01*
X139635763Y-98701599D01*
X139635760Y-98701600D01*
X139538740Y-98757615D01*
X139538734Y-98757619D01*
X139459517Y-98836836D01*
X139459513Y-98836842D01*
X139403498Y-98933862D01*
X139403497Y-98933865D01*
X139374500Y-99042084D01*
X139374500Y-99154119D01*
X139386046Y-99197209D01*
X139384383Y-99267058D01*
X139345220Y-99324921D01*
X139328273Y-99336688D01*
X139288740Y-99359513D01*
X139288734Y-99359517D01*
X139209517Y-99438734D01*
X139209513Y-99438740D01*
X139153498Y-99535760D01*
X139153497Y-99535761D01*
X139148695Y-99553683D01*
X139138473Y-99591836D01*
X139137678Y-99594802D01*
X139101313Y-99654462D01*
X139038466Y-99684991D01*
X138985811Y-99682483D01*
X138956018Y-99674500D01*
X138843982Y-99674500D01*
X138735763Y-99703497D01*
X138735760Y-99703498D01*
X138638740Y-99759513D01*
X138638734Y-99759517D01*
X138559517Y-99838734D01*
X138559513Y-99838740D01*
X138503498Y-99935760D01*
X138503497Y-99935763D01*
X138474500Y-100043982D01*
X110282421Y-100043982D01*
X110262528Y-99969738D01*
X110206510Y-99872712D01*
X110127288Y-99793490D01*
X110030262Y-99737472D01*
X109922043Y-99708475D01*
X109810007Y-99708475D01*
X109701788Y-99737472D01*
X109701785Y-99737473D01*
X109604765Y-99793488D01*
X109604759Y-99793492D01*
X109525542Y-99872709D01*
X109525538Y-99872715D01*
X109469523Y-99969735D01*
X109469523Y-99969736D01*
X109469522Y-99969738D01*
X109440525Y-100077957D01*
X102557823Y-100077957D01*
X102531939Y-100044225D01*
X102531933Y-100044218D01*
X102355781Y-99868066D01*
X102355774Y-99868060D01*
X102158126Y-99716400D01*
X101942376Y-99591837D01*
X101942361Y-99591830D01*
X101712207Y-99496498D01*
X101551729Y-99453498D01*
X101471565Y-99432018D01*
X101471564Y-99432017D01*
X101471561Y-99432017D01*
X101224575Y-99399501D01*
X101224570Y-99399500D01*
X101224565Y-99399500D01*
X100975435Y-99399500D01*
X100975429Y-99399500D01*
X100975424Y-99399501D01*
X100728438Y-99432017D01*
X100487792Y-99496498D01*
X100257638Y-99591830D01*
X100257623Y-99591837D01*
X100041873Y-99716400D01*
X99844225Y-99868060D01*
X99844218Y-99868066D01*
X99668066Y-100044218D01*
X99668060Y-100044225D01*
X99516400Y-100241873D01*
X99391837Y-100457623D01*
X99391830Y-100457638D01*
X99296498Y-100687792D01*
X99232017Y-100928438D01*
X99199501Y-101175424D01*
X99199500Y-101175441D01*
X85200500Y-101175441D01*
X85200500Y-99024500D01*
X85220185Y-98957461D01*
X85272989Y-98911706D01*
X85324500Y-98900500D01*
X92646496Y-98900500D01*
X92713535Y-98920185D01*
X92759290Y-98972989D01*
X92769234Y-99042147D01*
X92761199Y-99071432D01*
X92749500Y-99130247D01*
X92749500Y-100869752D01*
X92761131Y-100928229D01*
X92761132Y-100928230D01*
X92805447Y-100994552D01*
X92871769Y-101038867D01*
X92871770Y-101038868D01*
X92930247Y-101050499D01*
X92930250Y-101050500D01*
X92930252Y-101050500D01*
X94669750Y-101050500D01*
X94669751Y-101050499D01*
X94670554Y-101050339D01*
X94673477Y-101049759D01*
X94728229Y-101038868D01*
X94728229Y-101038867D01*
X94728231Y-101038867D01*
X94794552Y-100994552D01*
X94838867Y-100928231D01*
X94838867Y-100928229D01*
X94838868Y-100928229D01*
X94850499Y-100869752D01*
X94850500Y-100869750D01*
X94850500Y-99130249D01*
X94850499Y-99130247D01*
X94836485Y-99059790D01*
X94837612Y-99059565D01*
X94831473Y-99002489D01*
X94862745Y-98940009D01*
X94922832Y-98904353D01*
X94953504Y-98900500D01*
X97333108Y-98900500D01*
X97373039Y-98895651D01*
X97597376Y-98868412D01*
X97855852Y-98804703D01*
X98104764Y-98710303D01*
X98340483Y-98586589D01*
X98559570Y-98435363D01*
X98719156Y-98293982D01*
X144474500Y-98293982D01*
X144474500Y-98406018D01*
X144503497Y-98514237D01*
X144559515Y-98611263D01*
X144638737Y-98690485D01*
X144735763Y-98746503D01*
X144843982Y-98775500D01*
X144843984Y-98775500D01*
X144956016Y-98775500D01*
X144956018Y-98775500D01*
X145064237Y-98746503D01*
X145161263Y-98690485D01*
X145240485Y-98611263D01*
X145296503Y-98514237D01*
X145325500Y-98406018D01*
X145325500Y-98293982D01*
X145296503Y-98185763D01*
X145240485Y-98088737D01*
X145161263Y-98009515D01*
X145064237Y-97953497D01*
X144956018Y-97924500D01*
X144843982Y-97924500D01*
X144735763Y-97953497D01*
X144735760Y-97953498D01*
X144638740Y-98009513D01*
X144638734Y-98009517D01*
X144559517Y-98088734D01*
X144559513Y-98088740D01*
X144503498Y-98185760D01*
X144503497Y-98185763D01*
X144474500Y-98293982D01*
X98719156Y-98293982D01*
X98758828Y-98258836D01*
X98763036Y-98254087D01*
X98780739Y-98234103D01*
X98807740Y-98203627D01*
X98807741Y-98203625D01*
X98935363Y-98059570D01*
X99086589Y-97840483D01*
X99210303Y-97604764D01*
X99304703Y-97355852D01*
X99344393Y-97194823D01*
X99379550Y-97134444D01*
X99441769Y-97102656D01*
X99464790Y-97100500D01*
X112724590Y-97100500D01*
X112791629Y-97120185D01*
G37*
%TD.AperFunction*%
%TD*%
M02*
