%TF.GenerationSoftware,KiCad,Pcbnew,9.0.0*%
%TF.CreationDate,2026-01-05T19:47:58-08:00*%
%TF.ProjectId,ref_mic,7265665f-6d69-4632-9e6b-696361645f70,rev?*%
%TF.SameCoordinates,Original*%
%TF.FileFunction,Soldermask,Top*%
%TF.FilePolarity,Negative*%
%FSLAX46Y46*%
G04 Gerber Fmt 4.6, Leading zero omitted, Abs format (unit mm)*
G04 Created by KiCad (PCBNEW 9.0.0) date 2026-01-05 19:47:58*
%MOMM*%
%LPD*%
G01*
G04 APERTURE LIST*
G04 APERTURE END LIST*
G36*
X108418685Y-101757969D02*
G01*
X108427358Y-101761798D01*
X108434925Y-101762901D01*
X108482223Y-101786023D01*
X108519541Y-101802501D01*
X108522996Y-101805956D01*
X108523920Y-101806408D01*
X108593591Y-101876079D01*
X108594042Y-101877002D01*
X108597499Y-101880459D01*
X108613978Y-101917782D01*
X108637098Y-101965073D01*
X108638200Y-101972639D01*
X108642031Y-101981315D01*
X108650000Y-102050000D01*
X108650000Y-104150000D01*
X108642031Y-104218685D01*
X108638199Y-104227361D01*
X108637098Y-104234925D01*
X108613985Y-104282202D01*
X108597499Y-104319541D01*
X108594041Y-104322998D01*
X108593591Y-104323920D01*
X108523920Y-104393591D01*
X108522998Y-104394041D01*
X108519541Y-104397499D01*
X108482207Y-104413983D01*
X108434926Y-104437098D01*
X108427361Y-104438200D01*
X108418685Y-104442031D01*
X108350000Y-104450000D01*
X107250000Y-104450000D01*
X107181315Y-104442031D01*
X107172638Y-104438200D01*
X107165074Y-104437098D01*
X107117787Y-104413981D01*
X107080459Y-104397499D01*
X107077002Y-104394042D01*
X107076079Y-104393591D01*
X107006408Y-104323920D01*
X107005956Y-104322996D01*
X107002501Y-104319541D01*
X106986025Y-104282228D01*
X106962901Y-104234926D01*
X106961798Y-104227357D01*
X106957969Y-104218685D01*
X106950000Y-104150000D01*
X106950000Y-102050000D01*
X106957969Y-101981315D01*
X106961798Y-101972642D01*
X106962901Y-101965074D01*
X106986028Y-101917766D01*
X107002501Y-101880459D01*
X107005955Y-101877004D01*
X107006408Y-101876079D01*
X107076079Y-101806408D01*
X107077004Y-101805955D01*
X107080459Y-101802501D01*
X107117761Y-101786030D01*
X107165073Y-101762901D01*
X107172642Y-101761798D01*
X107181315Y-101757969D01*
X107250000Y-101750000D01*
X108350000Y-101750000D01*
X108418685Y-101757969D01*
G37*
G36*
X113218685Y-101757969D02*
G01*
X113227358Y-101761798D01*
X113234925Y-101762901D01*
X113282223Y-101786023D01*
X113319541Y-101802501D01*
X113322996Y-101805956D01*
X113323920Y-101806408D01*
X113393591Y-101876079D01*
X113394042Y-101877002D01*
X113397499Y-101880459D01*
X113413978Y-101917782D01*
X113437098Y-101965073D01*
X113438200Y-101972639D01*
X113442031Y-101981315D01*
X113450000Y-102050000D01*
X113450000Y-104150000D01*
X113442031Y-104218685D01*
X113438199Y-104227361D01*
X113437098Y-104234925D01*
X113413985Y-104282202D01*
X113397499Y-104319541D01*
X113394041Y-104322998D01*
X113393591Y-104323920D01*
X113323920Y-104393591D01*
X113322998Y-104394041D01*
X113319541Y-104397499D01*
X113282207Y-104413983D01*
X113234926Y-104437098D01*
X113227361Y-104438200D01*
X113218685Y-104442031D01*
X113150000Y-104450000D01*
X112050000Y-104450000D01*
X111981315Y-104442031D01*
X111972638Y-104438200D01*
X111965074Y-104437098D01*
X111917787Y-104413981D01*
X111880459Y-104397499D01*
X111877002Y-104394042D01*
X111876079Y-104393591D01*
X111806408Y-104323920D01*
X111805956Y-104322996D01*
X111802501Y-104319541D01*
X111786025Y-104282228D01*
X111762901Y-104234926D01*
X111761798Y-104227357D01*
X111757969Y-104218685D01*
X111750000Y-104150000D01*
X111750000Y-102050000D01*
X111757969Y-101981315D01*
X111761798Y-101972642D01*
X111762901Y-101965074D01*
X111786028Y-101917766D01*
X111802501Y-101880459D01*
X111805955Y-101877004D01*
X111806408Y-101876079D01*
X111876079Y-101806408D01*
X111877004Y-101805955D01*
X111880459Y-101802501D01*
X111917761Y-101786030D01*
X111965073Y-101762901D01*
X111972642Y-101761798D01*
X111981315Y-101757969D01*
X112050000Y-101750000D01*
X113150000Y-101750000D01*
X113218685Y-101757969D01*
G37*
G36*
X118018685Y-101757969D02*
G01*
X118027358Y-101761798D01*
X118034925Y-101762901D01*
X118082223Y-101786023D01*
X118119541Y-101802501D01*
X118122996Y-101805956D01*
X118123920Y-101806408D01*
X118193591Y-101876079D01*
X118194042Y-101877002D01*
X118197499Y-101880459D01*
X118213978Y-101917782D01*
X118237098Y-101965073D01*
X118238200Y-101972639D01*
X118242031Y-101981315D01*
X118250000Y-102050000D01*
X118250000Y-104150000D01*
X118242031Y-104218685D01*
X118238199Y-104227361D01*
X118237098Y-104234925D01*
X118213985Y-104282202D01*
X118197499Y-104319541D01*
X118194041Y-104322998D01*
X118193591Y-104323920D01*
X118123920Y-104393591D01*
X118122998Y-104394041D01*
X118119541Y-104397499D01*
X118082207Y-104413983D01*
X118034926Y-104437098D01*
X118027361Y-104438200D01*
X118018685Y-104442031D01*
X117950000Y-104450000D01*
X116850000Y-104450000D01*
X116781315Y-104442031D01*
X116772638Y-104438200D01*
X116765074Y-104437098D01*
X116717787Y-104413981D01*
X116680459Y-104397499D01*
X116677002Y-104394042D01*
X116676079Y-104393591D01*
X116606408Y-104323920D01*
X116605956Y-104322996D01*
X116602501Y-104319541D01*
X116586025Y-104282228D01*
X116562901Y-104234926D01*
X116561798Y-104227357D01*
X116557969Y-104218685D01*
X116550000Y-104150000D01*
X116550000Y-102050000D01*
X116557969Y-101981315D01*
X116561798Y-101972642D01*
X116562901Y-101965074D01*
X116586028Y-101917766D01*
X116602501Y-101880459D01*
X116605955Y-101877004D01*
X116606408Y-101876079D01*
X116676079Y-101806408D01*
X116677004Y-101805955D01*
X116680459Y-101802501D01*
X116717761Y-101786030D01*
X116765073Y-101762901D01*
X116772642Y-101761798D01*
X116781315Y-101757969D01*
X116850000Y-101750000D01*
X117950000Y-101750000D01*
X118018685Y-101757969D01*
G37*
G36*
X141176034Y-102753407D02*
G01*
X141192255Y-102764246D01*
X141203094Y-102780467D01*
X141206900Y-102799601D01*
X141206900Y-104196601D01*
X141203094Y-104215735D01*
X141192255Y-104231956D01*
X141176034Y-104242795D01*
X141156900Y-104246601D01*
X139963100Y-104246601D01*
X139943966Y-104242795D01*
X139927745Y-104231956D01*
X139916906Y-104215735D01*
X139913100Y-104196601D01*
X139913100Y-102799601D01*
X139916906Y-102780467D01*
X139927745Y-102764246D01*
X139943966Y-102753407D01*
X139963100Y-102749601D01*
X141156900Y-102749601D01*
X141176034Y-102753407D01*
G37*
G36*
X146256034Y-102753407D02*
G01*
X146272255Y-102764246D01*
X146283094Y-102780467D01*
X146286900Y-102799601D01*
X146286900Y-104196601D01*
X146283094Y-104215735D01*
X146272255Y-104231956D01*
X146256034Y-104242795D01*
X146236900Y-104246601D01*
X145043100Y-104246601D01*
X145023966Y-104242795D01*
X145007745Y-104231956D01*
X144996906Y-104215735D01*
X144993100Y-104196601D01*
X144993100Y-102799601D01*
X144996906Y-102780467D01*
X145007745Y-102764246D01*
X145023966Y-102753407D01*
X145043100Y-102749601D01*
X146236900Y-102749601D01*
X146256034Y-102753407D01*
G37*
G36*
X151581409Y-102101275D02*
G01*
X151644958Y-102109641D01*
X151660943Y-102117095D01*
X151680238Y-102120933D01*
X151705792Y-102138008D01*
X151732290Y-102150364D01*
X151748412Y-102166486D01*
X151769454Y-102180546D01*
X151783513Y-102201587D01*
X151799635Y-102217709D01*
X151811990Y-102244204D01*
X151829067Y-102269762D01*
X151832905Y-102289058D01*
X151840358Y-102305041D01*
X151848722Y-102368577D01*
X151850000Y-102375000D01*
X151850000Y-103425000D01*
X151848722Y-103431424D01*
X151840358Y-103494958D01*
X151832905Y-103510939D01*
X151829067Y-103530238D01*
X151811988Y-103555797D01*
X151799635Y-103582290D01*
X151783516Y-103598408D01*
X151769454Y-103619454D01*
X151748408Y-103633516D01*
X151732290Y-103649635D01*
X151705797Y-103661988D01*
X151680238Y-103679067D01*
X151660939Y-103682905D01*
X151644958Y-103690358D01*
X151581424Y-103698722D01*
X151575000Y-103700000D01*
X148025000Y-103700000D01*
X148018577Y-103698722D01*
X147955041Y-103690358D01*
X147939058Y-103682905D01*
X147919762Y-103679067D01*
X147894204Y-103661990D01*
X147867709Y-103649635D01*
X147851587Y-103633513D01*
X147830546Y-103619454D01*
X147816486Y-103598412D01*
X147800364Y-103582290D01*
X147788008Y-103555792D01*
X147770933Y-103530238D01*
X147767095Y-103510943D01*
X147759641Y-103494958D01*
X147751275Y-103431409D01*
X147750000Y-103425000D01*
X147750000Y-102375000D01*
X147751274Y-102368592D01*
X147759641Y-102305041D01*
X147767095Y-102289054D01*
X147770933Y-102269762D01*
X147788006Y-102244209D01*
X147800364Y-102217709D01*
X147816488Y-102201584D01*
X147830546Y-102180546D01*
X147851584Y-102166488D01*
X147867709Y-102150364D01*
X147894209Y-102138006D01*
X147919762Y-102120933D01*
X147939054Y-102117095D01*
X147955041Y-102109641D01*
X148018592Y-102101274D01*
X148025000Y-102100000D01*
X151575000Y-102100000D01*
X151581409Y-102101275D01*
G37*
G36*
X94061256Y-101678754D02*
G01*
X94224257Y-101746271D01*
X94370954Y-101844291D01*
X94495709Y-101969046D01*
X94593729Y-102115743D01*
X94661246Y-102278744D01*
X94695666Y-102451785D01*
X94695666Y-102628215D01*
X94661246Y-102801256D01*
X94593729Y-102964257D01*
X94495709Y-103110954D01*
X94370954Y-103235709D01*
X94224257Y-103333729D01*
X94061256Y-103401246D01*
X93888215Y-103435666D01*
X93711785Y-103435666D01*
X93538744Y-103401246D01*
X93375743Y-103333729D01*
X93229046Y-103235709D01*
X93104291Y-103110954D01*
X93006271Y-102964257D01*
X92938754Y-102801256D01*
X92904334Y-102628215D01*
X92904334Y-102451785D01*
X92938754Y-102278744D01*
X93006271Y-102115743D01*
X93104291Y-101969046D01*
X93229046Y-101844291D01*
X93375743Y-101746271D01*
X93538744Y-101678754D01*
X93711785Y-101644334D01*
X93888215Y-101644334D01*
X94061256Y-101678754D01*
G37*
G36*
X97269134Y-101603806D02*
G01*
X97285355Y-101614645D01*
X97296194Y-101630866D01*
X97300000Y-101650000D01*
X97300000Y-103350000D01*
X97296194Y-103369134D01*
X97285355Y-103385355D01*
X97269134Y-103396194D01*
X97250000Y-103400000D01*
X95550000Y-103400000D01*
X95530866Y-103396194D01*
X95514645Y-103385355D01*
X95503806Y-103369134D01*
X95500000Y-103350000D01*
X95500000Y-101650000D01*
X95503806Y-101630866D01*
X95514645Y-101614645D01*
X95530866Y-101603806D01*
X95550000Y-101600000D01*
X97250000Y-101600000D01*
X97269134Y-101603806D01*
G37*
G36*
X123368685Y-100457969D02*
G01*
X123377358Y-100461798D01*
X123384925Y-100462901D01*
X123432223Y-100486023D01*
X123469541Y-100502501D01*
X123472996Y-100505956D01*
X123473920Y-100506408D01*
X123543591Y-100576079D01*
X123544042Y-100577002D01*
X123547499Y-100580459D01*
X123563978Y-100617782D01*
X123587098Y-100665073D01*
X123588200Y-100672639D01*
X123592031Y-100681315D01*
X123600000Y-100750000D01*
X123600000Y-101850000D01*
X123592031Y-101918685D01*
X123588199Y-101927361D01*
X123587098Y-101934925D01*
X123563985Y-101982202D01*
X123547499Y-102019541D01*
X123544041Y-102022998D01*
X123543591Y-102023920D01*
X123473920Y-102093591D01*
X123472998Y-102094041D01*
X123469541Y-102097499D01*
X123432207Y-102113983D01*
X123384926Y-102137098D01*
X123377361Y-102138200D01*
X123368685Y-102142031D01*
X123300000Y-102150000D01*
X120300000Y-102150000D01*
X120231315Y-102142031D01*
X120222638Y-102138200D01*
X120215074Y-102137098D01*
X120167787Y-102113981D01*
X120130459Y-102097499D01*
X120127002Y-102094042D01*
X120126079Y-102093591D01*
X120056408Y-102023920D01*
X120055956Y-102022996D01*
X120052501Y-102019541D01*
X120036025Y-101982228D01*
X120012901Y-101934926D01*
X120011798Y-101927357D01*
X120007969Y-101918685D01*
X120000000Y-101850000D01*
X120000000Y-100750000D01*
X120007969Y-100681315D01*
X120011798Y-100672642D01*
X120012901Y-100665074D01*
X120036028Y-100617766D01*
X120052501Y-100580459D01*
X120055955Y-100577004D01*
X120056408Y-100576079D01*
X120126079Y-100506408D01*
X120127004Y-100505955D01*
X120130459Y-100502501D01*
X120167761Y-100486030D01*
X120215073Y-100462901D01*
X120222642Y-100461798D01*
X120231315Y-100457969D01*
X120300000Y-100450000D01*
X123300000Y-100450000D01*
X123368685Y-100457969D01*
G37*
G36*
X128768685Y-100457969D02*
G01*
X128777358Y-100461798D01*
X128784925Y-100462901D01*
X128832223Y-100486023D01*
X128869541Y-100502501D01*
X128872996Y-100505956D01*
X128873920Y-100506408D01*
X128943591Y-100576079D01*
X128944042Y-100577002D01*
X128947499Y-100580459D01*
X128963978Y-100617782D01*
X128987098Y-100665073D01*
X128988200Y-100672639D01*
X128992031Y-100681315D01*
X129000000Y-100750000D01*
X129000000Y-101850000D01*
X128992031Y-101918685D01*
X128988199Y-101927361D01*
X128987098Y-101934925D01*
X128963985Y-101982202D01*
X128947499Y-102019541D01*
X128944041Y-102022998D01*
X128943591Y-102023920D01*
X128873920Y-102093591D01*
X128872998Y-102094041D01*
X128869541Y-102097499D01*
X128832207Y-102113983D01*
X128784926Y-102137098D01*
X128777361Y-102138200D01*
X128768685Y-102142031D01*
X128700000Y-102150000D01*
X125700000Y-102150000D01*
X125631315Y-102142031D01*
X125622638Y-102138200D01*
X125615074Y-102137098D01*
X125567787Y-102113981D01*
X125530459Y-102097499D01*
X125527002Y-102094042D01*
X125526079Y-102093591D01*
X125456408Y-102023920D01*
X125455956Y-102022996D01*
X125452501Y-102019541D01*
X125436025Y-101982228D01*
X125412901Y-101934926D01*
X125411798Y-101927357D01*
X125407969Y-101918685D01*
X125400000Y-101850000D01*
X125400000Y-100750000D01*
X125407969Y-100681315D01*
X125411798Y-100672642D01*
X125412901Y-100665074D01*
X125436028Y-100617766D01*
X125452501Y-100580459D01*
X125455955Y-100577004D01*
X125456408Y-100576079D01*
X125526079Y-100506408D01*
X125527004Y-100505955D01*
X125530459Y-100502501D01*
X125567761Y-100486030D01*
X125615073Y-100462901D01*
X125622642Y-100461798D01*
X125631315Y-100457969D01*
X125700000Y-100450000D01*
X128700000Y-100450000D01*
X128768685Y-100457969D01*
G37*
G36*
X132768685Y-100457969D02*
G01*
X132777358Y-100461798D01*
X132784925Y-100462901D01*
X132832223Y-100486023D01*
X132869541Y-100502501D01*
X132872996Y-100505956D01*
X132873920Y-100506408D01*
X132943591Y-100576079D01*
X132944042Y-100577002D01*
X132947499Y-100580459D01*
X132963978Y-100617782D01*
X132987098Y-100665073D01*
X132988200Y-100672639D01*
X132992031Y-100681315D01*
X133000000Y-100750000D01*
X133000000Y-101850000D01*
X132992031Y-101918685D01*
X132988199Y-101927361D01*
X132987098Y-101934925D01*
X132963985Y-101982202D01*
X132947499Y-102019541D01*
X132944041Y-102022998D01*
X132943591Y-102023920D01*
X132873920Y-102093591D01*
X132872998Y-102094041D01*
X132869541Y-102097499D01*
X132832207Y-102113983D01*
X132784926Y-102137098D01*
X132777361Y-102138200D01*
X132768685Y-102142031D01*
X132700000Y-102150000D01*
X129700000Y-102150000D01*
X129631315Y-102142031D01*
X129622638Y-102138200D01*
X129615074Y-102137098D01*
X129567787Y-102113981D01*
X129530459Y-102097499D01*
X129527002Y-102094042D01*
X129526079Y-102093591D01*
X129456408Y-102023920D01*
X129455956Y-102022996D01*
X129452501Y-102019541D01*
X129436025Y-101982228D01*
X129412901Y-101934926D01*
X129411798Y-101927357D01*
X129407969Y-101918685D01*
X129400000Y-101850000D01*
X129400000Y-100750000D01*
X129407969Y-100681315D01*
X129411798Y-100672642D01*
X129412901Y-100665074D01*
X129436028Y-100617766D01*
X129452501Y-100580459D01*
X129455955Y-100577004D01*
X129456408Y-100576079D01*
X129526079Y-100506408D01*
X129527004Y-100505955D01*
X129530459Y-100502501D01*
X129567761Y-100486030D01*
X129615073Y-100462901D01*
X129622642Y-100461798D01*
X129631315Y-100457969D01*
X129700000Y-100450000D01*
X132700000Y-100450000D01*
X132768685Y-100457969D01*
G37*
G36*
X138168685Y-100457969D02*
G01*
X138177358Y-100461798D01*
X138184925Y-100462901D01*
X138232223Y-100486023D01*
X138269541Y-100502501D01*
X138272996Y-100505956D01*
X138273920Y-100506408D01*
X138343591Y-100576079D01*
X138344042Y-100577002D01*
X138347499Y-100580459D01*
X138363978Y-100617782D01*
X138387098Y-100665073D01*
X138388200Y-100672639D01*
X138392031Y-100681315D01*
X138400000Y-100750000D01*
X138400000Y-101850000D01*
X138392031Y-101918685D01*
X138388199Y-101927361D01*
X138387098Y-101934925D01*
X138363985Y-101982202D01*
X138347499Y-102019541D01*
X138344041Y-102022998D01*
X138343591Y-102023920D01*
X138273920Y-102093591D01*
X138272998Y-102094041D01*
X138269541Y-102097499D01*
X138232207Y-102113983D01*
X138184926Y-102137098D01*
X138177361Y-102138200D01*
X138168685Y-102142031D01*
X138100000Y-102150000D01*
X135100000Y-102150000D01*
X135031315Y-102142031D01*
X135022638Y-102138200D01*
X135015074Y-102137098D01*
X134967787Y-102113981D01*
X134930459Y-102097499D01*
X134927002Y-102094042D01*
X134926079Y-102093591D01*
X134856408Y-102023920D01*
X134855956Y-102022996D01*
X134852501Y-102019541D01*
X134836025Y-101982228D01*
X134812901Y-101934926D01*
X134811798Y-101927357D01*
X134807969Y-101918685D01*
X134800000Y-101850000D01*
X134800000Y-100750000D01*
X134807969Y-100681315D01*
X134811798Y-100672642D01*
X134812901Y-100665074D01*
X134836028Y-100617766D01*
X134852501Y-100580459D01*
X134855955Y-100577004D01*
X134856408Y-100576079D01*
X134926079Y-100506408D01*
X134927004Y-100505955D01*
X134930459Y-100502501D01*
X134967761Y-100486030D01*
X135015073Y-100462901D01*
X135022642Y-100461798D01*
X135031315Y-100457969D01*
X135100000Y-100450000D01*
X138100000Y-100450000D01*
X138168685Y-100457969D01*
G37*
G36*
X139889239Y-100843142D02*
G01*
X140001035Y-100907687D01*
X140092315Y-100998967D01*
X140156860Y-101110763D01*
X140190271Y-101235455D01*
X140190271Y-101364545D01*
X140156860Y-101489237D01*
X140092315Y-101601033D01*
X140001035Y-101692313D01*
X139889239Y-101756858D01*
X139764547Y-101790269D01*
X139635457Y-101790269D01*
X139510765Y-101756858D01*
X139398969Y-101692313D01*
X139307689Y-101601033D01*
X139243144Y-101489237D01*
X139209733Y-101364545D01*
X139209733Y-101235455D01*
X139243144Y-101110763D01*
X139307689Y-100998967D01*
X139398969Y-100907687D01*
X139510765Y-100843142D01*
X139635457Y-100809731D01*
X139764547Y-100809731D01*
X139889239Y-100843142D01*
G37*
G36*
X146689235Y-100843142D02*
G01*
X146801031Y-100907687D01*
X146892311Y-100998967D01*
X146956856Y-101110763D01*
X146990267Y-101235455D01*
X146990267Y-101364545D01*
X146956856Y-101489237D01*
X146892311Y-101601033D01*
X146801031Y-101692313D01*
X146689235Y-101756858D01*
X146564543Y-101790269D01*
X146435453Y-101790269D01*
X146310761Y-101756858D01*
X146198965Y-101692313D01*
X146107685Y-101601033D01*
X146043140Y-101489237D01*
X146009729Y-101364545D01*
X146009729Y-101235455D01*
X146043140Y-101110763D01*
X146107685Y-100998967D01*
X146198965Y-100907687D01*
X146310761Y-100843142D01*
X146435453Y-100809731D01*
X146564543Y-100809731D01*
X146689235Y-100843142D01*
G37*
G36*
X94669134Y-99103806D02*
G01*
X94685355Y-99114645D01*
X94696194Y-99130866D01*
X94700000Y-99150000D01*
X94700000Y-100850000D01*
X94696194Y-100869134D01*
X94685355Y-100885355D01*
X94669134Y-100896194D01*
X94650000Y-100900000D01*
X92950000Y-100900000D01*
X92930866Y-100896194D01*
X92914645Y-100885355D01*
X92903806Y-100869134D01*
X92900000Y-100850000D01*
X92900000Y-99150000D01*
X92903806Y-99130866D01*
X92914645Y-99114645D01*
X92930866Y-99103806D01*
X92950000Y-99100000D01*
X94650000Y-99100000D01*
X94669134Y-99103806D01*
G37*
G36*
X108418685Y-98157969D02*
G01*
X108427358Y-98161798D01*
X108434925Y-98162901D01*
X108482223Y-98186023D01*
X108519541Y-98202501D01*
X108522996Y-98205956D01*
X108523920Y-98206408D01*
X108593591Y-98276079D01*
X108594042Y-98277002D01*
X108597499Y-98280459D01*
X108613978Y-98317782D01*
X108637098Y-98365073D01*
X108638200Y-98372639D01*
X108642031Y-98381315D01*
X108650000Y-98450000D01*
X108650000Y-100550000D01*
X108642031Y-100618685D01*
X108638199Y-100627361D01*
X108637098Y-100634925D01*
X108613985Y-100682202D01*
X108597499Y-100719541D01*
X108594041Y-100722998D01*
X108593591Y-100723920D01*
X108523920Y-100793591D01*
X108522998Y-100794041D01*
X108519541Y-100797499D01*
X108482207Y-100813983D01*
X108434926Y-100837098D01*
X108427361Y-100838200D01*
X108418685Y-100842031D01*
X108350000Y-100850000D01*
X107250000Y-100850000D01*
X107181315Y-100842031D01*
X107172638Y-100838200D01*
X107165074Y-100837098D01*
X107117787Y-100813981D01*
X107080459Y-100797499D01*
X107077002Y-100794042D01*
X107076079Y-100793591D01*
X107006408Y-100723920D01*
X107005956Y-100722996D01*
X107002501Y-100719541D01*
X106986025Y-100682228D01*
X106962901Y-100634926D01*
X106961798Y-100627357D01*
X106957969Y-100618685D01*
X106950000Y-100550000D01*
X106950000Y-98450000D01*
X106957969Y-98381315D01*
X106961798Y-98372642D01*
X106962901Y-98365074D01*
X106986028Y-98317766D01*
X107002501Y-98280459D01*
X107005955Y-98277004D01*
X107006408Y-98276079D01*
X107076079Y-98206408D01*
X107077004Y-98205955D01*
X107080459Y-98202501D01*
X107117761Y-98186030D01*
X107165073Y-98162901D01*
X107172642Y-98161798D01*
X107181315Y-98157969D01*
X107250000Y-98150000D01*
X108350000Y-98150000D01*
X108418685Y-98157969D01*
G37*
G36*
X113218685Y-98157969D02*
G01*
X113227358Y-98161798D01*
X113234925Y-98162901D01*
X113282223Y-98186023D01*
X113319541Y-98202501D01*
X113322996Y-98205956D01*
X113323920Y-98206408D01*
X113393591Y-98276079D01*
X113394042Y-98277002D01*
X113397499Y-98280459D01*
X113413978Y-98317782D01*
X113437098Y-98365073D01*
X113438200Y-98372639D01*
X113442031Y-98381315D01*
X113450000Y-98450000D01*
X113450000Y-100550000D01*
X113442031Y-100618685D01*
X113438199Y-100627361D01*
X113437098Y-100634925D01*
X113413985Y-100682202D01*
X113397499Y-100719541D01*
X113394041Y-100722998D01*
X113393591Y-100723920D01*
X113323920Y-100793591D01*
X113322998Y-100794041D01*
X113319541Y-100797499D01*
X113282207Y-100813983D01*
X113234926Y-100837098D01*
X113227361Y-100838200D01*
X113218685Y-100842031D01*
X113150000Y-100850000D01*
X112050000Y-100850000D01*
X111981315Y-100842031D01*
X111972638Y-100838200D01*
X111965074Y-100837098D01*
X111917787Y-100813981D01*
X111880459Y-100797499D01*
X111877002Y-100794042D01*
X111876079Y-100793591D01*
X111806408Y-100723920D01*
X111805956Y-100722996D01*
X111802501Y-100719541D01*
X111786025Y-100682228D01*
X111762901Y-100634926D01*
X111761798Y-100627357D01*
X111757969Y-100618685D01*
X111750000Y-100550000D01*
X111750000Y-98450000D01*
X111757969Y-98381315D01*
X111761798Y-98372642D01*
X111762901Y-98365074D01*
X111786028Y-98317766D01*
X111802501Y-98280459D01*
X111805955Y-98277004D01*
X111806408Y-98276079D01*
X111876079Y-98206408D01*
X111877004Y-98205955D01*
X111880459Y-98202501D01*
X111917761Y-98186030D01*
X111965073Y-98162901D01*
X111972642Y-98161798D01*
X111981315Y-98157969D01*
X112050000Y-98150000D01*
X113150000Y-98150000D01*
X113218685Y-98157969D01*
G37*
G36*
X118018685Y-98157969D02*
G01*
X118027358Y-98161798D01*
X118034925Y-98162901D01*
X118082223Y-98186023D01*
X118119541Y-98202501D01*
X118122996Y-98205956D01*
X118123920Y-98206408D01*
X118193591Y-98276079D01*
X118194042Y-98277002D01*
X118197499Y-98280459D01*
X118213978Y-98317782D01*
X118237098Y-98365073D01*
X118238200Y-98372639D01*
X118242031Y-98381315D01*
X118250000Y-98450000D01*
X118250000Y-100550000D01*
X118242031Y-100618685D01*
X118238199Y-100627361D01*
X118237098Y-100634925D01*
X118213985Y-100682202D01*
X118197499Y-100719541D01*
X118194041Y-100722998D01*
X118193591Y-100723920D01*
X118123920Y-100793591D01*
X118122998Y-100794041D01*
X118119541Y-100797499D01*
X118082207Y-100813983D01*
X118034926Y-100837098D01*
X118027361Y-100838200D01*
X118018685Y-100842031D01*
X117950000Y-100850000D01*
X116850000Y-100850000D01*
X116781315Y-100842031D01*
X116772638Y-100838200D01*
X116765074Y-100837098D01*
X116717787Y-100813981D01*
X116680459Y-100797499D01*
X116677002Y-100794042D01*
X116676079Y-100793591D01*
X116606408Y-100723920D01*
X116605956Y-100722996D01*
X116602501Y-100719541D01*
X116586025Y-100682228D01*
X116562901Y-100634926D01*
X116561798Y-100627357D01*
X116557969Y-100618685D01*
X116550000Y-100550000D01*
X116550000Y-98450000D01*
X116557969Y-98381315D01*
X116561798Y-98372642D01*
X116562901Y-98365074D01*
X116586028Y-98317766D01*
X116602501Y-98280459D01*
X116605955Y-98277004D01*
X116606408Y-98276079D01*
X116676079Y-98206408D01*
X116677004Y-98205955D01*
X116680459Y-98202501D01*
X116717761Y-98186030D01*
X116765073Y-98162901D01*
X116772642Y-98161798D01*
X116781315Y-98157969D01*
X116850000Y-98150000D01*
X117950000Y-98150000D01*
X118018685Y-98157969D01*
G37*
G36*
X97155796Y-100204082D02*
G01*
X97215815Y-100244185D01*
X97255918Y-100304204D01*
X97270000Y-100375000D01*
X97270000Y-100645000D01*
X97255918Y-100715796D01*
X97215815Y-100775815D01*
X97155796Y-100815918D01*
X97085000Y-100830000D01*
X96715000Y-100830000D01*
X96644204Y-100815918D01*
X96584185Y-100775815D01*
X96544082Y-100715796D01*
X96530000Y-100645000D01*
X96530000Y-100375000D01*
X96544082Y-100304204D01*
X96584185Y-100244185D01*
X96644204Y-100204082D01*
X96715000Y-100190000D01*
X97085000Y-100190000D01*
X97155796Y-100204082D01*
G37*
G36*
X151581409Y-98901275D02*
G01*
X151644958Y-98909641D01*
X151660943Y-98917095D01*
X151680238Y-98920933D01*
X151705792Y-98938008D01*
X151732290Y-98950364D01*
X151748412Y-98966486D01*
X151769454Y-98980546D01*
X151783513Y-99001587D01*
X151799635Y-99017709D01*
X151811990Y-99044204D01*
X151829067Y-99069762D01*
X151832905Y-99089058D01*
X151840358Y-99105041D01*
X151848722Y-99168577D01*
X151850000Y-99175000D01*
X151850000Y-100225000D01*
X151848722Y-100231424D01*
X151840358Y-100294958D01*
X151832905Y-100310939D01*
X151829067Y-100330238D01*
X151811988Y-100355797D01*
X151799635Y-100382290D01*
X151783516Y-100398408D01*
X151769454Y-100419454D01*
X151748408Y-100433516D01*
X151732290Y-100449635D01*
X151705797Y-100461988D01*
X151680238Y-100479067D01*
X151660939Y-100482905D01*
X151644958Y-100490358D01*
X151581424Y-100498722D01*
X151575000Y-100500000D01*
X148025000Y-100500000D01*
X148018577Y-100498722D01*
X147955041Y-100490358D01*
X147939058Y-100482905D01*
X147919762Y-100479067D01*
X147894204Y-100461990D01*
X147867709Y-100449635D01*
X147851587Y-100433513D01*
X147830546Y-100419454D01*
X147816486Y-100398412D01*
X147800364Y-100382290D01*
X147788008Y-100355792D01*
X147770933Y-100330238D01*
X147767095Y-100310943D01*
X147759641Y-100294958D01*
X147751275Y-100231409D01*
X147750000Y-100225000D01*
X147750000Y-99175000D01*
X147751274Y-99168592D01*
X147759641Y-99105041D01*
X147767095Y-99089054D01*
X147770933Y-99069762D01*
X147788006Y-99044209D01*
X147800364Y-99017709D01*
X147816488Y-99001584D01*
X147830546Y-98980546D01*
X147851584Y-98966488D01*
X147867709Y-98950364D01*
X147894209Y-98938006D01*
X147919762Y-98920933D01*
X147939054Y-98917095D01*
X147955041Y-98909641D01*
X148018592Y-98901274D01*
X148025000Y-98900000D01*
X151575000Y-98900000D01*
X151581409Y-98901275D01*
G37*
G36*
X143716034Y-98353408D02*
G01*
X143732255Y-98364247D01*
X143743094Y-98380468D01*
X143746900Y-98399602D01*
X143746900Y-99796602D01*
X143743094Y-99815736D01*
X143732255Y-99831957D01*
X143716034Y-99842796D01*
X143696900Y-99846602D01*
X142503100Y-99846602D01*
X142483966Y-99842796D01*
X142467745Y-99831957D01*
X142456906Y-99815736D01*
X142453100Y-99796602D01*
X142453100Y-98399602D01*
X142456906Y-98380468D01*
X142467745Y-98364247D01*
X142483966Y-98353408D01*
X142503100Y-98349602D01*
X143696900Y-98349602D01*
X143716034Y-98353408D01*
G37*
G36*
X97155796Y-99184082D02*
G01*
X97215815Y-99224185D01*
X97255918Y-99284204D01*
X97270000Y-99355000D01*
X97270000Y-99625000D01*
X97255918Y-99695796D01*
X97215815Y-99755815D01*
X97155796Y-99795918D01*
X97085000Y-99810000D01*
X96715000Y-99810000D01*
X96644204Y-99795918D01*
X96584185Y-99755815D01*
X96544082Y-99695796D01*
X96530000Y-99625000D01*
X96530000Y-99355000D01*
X96544082Y-99284204D01*
X96584185Y-99224185D01*
X96644204Y-99184082D01*
X96715000Y-99170000D01*
X97085000Y-99170000D01*
X97155796Y-99184082D01*
G37*
M02*
